/* XPM */
static char *result[] = {
/* columns rows colors chars-per-pixel */
"64 64 171 2 ",
"   c #201810",
".  c #303038",
"X  c #581810",
"o  c #31550F",
"O  c #204018",
"+  c #386712",
"@  c #346812",
"#  c #3C6820",
"$  c #5D521F",
"%  c #605010",
"&  c #4F6517",
"*  c #4E6B15",
"=  c #557417",
"-  c #4E4E2C",
";  c #525129",
":  c #535B2E",
">  c #526A31",
",  c #646336",
"<  c #766733",
"1  c #766835",
"2  c #796D3D",
"3  c #981810",
"4  c #D82018",
"5  c #F81820",
"6  c #F83028",
"7  c #A07008",
"8  c #975D31",
"9  c #BD5D31",
"0  c #907D2D",
"q  c #976835",
"w  c #9C7E31",
"e  c #BD6634",
"r  c #BD6835",
"t  c #F06810",
"y  c #F64933",
"u  c #F85038",
"i  c #9B6F40",
"p  c #8D7C47",
"a  c #977447",
"s  c #3D960F",
"d  c #3A8214",
"f  c #439015",
"g  c #688714",
"h  c #778F17",
"j  c #7C9717",
"k  c #46AA0C",
"l  c #4AAB0E",
"z  c #4CB20C",
"x  c #50B50F",
"c  c #54B512",
"v  c #5AB512",
"b  c #5BBB12",
"n  c #66BE16",
"m  c #5E9B29",
"M  c #7D843C",
"N  c #699C33",
"B  c #779837",
"V  c #75AC2B",
"C  c #71A633",
"Z  c #5AD50F",
"A  c #5CDA0E",
"S  c #6BC416",
"D  c #72C618",
"F  c #69D617",
"G  c #62D811",
"H  c #6AD915",
"J  c #74D916",
"K  c #79D61B",
"L  c #6EE610",
"P  c #6DDB23",
"I  c #78EC2A",
"U  c #7E8740",
"Y  c #929E15",
"T  c #9A9811",
"R  c #A88519",
"E  c #A39818",
"W  c #9C8634",
"Q  c #9C8935",
"!  c #B99829",
"~  c #BF982D",
"^  c #85BA2F",
"/  c #90BE36",
"(  c #91B93A",
")  c #AEB331",
"_  c #81CF1C",
"`  c #87D41C",
"'  c #8CD61C",
"]  c #8EDA1D",
"[  c #92D71F",
"{  c #91DB1D",
"}  c #87EA1A",
"|  c #92E41A",
" . c #9DFB1E",
".. c #A1FD1E",
"X. c #90CF27",
"o. c #91CC2A",
"O. c #8DD622",
"+. c #8BDA22",
"@. c #90D424",
"#. c #92D920",
"$. c #98D62A",
"%. c #A4CC3C",
"&. c #A9DA38",
"*. c #B0DA3C",
"=. c #83E629",
"-. c #93E92F",
";. c #9DF320",
":. c #A3E923",
">. c #A4FA21",
",. c #A8F826",
"<. c #AFE03C",
"1. c #B6F538",
"2. c #818B46",
"3. c #818C49",
"4. c #8D9D4F",
"5. c #929243",
"6. c #9B924B",
"7. c #9E8950",
"8. c #8E9D52",
"9. c #9F9154",
"0. c #919D53",
"q. c #959C58",
"w. c #A29E51",
"e. c #90AE44",
"r. c #90A64B",
"t. c #94B345",
"y. c #93A253",
"u. c #9FAA55",
"i. c #A8A74E",
"p. c #A1AE54",
"a. c #AAAC52",
"s. c #A5B357",
"d. c #B4BB5A",
"f. c #BABD5B",
"g. c #A39A62",
"h. c #BEBC60",
"j. c #F0BE5F",
"k. c #F0BF60",
"l. c #AEC64A",
"z. c #A7DB42",
"x. c #B6C656",
"c. c #BCC15A",
"v. c #BDC362",
"b. c #BFD160",
"n. c #C4DB47",
"m. c #E5D65E",
"M. c #C4CB6A",
"N. c #C2D469",
"B. c #D8D673",
"V. c #F0C261",
"C. c #F0CB64",
"Z. c #EFD665",
"A. c #E5D861",
"S. c #EED967",
"D. c #E9D768",
"F. c #F0D667",
"G. c #F0D867",
"H. c #F0D768",
"J. c #F0D868",
"K. c #F3DE71",
"L. c #C4E46D",
"P. c #DEE370",
"I. c #E8E777",
"U. c #EDE676",
"Y. c #F4E075",
"T. c #F6E57C",
"R. c #F8E77F",
"E. c #F7E87F",
"W. c #F8E87F",
"Q. c #F6E880",
"!. c #F8E981",
/* pixels */
"J.G.J.H.G.G.G.J.G.J.J.J.J.J.J.G.J.J.J.J.J.J.J.J.J.J.J.G.J.J.S.H.J.J.J.G.J.G.J.J.G.J.J.H.J.J.J.G.J.H.J.G.J.J.J.J.J.J.J.J.J.J.J.J.",
"J.Y.Y.Y.Y.Y.Y.K.Y.Y.Y.T.Y.Y.Y.Y.Y.Y.Y.Y.Y.K.Z.G.J.J.J.J.J.J.F.C.C.C.F.J.J.J.J.Z.C.F.C.F.J.S.J.H.J.J.J.Z.Y.Y.Y.Y.J.S.J.J.J.J.J.J.",
"J.!.!.!.W.F.Z.Z.Z.J.!.!.!.!.!.!.!.!.!.!.!.T.F.G.J.J.J.J.J.J.J.J.J.J.J.J.J.J.H.J.J.J.J.G.J.J.J.J.J.J.J.Z.!.!.!.!.J.J.J.J.J.H.J.J.",
"J.!.!.!.T.J.J.J.F.J.!.!.!.!.!.!.!.!.!.!.!.R.F.G.G.H.J.G.J.J.J.J.J.J.J.J.J.J.J.J.J.J.J.F.J.H.G.J.J.J.J.Z.!.!.!.!.J.J.J.J.J.J.J.J.",
"J.!.!.!.T.Z.J.F.Z.J.!.!.!.!.T.!.!.!.!.!.!.Y.Z.G.Z.Z.Z.J.J.J.J.G.J.F.J.J.M M M M M M M M 1 1 1 1 1 1 1 Z.T.!.!.!.J.F.J.H.J.Z.J.J.",
"J.!.R.R.!.Y.Y.Y.Y.Y.!.!.!.!.!.!.!.R.K.Y.Y.Y.Y.T.Y.Y.K.Z.J.J.J.J.J.J.J.J.M O O O O O O O             1 S.K.Y.K.K.J.G.J.J.J.J.J.J.",
"J.W.!.!.R.!.!.!.!.!.T.!.!.!.!.R.!.Y.Z.Z.Z.K.!.!.!.!.R.F.J.J.J.J.J.J.S.H.M O O O O O O O             1 J.H.Z.Z.Z.J.J.J.J.J.J.J.J.",
"S.W.!.R.!.R.!.!.!.!.!.R.!.!.T.!.!.Y.Z.G.F.K.!.!.!.!.Y.F.J.J.J.F.J.G.J.J.M O O O O O O M 1 1 1 1 1 1 1 J.J.J.J.J.J.J.H.S.J.H.J.J.",
"J.!.R.!.!.!.!.!.!.!.!.!.!.!.!.!.!.R.F.J.Z.K.3.2.3.!.Y.Z.J.J.J.J.J.M M M 1       O O O M J.J.J.J.J.J.H.J.J.J.F.J.J.J.J.G.J.J.J.G.",
"F.T.!.R.!.!.!.!.!.!.!.!.!.!.!.!.!.R.F.J.Z.K.3.O 3.!.Y.F.J.G.J.J.J.M O O         O O O M H.S.J.H.J.G.J.J.J.J.J.J.J.J.J.H.J.H.J.J.",
"J.W.!.!.T.K.K.K.K.K.K.K.K.K.K.K.K.J.F.J.F.J.U O 2.K.J.J.G.J.J.G.H.M O O         O O O M J.J.G.J.Z.J.G.J.G.J.G.J.J.J.J.J.J.J.J.Z.",
"J.W.!.!.T.F.F.Z.H.F.Z.Z.F.Z.F.H.Z.Z.J.J.J.F.M O M G.Z.J.H.J.J.J.J.M O O       1 M M M M H.J.J.J.J.J.J.H.J.J.J.H.J.J.J.J.J.J.J.J.",
"J.W.!.!.T.J.J.J.J.J.J.J.H.H.M M M M M M M M M O M 1 1 1 1 1 1 1 1 1     . . . 9.F.J.F.J.F.J.G.J.J.J.J.J.S.H.J.J.G.J.J.J.J.J.J.J.",
"J.W.T.!.R.J.J.J.H.J.F.H.Z.Z.M O O O O O O O O O O                       . . . 9.J.J.J.F.J.J.J.J.J.J.J.H.J.J.J.J.J.J.H.G.J.H.H.S.",
"H.R.!.!.T.J.J.J.F.J.R.Y.T.Y.M O O O O O O O O O O                       . . . 7.C.C.V.F.J.J.J.J.J.H.J.G.J.H.J.J.J.J.J.J.G.J.J.J.",
"H.R.!.!.!.J.J.J.J.J.!.!.!.T.<               X X X 3 3 3 3 3 3 3 3 X X X X X X 8 9 9 9 e q q q 9.9.9.9.J.J.G.J.J.J.F.H.J.J.J.H.J.",
"J.R.!.!.!.J.J.J.G.J.!.!.!.!.<               X X X 3 3 3 3 3 3 3 3 X X X X X X X 3 3 3 3 X X X . . . 9.J.J.G.J.J.J.G.J.J.J.J.J.H.",
"J.!.!.!.!.Z.Z.Z.Z.J.!.!.!.T.<               X X X 3 3 3 3 3 3 3 3 X X X X X X X 3 3 3 3 X X X . . . 9.H.J.J.J.H.Z.Z.Z.Z.Z.Z.Z.J.",
"G.J.K.J.K.T.T.T.T.T.J.J.K.Y.2               X X X 3 3 3 3 3 3 3 3 X X X X X X X 3 3 3 3 X X X . . . 9.J.J.G.J.F.Y.T.T.T.Y.T.T.H.",
"J.H.Z.Z.J.!.!.!.!.W.J.F.Z.J.i X X X X X X X 6 6 6 6 6 6 6 4 4 4 4 3 3 3 3 3 3 3 3 3 3 3 3 3 3 X X X q J.J.J.J.G.!.!.!.!.!.!.!.J.",
"J.J.J.J.J.!.!.!.!.T.J.J.S.K.i X X X X X X X 6 6 6 6 6 6 6 4 4 4 4 3 3 3 3 3 3 3 3 3 3 3 3 3 3 X X X q J.J.J.G.F.W.!.!.!.!.!.!.H.",
"J.J.J.J.J.!.!.!.!.W.S.J.G.J.i X X X X X X X 6 6 6 6 6 6 6 4 4 4 4 3 3 3 3 3 3 3 3 3 3 3 3 3 3 X X X q G.Z.J.G.G.T.!.!.!.!.!.!.J.",
"J.J.J.J.J.!.!.!.!.!.J.J.S.J.i X X X X X X X 6 6 6 6 6 6 6 4 4 4 4 3 3 3 3 3 3 3 3 3 3 3 3 3 3 X X X q J.H.F.F.F.!.!.!.!.W.!.!.F.",
"J.J.J.J.J.K.J.J.J.J.Q Q Q Q y 5 5 5 5 5 5 5 5 5 5 6 6 6 6 6 6 6 6 6 6 6 5 5 5 5 5 5 5 5 4 4 4 3 3 3 e 1 2 2 2 T.K.J.J.J.T.R.!.J.",
"J.J.J.J.J.Z.J.F.F.F.Q % % % 5 5 5 5 5 5 5 5 5 5 5 6 6 6 6 6 6 6 6 6 6 6 5 5 5 5 5 5 5 5 4 4 4 3 3 3 3       2 !.J.J.H.Z.W.!.!.J.",
"H.J.H.J.J.J.J.J.J.J.Q % % % 5 5 5 5 5 5 5 5 5 5 5 6 6 6 6 6 6 6 6 6 6 6 5 5 5 5 5 5 5 5 4 4 4 3 3 3 3       2 !.J.J.J.J.T.!.!.J.",
"J.J.J.J.J.J.J.r r r r 3 3 3 5 5 5 5 5 5 5 5 5 5 5 5 5 5 5 5 5 5 5 5 5 5 5 5 5 5 5 5 5 5 5 5 5 3 3 3 3 . . . g.!.J.J.J.J.!.!.W.J.",
"J.V.V.V.V.V.V.9 3 3 3 3 3 3 5 5 5 5 5 5 5 5 5 5 5 5 5 5 5 5 5 5 5 5 5 5 5 5 5 5 5 5 5 5 5 5 5 3 3 3 3 . . . 9.J.W.W.T.T.J.J.J.H.",
"J.V.k.k.k.k.k.9 3 3 3 3 3 3 5 5 5 5 5 5 5 5 5 5 5 5 5 5 5 5 5 5 5 5 5 5 5 5 5 5 5 5 5 5 5 5 5 3 3 3 3 . . . 9.F.T.!.!.!.J.J.J.J.",
"H.V.k.j.k.V.V.9 3 3 3 3 3 3 5 5 5 5 5 5 5 5 5 5 5 5 5 5 5 5 5 5 5 5 5 5 5 5 5 5 5 5 5 5 5 5 5 3 3 3 3 . . . 9.J.T.!.!.!.J.J.J.J.",
"H.V.V.V.V.V.k.9 3 3 4 4 4 4 5 5 5 5 5 5 5 5 6 6 6 u u u u 6 6 6 6 5 5 5 5 5 5 5 5 5 5 5 4 4 4 3 3 3 3 . . . 9.J.T.!.!.!.J.J.J.J.",
"H.H.F.H.F.H.H.e 3 3 4 4 4 4 5 5 5 5 5 5 5 5 6 6 6 u u u u 6 6 6 6 5 5 5 5 5 5 5 5 5 5 5 4 4 4 3 3 3 3 . . . 9.J.J.J.J.J.J.J.J.J.",
"J.H.J.J.J.J.J.r 3 3 4 4 4 4 5 5 5 5 5 5 5 5 6 6 6 u u u u 6 6 6 6 5 5 5 5 5 5 5 5 5 5 5 4 4 4 3 3 3 3 . . . 9.H.J.J.G.J.J.J.G.J.",
"J.S.J.J.J.G.J.r 3 3 4 4 4 4 5 5 5 5 5 5 5 5 6 6 6 u u u u 6 6 6 6 5 5 5 5 5 5 5 5 5 5 5 4 4 4 3 3 3 3 . . . 9.J.J.J.J.J.H.J.H.J.",
"J.J.J.F.H.J.J.r 3 3 3 3 3 3 5 5 5 5 5 5 5 5 u u u u u u u 6 6 6 6 6 6 6 6 6 6 6 6 6 6 6 4 4 4 3 3 3 3 . . . 9.J.H.J.G.H.H.J.J.J.",
"J.H.J.J.J.G.J.r 3 3 3 3 3 3 5 5 5 5 5 5 5 5 u u u u u u u 6 6 6 6 6 6 6 6 6 6 6 6 6 6 6 4 4 4 3 3 3 3 . . . 9.J.J.J.J.J.J.J.J.G.",
"J.J.J.F.J.J.J.r 3 3 3 3 3 3 5 5 5 5 5 5 5 5 u u u u u u u 6 6 6 6 6 6 6 6 6 6 6 6 6 6 6 4 4 4 3 3 3 r 9.9.9.9.J.J.J.H.J.G.J.F.J.",
"G.J.J.J.J.G.F.Q % % 7 7 7 7 5 5 5 5 5 5 5 5 5 5 5 5 5 5 5 6 6 6 6 6 6 6 6 6 6 6 4 4 4 4 3 3 3 X X X q J.J.J.J.J.J.G.J.J.J.J.J.J.",
"H.J.J.J.J.J.G.Q % % 7 7 7 7 5 5 5 5 5 5 5 5 5 5 5 5 5 5 5 6 6 6 6 6 6 6 6 6 6 6 4 4 4 4 3 3 3 X X X q J.J.J.J.J.H.J.G.J.J.J.J.J.",
"J.J.G.J.G.G.G.Q % % 7 7 7 7 5 5 5 5 5 5 5 5 5 5 5 5 5 5 5 6 6 6 6 6 6 6 6 6 6 6 4 4 4 4 3 3 3 X X X q J.J.J.J.J.J.G.J.H.J.J.H.S.",
"J.G.H.J.J.J.H.Q % % 7 7 7 7 5 5 5 5 5 5 5 5 5 5 5 5 5 5 5 6 6 6 6 6 6 6 6 6 6 6 4 4 4 4 3 3 3 X X X q J.J.J.G.J.J.J.H.J.J.J.J.G.",
"J.J.J.J.J.G.J.Q % % % % % % 6 6 6 6 6 6 6 6 5 5 5 5 5 5 5 6 6 6 6 t t t 4 4 4 4 4 4 4 4 X X X       1 J.S.J.J.G.J.G.S.J.J.H.J.J.",
"J.J.J.J.H.H.J.Q % % % % % % 6 6 6 6 6 6 6 6 5 5 5 5 5 5 5 6 6 6 6 t t t 4 4 4 4 4 4 4 4 X X X       1 J.F.F.S.G.H.J.J.J.J.J.F.J.",
"Z.J.J.J.H.F.Z.W % % % % % % 6 6 6 6 6 6 6 6 5 5 5 5 5 5 5 6 6 6 6 t t t 4 4 4 4 4 4 4 4 X X X       2 J.J.J.Y.J.J.J.H.J.J.J.J.J.",
"J.G.H.J.F.j.j.w w w Q % % % 6 6 6 6 6 6 6 6 5 5 5 5 5 5 5 6 6 6 6 t t t 4 4 4 4 4 4 4 4 X X X       1 Z.W.!.!.!.J.G.J.J.!.!.!.J.",
"J.J.J.J.F.k.k.k.j.V.~ 7 7 7 7 7 7 7 7 7 7 7 t t t t t t t t t t t t t t 7 7 7 7 % % % %             1 Z.T.!.W.!.J.F.J.J.!.!.!.J.",
"H.J.H.H.F.j.j.j.j.V.~ 7 7 7 7 7 7 7 7 7 7 7 t t t t t t t t t t t t t t 7 7 7 7 % % % %             1 Z.T.!.!.!.J.J.F.Z.R.!.!.J.",
"G.J.F.F.F.C.V.C.V.C.! ! ! ~ ~ 7 7 7 7 7 7 7 t t t t t t t t t t t t t t 7 7 7 7 % % % %     2 2 2 1 1 J.T.!.!.!.Y.J.K.J.R.!.!.J.",
"J.J.J.S.J.J.J.J.J.J.A.G G z.~ 7 7 7 7 7 7 7 7 7 7 t t t t t t t t 7 7 7 % % % % % % % %     $ D.!.!.!.!.,.1.!.!.!.!.!.!.!.!.!.S.",
"J.H.J.H.J.H.J.J.J.J.A.G A n.~ 7 7 7 7 7 7 7 7 7 7 t t t t t t t t 7 7 7 % % % % % % % %     $ D.!.!.!.!.,.1.!.!.!.!.!.!.!.!.!.S.",
"J.G.J.J.G.J.H.J.J.J.S.;. .n.~ 7 7 7 7 7 7 7 7 7 7 t t t t t t t t 7 7 7 % % % % % % % %     & *.Y.U.U.I.=.-.U.U.!.!.!.!.!.!.!.J.",
"J.J.H.J.J.J.J.J.S.J.S.>. .:.R R ~ ~ ~ 7 7 7 7 7 7 t t t t t t t t 7 7 7 % % % % % % $ j = * & ] +.[ [ =.I I +.#.I.!.!.!.!.!.!.J.",
"J.F.G.J.J.J.J.S.F.F.Z.,. .:.) ) Z.F.~ 7 7 7 % % % 7 7 7 7 7 7 7 7 % % % X X X X       * } #.o.o.#.#.#.+.P P +.#.U.Y.T.Y.Y.Y.T.J.",
"J.J.J.H.J.G.J.J.J H -.,.>.;.] #.&.&.E 7 7 7 % % % 7 7 7 7 7 7 7 7 % % % X X X X       o k C q.q.o.] #.D l l _ #.m.Z.Z.Z.J.S.S.J.",
"J.G.J.J.H.J.J.F.F A } >.>.;.+.+.#.O.T 7 7 7 % % % 7 7 7 7 7 7 7 7 % % % X X X X       o z V 0.8.X.{ #.D l l _ #.m.G.S.J.J.J.S.J.",
"J.Z.Z.Z.Z.Z.Z.Z.F Z } >...;.#.{ #.#.T Y Y Y g % % 7 7 7 7 7 7 7 7 % % % X X X X       o l C q.0.X.{ #.D l z _ #.m.Z.Z.Z.Z.Z.Z.J.",
"J.K.K.K.K.K.K.K.$.] D c b S +.' [ [ #.n c x g % $ O O O O O O O O O O O               + Z K $.@.e.r.r./ ` ` [ +.D.Y.Y.Y.J.Y.Y.G.",
"J.!.!.!.!.Q.f.l.{ #.n l l v #.#.+.[ #.v l k g % $ O O O O O O O O O O O               + A J { { r.8.q.( { { ' O.U.W.!.!.!.!.!.J.",
"J.!.!.!.!.E.f.l.{ #.D x x b #.#.O.[ #.n c c g % % O O O O O O O O O O O               + G _ o.@.r.y.y.t.$.<.T.E.E.!.W.!.W.!.!.J.",
"H.!.!.!.T.!.f.l.{ #.J G G H #.#.#.#.{ #.#.#.h j h f d d @ @ # > > > : : ; , , : - - ; & { ( q.8.x.c.c.b.L.I.!.!.E.!.!.W.!.W.!.J.",
"J.W.E.T.!.U.f.l.] ' J A A H { [ #.' ] ' ' ' |  ...L A A f s m u.y.0.p p 6.M.N.s.4.8.e.{ | / 0.r.d.c.c.b.L.P.U.K.!.T.W.!.W.W.!.S.",
"H.W.!.!.!.!.v.x.%.%.O.J J K #.] o.%.%.z.z.z.<.&.<.^ V V N N B 5.Q 5.6.6.w.f.h.p.4.8.r.o./ e.8.4.p.s.s.s.x.M.Z.Z.T.!.!.R.W.!.!.J.",
"Z.!.!.!.!.T.B.M.f.f.%.{ #.#.#.] z.h.v.b.L.L.N.f.c.7.p a y.y.5.0 W 0 a.a.i.i.i.0.8.y.8.0.8.0.y.4.4.4.4.4.4.a.J.F.R.!.W.!.!.!.W.J.",
"J.J.J.Z.H.H.H.J.J.J.J.J.H.H.H.H.J.J.J.J.J.J.J.J.J.G.G.S.J.J.J.D.D.D.H.J.J.H.H.H.J.J.J.H.J.H.J.J.J.J.G.S.J.G.J.J.J.J.J.H.F.S.J.J."
};
