/* XPM */
static char *dff5a2732e764f6bb1277668d054ecf01JeiBmuvdcV9o8KX[] = {
/* columns rows colors chars-per-pixel */
"64 64 188 2 ",
"   c black",
".  c #20053A",
"X  c #202931",
"o  c #71203F",
"O  c #204A4A",
"+  c #AC2920",
"@  c #907D2D",
"#  c #8C1A44",
"$  c #E41A44",
"%  c #8E7E4B",
"&  c #93794C",
"*  c #F6624A",
"=  c #479818",
"-  c #519C19",
";  c #46AA0D",
":  c #4AAC0F",
">  c #56AB0F",
",  c #4DB30D",
"<  c #50B50F",
"1  c #4EA916",
"2  c #53AD17",
"3  c #4DB010",
"4  c #55B512",
"5  c #5AB512",
"6  c #54BA10",
"7  c #5BBB12",
"8  c #7FBB0D",
"9  c #66BE16",
"0  c #77BE19",
"q  c #699C33",
"w  c #779837",
"e  c #6AA627",
"r  c #75AC2B",
"t  c #71A633",
"y  c #5BD50E",
"u  c #5CDA0E",
"i  c #5FD710",
"p  c #5CDD11",
"a  c #65C015",
"s  c #6FC617",
"d  c #72C618",
"f  c #75C819",
"g  c #69D617",
"h  c #62D910",
"j  c #6CDA14",
"k  c #74D916",
"l  c #74D719",
"z  c #7BD31B",
"x  c #7CD919",
"c  c #56E20F",
"v  c #6EE312",
"b  c #6EE11E",
"n  c #6DDB23",
"m  c #7EE626",
"M  c #77E929",
"N  c #79EA2A",
"B  c #AC8B07",
"V  c #B08D09",
"C  c #A99205",
"Z  c #978538",
"A  c #A68C2B",
"S  c #85BA2F",
"D  c #8EBA38",
"F  c #90BE36",
"G  c #91B93A",
"H  c #B3A234",
"J  c #B6A637",
"K  c #AEB331",
"L  c #FFB431",
"P  c #82CF1C",
"I  c #86D51C",
"U  c #8CD61C",
"Y  c #85DA1A",
"T  c #8DDA1C",
"R  c #92D71F",
"E  c #91DB1D",
"W  c #89EA1B",
"Q  c #92E41A",
"!  c #9AEB1F",
"~  c #99F51E",
"^  c #9DFB1E",
"/  c #A1FB1E",
"(  c #8DCF25",
")  c #90CF27",
"_  c #91CC2A",
"`  c #84D522",
"'  c #8DD622",
"]  c #8BDA22",
"[  c #91D422",
"{  c #92D921",
"}  c #98D62A",
"|  c #AACF2A",
" . c #A1D82C",
".. c #A0CE37",
"X. c #A4CC3C",
"o. c #A9DA37",
"O. c #B0DA3C",
"+. c #83E629",
"@. c #96E727",
"#. c #99E621",
"$. c #9AF723",
"%. c #9EF420",
"&. c #8CE230",
"*. c #90EB36",
"=. c #9DF438",
"-. c #A3E923",
";. c #A0F620",
":. c #A3FA21",
">. c #A9FC23",
",. c #A8F429",
"<. c #AFE03C",
"1. c #B6F538",
"2. c #BAF53B",
"3. c #91804B",
"4. c #8D9D4F",
"5. c #929243",
"6. c #9B924B",
"7. c #9D8B50",
"8. c #8E9D51",
"9. c #919D53",
"0. c #A29E51",
"q. c #90AD45",
"w. c #90A64B",
"e. c #98A84D",
"r. c #94B345",
"t. c #93A253",
"y. c #9FAA55",
"u. c #A8A74E",
"i. c #AAAC52",
"p. c #A2AF58",
"a. c #A5B357",
"s. c #B9BF57",
"d. c #B4BB5A",
"f. c #BABD5B",
"g. c #BEBC60",
"h. c #D4BD5F",
"j. c #F0BD5F",
"k. c #F0BF60",
"l. c #AEC64A",
"z. c #B8CB49",
"x. c #A7DB42",
"c. c #B4DB44",
"v. c #AAC25D",
"b. c #B6C656",
"n. c #BCC15A",
"m. c #9EF441",
"M. c #ACFB48",
"N. c #BDC362",
"B. c #BFD160",
"V. c #C3D848",
"C. c #CEC65F",
"Z. c #DAD65A",
"A. c #E5D65E",
"S. c #E3DC5D",
"D. c #D3E54D",
"F. c #C8E45D",
"G. c #D6E350",
"H. c #C1C767",
"J. c #C4CD6B",
"K. c #C2D469",
"L. c #D8D16B",
"P. c #F0C261",
"I. c #F0CC64",
"U. c #EFD665",
"Y. c #E5D861",
"T. c #EDD966",
"R. c #E3D56A",
"E. c #EFD768",
"W. c #EDDA68",
"Q. c #F0D667",
"!. c #F0D867",
"~. c #F0D768",
"^. c #F0D868",
"/. c #F3DE71",
"(. c #C4E46D",
"). c #DBE669",
"_. c #DEE370",
"`. c #EAE26F",
"'. c #E8E777",
"]. c #EDE676",
"[. c #F4E175",
"{. c #F6E57B",
"}. c #F8E77F",
"|. c #F7E87F",
" X c #F8E87F",
".X c #F6E880",
"XX c #F8E981",
"oX c #FAEC86",
/* pixels */
"^.^.^.^.^.^.^.^.^.^.^.^.^.^.^.^.^.^.^.^.^.^.^.^.^.^.^.^.^.^.^.^.^.^.^.^.^.^.^.^.^.^.^.^.^.^.^.^.^.^.^.^.^.^.^.^.^.^.^.^.^.^.^.^.",
"^.[.[.[.[.[.[.[.[.[.[.[.[.[.[.[.[.[.[.[.[./.U.^.^.^.^.^.^.^.Q.I.I.I.Q.^.^.^.^.Q.I.I.I.Q.^.^.^.^.^.^.^.U./.[.[.[.^.Q.^.^.^.^.^.^.",
"^.XXXXoX XU.U.U.U.^.oXXXXXXXXXXXXXXXXXXXoX{.U.^.^.^.^.^.^.^.^.^.^.^.^.^.^.^.^.^.^.^.^.^.^.^.^.^.^.^.^.U.{.oXXXoX^.Q.^.^.^.^.^.^.",
"^. XXXXX{.^.^.^.Q.^.XXXXXXXXXXXXXXXXXXXXXX{.U.^.^.^.^.^.^.^.^.^.^.^.^.^.^.^.^.^.^.^.^.^.^.^.^.^.^.^.^.U.{.XXXXXX^.Q.^.^.^.^.^.^.",
"^. XXXXX{.U.U.U.U.^.XXXXXXXXXXXXXXXXoXXXoX{.U.U.U.U.U.^.^.^.^.^.^.^.^.^.^.^.^.^.^.^.^.^.^.^.^.^.^.^.^.U.{.oXXXoX^.Q.^.^.^.^.^.^.",
"^. XXXXX}.[.[.[.[.{.XXXXXXXXXXXXXX{./././.[.[.[.[.{./.U.^.^.^.^.^.^.^.^.^.^.^.^.^.^.^.^.^.^.^.^.^.^.^.!././././.^.^.^.^.^.^.^.^.",
"^. XXXXXXXXXXXXXXXXXXXXXXXXXXXXXXX{.U.U.U.^.oXXXXXoX{.U.^.^.^.^.^.^.^.^.^.^.^.^.^.^.^.^.^.^.^.^.^.^.^.^.U.U.U.U.^.^.^.^.^.^.^.^.",
"^. XXXXXXXXXXXXXXXXXXXXXXXXXXXXXXX{.U.^.U.^.XXXXXXXX[.U.^.^.^.^.^.^.^.^.^.^.^.^.^.^.^.^.^.^.^.^.^.^.^.^.^.^.^.^.^.^.^.^.^.^.^.^.",
"^. XXXXXXXXXXXXXXXXXXXXXXXXXXXXXXX{.U.^.U./.XXXXXXXX[.U.^.^.^.^.^.^.^.^.^.^.^.^.^.^.^.^.^.^.^.^.^.^.^.^.^.^.^.^.^.^.^.^.^.^.^.^.",
"^. XXXXXXXXXXXXXXXXXXXXXXXXXXXXXoX{.U.^.U./.oXXXXXoX{.U.^.^.^.^.^.^.^.^.^.^.^.^.^.^.^.^.^.^.^.^.^.^.^.^.^.^.^.^.^.^.^.^.^.^.^.^.",
"^. XXXXX{././././././././././././.^.Q.^.Q.^././././.^.Q.^.^.^.^.^.^.^.^.^.^.^.^.^.^.^.^.^.^.^.^.^.^.^.^.^.^.^.^.^.^.^.^.^.^.^.^.",
"^. XXXXX{.U.U.U.U.U.U.U.U.U.U.U.U.U.^.^.^.Q.U.U.U.U.U.^.^.^.^.^.^.^.^.^.^.^.^.^.^.^.^.^.^.^.^.^.^.^.^.^.^.^.^.^.^.^.^.^.^.^.^.^.",
"^. XXXXX{.^.^.^.^.^.^.^.^.^.^.^.^.^.^.^.^.^.^.^.^.^.^.^.^.^.^.^.^.^.^.^.^.^.^.^.^.^.^.^.^.^.^.^.^.^.^.^.^.^.^.^.^.^.^.^.^.^.^.^.",
"^. XXXXX{.^.^.^.^.!.U.U.U.U.^.^.^.^.^.^.^.^.^.^.^.^.^.^.^.^.^.^.^.^.^.O O O O X X O O ^.^.^.^.^.^.^.^.^.^.^.^.^.^.^.^.^.^.^.^.^.",
"^.}.XXXX{.^.^.^.Q.^.{.{.{.[.U.^.^.^.^.^.^.^.^.^.^.^.^.^.^.^.^.^.^.^.I.O O O O X X O O Q.^.^.^.^.^.^.^.^.^.^.^.^.^.^.^.^.^.^.^.^.",
"^.}.XXXX{.^.^.^.Q.^.oXXXoX{.U.^.^.^.^.^.^.^.^.^.^.O O O O O O ^.^.O O X X O O O O j.j.I.^.^.^.^.^.^.^.^.^.^.^.^.^.^.^.^.^.^.^.^.",
"^.XXXXXX{.^.^.^.Q.^.XXXXXX{.U.^.^.^.^.^.^.^.^.^.^.O O O O O O ^.^.O O X X O O O O P.j.Q.^.^.^.^.^.^.^.^.^.^.^.^.^.^.^.^.^.^.^.^.",
"^.XXXXoX}.U.U.U.U.^.oXXXoX{.U.U.U.U.U.U.U.U.U.O O O O O O X X X X . . O O j.j.j.j.j.j.I.^.^.^.^.^.^.^.^.^.^.^.^.U.U.U.U.U.U.U.^.",
"^.^.^.^.^.{.{.{.{.{.^.^.^./.{.{.{.{.{.{.{.{.{.O O O O O O X X X X . . O O Q.Q.Q.Q.Q.Q.Q.^.^.^.^.^.^.^.^.^.^.^.Q.{.{.{.{.{.{.{.^.",
"^.E.U.U.^.XXXXXXXX{.U.U.U.^.oXXXXXXXXXXXXXXXXXXXXXoX[.. . o o . . X X o o ^.^.^.^.^.^.^.^.^.^.^.^.^.^.^.^.^.^.Q.{.XXXXXXXXXXXX^.",
"^.^.^.!.^.XXXXXXXX{.U.^.U.^.XXXXXXXXXXXXXXXXXXXXXXXX[.. . o o . . X X o o ^.^.^.^.^.^.^.^.^.^.^.^.^.^.^.^.^.^.Q.{.XXXXXXXXXXXX^.",
"^.^.^.!.^.XXXXXXXX{.U.^.U.^.XXXXXXXXXXXXXXXXXX. . # # + + o o o o o o o o . . . . ^.^.^.^.^.^.^.^.^.^.^.^.^.^.~.{.XXXXXXXXXXXX^.",
"^.^.^.!.^.XXXXXXXX{.U.^.U.^.oXXXXXXXXXXXXXXXXX. . # # + + o o o o o o o o . . . . Q.Q.Q.Q.Q.U.^.^.^.^.^.Q.Q.Q.Q.{.XXXXXXXXXXXX^.",
"^.^.^.^.^.^.^.^.^.^.^.^.^.^.^.^.^.^.^.^.^.. . + + + + + + o o o o + + + + o o o o . . {.{.{.}.^.U.^.^.U.{.{.{.{.^.^.^.^.{.XXXX^.",
"^.^.^.^.^.Q.Q.Q.Q.Q.^.^.^.^.Q.Q.Q.Q.Q.Q.U.. . + + + + + + o o o o + + + + o o o o . . XXXXXXoX^.U.^.^.U.{.XXXXXX^.Q.Q.Q.{.XXXX^.",
"^.^.^.^.^.^.^.^.^.^.^.^.^.^.^.^.^.^.^.+ + + + + + $ $ $ $ $ $ + + + + + + + + o o o o + + XXXX^.U.^.^.U.{.XXXXXX^.Q.^.^.{.XXXX^.",
"^.^.^.^.^.^.^.^.^.^.^.^.^.^.^.^.^.^.^.+ + + + + + $ $ $ $ $ $ + + + + + + + + o o o o + + XXoX^.U.^.^.U.{.XXXXXX^.Q.^.^.{.XXXX^.",
"^.P.P.P.P.P.P.P.P.P.^.^.^.^.^.^.^.^.^.. . + + $ $ $ $ $ $ $ $ $ $ + + + + + + + + o o . . ^.^.{.}.{.{.}.^.^.^.^.{.{.{.{.^.^.^.^.",
"^.P.k.k.k.k.k.k.k.P.^.^.^.^.^.^.^.^.^.. . + + $ $ $ $ $ $ $ $ $ $ + + + + + + + + o o . . !.U.{.XXXXXXXX^.Q.!.Q.{.XXXXXX^.!.!.^.",
"^.P.P.P.P.P.P.P.k.P.^.^.^.^.^.^.^.^.^.. . L L * * $ $ $ $ $ $ $ $ + + + + + + + + o o . . ^.U.{.XXXXXXXX^.Q.^.Q.{.XXXXXX^.^.^.^.",
"^.P.P.P.P.P.P.P.P.P.^.^.^.^.^.^.^.^.^.. . L L * * $ $ $ $ $ $ $ $ + + + + + + + + o o . . ^.U.{.XX X XXX^.^.^.~.{.XX X X^.^.^.^.",
"^.~.~.~.~.~.~.~.~.~.^.^.^.^.^.^.^.^.^.. . L L L L * * $ $ $ $ $ $ + + + + + + o o + + . . ^.^.^.^.^.^.^.^.^.^.^.^.^.^.^.^.^.^.^.",
"^.^.^.^.^.^.^.^.^.^.^.^.^.^.^.^.^.^.^.. . L L L L * * $ $ $ $ $ $ + + + + + + o o + + . . ^.^.^.^.^.^.^.^.^.^.^.^.^.^.^.^.^.^.^.",
"^.^.^.^.^.^.^.^.^.^.^.^.^.^.^.^.^.^.^.^.^.+ + L L L L L L L L L L * * * * * * + + + + + + ^.^.^.^.^.^.^.^.^.^.^.^.^.^.^.^.^.^.^.",
"^.^.^.^.^.^.^.^.^.^.^.^.^.^.^.^.^.^.^.^.^.+ + L L L L L L L L L L * * * * * * + + + + + + ^.^.^.^.^.^.^.^.^.^.^.^.^.^.^.^.^.^.^.",
"^.^.^.^.^.^.^.^.^.^.^.^.^.^.^.^.^.^.^.^.^.. . * * L L L L L L * * * * * * * * + + . . ^.^.^.^.^.^.^.^.^.^.^.^.^.^.^.^.^.^.^.^.^.",
"^.^.^.^.^.^.^.^.^.^.^.^.^.^.^.^.^.^.^.^.^.. . * * L L L L L L * * * * * * * * + + . . ^.^.^.^.^.^.^.^.^.^.^.^.^.^.^.^.^.^.^.^.^.",
"^.^.^.^.^.^.^.^.^.^.^.^.^.^.^.^.^.^.^.^.^.^.^.. . * * * * * * * * * * * * + + . . ^.^.^.^.^.^.^.^.^.^.^.^.^.^.^.^.^.^.^.^.^.^.^.",
"^.^.^.^.^.^.^.^.^.^.^.^.^.^.^.^.^.^.Q.Q.Q.!.^.. . * * * * * * * * * * * * + + . . ^.^.^.^.^.^.^.^.^.^.^.^.^.^.^.^.^.^.^.^.^.^.^.",
"^.^.^.^.^.^.^.^.^.^.^.^.^.^.^.^.^.^.^.^.^.^.^.^.^.. . * * * * * * + + + + . . ^.^.^.^.^.^.^.^.^.^.^.^.^.^.^.^.^.^.^.^.^.^.^.^.^.",
"^.^.^.^.^.^.^.^.^.^.^.^.^.^.^.^.U.^.oXXXXX{.U.^.^.. . * * * * * * + + + + . . ^.^.^.^.^.^.^.^.^.^.^.^.^.^.^.^.^.^.^.^.^.^.^.^.^.",
"^.^.^.^.^.^.^.^.^.^.^.^.^.^.^.^.U.^.XXXXXX{.U.^.^.^.^.+ + . . . . . . + + ^.^.^.^.^.^.^.^.^.^.^.^.^.^.^.^.^.^.^.^.^.^.^.^.^.^.^.",
"^.^.^.^.^.^.^.^.^.^.^.^.^.^.^.^.U.^.oXXXoX{.U.^.^.^.^.+ + . . . . . . + + ^.^.Q.Q.Q.Q.Q.Q.Q.Q.^.^.^.^.^.Q.Q.Q.Q.^.^.^.^.Q.Q.Q.^.",
"^.^.^.^.~.Q.Q.Q.Q.Q.^.^.^.^.^.^.U.^.{.{.{.[.U.^.^.^.^.^.^.^.^.^.^.^.^.^.^.^.!.^.^.^.^.^.^.^.^.^.^.^.^.^.^.^.^.^.^.^.^.^.^.^.^.^.",
"^.^.^.^.Q.j.j.j.j.P.^.^.^.^.^.^.^.Q.U.U.U.Q.^.^.^.^.^.^.^.^.^.^.^.^.^.^.^.^.U.{.oXXXXXXXXXXXoX^.U.^.^.T.{.oXXXXX^.Q.^.^.XXXXXX^.",
"^.^.^.^.Q.P.P.P.k.P.^.^.^.^.^.^.^.~.~.U.H J ^.^.^.^.^.^.^.^.^.^.^.^.^.^.^.^.U.[.XXXXXXXXXXXXXX^.U.^.^.T.{.XXXXXX^.Q.^.^.{.XXXX^.",
"^.^.^.^.Q.j.j.j.j.P.^.^.^.^.^.^.^.^.^.U.A A ^.^.^.^.^.^.^.^.^.^.^.^.^.^.^.^.U.[.XXXXXXXXXXXXoX^.U.U.U.U.{.XXXXXX^.U.U.U.{.XXXX^.",
"^.^.^.^.Q.P.P.P.P.I.W.Z.Z.T.^.^.^.^.^.Z.0 f Y.U.U.U.E.E.^.^.^.T.T.T.T.T.T.^.U.[.XXXXXX|..XXXXX[.^.^.^.^.{..XXXXX/.^.^.^.{.XXXX^.",
"^.^.^.^.^.^.^.^.^.^.Y.h h o.^.^.^.^.^.c.u c 8 V C Z 3.h.^.^.^. .{ { %.:.Y.^.U.[.XXXXXX2.:.| J R.XXXXXXXX,.1..XXXXXXXXXXXXXXXXX^.",
"^.^.^.^.^.^.^.^.^.^.Y.h u V.^.^.^.^.^.c.h p 8 B C Z % C.^.^.^. .{ { %.%.Y.^.U.[.XXXXXX2.^ | H R.XXXXXXXX>.1.XXXXXXXXXXXXXXXXXX^.",
"^.^.^.^.^.^.^.^.^.^.T.%.~ V.U.U.^.^.^.S.~ :.x > > - = e D.D.G.,.;.%.5 4 z.^.U.[.F.F.).1.:.#.[ O.{.].].'.+.*.].].|.XXXXXXXXXXXX^.",
"^.^.^.^.^.^.^.^.^.^.T.:./ -.H J ^.^.^.S.:.>.x ; 3 = = - %.              l.^.U.[.u y v >.>.! T T { { R +.M N ] { ].XXXXXXXXXXXX^.",
"^.^.^.^.^.^.^.^.^.^.T.>.^ -.K K ^.^.^.S.$.$.x , 6 1 1 2                   ^.U./.j j k W W ' _ _ { { E ` n n ] { `.{.{.{.{.{.{.^.",
"^.^.^.^.^.^.^.W.l g @.>.:.%.T { o.o.o.&.M M b u h h h                       L.V.E { P ; ; t 9.9._ E { d ; ; P { A.U.U.U.U.U.U.^.",
"^.^.^.^.^.^.^.^.j y W :.:.%.' { { { { m M N b y h h i                       f...T { P 3 , t 9.9._ E { d : : P { A.^.^.^.^.^.^.^.",
"^.U.U.U.U.U.U.U.j y W >.:.%.' { { { { m N N b y i y y                       f...T { P : , t 9.9.) E { d : : I { A.U.U.U.U.U.U.^.",
"^./././././././.} T s 4 5 a { { { { { 9 4 4 l ^ ~ =.m.                      f.X.T { I y y z ) [ q.w.w.D I I U { W././././././.^.",
"^.XXXXXXXX.Xf.l.E { 9 ; ; 5 { { { { { 5 ; ; f >./ M.M.                      f...T E Y u u k E E w.8.8.G E E E { ].XXXXXXXXXXXX^.",
"^. XXXXXXX{.f.l.T { s , < 7 { { { ' { 9 5 4 z >./ =.m.                      n.X.( _ ` h h z _ [ e.t.t.r.} c.|.{.|.XXXXXXXXXXXX^.",
"^. XXXXXXX{.f.l.T { k u u j { { { ' E { { { #.:.:.j y y                   J.J.p.8.9.q.E E G 9.8.d.n.s.B.(.'.XXXXXXXXXXXXXXXXXX^.",
"^.|.{.XXXX{.f.l.T E k u u h { { T T T T U U Q ^ / v u u =               6.J.J.a.4.9.q.E Q F 9.4.d.n.n.B.(._.[.[.}.XXXXXXXXXXXX^.",
"^. XXXXXXX{.N.b.X.X.' k k x { T } X.X.x.x.x.O.o.<.S r r q q w 5.5.5.6.6.0.d.f.y.4.9.w.F F q.9.8.p.a.a.a.v.H.U.U.{.XXXXXXXXXXXX^.",
"^. XXXXXXXXXL.H.f.g.X.E { { { T X.g.f.K.(.(.K.f.n.7.& & 9.t.5.@ @ @ u.i.i.u.u.e.8.t.9.9.9.9.t.t.4.4.4.4.4.i.^.Q.{.XXXXXXXXXXXX^.",
"^.^.^.^.^.^.^.^.^.^.^.^.^.^.^.^.^.^.^.^.^.^.^.^.^.^.^.^.^.^.^.^.^.^.^.^.^.^.^.^.^.^.^.^.^.^.^.^.^.^.!.^.^.^.^.^.^.^.^.^.^.^.^.^."
};
