/* XPM */
static char *result[] = {
/* columns rows colors chars-per-pixel */
"64 64 122 2 ",
"   c black",
".  c #430000",
"X  c #4C0100",
"o  c #530000",
"O  c #5B0400",
"+  c #5E0900",
"@  c #620A00",
"#  c #6A0E00",
"$  c #671200",
"%  c #6B1400",
"&  c #6D1900",
"*  c #751600",
"=  c #741B00",
"-  c #7C1B00",
";  c #651917",
":  c #762100",
">  c #7C2500",
",  c #7F2800",
"<  c #762008",
"1  c #7B2408",
"2  c #861F00",
"3  c #812600",
"4  c #8A2500",
"5  c #812900",
"6  c #8B2C00",
"7  c #902C00",
"8  c #8C3103",
"9  c #8F3509",
"0  c #943300",
"q  c #9B3500",
"w  c #9D3903",
"e  c #973B0A",
"r  c #993C0A",
"t  c #A92F00",
"y  c #A43500",
"u  c #A93500",
"i  c #A53B00",
"p  c #AD3E00",
"a  c #B13F00",
"s  c #BA3D00",
"d  c #A64107",
"f  c #AD4203",
"g  c #A5460D",
"h  c #A8480E",
"j  c #B34100",
"k  c #B94601",
"l  c #B54905",
"z  c #BD4902",
"x  c #AE4C10",
"c  c #B14F11",
"v  c #B65414",
"b  c #B95614",
"n  c #BE5915",
"m  c #CA4501",
"M  c #C34D04",
"N  c #CB4B01",
"B  c #C55106",
"V  c #CD5406",
"C  c #C4540B",
"Z  c #CD5608",
"A  c #C7580E",
"S  c #D15706",
"D  c #D15807",
"F  c #D05708",
"G  c #D25A0A",
"H  c #D95D09",
"J  c #C45D15",
"K  c #CD5F12",
"L  c #D7600D",
"P  c #DB630E",
"I  c #C76118",
"U  c #CC651A",
"Y  c #CE681B",
"T  c #D36314",
"R  c #DA6612",
"E  c #D66815",
"W  c #DD6914",
"Q  c #D1691B",
"!  c #DE6E19",
"~  c #DD721E",
"^  c #E8680A",
"/  c #F77506",
"(  c #F7790D",
")  c #F8790D",
"_  c #E36D16",
"`  c #E77117",
"'  c #E3711A",
"]  c #E9761C",
"[  c #EB781E",
"{  c #DF7520",
"}  c #E67B22",
"|  c #ED7D22",
" . c #F78118",
".. c #F9821D",
"X. c #FF891F",
"o. c #ED8125",
"O. c #F58526",
"+. c #F98522",
"@. c #F38827",
"#. c #FE8B25",
"$. c #F78728",
"%. c #F68A29",
"&. c #FA8A29",
"*. c #FF922C",
"=. c #FF992F",
"-. c #F88E34",
";. c #F89036",
":. c #ABAE56",
">. c #F0C260",
",. c #EFD665",
"<. c #EFD768",
"1. c #F0D767",
"2. c #F0D768",
"3. c #F0D868",
"4. c #F3DE71",
"5. c #F4E075",
"6. c #F7E67D",
"7. c #F8E77F",
"8. c #F7E87F",
"9. c #F8E87F",
"0. c #F8E881",
"q. c white",
/* pixels */
"3.3.3.3.3.3.3.3.3.3.3.3.3.3.3.3.3.3.3.3.3.3.3.3.3.3.3.3.3.3.3.3.3.3.3.3.3.3.3.3.3.3.3.3.3.3.3.3.2.3.3.3.2.3.3.3.3.3.3.3.3.3.3.3.",
"3.5.5.5.5.5.5.5.5.5.5.5.5.5.5.5.                                                                                              3.",
"3.0.0.0.0.,.,.,.,.3.0.0.0.0.0.    +...+.+.+.+.+.+.+.+.+.#.+.+.+.+.+.+.+.+.$.+.+.+.+.+.+.+.+.+.+.+.O.+.+.+.+.+.+.+.+.+.+.[ m   3.",
"3.0.0.0.6.3.3.3.1.3.0.0.0.0.    +.....+.#.O.+.+.+.#.&.#.#.#.#.&.#.#.*.#.#.#.#.#.#.#.+.$.O.+.$.#.#.#.#.#.#.$.+.$.+.O.$.#.[ N   3.",
"3.0.0.0.6.,.3.1.,.3.0.9.0.    #...#.#.[ _ O.&.&.&.| b b b v b b b b b b b n T T T K } &.&.&.@.n b T T T K } &.&.&.&.` ' ^ s   3.",
"3.0.8.0.0.5.5.5.5.5.0.0.    +.+. .*.*.! V [ *.&.*.{ : & = : = = & : = = = , u i u y E *.&.;.o., > i p i u T &.#.&.O.G V B t   3.",
"3.9.0.9.0.0.0.0.0.0.0.    ..+.&.~ h g d q d h x O.O.Q Q n q p l l l l i q f ~ ' ! ' n h h h g w u f p B ' | &.&.' R z z f 2   3.",
"3.0.0.0.7.0.0.0.0.0.    +./ ..=.Q & & : : : & 1 } &.&.=.' i M H G G F k i B &.*.=.=.c % : = > p j p u K ;.&.&.&.P M j a y *   3.",
"3.7.0.0.0.0.0.0.0.    +... .O.@.U 3 5 5 5 6 3 8 | &.%.&.! a B G G F G z p C &.&.O.%.x 1 5 5 6 p j l p T &.$.$.$.P B j f i *   2.",
"3.0.6.0.0.0.0.0.    +.+.+.*.} 9 0 i i l B M M B O.-.&.&.&.O.O.$.#.O.O.| | O.&.Q 5 5 w p p i p M G | | O.*.] G G M j 6 5 5 *   3.",
"3.9.0.0.8.4.4.    +.+.( | } Q , 6 z k V R P P P O.O.} } } } o.| | &.&.&.&.&.*.Y 8 6 i j j a k G ` &.*.$.+.R M V f y 5 > 3 *   3.",
"3.9.0.0.6.,.    *.-.&.@.r 1 8 p k Z V ' &.O.O.O.&.} 9 , 6 5 w j l [ &.@.$.&.$.#.@.@.K i a p l | &.$.&.] F z a j 6 5 5 , 5 *   3.",
"3.9.0.0.6.    +.( ..*.&.9 $ , i k V V ' *.*.*.=.=.| : & : = 6 p i } ;.*.&.&.&.&.&.-.K i p u j O.&.&.-.] F M a a 6 > 5 3 , *   3.",
"3.9.0.0.    +.....#.~ I d 0 d A L ! R ` [ Q I U Y J w w w w f z z T ~ ! _ ' ] [ &.&.T j A A K $.$.| [ R M f w w 5 > 5 5 3 *   3.",
"2.7.6.    +. ...%.&.e % M S P &.&.&.&._ V 6 & & & 5 F D S S F F S a u u u p M W &.&._ N [ &.&.&.O.F S N j 0 > > 5 5 5 5 5 *   3.",
"3.0.    ..+.+.O.&.&.U b ! ` ] $.&.&.&.| _ K b b b J ` ` ' ` _ ' ` T T T T E _ [ &.&.| _ O.&.&.] R z M j 0 6 > 5 5 > & $ = *   3.",
"3.7.  ;.) ..&.&.&.$.&.*.&.&.&.O.&.O.O.&.&.&.*.*.*.&.&.&.&.&.&.&.&.&.&.&.&.&.&.&.$.&.&.&.&.&.O.G M p j q > > , , 5 > O o @ *   3.",
"3.0.  ;...&.&.O.@.&.&.$.$.&.#.$.O.&.&.&.&.@.$.&.$.&.&.#.O.&.&.&.&.&.&.&.&.&.@.#.$.@.&.O.O.&.O.L V f j w > 5 , 5 5 > + o @ *   3.",
"3.3.  ;.+.&.&.&.&.&.&.&.&.&.&.&.&.&.&.&.&.&.&.&.&.&.&.&.&.&.&.&.&.&.&.&.&.&.&.&.&.&.&.&.&.&.O.z p 6 6 6 3 5 5 3 % @ O o # *   3.",
"3.<.  ;...O.O.O.O.@.O.O.O.$.O.$.O.O.O.O.O.$.O.O.O.@.O.O.O.O.O.O.O.$.O.O.$.O.O.@.$.O.&.O.O.&.o.z y > > > 5 > 5 > + o o o @ *   3.",
"3.3.  ;.+.| G G L L L L L L L L L L L L H G P G L L L L L L L L G L G R L L G L G G R G L P G F z , > 5 5 & + + O o o o @ *   3.",
"3.3.  ;.+.] V F V V V V V V V V V V V F Z Z F F V F V V V V V V F F V V F F F V F F F F V D F H C , > 5 6 # X o o O o X + =   3.",
"3.3.  ;.+.[ V F D D F F F F F F Z F F F F F F F D Z F F F F F F F F F F D F F F F D F F F F F Z l , , > : $ + + O O # # * *   3.",
"3.3.  ;.+.[ V D G G G G G G G F G G G G G G G F G G G G G G G F G F G G G G G G F G F F G G Z k i , 5 & X % 8 5 + O u k i *   3.",
"3.3.  ;.+.[ D F q.q.q.q.q.q.q.q.q.q.q.q.q.q.q.q.q.q.q.q.q.q.q.q.q.q.q.q.q.q.q.q.q.q.q.q.q.B M j i , , - * = = = O + p k i *   3.",
"3.3.  ;.+.[ D D q.q.q.q.q.q.q.q.q.q.q.q.q.q.q.q.q.q.q.q.q.q.q.q.q.q.q.q.q.q.q.q.q.q.q.q.q.p j j i , > q k 2 X o o + i k u *   3.",
"3.3.  ;.+.[ D F q.q.q.q.q.q.q.q.q.q.q.q.q.q.q.q.q.q.q.q.q.q.q.q.q.q.q.q.q.q.q.q.q.q.q.q.q.p j j i , > 0 k 2 X X X + i k i *   3.",
"3.>.  ;.+.[ D F q.q.q.q.q.q.q.q.q.q.q.q.q.q.q.q.q.q.q.q.q.q.q.q.q.q.q.q.q.q.q.q.q.q.q.q.q.p p j i , > 6 0 6 4 4 4 4 7 w 0 *   3.",
"3.>.  ;.+.| D F q.q.q.q.q.q.q.q.q.q.q.q.q.q.q.q.q.q.q.q.q.q.q.q.q.q.q.q.q.q.q.q.q.q.q.q.q.p j j i 5 > 5 : w z k k j 5 > > *   3.",
"3.>.  ;.+.[ D F q.q.q.q.q.q.q.q.q.q.q.q.q.q.q.q.q.q.q.q.q.q.q.q.q.q.q.q.q.q.q.q.q.q.q.q.q.p j j i 5 > 5 > 6 0 8 0 6 $ + % *   3.",
"3.>.  ;.+.[ D F q.q.q.q.q.q.q.q.q.q.q.q.q.q.q.q.q.q.q.q.q.q.q.q.q.q.q.q.q.q.q.q.q.q.q.q.q.p a j i 5 , 5 5 5 > > > : O o @ *   3.",
"3.3.  ;.+.[ D D q.q.q.q.q.q.q.q.q.q.q.q.q.q.q.q.q.q.q.q.q.q.q.q.q.q.q.q.q.q.q.q.q.q.q.q.q.p j j i 5 , > > > , 5 5 > + o @ =   3.",
"3.3.  ;.+.[ D G q.q.q.q.q.q.q.q.q.q.q.q.q.q.q.q.q.q.q.q.q.q.q.q.q.q.q.q.q.q.q.q.q.q.q.q.q.p p j i 5 5 & o = 6 5 5 > O o @ *   3.",
"3.3.  ;.+.[ D F q.q.q.q.q.q.q.q.q.q.q.q.q.q.q.q.q.q.q.q.q.q.q.q.q.q.q.q.q.q.q.q.q.q.q.q.q.p j j p , , = O & > = 5 > O o @ =   3.",
"3.3.  ;.X.[ D F q.q.q.q.q.q.q.q.q.q.q.q.q.q.q.q.q.q.q.q.q.q.q.q.q.q.q.q.q.q.q.q.q.q.q.q.q.p j j i 5 > 5 5 % o O > > + o # *   3.",
"3.3.  ;.+.[ D F q.q.q.q.q.q.q.q.q.q.q.q.q.q.q.q.q.q.q.q.q.q.q.q.q.q.q.q.q.q.q.q.q.q.q.q.q.p j j i 5 > 5 5 $ o o = , + o @ *   3.",
"3.3.  ;.+.[ D F q.q.q.q.q.q.q.q.q.q.q.q.q.q.q.q.q.q.q.q.q.q.q.q.q.q.q.q.q.q.q.q.q.q.q.q.q.p j j i 5 , 5 5 $ o O > , O o @ *   3.",
"3.3.  ;.+.[ D D q.q.q.q.q.q.q.q.q.q.q.q.q.q.q.q.q.q.q.q.q.q.q.q.q.q.q.q.q.q.q.q.q.q.q.q.q.p j j i 3 > , , # o o = , o X @ *   3.",
"3.3.  ;.+.[ D F q.q.q.q.q.q.q.q.q.q.q.q.q.q.q.q.q.q.q.q.q.q.q.q.q.q.q.q.q.q.q.q.q.q.q.q.q.p a j i 5 > 0 l - o O : 5 4 4 4 =   3.",
"3.3.  ;.+.[ D F q.q.q.q.q.q.q.q.q.q.q.q.q.q.q.q.q.q.q.q.q.q.q.q.q.q.q.q.q.q.q.q.q.q.q.q.q.p j j i 5 : d ^ 4 X o = 6 j z p *   3.",
"3.3.  ;.+.[ D F q.q.q.q.q.q.q.q.q.q.q.q.q.q.q.q.q.q.q.q.q.q.q.q.q.q.q.q.q.q.q.q.q.q.q.q.q.p j j i , : i P 4 X o : 6 p j i *   2.",
"3.3.  ;.+.[ D F q.q.q.q.q.q.q.q.q.q.q.q.q.q.q.q.q.q.q.q.q.q.q.q.q.q.q.q.q.q.q.q.q.q.q.q.q.p f j i 5 , - * 4 y q 5 , 6 8 0 q   2.",
"3.3.  ;.+.[ D F q.q.q.q.q.q.q.q.q.q.q.q.q.q.q.q.q.q.q.q.q.q.q.q.q.q.q.q.q.q.q.q.q.q.q.q.q.p j j i 5 5 & . 4 z k 6 > , : 6 u   3.",
"3.3.  ;.+.[ D F q.q.q.q.q.q.q.q.q.q.q.q.q.q.q.q.q.q.q.q.q.q.q.q.q.q.q.q.q.q.q.q.q.q.q.q.q.p j j i 5 5 & o 4 k a 6 , , , 3 -   3.",
"3.3.  ;.+.[ H D q.q.q.q.q.q.q.q.q.q.q.q.q.q.q.q.q.q.q.q.q.q.q.q.q.q.q.q.q.q.q.q.q.q.q.q.q.p p j i 5 5 & X 4 k j 6 > , 5 3 *   <.",
"3.3.  ;.+.[ D D q.q.q.q.q.q.q.q.q.q.q.q.q.q.q.q.q.q.q.q.q.q.q.q.q.q.q.q.q.q.q.q.q.q.q.q.q.p j j i 5 , - $ 6 p i 6 > , , 3 *   3.",
"3.3.  ;.+.[ D F q.q.q.q.q.q.q.q.q.q.q.q.q.q.q.q.q.q.q.q.q.q.q.q.q.q.q.q.q.q.q.q.q.q.q.q.q.p j j i , > 0 j 0 > 5 , , 5 5 5 *   3.",
"3.3.  ;.+.[ D F q.q.q.q.q.q.q.q.q.q.q.q.q.q.q.q.q.q.q.q.q.q.q.q.q.q.q.q.q.q.q.q.q.q.q.q.q.p j j i , > 0 k 0 > > 5 , = = = *   3.",
"3.3.  ;.+.[ G D q.q.q.q.q.q.q.q.q.q.q.q.q.q.q.q.q.q.q.q.q.q.q.q.q.q.q.q.q.q.q.q.q.q.q.q.q.p j j i 5 > 0 k 0 > , 6 > o X @ *   3.",
"3.3.  ;.+.[ D D q.q.q.q.q.q.q.q.q.q.q.q.q.q.q.q.q.q.q.q.q.q.q.q.q.q.q.q.q.q.q.q.q.q.q.q.q.p j j i 5 > 6 q 6 , 5 & $ % & & +   3.",
"3.3.  ;.+.[ D F q.q.q.q.q.q.q.q.q.q.q.q.q.q.q.q.q.q.q.q.q.q.q.q.q.q.q.q.q.q.q.q.q.q.q.q.q.p a j i 5 , > > > 5 5 O o , 8 = .   3.",
"3.3.  ;.+.[ D G q.q.q.q.q.q.q.q.q.q.q.q.q.q.q.q.q.q.q.q.q.q.q.q.q.q.q.q.q.q.q.q.q.q.q.q.q.p j j i , , , 5 5 5 > + O > 6 = X   3.",
"3.3.  ;.+.[ D F q.q.q.q.q.q.q.q.q.q.q.q.q.q.q.q.q.q.q.q.q.q.q.q.q.q.q.q.q.q.q.q.q.q.q.q.q.p j j i 5 , 5 5 > , 5 > = + X       3.",
"3.3.  ;.+.[ D Z q.q.q.q.q.q.q.q.q.q.q.q.q.q.q.q.q.q.q.q.q.q.q.q.q.q.q.q.q.q.q.q.q.q.q.q.q.p f j i 5 > 5 5 5 5 , 5 1 ;       3.3.",
"3.3.  ;.+.[ H D q.q.q.q.q.q.q.q.q.q.q.q.q.q.q.q.q.q.q.q.q.q.q.q.q.q.q.q.q.q.q.q.q.q.q.q.q.p j j i 5 > > 5 5 5 , +         3.3.3.",
"3.,.  ;.+.[ D D q.q.q.q.q.q.q.q.q.q.q.q.q.q.q.q.q.q.q.q.q.q.q.q.q.q.q.q.q.q.q.q.q.q.q.q.q.p j j i 5 5 5 > 5 6 5 X       ,.,.3.3.",
"3.5.  ;.+.] V F q.q.q.q.q.q.q.q.q.q.q.q.q.q.q.q.q.q.q.q.q.q.q.q.q.q.q.q.q.q.q.q.q.q.q.q.q.p a j i 5 > 3 3 > = :       5.4.5.4.3.",
"3.0.  ;.+.' i F q.q.q.q.q.q.q.q.q.q.q.q.q.q.q.q.q.q.q.q.q.q.q.q.q.q.q.q.q.q.q.q.q.q.q.q.q.p j j i 5 > 5 6 @ . X     0.0.0.0.0.3.",
"3.0.  ;.+.' p F q.q.q.q.q.q.q.q.q.q.q.q.q.q.q.q.q.q.q.q.q.q.q.q.q.q.q.q.q.q.q.q.q.q.q.q.q.p j j p > > > &         9.0.7.0.0.0.3.",
"3.9.  ;.+.' a a j a j j a j j p p a p a p j p p p p j p a p a a p j p p p p a j a a p l a a j j i 5 5 & .       0.0.9.0.0.0.0.3.",
"3.9.  ;.+.' a j j j j j j j j j j j j j j j j j j j j j j j j j j j j j j j j j j j j j j j j k p > 5 $ .   5.5.7.8.0.7.9.0.9.3.",
"3.9.  -.X.E 4 6 7 7 7 7 6 7 7 7 7 7 7 7 7 7 7 7 7 7 7 7 7 7 7 7 7 7 7 7 7 7 7 7 7 7 7 7 7 7 7 7 6 > *       ,.,.6.0.0.0.0.9.0.3.",
"3.9.  -.X.Q < 1 1 1 1 1 1 1 1 1 1 1 1 1 1 1 1 1 1 1 1 1 1 1 1 1 1 1 1 1 1 1 1 1 1 1 1 1 1 1 1 1 1 3 *     :.3.1.6.0.0.7.8.0.7.3.",
"3.3.                                                                                                    3.3.3.3.3.3.3.3.3.3.3.3."
};
