/* XPM */
static char *_f4213a53a974fd6ddd245b57f374cfd4HywqvvN7vLu6tus[] = {
/* columns rows colors chars-per-pixel */
"64 64 144 2 ",
"   c #000000",
".  c #05050A",
"X  c #0C0C0C",
"o  c #131313",
"O  c #1C1C1C",
"+  c #272727",
"@  c #2A2A2A",
"#  c #323232",
"$  c #3A3A3A",
"%  c #444444",
"&  c #4B4B4B",
"*  c #515151",
"=  c #595959",
"-  c gray38",
";  c #6F6F6F",
":  c gray45",
">  c gray49",
",  c #907D2D",
"<  c #46AD0A",
"1  c #4AAC0F",
"2  c #4CB20C",
"3  c #57B711",
"4  c #5AB513",
"5  c #6BBF17",
"6  c #71A633",
"7  c #72A832",
"8  c #5AD50F",
"9  c #5CDA0F",
"0  c #5CDD11",
"q  c #6FC617",
"w  c #78C21C",
"e  c #69D617",
"r  c #63D811",
"t  c #6AD915",
"y  c #74D916",
"u  c #78DB16",
"i  c #78D11C",
"p  c #73D81C",
"a  c #7BDA1A",
"s  c #56E20F",
"d  c #6DE014",
"f  c #6EE11E",
"g  c #7EE626",
"h  c #76E829",
"j  c #79EA2A",
"k  c #A78C2C",
"l  c #8CBB36",
"z  c #8FB83A",
"x  c #81CF1C",
"c  c #87D41C",
"v  c #8ED71F",
"b  c #8DDA1D",
"n  c #91DB1D",
"m  c #85EB19",
"M  c #8DE91C",
"N  c #9AF51F",
"B  c #93CD2A",
"V  c #8DD524",
"C  c #8CD923",
"Z  c #91D423",
"A  c #91D920",
"S  c #94D028",
"D  c #9ADC2A",
"F  c #A4CD3B",
"G  c #A9D732",
"H  c #A8D932",
"J  c #96E727",
"K  c #97F522",
"L  c #9CF823",
"P  c #8CE230",
"I  c #A4FB21",
"U  c #AAFF21",
"Y  c #B7F637",
"T  c #BDF53E",
"R  c #8D9E4F",
"E  c #929142",
"W  c #8E9B53",
"Q  c #929D54",
"!  c #8FA848",
"~  c #90AF44",
"^  c #91A64C",
"/  c #96AD4B",
"(  c #94A254",
")  c #A6AE55",
"_  c #A5B154",
"`  c #A7B958",
"'  c #B3BC58",
"]  c #BABF5B",
"[  c #F0BE5F",
"{  c #C6B46A",
"}  c #CAB66D",
"|  c #D8BB73",
" . c #F0BF60",
".. c #AEC64A",
"X. c #B4DE46",
"o. c #AAC25D",
"O. c #B6C656",
"+. c #BCC258",
"@. c #BDC362",
"#. c #BFD160",
"$. c #C4C95F",
"%. c #E5D65E",
"&. c #E3DC5D",
"*. c #C1C767",
"=. c #D8D673",
"-. c #F0C261",
";. c #F0CB64",
":. c #E7D460",
">. c #EFD665",
",. c #E6D860",
"<. c #EFD768",
"1. c #ECDB68",
"2. c #F0D667",
"3. c #F0D867",
"4. c #F0D768",
"5. c #F0D868",
"6. c #F3DE71",
"7. c #C4E56C",
"8. c #DBE669",
"9. c #EAE26F",
"0. c #ECE877",
"q. c #E2E67B",
"w. c #F4E075",
"e. c #F6E57C",
"r. c #F8E77F",
"t. c #F7E87F",
"y. c #F8E87F",
"u. c #818181",
"i. c #949494",
"p. c #9B9B9B",
"a. c #A4A4A4",
"s. c #ADADAD",
"d. c #B4B4B4",
"f. c gray74",
"g. c #F4E780",
"h. c #F8E981",
"j. c #C5C5C5",
"k. c #CCCCCC",
"l. c #D4D4D4",
"z. c gray86",
"x. c #E4E4E4",
"c. c #ECECEC",
"v. c #F6F6F6",
"b. c #FBFBFB",
/* pixels */
"5.3.5.4.3.3.3.5.5.5.5.5.5.5.5.3.5.5.5.5.5.5.5.5.5.5.5.5.5.    5.5.5.5.5.5.5.5.5.5.5.5.4.5.<.2.5.5.5.5.3.<.<.<.1.5.5.5.5.5.5.5.5.",
"5.w.w.w.w.w.w.6.w.w.w.e.w.w.w.w.w.w.w.w.w.6.>.5.5.4.5.3.        . ;.4.5.5.5.4.2.;.2.;.2.5.5.5.5.5.<.5.>.w.w.w.w.5.3.5.5.5.5.5.5.",
"5.h.h.h.h.>.>.>.>.5.h.h.h.h.h.h.h.h.h.h.h.r.>.4.5.5..             5.5.5.5.5.4.5.5.5.5.5.3.5.5.5.5.5.5.3.h.h.h.h.5.5.5.5.5.5.5.5.",
"5.h.h.h.e.5.5.5.2.5.h.h.h.h.h.h.h.h.h.h.h.h.2.4.5.5..               . . . . 5.5.5.5.5.5.5.5.3.5.5.5.<.>.y.h.h.h.5.5.5.5.5.5.5.5.",
"5.h.h.h.e.>.5.2.>.5.h.y.h.h.h.r.h.h.h.h.h.e.>.<.X . . .               . X . <.5.4.5.5.5.5.5.5.5.5.5.5.>.e.h.h.h.5.2.5.5.5.5.5.5.",
"5.h.y.h.r.w.w.w.w.w.h.h.h.h.r.h.h.r.6.6.w.6.6.e.. .                     . . 5.5.<.<.5.<.5.5.5.5.5.5.5.3.6.w.w.6.5.5.3.5.3.5.5.3.",
"5.y.h.y.h.h.h.h.h.h.h.h.r.h.h.e.h.e.>.<.<.6.h.h..                       . . 5.<.<.<.5.5.5.5.5.5.5.<.5.3.<.>.>.>.5.5.5.5.5.5.5.5.",
"<.y.y.h.h.r.h.h.h.h.h.e.h.h.h.h.h.w.      . X                                   . X .       . 5.3.5.5.5.5.5.5.5.5.5.2.5.5.3.5.4.",
"4.r.e.h.h.h.h.h.h.h.h.h.h.h.h.h.h..       . .                                     . .         5.5.5.5.5.4.5.5.5.5.5.5.4.5.3.5.4.",
"4.h.h.h.h.h.h.h.h.h.h.h.h.h.h..                                                                 . 3.5.5.5.5.3.5.5.5.3.5.5.5.5.5.",
"5.y.h.h.r.6.6.6.6.6.6.6.6.6.6.                                                                    . . 5.<.5.5.4.5.5.5.5.5.5.5.3.",
"5.y.h.h.e.>.>.>.5.2.>.>.4..                                                                         5.5.5.3.3.5.5.5.5.5.3.4.5.5.",
"3.y.h.h.e.5.5.5.5.5.5.5.4.2.                                                                      5.5.5.5.5.5.5.5.5.3.5.5.4.5.3.",
"5.y.e.h.r.5.5.5.5.5.2.4.2.2.5..                         .             .                         5.5.5.5.<.5.3.5.5.<.5.5.5.5.5.5.",
"4.r.h.h.e.5.5.5.2.5.r.w.e.w.2..                     o # % % $   X $ % & @ X                   5.5.5.5.5.5.3.5.2.3.5.5.5.5.5.5.4.",
"4.r.h.h.r.5.5.5.5.5.h.h.h.e.>.3.2..               . % d.b.b.l.  @ z.v.b.i.@ .               5.5.5.5.5.5.5.5.5.5.5.5.5.2.5.5.3.5.",
"5.r.h.h.h.5.5.5.3.5.h.h.h.h.>.5.5..             o # : j.c.f.i.  O a.k.c.d.- @ .             5.5.5.5.5.5.5.5.5.5.5.4.5.5.5.3.5.5.",
"5.h.h.h.h.>.>.>.>.<.h.h.h.e.>.3.>.>.. .     .   @ s.v.b.f.@ . .   X * k.b.v.p.X         5.3.5.4.4.5.4.5.3.5.5.3.>.>.>.2.>.>.>.5.",
"4.5.6.5.6.e.e.e.y.e.5.1.6.w.e.e.w.e.            @ s.v.v.j.#     .   = l.v.v.p.o         5.5.3.5.5.4.5.5.5.5.5.2.w.e.e.e.e.e.e.2.",
"5.<.>.3.5.h.h.h.h.e.3.3.>.5.h.h.h..             @ d.b.b.f.@         * k.b.b.p.X             5.5.5.5.5.5.5.3.5.3.h.h.h.h.h.h.h.5.",
"5.5.5.5.5.h.h.h.h.y.3.3.5.5.h.h.h..             o * i.l.x.p.:   O W s.x.j.u.& .             5.5.5.5.5.5.5.5.3.2.y.h.h.h.h.h.r.4.",
"5.5.5.5.5.h.h.h.h.y.3.3.<.6.h.h.h.              . X & d.v.c.k.  @ l.c.v.p.# X .             . >.5.4.5.5.<.3.3.3.e.h.h.h.h.r.h.5.",
"5.5.5.5.5.h.h.h.h.h.3.5.<.6.h..                     + = u.u.;   o : > > & o                   . . 3.5.5.2.2.2.2.y.h.h.h.e.h.r.5.",
"5.5.5.5.5.6.5.5.5.5.3.<.3.5.5..                                     . .                         . 2.3.>.e.e.e.e.6.1.5.5.h.r.h.3.",
"5.5.5.5.5.3.3.2.3.2.5.3.3.3.>.                                                                  . <.3.3.y.h.h.h.5.4.5.2.y.h.h.3.",
"4.5.4.5.5.5.5.5.5.5.5.5.3.3.<..                                                                 . 3.3.3.e.h.h.h.5.5.5.5.e.h.h.5.",
"5.5.5.5.5.5.<.5.5.5.5.<.3.. .                                                                     . . 3.e.h.h.h.5.2.5.5.h.h.y.5.",
"5.-.-.-.-.-.-.-.-.-.5.5.3..                                                                         . h.5.5.5.5.r.h.e.e.5.5.5.5.",
"5.-. . . . . . .-.-.5.5.5..                                                                         . h.6.2.5.2.e.h.h.h.5.5.5.5.",
"4.-. . .[ -. . .-.-.5.5.5.                                                                          . h.5.4.5.3.r.h.h.h.5.5.5.5.",
"4.-.-.-.-.-.-.-.-.-.5.5.5.                                                                          . r.5.5.5.3.e.h.h.h.5.5.5.5.",
"5.4.2.4.2.4.2.4.4.4.5.5.<..                                                                           <.5.5.5.5.5.5.5.5.5.5.5.5.",
"<.5.5.5.5.5.5.5.5.5.5.5.                                                                                4.5.5.4.5.5.3.5.5.5.3.5.",
"5.3.5.4.5.<.3.5.5.5.5.5.                                                                                5.5.5.5.5.5.5.4.5.4.5.5.",
"5.5.3.5.5.3.2.5.5.5.5.5.              . 5.                                            5..               5.5.5.5.5.5.3.5.5.5.5.2.",
"5.3.5.5.5.5.5.5.5.5.5.5.              . 5.  .                                       . 5.                5.4.5.5.4.5.5.5.3.5.5.5.",
"5.5.3.5.5.5.5.5.5.5.5.5.              . 5.5.5.                                  . 3.3.<.                5.5.5.5.<.5.3.5.5.4.5.3.",
"4.5.5.5.5.<.3.5.5.5.<.5.                5.5.5.                                    5.3.<..               5.5.5.5.5.4.5.5.5.5.5.5.",
"5.<.4.5.5.3.5.2.5.5.5.5.                  5.5.5.5.                            5.5.5.5.                  5.5.5.5.5.3.4.5.5.5.<.5.",
"5.5.5.3.5.5.5.5.5.3.5.5.                  5.5.5.5.                          . 5.<.>..                   5.5.5.5.5.5.5.3.5.5.3.5.",
"3.5.5.5.5.5.5.5.5.5.                                                                                        5.5.5.5.5.5.5.5.5.5.",
"5.5.<.5.3.5.5.2.5.4.                                                                                        5.5.5.3.3.5.5.2.3.5.",
"5.5.5.3.2.2.5.5.2.4.                                                                                        5.5.5.5.5.<.5.5.2.5.",
"2.5.5.5.4.2.2.2.2.2.                                                                                        6.5.5.4.5.5.6.5.5.5.",
"5.5.3.5.2.[ [ [ [ -.                                                                                        h.h.5.2.5.5.h.h.h.5.",
"3.5.5.5.2. . . .-.-.                                                                                        h.h.5.2.5.5.e.h.h.5.",
"5.5.5.<.2.[ [ [ [ -.                      k 5.                                  . h.h.                      h.h.5.5.5.>.e.r.h.5.",
"5.5.5.5.4.-.;.-.-.;.                      w :.                                    h.y.                      h.h.w.5.6.5.h.h.h.5.",
"3.5.<.5.5.5.5.5.1.                      9 s                                       h.h.                          h.h.h.h.h.y.h.3.",
"5.5.5.3.5.5.5.5.5.                      r 0                                         h.T                         h.h.h.h.h.h.h.<.",
"5.5.5.5.<.5.5.5.5.                    &.L N                                         8.Y                         y.h.y.h.h.h.y.5.",
"5.5.3.5.5.2.5.5.5.5.                5.&.I U                                         d U . .                   . 0.h.h.h.h.h.h.5.",
"3.5.5.5.5.2.5.3.4.5.              3.5.&.K L a                                       y M M V                 C A 9.w.e.w.e.w.e.3.",
"5.5.5.3.5.5.5.<.p e J           H H G P h h f                                       x 1 < 6 . .           . x A %.>.>.>.>.>.>.3.",
"5.<.5.5.5.5.3.5.t 8 m I       A A C A g h j f                                       x 1 2 7 ( W .       . 1 c A ,.5.5.3.5.3.3.3.",
"3.>.>.>.>.>.>.>.t 8 m U I N V A n v Z g j                     W R                     1 2 7 Q Q .   . . 1 1 i A %.3.>.>.>.>.>.5.",
"<.6.6.6.6.6.6.6.D C q 3 3 5 C v n Z n .                     . } }                       8 i S Z ~ ^ ^ l c c v v 1.w.w.6.6.w.6.<.",
"5.h.h.h.h.g.] ..n D 5 1 1 4 A n v v .                         | |                       9 u n b ! Q Q z n v n C 0.h.h.h.h.h.h.<.",
"5.h.h.h.h.g.] ..b A q 2 2 5 A A C .                           } {                           B S / ( ( z D X.y.t.y.y.h.y.h.y.h.<.",
"<.h.h.e.h.h.] ..b n u r 9 t A A A                             ( R                           Q W ' +.+.#.7.q.h.h.y.h.y.h.y.h.h.<.",
"5.y.e.h.h.e.' ..b n y 9 9 r Z n                               ( (                               ' +.+.#.7.9.w.6.y.y.y.h.h.y.h.3.",
"5.y.h.h.h.e.@.O.F F V y y a Z n                               E E                               ) _ _ ` o.$.1.>.e.h.h.y.y.h.h.<.",
"5.h.h.e.h.h.=.*.] ] F n A A A v                               , ,                               W ^ R W R ) 5.3.y.h.y.h.y.h.y.<.",
"<.5.<.<.5.4.4.4.4.4.5.5.5.3.3.3.                              5.<.                              >.3.3.3.5.5.5.<.<.3.5.5.<.5.<.<."
};
