/* XPM */
static char *_cbcf760c92f4498efa6c67e4c37833aEdXqVEeURwlSiDXR[] = {
/* columns rows colors chars-per-pixel */
"64 64 115 2 ",
"   c #000001",
".  c #05060A",
"X  c #907B2B",
"o  c #47AB0D",
"O  c #4BAD0E",
"+  c #4CB20C",
"@  c #53B40E",
"#  c #4EA61A",
"$  c #58AC1E",
"%  c #5AB513",
"&  c #5EBE13",
"*  c #64BE16",
"=  c #71A633",
"-  c #72A832",
";  c #5AD30E",
":  c #5DDA0F",
">  c #72C618",
",  c #69D617",
"<  c #6AD913",
"1  c #73DB16",
"2  c #78DB16",
"3  c #78D11C",
"4  c #73D81C",
"5  c #7EE626",
"6  c #A9B02D",
"7  c #B3A132",
"8  c #B7A936",
"9  c #B3B635",
"0  c #81CF1C",
"q  c #8ED71F",
"w  c #8DDA1C",
"e  c #92D81F",
"r  c #8DE91C",
"t  c #9FFB1F",
"y  c #A1FB1F",
"u  c #90CA2D",
"i  c #8AD327",
"p  c #81D921",
"a  c #8BDA22",
"s  c #91D720",
"d  c #93DA21",
"f  c #A1D82C",
"g  c #A4CD3B",
"h  c #A8D932",
"j  c #96E727",
"k  c #9CE32B",
"l  c #9DF320",
"z  c #A3E923",
"x  c #A2F921",
"c  c #A8F924",
"v  c #8D9E4F",
"b  c #939547",
"n  c #8F9B53",
"m  c #909B55",
"M  c #959C58",
"N  c #99A24F",
"B  c #8FA050",
"V  c #90A050",
"C  c #9FAA55",
"Z  c #A1AE54",
"A  c #ABAE56",
"S  c #A5B154",
"D  c #A4B15B",
"F  c #A7B958",
"G  c #B3BC58",
"H  c #BABF5B",
"J  c #D4BD5F",
"K  c #F0BD5F",
"L  c #F0BF60",
"P  c #AEC649",
"I  c #B0C845",
"U  c #AAC25D",
"Y  c #B6C656",
"T  c #BDC359",
"R  c #BDC362",
"E  c #C4C95F",
"W  c #CFCE59",
"Q  c #E5D65E",
"!  c #D3E44D",
"~  c #C1C767",
"^  c #D8D673",
"/  c #F0C361",
"(  c #F0CC64",
")  c #EFD665",
"_  c #EFD768",
"`  c #ECDB68",
"'  c #F0D667",
"]  c #F0D867",
"[  c #F0D768",
"{  c #F0D868",
"}  c #F3DE71",
"|  c #C5E76B",
" . c #DEE370",
".. c #EDE776",
"X. c #ECE877",
"o. c #F4E175",
"O. c #F6E379",
"+. c #F5E479",
"@. c #F6E47B",
"#. c #F7E57B",
"$. c #F7E57C",
"%. c #F7E67C",
"&. c #F8E77F",
"*. c #F6E87E",
"=. c #F7E87F",
"-. c #F8E87F",
";. c #F4E780",
":. c #F7E980",
">. c #F8E880",
",. c #F9E981",
"<. c #F9E983",
"1. c #F8EA82",
"2. c #F9EB83",
"3. c #F9EA85",
"4. c #FAED87",
/* pixels */
"{ ] { [ ] ] ] ] ] ] ] ] ] { { { ` ' ] ] { ] ] ] ] { { ] ] { { ] [ [ ] { { { { { ] ] { [ [ [ ] { [ { ] { ` ' ] ` ] { { { { { { { ",
"{ o.o.o.o.o.o.o.o.} o.o.o.o.o.} o.o.o.o.o.} ) ] ] { { { { { ] ( ( ( ] { ] { ] ' ( ' ( ' ] { { { { { [ ] o.o.o.o.{ ] { { [ { { [ ",
"{ <.<.3.-.) ) ) ) { 4.<.<.<.3.3.<.<.<.<.4.#.' ] { { ' { { { { { { { { { { { [ { { { { { { { ] { { { [ ) =.<.<.<.{ ' { { { { { { ",
"{ %.<.:.=.] { ] ] { <.<.-.-.=.<.<.-.=.<.<.#.' ] { { ] { { { { [ { { { { { _ { [ { { { { { { { [ { { { ) #.=.<.<.{ { { { { [ { { ",
"{ -.-.<.%.) ) ) ' ` <.%.<.-.<.=.-.<.<.4.4.#.) ] ) ) { { { { { { { { [ { ] { { { [ { ] { { { ) { { { { ) %.4.3.3.{ ] { [ ] { { { ",
"{ -.=.<.&.o.o.o.o.o.<.<.-.-.-.-.-.&.{ o.} } } o.o.o.{ ) { { ] { { ] { { { [ { ] [ ` { [ { { { { { { { ] } } } } { ] { { { [ { ] ",
"{ -.<.-.&.<.<.<.<.<.-.-.-.=.<.#.<.o.) ] ) [ 3.3.3.4.o.] { { { { [ { ] { { { { [ [ { { { { { { { { { { ] ' ] ] ) { { ] { { { [ { ",
"{ -.=.-.<.&.&.<.-.-.&.<.-.<.=.<.<.o.' { { } 3.-.<.<.o.] { { { { { ] { { _ ] { { { { ] [ { { [ ] ] { [ { ` ' ] ] { { { { [ ] { { ",
"] -.&.<.%.<.%.<.<.-.<.-.-.<.-.-.<.#.] ] ) } 3.-.<.3.o.) { { ] { { { ) { { { { { { { { { ] [ { { { { [ ] ] { { ] { { { { ] { { { ",
"{ -.-.-.<.<.<.<.<.<.3.3.<.<.<.<.3.&.) ] ) } 4.<.<.4.O.[ { { [ { { [ { { { ] ] { { ] ] { { { { { ] { { { { [ { { { { { { [ { { ] ",
"` &.<.=.=.} } } { } } { } { { o.} { ] ] ] { } } { o.{ { ) { { { { { { { { { { { { { { { { { { { [ { { { { { [ { { { { [ [ { [ { ",
"{ &.-.<.#.) _ ) { { ] ] { ] ] ] ) ] [ { [ ] ] ) ] ] ) { { { ] { { { { { { { ] { { ] { { [ ] { { { { { [ ] { [ [ [ { { { { ] { { ",
"' -.-.<.&.' ] { [ { { ' { [ { { { ] { [ [ [ ] { ] { ] { { ] { [ ] { { { { { ] ] { ] ] { { { { ] { [ { { { ] [ ` ] { { { { { [ { ",
"{ -.%.<.%.{ { { { ] ) ) ] ) [ { { [ { { { ` { [ [ { { { _ { { { { [ { { } { ` ] { { ] ] { ] { { ] { ] { { { { { { [ { ] { ] { { ",
"] &.<.&.%.{ { { ] { O.O.&.o.) { { { [ { [ { { { [ { [ { { { [ { { { ' / ( / ( / ( ( / ' { { { { { ] { [ ] { { { { { { { ] { ] { ",
"] &.&.<.&.{ { { { { 3.<.3.%.) { ] { { { ] { { ] { { { ] ] { { { ` { / K K K K K / K K ( { { { { { { { { { [ { ] { [ [ { { { [ { ",
"{ &.<.<.#.] { { ] ] <.-.<.#.' ' ] ] ] ] ] ] ] ] ] ] ] ] { { { ] { { / K L L L L L K K ' { [ { { [ ] { { { [ { { { [ ` ' [ ] ] ] ",
"] <.3.4.-.) ) ) ' ` 4.<.4.#.Q ' ] ' ' ] ' ' ' ' ) ' ) ] ] { { [ { { ( K K K K K K K K ( { { ] { { { { [ [ [ ] { ] ] ) ) ' ) ) { ",
"] { } { ` O.#.O.#.#.] } ` o.#.#.O.#.o.-.#.#.O.O.#.&.} ) { { { { { { [ ' ' ' ] ' ' ( ] ] { { ] [ { { { ] { ` [ ] o.#.#.O.O.#.#.{ ",
"{ _ ) ) [ <.<.3.<.=.) ' ' ] 4.<.<.<.<.<.-.-.<.-.<.3.o.' { [ ] { { { ` { { [ { { { { { { { { { { ] [ { { [ [ [ ] &.<.<.<.3.<.<.{ ",
"{ { { ] { 3.<.&.<.#.) [ ) } <.-.<.-.<.&.-.-.-.-.&.<.o.] { ] { { { { { { [ [ [ [ { { { { [ { ] { { { { { { { [ ] #.<.=.<.%.<.&.] ",
"{ { { ] { 4.<.&.=.#.) ` ) { <.<.&.-.-.<.-.<.-.<.<.<.o.] ` { { ] { { { { [ [ { { { { { { ] ] [ { [ { { ] ] { [ ] %.:.<.:.<.-.<.] ",
"{ { { ] { <.-.<.2.=.) { ) } 4.3.<.=.3.3.<.3.-.-.=.<.} ) ] ] ] { [ { ] ] ] ' ] ' ] ' ] ] ' ] ] { { { { ] ] ) ] ' :.3.4.<.-.-.#.{ ",
"{ { { { { } { { } { { { { { { { { { { [ ` } <.<.<.-.&.&.O.-.o.) { ) } &.#.#.#.&.%.#.#.&.#.&.-.o.' { ] ' #.#.#.%.{ _ { [ %.=.<.{ ",
"{ { { { { ] ] ] ] ] [ { ' ] { ] { { { { ' { 3.-.-.&.-.<.-.<.o.) { ) o.4.<.<.=.<.-.<.-.-.<.-.4.[ ) { { ) %.<.-.<.{ { ] ] &.-.-.{ ",
"` { { ] ] { [ [ [ [ { { { { { { { { { { ] } 3.<.-.<.-.-.<.<.o.) { ) o.<.=.-.-.-.<.-.-.<.<.-.4.[ ) { ] ) #.<.-.<.{ { ] { %.<.<.` ",
"{ { { { { { { { { { ] [ { { { { ] { { { ` } <.<.<.<.-.<.<.3.o.) [ ) o.3.<.<.<.=.<.<.<.<.=.<.4.` ) { { ] %.%.<.<.{ ] { { -.<.&.' ",
"{ / / / / / / / / / { { ] { { ] { { { ] { { { { { { { { { { { { { { { { ] { { { { { { { { { { #.-.=.=.3.{ { { { -.<.%.%.{ { { [ ",
"{ / L L L L L L / / { { { { { { ' { { { ] { ) { { ] ] ] ] ] { [ { { { ] { { ] ] ] ] ] ] ' [ ) O.<.<.-.<.} { ] ] &.<.<.<.{ { { { ",
"] / / K K / / K / / { { { { { { { { [ { [ { { ] { { ] { { { { { { { ] { { { { { { ` ] { ] ` ) #.<.-.-.<.{ { { ] #.-.-.-.{ { { { ",
"] / K / / / K / L / { { { { { ] ] { { { { { { { { { ] { { { { ] ] { { { { { { { { { { { ] ] ) #.<.-.-.<.{ { { ] #.=.<.<.{ { { { ",
"[ [ [ [ [ [ [ [ [ [ { { { { { { { [ { ] { ] { [ { { { { { ] { { { { ] { { ] { { { ] { { ] ] { { { { { ] { { { { { { { { { { { { ",
"{ ] { { [ { { { { { { { { { { { ] { { [ [ { { { { { . { { [ { ] .   . ] ] [ { { { { . . . . . . . . } { { { [ ] { { { [ { { { [ ",
"{ { [ { { { ] [ { [ { { { { { { [ { { { { { { { { {   { { [ ` )     . ` ] ] [ ` { {     . . . . . . { { ] { { { { [ { { ] { ] { ",
"{ [ { ] { ] { { { [ [ { { [ { { { { { { { { { { { {     .   . ) .   . ) { { .                 . . { { { { { { { { { { ] { [ { { ",
"] { { [ { { ] { { { { { { { { { { { { { [ { { { { { .       . {     . ) { {                     . { { { [ { ] { ] { [ { { ] { { ",
"{ { ] [ { ] { { { [ { { { { { { ] { { { { { { { { { .       . {     . { [ {                 . ] { { { { { { { [ ] { [ { { [ { { ",
"{ { { { { { [ { { { { . . . { { [ { { ] . . . . . . .         { .     { { { .               . ] { { { { [ { ] { { { { ] { ] { { ",
"] { ` [ { [ { { { { {     . { { { { ] ] .                                                     . . { { { { { { { { [ { { ] { ] { ",
"{ { [ [ ] { { [ { { { .   . . { { { { { .                                     ] { {             . { { { { { [ { ` { { [ { { { [ ",
"{ [ [ { ] { [ { _ { { { .         .                                           { ] {     { {     . ' ] ] { { { { [ [ ] { [ { ] { ",
"{ { { { { { { ] { [ ] { .                                                     ] [ {     { { .   . . ] ] { ] { { ] { { { { { { [ ",
"] { [ { ] { { { [ [ { ) .               <.#..                                 ] [ {     { [         ] ] ] ] { ] [ { { { { { ] [ ",
"{ { { ] [ ( ' ] ' ] { . .               %.o..                                           } {         . . . . } ` { { [ { { { { { ",
"{ ] { { ] K K K L / { .                                                                 <.<.                <.<.{ ] { { 3.<.<.] ",
"{ { { { ] L / L / / {                                       .                                             . <.=.{ { { { <.<.-.] ",
"{ { [ { ] K K K L                                         { [ [                                         O.3.-.<.{ { { ) &.-.-.] ",
"{ ] [ [ ] ( / / /                                     { { { ` ) .                                       #.=.<.<.o.{ } { %.-.<.{ ",
"{ ] { { ] { { { { .                                   J { { { f d d                                         <.-.<.<.<.<.=.-.-.] ",
"{ { { [ { { { { ]                                     . . { . . . .                                         <.<.-.-.<.-.-.<.<.] ",
"] { ] { [ { { { ]                                         ! . .                                             ....=.-.-.-.-.-.=.] ",
"{ [ { { [ [ ` { { ` ] x y z 7 8 ]             o           y . . . l @ O I .           .   . .         . . . a e X.<.<.<.<.<.<.{ ",
"{ { { { ] { { { { ` ) c t z 6 9 ]             @ .         x .   k k $ # W .         1 r r a u u     d p . . a d ..o.#.o.#.+.o.` ",
"] { { [ { [ { ) 4 , j c y l q d h           . :           .     m n . . .           0 o o = M m     d > . . 3 d Q ) ) ) ) ) ] ] ",
"[ { { ] { ] { . .                                           . . V B                     + -         d > . . q d Q ' ] ] ] ] ] ] ",
"{ ) ) ) ) ) ) . .                     5                       . B B                     + -         d > . . 0 d Q ) ) ) ) ) ' ] ",
"' } } } } } }                         * .                                               ; 3               . q a ` o.{ o.o.o.` { ",
"{ <.3.<.3.%.H             %           %                                                 : 2                 e q X.=.<.<.<.<.4.{ ",
"{ -.<.>.:.;.H             &           *                                                 . .                 =.=.=.<.=.-.-.-.<.] ",
"] -.;.:.:.;.H P q         <                                                                     G T     . . <.<.=.:.-.<.-.<.-.] ",
"{ -.&.=.%.#.H P w                                                             D                 G T     |  .o.} &.-.<.-.<.-.<.' ",
"{ -.=.<.<.%.R Y g g i                                         .               C                 Z S S F U E ) ) #.<.=.-.-.-.<.] ",
"{ -.<.#.<.<.^ ~ H H g                                       b X               N                 v v v v v A { { %.<.<.=.%.<.=.] ",
"{ { { { [ { { { { [ ]                                                                           { { { _ { { { ) { ' { { { { ] ] "
};
