/* XPM */
static char *dc46bf456f0d45f2a836df9ab312e91c0xctnL3GJhKD52NT[] = {
/* columns rows colors chars-per-pixel */
"64 64 124 2 ",
"   c #000000",
".  c #05050A",
"X  c #907D2D",
"o  c #46AD0A",
"O  c #4AAC0F",
"+  c #4CB20C",
"@  c #57B711",
"#  c #5AB513",
"$  c #6BBF17",
"%  c #71A633",
"&  c #72A832",
"*  c #5AD50F",
"=  c #5CDA0F",
"-  c #5CDD11",
";  c #6FC617",
":  c #78C21C",
">  c #69D617",
",  c #63D811",
"<  c #6AD915",
"1  c #74D916",
"2  c #78DB16",
"3  c #78D11C",
"4  c #73D81C",
"5  c #7BDA1A",
"6  c #56E20F",
"7  c #6DE014",
"8  c #6EE11E",
"9  c #7EE626",
"0  c #76E829",
"q  c #79EA2A",
"w  c #A78C2C",
"e  c #8CBB36",
"r  c #8FB83A",
"t  c #81CF1C",
"y  c #87D41C",
"u  c #8ED71F",
"i  c #8DDA1D",
"p  c #91DB1D",
"a  c #85EB19",
"s  c #8DE91C",
"d  c #9AF51F",
"f  c #93CD2A",
"g  c #8DD524",
"h  c #8CD923",
"j  c #91D423",
"k  c #91D920",
"l  c #94D028",
"z  c #9ADC2A",
"x  c #A4CD3B",
"c  c #A7D831",
"v  c #96E727",
"b  c #97F522",
"n  c #9CF823",
"m  c #8CE230",
"M  c #A4FB21",
"N  c #AAFF21",
"B  c #B7F637",
"V  c #BDF53E",
"C  c #8D9E4F",
"Z  c #929142",
"A  c #8E9B53",
"S  c #929D54",
"D  c #90AF44",
"F  c #91A64C",
"G  c #96AD4B",
"H  c #98BD41",
"J  c #94A254",
"K  c #A1AE54",
"L  c #ABAE56",
"P  c #A5B154",
"I  c #A7B958",
"U  c #B9BF57",
"Y  c #B3BC58",
"T  c #BABF5B",
"R  c #F0BE5F",
"E  c #C6B46A",
"W  c #CAB66D",
"Q  c #D6BA72",
"!  c #DABC74",
"~  c #F0BF60",
"^  c #AEC64A",
"/  c #B4DE46",
"(  c #AAC25D",
")  c #B6C656",
"_  c #BCC258",
"`  c #BDC362",
"'  c #BFD160",
"]  c #C4C95F",
"[  c #E5D65E",
"{  c #E3DC5D",
"}  c #C1C767",
"|  c #D8D673",
" . c #F0C261",
".. c #F0CB64",
"X. c #E7D460",
"o. c #EFD665",
"O. c #EFD768",
"+. c #ECDB68",
"@. c #F0D667",
"#. c #F0D867",
"$. c #F0D768",
"%. c #F0D868",
"&. c #F3DE71",
"*. c #C4E56C",
"=. c #DBE669",
"-. c #EAE26F",
";. c #ECE877",
":. c #E2E67B",
">. c #F4E075",
",. c #F5E479",
"<. c #F5E47A",
"1. c #F6E57B",
"2. c #F6E57D",
"3. c #F7E67C",
"4. c #F7E67D",
"5. c #F8E77F",
"6. c #F8E87F",
"7. c #F4E780",
"8. c #F8E880",
"9. c #F8E881",
"0. c #F8EA83",
"q. c #F9EA83",
"w. c #F9EB84",
"e. c #FAEC86",
/* pixels */
"%.#.%.$.#.#.#.%.%.%.#.%.%.$.%.#.%.$.%.$.%.%.#.#.#.#.%.%.o.    o.o.%.#.#.%.%.%.%.#.#.%.$.$.#.%.%.#.%.$.%.@.#.#.#.#.o.%.%.%.$.%.%.",
"%.>.>.>.>.>.>.&.>.>.>.>.>.>.>.>.>.>.>.>.1.%.@.#.#.#.#.%..     . . ..$.%.#.%.$.@...@...$.%.%.%.%.%.%.%.o.>.>.>.>.%.o.%.%.%.+.%.%.",
"@.q.q.w.8.@.o.o.o.%.e.q.q.q.q.q.q.q.q.q.e.1.o.$.%.%.. .           %.%.O.%.%.$.%.%.%.%.%.%.O.%.#.O.%.%.o.5.e.q.w.%.%.%.%.%.%.%.%.",
"%.5.7.q.3.%.#.$.$.%.q.6.q.5.5.q.6.6.5.q.q.1.@.$.%.o..               . . . . O.#.%.%.%.%.#.%.%.%.%.%.O.#.1.q.5.8.%.%.%.%.$.%.%.%.",
"%.6.6.q.1.o.@.o.@.$.8.w.3.w.3.q.5.q.q.e.e.1.o.o.. . . .               . . . %.%.%.%.#.O.$.%.%.%.%.%.%.o.3.w.w.w.%.$.%.%.%.%.%.%.",
"$.6.6.5.8.>.>.&.&.,.5.3.q.3.w.3.8.5.$.>.&.&.>.>.. .                     . . %.%.%.%.%.%.%.%.%.%.%.#.#.#.&.>.>.&.%.$.%.%.%.%.#.%.",
"%.6.q.q.q.q.q.q.w.w.3.q.5.q.5.q.q.>.o.o.o.%.e.w.. .                     . . %.%.%.#.%.%.%.%.o.%.%.#.%.%.o.o.o.o.%.%.%.#.%.#.%.%.",
"%.6.6.6.5.q.3.q.5.5.q.5.8.3.q.3.8.1.    . . . .                               . . . .       . %.%.%.%.%.O.O.%.%.%.%.%.$.%.%.$.%.",
"@.5.5.q.8.5.7.q.q.5.q.5.5.8.5.q.w..       . .                                     . .       . %.%.%.%.%.O.%.#.%.%.%.%.$.#.%.%.%.",
"%.3.q.5.5.q.q.q.q.q.q.q.q.q.q..                                                   .             . %.#.%.%.%.%.$.%.%.%.%.%.O.%.#.",
"%.6.8.8.5.&.&.&.%.&.&.&.&.%.$..                                                                   . . %.#.%.%.%.%.%.%.#.%.$.%.%.",
"#.6.5.q.1.@.o.o.%.$.@.o.$..                                                                       . $.%.%.%.%.#.%.#.%.%.%.%.#.%.",
"%.6.q.5.5.#.#.%.$.$.$.$.%.%.                                                                      #.%.%.%.#.%.%.%.#.O.%.%.O.%.%.",
"$.6.3.q.5.#.#.#.%.$.$.o.$.o.%..                                       .                         $.%.$.%.O.%.%.%.%.%.%.%.#.%.#.%.",
"$.8.q.3.3.#.%.%.$.%.1.,.1.>.$..                                                               %.%.%.%.#.$.%.%.%.%.%.%.#.%.#.%.%.",
"@.7.9.9.5.%.%.%.%.%.q.q.q.1.o.$.$..                                                         %.%.#.%.%.O.%.#.%.$.%.#.$.%.%.%.$.%.",
"%.5.6.q.5.#.#.%.#.%.w.q.q.1.o.o.$..                                                         %.$.%.%.$.#.%.%.%.#.%.%.$.$.$.$.@.#.",
"$.q.q.e.5.o.o.o.o.o.e.q.q.1.o.o.o.o.. .                                                 %.%.%.%.%.%.%.%.#.%.$.%.o.o.o.$.o.o.o.#.",
"#.%.&.%.%.1.1.1.3.1.%.%.%.>.3.1.,.,..                                                   %.%.%.#.%.%.%.%.#.#.#.$.1.1.1.,.1.1.1.$.",
"#.$.$.$.%.5.q.q.q.6.#.#.o.%.e.q.q..                                                         %.%.%.O.%.#.#.#.#.$.3.q.q.q.q.q.q.%.",
"%.%.%.%.%.w.q.8.q.1.@.#.$.+.q.q.1..                                                         %.%.#.%.%.O.%.%.#.$.3.3.6.6.3.q.5.$.",
"%.%.%.%.%.e.8.5.6.1.#.#.$.#.q.6.3..                                                         . o.$.%.%.%.#.%.%.$.3.q.6.q.q.3.q.$.",
"%.%.%.%.%.e.w.5.q.6.%.%.$.%.e.. .                                                             . . %.%.%.$.$.$.$.q.5.e.w.5.5.5.$.",
"%.%.%.%.%.%.%.%.>.%.%.%.%.%.%..                                                                 . o.#.o.>.6.1.3.&.+.%.%.3.q.6.@.",
"%.%.%.%.%.@.$.$.$.$.#.%.O.O.#.                                                                  . O.#.#.1.q.q.q.$.$.$.$.5.5.6.#.",
"%.%.%.%.%.%.#.%.#.#.%.%.#.#.%..                                                                 . #.#.o.1.6.6.6.%.%.%.#.3.q.q.O.",
"%.%.%.%.%.%.%.%.%.%.#.%.#.. .                                                                     . . #.1.q.q.q.%.$.$.%.6.q.3.%.",
"%. . . . . . . . . .%.%.o..                                                                         . q.%.@.%.%.5.q.3.3.%.%.%.%.",
"%. .R R ~ ~ R ~  . .%.%.%..                                                                         . q.&.$.#.$.3.q.5.q.%.%.%.%.",
"$. . .R ~  . .R  . .%.%.%.                                                                          . q.%.%.%.$.3.q.5.6.%.%.%.%.",
"$. . . . . .R  . . .%.%.%.                                                                          . 3.%.%.%.%.5.5.q.q.%.%.%.%.",
"%.$.$.$.$.$.$.$.$.$.%.%.%..                                                                         . #.%.%.%.%.$.o.%.%.%.%.%.%.",
"$.%.%.#.%.#.$.%.%.%.%.%..                                                                             . %.#.%.$.#.%.%.%.%.%.$.%.",
"#.%.%.$.%.%.%.%.%.o.%.%.                                                                                %.%.%.%.%.%.%.#.#.%.#.%.",
"%.%.%.%.O.%.%.%.%.%.%.#.              . %.                                            %..               %.O.%.$.%.%.%.%.O.#.%.%.",
"O.%.%.%.#.%.%.%.%.%.%.%.              . o.. .                                       . %..               #.%.%.%.$.#.%.O.%.%.%.$.",
"%.%.%.%.%.%.o.%.%.%.%.#.              . %.%.%.                                    #.#.#..             . o.#.%.#.#.%.%.#.%.#.%.%.",
"#.%.%.#.%.%.%.%.%.$.%.%.              . %.%.%.                                  . %.O.%.                $.%.%.%.%.%.%.%.%.%.%.%.",
"%.%.%.$.$.#.%.#.%.%.$.%.                  %.#.%.o.                          . o.%.%.%.                  #.%.%.%.%.$.%.%.$.%.$.#.",
"$.#.%.%.%.%.%.%.%.#.%.O.                  %.%.%.%..                         . O.O.o..                   %.O.%.#.%.%.O.%.#.%.%.%.",
"%.%.#.%.%.o.%.%.#.#.                                                                                      . %.%.#.%.%.%.$.%.O.%.",
"O.#.$.%.%.%.%.%.$.$.                                                                                        %.%.%.O.%.%.#.%.#.%.",
"%.%.#.%.$.$.%.%.$.$.                                                                                        %.%.%.%.%.#.%.%.$.#.",
"%.%.%.%.$.@.@.$.@.$.                                                                                        %.%.%.%.$.%.%.%.%.%.",
"%.%.%.%.@.R R R R  .                                                                                        q.q.%.$.O.%.w.q.q.@.",
"O.%.#.%.@.R ~ R  . .                      . .                                     .                         5.q.%.#.%.%.q.q.5.$.",
"%.#.#.%.$.R R R R  .                      w o.                                    q.3.                      6.q.%.%.%.%.3.5.6.%.",
"%.%.%.#.$... . . ...                      : X.                                    q.w.                      q.q.>.%.&.%.3.5.q.%.",
"%.%.%.%.#.%.%.+.%.                      = 6                                       6.6.                          q.q.q.q.6.5.q.o.",
"%.#.#.%.%.%.%.%.%.                      , -                                         6.V                         q.6.6.6.q.5.q.O.",
"%.%.%.%.$.%.%.%.%.                    { d n                                         =.B .                       3.6.6.6.6.6.5.#.",
"%.o.%.%.%.#.%.%.%.%.              . %.{ M N                                         7 M . .                 . . ;.q.q.q.q.q.q.#.",
"%.%.$.%.%.#.%.#.$.%.              %.%.{ b n 5                                       1 s s g                 h k -.1.>.1.>.1.>.%.",
"%.%.%.%.%.%.%.O.4 > v         . c c c m 0 0 8                                       t O o % . .           . t k [ o.o.o.o.o.o.%.",
"%.$.%.#.O.%.#.%.< * a M       u p j k 9 0 q 8                                       t O + & J A .       . O y k [ o.%.%.%.%.%.%.",
"%.o.o.o.o.o.o.o.< * a N M d g p h p j 9 q                     A C                   . O + & S S . . . . O O 3 k [ o.o.o.o.o.o.%.",
"@.&.&.&.&.&.&.&.z h ; @ @ $ h u p j k .                       W W                       * 3 l j D F F e y y u k +.>.>.+.&.&.%.%.",
"O.q.w.q.q.3.T ^ p z $ O O # k u u u .                         ! Q                       = 2 p i F A A r p u p h ;.q.9.q.e.q.e.%.",
"%.6.8.8.7.7.T ^ i k ; + + $ k k k .                           W E                           f l G J J H z / 3.5.3.q.5.q.5.q.q.$.",
"%.6.8.8.8.7.T ^ p p 2 , = < k p k                           . J F                           S A Y _ U ' *.:.q.w.q.3.q.3.5.5.w.%.",
"O.6.3.q.5.,.T ^ i p 1 = = , k j                               J J                               Y ] U ' *.=.>.&.3.6.9.6.q.6.q.o.",
"%.6.5.5.5.q.` ) x x g 1 1 5 k p                               Z Z                               K P P I ( ] $.@.3.9.6.6.5.5.q.$.",
"%.5.q.5.q.7.| } T T x p k k j i                               X X                               C C C C C L O.%.3.w.q.6.6.q.6.#.",
"%.O.O.o.%.$.$.$.$.$.%.%.%.#.#.#.                              %.O.                              #.#.@.o.%.%.%.%.$.O.O.#.#.%.O.#."
};
