/* XPM */
static char *_b50e8e78b7446cefbfafc8c8586716dJIlim934Pdh0BSsT[] = {
/* columns rows colors chars-per-pixel */
"64 64 132 2 ",
"   c #000000",
".  c #05050A",
"X  c gray3",
"o  c #907D2D",
"O  c #46AD0A",
"+  c #4AAC0F",
"@  c #4CB20C",
"#  c #57B711",
"$  c #5AB513",
"%  c #5BBB12",
"&  c #6BBF17",
"*  c #71A633",
"=  c #72A832",
"-  c #5AD50F",
";  c #5CDA0F",
":  c #5FD710",
">  c #5CDD11",
",  c #6FC617",
"<  c #78C21C",
"1  c #69D617",
"2  c #62DA10",
"3  c #6AD915",
"4  c #74D916",
"5  c #78DB16",
"6  c #78D11C",
"7  c #73D81C",
"8  c #7BDA1A",
"9  c #56E20F",
"0  c #6DE014",
"q  c #6EE11E",
"w  c #7EE626",
"e  c #76E829",
"r  c #79EA2A",
"t  c #A78C2C",
"y  c #8CBB36",
"u  c #8FB83A",
"i  c #81CF1C",
"p  c #87D41C",
"a  c #8ED71F",
"s  c #8DDA1D",
"d  c #91DB1D",
"f  c #85EB19",
"g  c #8DE91C",
"h  c #93CD2A",
"j  c #8DD524",
"k  c #8CD923",
"l  c #91D920",
"z  c #94D028",
"x  c #9ADC2A",
"c  c #A4CD3B",
"v  c #A9D732",
"b  c #A7D831",
"n  c #96E727",
"m  c #97F522",
"M  c #9EF320",
"N  c #9CF823",
"B  c #8CE230",
"V  c #A4FB21",
"C  c #AAFF21",
"Z  c #B7F637",
"A  c #BDF53E",
"S  c #8D9E4F",
"D  c #929142",
"F  c #8E9B53",
"G  c #929D54",
"H  c #8FA848",
"J  c #90AF44",
"K  c #91A64C",
"L  c #96AD4B",
"P  c #98BD41",
"I  c #94A254",
"U  c #A1AE54",
"Y  c #ABAE56",
"T  c #A5B154",
"R  c #A7B958",
"E  c #B9BF57",
"W  c #B3BC58",
"Q  c #BABF5B",
"!  c #F0BD5F",
"~  c #C6B46A",
"^  c #CAB66D",
"/  c #D6BA72",
"(  c #DABC74",
")  c #F0BF60",
"_  c #AEC64A",
"`  c #B4DE46",
"'  c #AAC25D",
"]  c #B6C656",
"[  c #BCC258",
"{  c #BDC362",
"}  c #BFD160",
"|  c #C2D24B",
" . c #C4C95F",
".. c #E5D65E",
"X. c #E3DC5D",
"o. c #C1C767",
"O. c #D7CC62",
"+. c #D8D673",
"@. c #F0C261",
"#. c #F0CB64",
"$. c #EFD665",
"%. c #E6D860",
"&. c #EFD768",
"*. c #ECDB68",
"=. c #F0D667",
"-. c #F0D867",
";. c #F0D768",
":. c #F0D868",
">. c #F3DE71",
",. c #C4E56C",
"<. c #DBE669",
"1. c #EAE26F",
"2. c #ECE877",
"3. c #E2E67B",
"4. c #F4E074",
"5. c #F4E075",
"6. c #F5E378",
"7. c #F5E479",
"8. c #F6E47B",
"9. c #F7E57C",
"0. c #F7E67C",
"q. c #F7E77F",
"w. c #F8E77F",
"e. c #F8E87F",
"r. c #F4E780",
"t. c #F8E880",
"y. c #F8E881",
"u. c #F8E981",
"i. c #F9E982",
"p. c #F8EA83",
"a. c #F9EB84",
"s. c #FAEC86",
/* pixels */
":.:.-.;.-.:.:.-.-.-.:.:.:.:.:.:.:.:.:.:.:.:.-.-.-.:.:.-.:.    :.:.:.:.:.:.:.:.:.:.:.:.;.;.;.:.:.;.:.:.:.:.-.-.;.&.&.:.:.:.:.:.:.",
":.4.4.4.4.>.4.4.4.4.4.4.4.4.4.4.4.4.4.4.4.>.=.-.-.-.:.:.      .   #.;.:.:.:.;.=.#.=.#.-.:.;.:.-.:.-.:.$.4.4.4.4.:.:.:.:.:.:.:.:.",
":.y.a.a.y.-.=.=.=.-.s.y.y.y.s.s.i.i.i.y.s.8.=.-.:.:..             :.:.:.:.:.;.:.:.:.:.:.:.:.:.:.:.:.:.$.0.s.s.y.:.:.:.:.-.:.:.:.",
":.w.y.y.0.-.-.-.-.-.y.y.y.w.y.y.i.y.i.a.i.w.=.-.:.:..               . . . . :.:.:.:.:.:.:.-.;.:.:.:.:.$.0.e.y.y.:.:.:.:.:.:.:.:.",
":.y.y.y.w.$.:.-.=.-.y.y.y.y.e.y.y.y.y.y.s.w.$.-.. . .                 . . . :.:.:.:.:.:.:.:.:.:.:.:.:.$.0.s.a.s.:.-.:.-.:.-.;.:.",
":.e.e.y.e.4.4.4.4.7.y.e.y.y.y.e.y.0.>.>.>.>.>.0.. .                     . . :.:.:.:.:.:.:.:.:.:.:.:.:.-.>.>.>.>.:.;.:.:.:.:.:.:.",
":.e.y.y.y.y.y.y.a.y.e.y.e.y.e.y.y.6.$.-.$.-.s.s.. .                     X . :.:.:.:.:.:.:.:.:.:.:.:.:.&.$.$.$.$.:.:.:.:.:.:.:.-.",
":.e.e.e.e.y.y.y.e.y.y.e.y.e.y.e.y.6.  .   . .                                 . . . .       . :.;.:.-.:.:.:.:.:.:.:.;.:.-.:.:.&.",
"-.e.w.y.y.y.y.y.e.i.y.e.y.y.e.y.a.        . .                                     . .         :.:.:.:.:.:.:.:.:.:.:.-.:.:.:.:.;.",
":.e.y.w.y.y.y.y.i.i.s.a.y.a.y.X                                                                 . :.;.:.:.:.:.:.:.:.:.:.:.-.:.:.",
":.e.y.y.e.4.>.>.4.:.4.:.4.:.:..                                                                   . . :.;.:.:.$.:.:.;.:.:.&.-.:.",
":.e.e.e.0.=.$.$.=.=.-.=.:..                                   :.:.                                  -.:.:.:.:.:.:.:.:.&.-.:.;.:.",
"-.e.y.y.w.;.:.:.;.;.;.;.:.-.                                  :.-.:.-.                            :.:.:.:.:.;.:.:.;.:.:.:.:.-.:.",
":.e.y.e.0.;.-.:.;.-.-.-.=.=.:..                         X     :.;.:.$..                         :.:.:.:.:.-.:.-.:.:.:.:.:.:.:.:.",
"-.w.e.y.w.;.:.:.-.:.6.6.0.4.-..                                 :.:.=.@.                      :.:.:.:.:.:.:.:.&.-.:.:.:.:.:.;.:.",
"-.e.y.e.w.:.:.:.:.:.a.y.a.0.$.:.:.              X                 :.#.!                     :.:.:.:.:.:.:.:.-.:.;.:.:.:.$.:.:.-.",
":.y.y.y.w.:.=.:.-.-.y.y.a.0.$.=.-..               :.-.                                      :.:.:.;.:.:.:.;.:.:.:.:.=.-.:.:.;.:.",
":.y.a.s.e.$.$.$.-.$.s.y.s.0.$.=.$.$..             =.$.:.                                :.;.:.:.:.:.:.:.:.;.:.-.$.-.$.=.$.$.$.-.",
";.:.>.:.=.w.0.6.e.0.:.:.;.4.0.0.4.0.  .                                   =.            :.:.;.:.;.:.:.;.;.;.;.-.4.0.0.w.0.0.0.=.",
":.;.$.-.:.y.a.y.y.w.-.-.-.:.a.y.y..                                     :.:.                ;.*.:.:.:.:.;.;.;.=.w.y.y.y.y.y.y.:.",
":.:.:.:.:.y.y.y.y.w.-.-.:.:.y.e.y..                                   :.:.-.  X             :.=.:.:.:.:.:.;.-.-.e.y.e.y.y.y.e.;.",
":.:.:.:.>.y.y.y.y.r.-.-.:.:.a.y.e.                                    -.                    X =.:.:.:.:.:.:.-.-.e.e.y.y.w.y.e.:.",
":.:.:.:.:.s.y.y.s.0.-.:.&.>.s..                                                               . . :.:.:.-.-.-.-.e.y.s.y.y.e.y.-.",
":.:.:.:.:.:.:.:.:.:.-.:.:.:.:..                                                                   :.:.:.6.w.6.w.4.*.:.:.8.y.y.-.",
":.:.:.:.:.-.-.-.-.-.;.:.-.-.$.                                                                  . -.-.-.e.y.i.a.-.-.;.-.w.e.y.=.",
":.:.:.:.;.:.:.:.;.;.:.-.-.-.&..                                                                   -.-.-.8.i.e.y.:.-.:.:.0.y.y.:.",
":.:.-.:.:.:.:.:.:.:.:.:.-.. .                                                                     . . -.8.y.y.y.:.;.:.:.e.a.w.-.",
":.@.@.@.@.@.@.@.@.@.:.;.-..                 :.:.                                                    . a.:.-.:.:.w.e.0.0.:.:.:.:.",
":.@.) ) ) ) ) ) @.@.:.:.:..         :.:.    -.-.                                                    . y.4.=.-.-.w.e.i.a.:.:.:.:.",
":.@.@.! @.) ) ) @.@.:.:.:.          -.:.                                          -.:.              . i.:.:.-.-.8.y.w.y.:.:.:.:.",
":.@.@.@.@.) @.) @.@.:.;.:.                                                        :.:.              . e.:.:.:.:.0.y.y.y.:.:.:.:.",
"-.:.-.;.-.;.-.;.;.;.:.:.:..                       :.:.                                              . :.:.:.:.:.:.-.:.:.:.:.:.:.",
":.:.:.:.:.:.-.:.:.:.:.:.                          :.:.                                                . :.;.:.-.:.:.:.-.;.:.:.-.",
"-.:.-.&.-.:.:.:.:.:.:.:.                                                                                -.:.:.:.:.;.:.:.:.:.:.;.",
";.:.:.:.:.:.&.:.:.:.:.:.              . :.                                            :..               :.:.:.:.:.:.;.-.:.:.:.:.",
":.:.-.:.:.;.:.;.:.:.:.:.              . :.  .             :.-.:.                    . :.                ;.:.:.:.-.:.:.:.:.-.:.&.",
":.:.:.:.;.:.:.-.:.:.:.:.              . :.:.:.            :.-.:.                  -.-.:..               :.:.:.;.:.-.:.:.:.:.;.:.",
"-.;.-.:.-.:.:.:.:.:.:.:.              . :.:.:.                                  . :.-.:.                :.:.:.:.:.:.;.:.-.:.-.:.",
":.-.&.:.:.:.:.:.-.:.:.:.                  :.:.:.:.                            :.:.:.:.                  :.:.:.:.:.:.:.-.&.-.:.:.",
";.:.:.:.:.-.:.:.&.;.:.:.                  :.:.:.:.                          . :.=.=..                   :.:.:.:.;.-.:.:.:.:.:.;.",
":.:.:.-.:.;.:.-.;.;.                                                                                        :.:.:.&.:.-.:.:.:.-.",
"-.:.:.:.:.:.:.:.;.;.                                                                                        :.:.:.:.:.:.:.&.:.:.",
":.:.:.&.-.-.:.:.-.;.                                                                                        :.-.:.:.:.;.:.:.-.;.",
":.;.-.:.=.=.=.=.=.-.                                                                                        >.:.:.:.-.:.:.:.:.;.",
":.:.:.&.=.! ! ! ! @.                                                                                        y.a.:.-.:.:.a.y.y.:.",
":.:.:.:.=.) ) ) @.@.                                                                                        y.y.:.-.:.:.y.y.a.:.",
"-.:.;.:.-.) ! ! ! @.                      t :.                                  . y.y.                      y.y.:.;.-.-.w.y.e.-.",
":.:.;.;.=.#.@.@.@.#.                      < $.                                    y.e.                      y.y.4.:.>.-.w.y.e.:.",
":.:.:.&.:.&.:.:.:.                      > 9                                       e.y.                          y.y.y.a.y.e.e.-.",
"-.:.-.:.:.-.:.:.:.                      2 >                                         y.A                         y.y.e.y.e.a.y.-.",
":.:.:.:.:.:.-.:.:.                    X.m V                                         <.Z                         e.y.e.e.e.a.e.-.",
":.-.:.:.;.:.:.:.:.:.                :.X.V C                                         0 C . .                   . 2.y.y.a.a.y.y.:.",
";.:.-.&.:.:.:.:.:.:.              :.:.X.m N 8                               -.>.    4 g g j                 k l 1.6.6.6.0.6.6.-.",
":.-.:.:.:.:.&.-.7 1 n           b b v B e e q   2 2 2 3                     O.|     i + O * . X           . p l ..$.$.$.$.$.$.-.",
":.-.;.:.-.;.:.:.1 - f V       l l l l w e r q   ; 2 - 2                             i + @ = I G .       . + p l ..:.-.-.:.-.-.-.",
":.$.$.$.$.$.$.$.1 : f V C M k l d j l w r                     F S                     + @ * G F .   . . + + 6 l ..-.$.$.=.$.$.-.",
":.>.>.>.>.>.>.>.x s , # $ & l k k l l .                     X ^ ^                       - 6 z l J K K y p p a l -.4.4.>.>.4.4.-.",
"&.a.y.e.u.0.Q _ d l & + + # l d l l .                         ( /                       ; 5 d s K F G u d d a k 2.u.u.a.y.y.y.*.",
":.y.e.y.u.r.Q _ d l , @ # % l l l                             ^ ~                           h z L I I P x ` 0.0.0.u.u.0.y.e.y.:.",
":.y.y.r.u.r.Q _ s l 8 > ; 3 l l l                             I K                           G F W [ E } ,.3.a.a.u.0.u.u.y.y.y.;.",
"-.0.0.y.y.0.Q _ s d 4 - ; 3 a a                               I I                               W [ [ } ,.<.4.>.e.y.e.y.e.e.y.:.",
":.e.y.y.y.0.{ ] c c j 4 4 8 l d                               D D                               U Y T R '  .:.=.w.y.e.e.y.e.y.-.",
"-.y.y.y.y.y.+.o.Q Q c d l l l a                               o o                               K S S S S Y =.-.0.y.y.y.e.y.e.:.",
":.&.:.-.:.:.:.;.;.;.:.:.;.;.;.-.                              :.&.                              $.-.-.$.:.:.:.:.:.-.:.:.-.-.:.:."
};
