/* XPM */
static char *result[] = {
/* columns rows colors chars-per-pixel */
"64 64 165 2 ",
"   c #010102",
".  c #05050A",
"X  c #8E7E4B",
"o  c #499819",
"O  c #519C19",
"+  c #47AB0D",
"@  c #4AAC0E",
"#  c #53A80E",
"$  c #4DB40E",
"%  c #52B50F",
"&  c #4EA817",
"*  c #56AD1B",
"=  c #57B611",
"-  c #57B812",
";  c #5AB912",
":  c #7FBB0D",
">  c #6BBF17",
",  c #77BE19",
"<  c #6AA627",
"1  c #71A633",
"2  c #5CD70F",
"3  c #5DDA0F",
"4  c #5FD710",
"5  c #6FC617",
"6  c #72C618",
"7  c #78C21C",
"8  c #69D617",
"9  c #61D910",
"0  c #6BD915",
"q  c #73DA16",
"w  c #79D71A",
"e  c #7DDA1A",
"r  c #56E20F",
"t  c #6DE014",
"y  c #6EE11E",
"u  c #6DDB23",
"i  c #7DE526",
"p  c #77E929",
"a  c #5B8C49",
"s  c #648F4B",
"d  c #799D4C",
"f  c #AC8B07",
"g  c #A99205",
"h  c #958437",
"j  c #988638",
"k  c #A68C2B",
"l  c #8EBA38",
"z  c #A9B02D",
"x  c #B3A234",
"c  c #B6A637",
"v  c #B3B635",
"b  c #82CF1C",
"n  c #86D51C",
"m  c #85DA1A",
"M  c #8DDA1D",
"N  c #92D71F",
"B  c #91DA1D",
"V  c #85EB19",
"C  c #8DE91C",
"Z  c #9AEB1F",
"A  c #9AF51F",
"S  c #9EFB1F",
"D  c #A1FC1E",
"F  c #90CF27",
"G  c #90CC2A",
"H  c #8FD720",
"J  c #8BDA22",
"K  c #91D422",
"L  c #92D921",
"P  c #9ADC2A",
"I  c #9BD931",
"U  c #AACF2A",
"Y  c #A1D82C",
"T  c #A0CE37",
"R  c #A2CD39",
"E  c #A7D831",
"W  c #A8D835",
"Q  c #B0DA3C",
"!  c #83E629",
"~  c #96E727",
"^  c #99E521",
"/  c #9CE22B",
"(  c #9AF723",
")  c #9EF520",
"_  c #8CE230",
"`  c #95EC3B",
"'  c #9DF438",
"]  c #A3E923",
"[  c #A3FA21",
"{  c #A9FB23",
"}  c #A8F429",
"|  c #B7F637",
" . c #B6F538",
".. c #BCF43D",
"X. c #8F9F4F",
"o. c #8E9556",
"O. c #8E9A53",
"+. c #919D53",
"@. c #959C58",
"#. c #8FA848",
"$. c #90AF44",
"%. c #91A64C",
"&. c #94AE4A",
"*. c #98BD41",
"=. c #93A153",
"-. c #94A954",
";. c #BABF5B",
":. c #BEBC60",
">. c #D4BD5F",
",. c #F0BD5F",
"<. c #CAB66D",
"1. c #D8BB73",
"2. c #F0BF60",
"3. c #AEC64A",
"4. c #B8CB49",
"5. c #B2DC44",
"6. c #B8D845",
"7. c #B6C656",
"8. c #BCC259",
"9. c #9DEF41",
"0. c #ABF44D",
"q. c #BDC362",
"w. c #C4DF42",
"e. c #C3D54C",
"r. c #CFCE59",
"t. c #D9D359",
"y. c #DAD85B",
"u. c #E5D65E",
"i. c #E3DC5D",
"p. c #D3E54D",
"a. c #C8E45D",
"s. c #D6E350",
"d. c #C1C767",
"f. c #D7CC62",
"g. c #DDD062",
"h. c #D8D673",
"j. c #F0C361",
"k. c #F0CC64",
"l. c #E4D464",
"z. c #EFD665",
"x. c #E5D861",
"c. c #EDD966",
"v. c #E3D56A",
"b. c #EFD768",
"n. c #EDDA68",
"m. c #F0D667",
"M. c #F0D867",
"N. c #F0D768",
"B. c #F0D868",
"V. c #F3DE71",
"C. c #C4E56C",
"Z. c #DBE669",
"A. c #DEE370",
"S. c #EAE26F",
"D. c #EDE676",
"F. c #ECE877",
"G. c #E2E67B",
"H. c #F4E175",
"J. c #F6E57B",
"K. c #F8E77F",
"L. c #F7E87F",
"P. c #F8E87F",
"I. c #F4E780",
"U. c #F7E980",
"Y. c #F8E981",
/* pixels */
"B.M.N.B.B.B.B.M.M.M.B.B.B.M.N.N.N.N.B.B.B.B.M.N.N.N.N.B.B.B.M.M.N.N.B.M.B.B.M.B.M.N.B.M.N.N.B.N.B.M.B.N.n.B.B.B.N.B.B.N.B.B.B.N.",
"B.H.V.H.H.V.H.H.H.V.H.J.V.J.H.V.V.J.H.V.J.V.M.M.N.N.B.N.B.B.M.k.k.k.M.B.B.B.M.m.k.m.k.m.B.N.M.B.B.B.N.M.V.J.H.H.B.M.B.B.B.B.B.B.",
"B.Y.Y.Y.P.z.z.M.m.B.Y.Y.Y.Y.Y.Y.Y.Y.Y.Y.Y.J.M.M.B.B.B.M.B.B.B.B.B.B.B.B.N.N.N.B.B.n.B.B.B.M.B.B.B.B.B.z.U.Y.Y.Y.B.B.B.B.B.B.B.B.",
"B.Y.Y.Y.J.N.M.N.M.B.Y.Y.Y.Y.Y.Y.Y.Y.Y.Y.Y.J.M.M.M.N.B.B.B.B.B.B.B.B.B.B.B.n.B.N.B.B.B.B.B.B.N.B.B.B.B.z.U.Y.Y.Y.B.B.B.B.M.B.B.N.",
"B.Y.K.Y.J.z.M.z.z.z.Y.Y.Y.Y.Y.Y.Y.Y.Y.Y.Y.J.z.N.z.z.N.B.B.B.N.B.N.B.B.B.N.B.B.M.B.B.B.M.N.B.B.B.B.B.M.z.J.Y.Y.Y.B.M.M.B.N.B.B.M.",
"B.Y.Y.K.Y.H.H.H.V.J.Y.K.Y.Y.K.Y.Y.J.V.V.V.H.V.Y.H.H.B.M.N.B.B.B.B.B.M.N.B.B.N.B.M.B.N.B.B.M.B.B.B.M.B.M.V.H.V.V.B.B.B.N.B.B.N.B.",
"B.P.Y.Y.Y.Y.Y.Y.Y.Y.K.Y.J.Y.Y.J.Y.J.z.z.z.V.Y.Y.Y.Y.K.M.B.B.N.B.B.M.B.B.B.N.B.B.B.N.B.B.B.M.M.N.B.M.N.B.b.z.z.z.B.B.B.B.B.N.B.B.",
"B.Y.P.U.K.Y.Y.Y.Y.Y.Y.Y.Y.Y.Y.Y.Y.H.z.N.M.V.Y.Y.Y.Y.H.M.B.B.B.B.B.B.M.B.B.B.M.B.B.B.M.N.B.B.B.B.B.B.B.B.B.B.B.B.B.B.B.M.B.B.B.M.",
"N.Y.K.Y.Y.Y.Y.Y.Y.Y.Y.Y.Y.Y.Y.Y.Y.K.M.N.z.V.Y.Y.Y.Y.V.M.B.M.B.N.B.M.B.B.B.B.B.B.B.B.B.B.B.B.M.B.B.b.M.B.M.B.B.N.B.B.B.B.N.M.B.B.",
"N.J.Y.Y.Y.Y.Y.Y.Y.Y.Y.Y.Y.Y.Y.Y.Y.K.z.N.z.V.Y.Y.Y.Y.J.M.B.B.B.B.N.B.M.B.B.M.M.B.B.M.N.M.B.B.N.B.B.B.B.B.B.B.B.M.B.B.M.B.B.B.B.N.",
"N.K.Y.Y.J.V.V.V.V.V.V.V.V.V.V.V.V.B.M.B.M.B.V.V.V.V.B.B.N.B.B.M.N.M.N.B.B.B.B.B.N.B.B.B.M.N.B.M.M.B.N.B.N.B.B.B.N.B.B.B.B.N.B.M.",
"B.P.Y.Y.J.M.z.z.N.M.z.z.z.m.z.M.z.z.M.B.N.M.M.z.N.N.M.B.M.B.B.N.B.B.B.B.B.B.M.B.B.M.B.B.B.B.B.B.N.B.B.M.B.B.B.B.B.B.N.B.M.B.B.B.",
"B.P.P.Y.J.B.B.B.N.M.N.N.N.N.N.N.B.B.M.B.B.N.M.B.B.B.B.B.M.B.N.N.B.B.B.B.n.N.M.B.B.B.M.B.B.B.B.N.B.B.B.N.M.B.B.N.B.B.B.B.B.N.B.M.",
"B.K.Y.Y.K.B.N.B.N.M.M.z.z.z.N.N.B.B.N.B.B.B.B.B.B.N.B.B.B.B.B.n.M.B.B.B.B.B.B.B.B.B.B.M.B.M.B.B.M.B.M.B.B.B.B.M.N.M.B.N.B.B.n.B.",
"N.K.J.Y.J.B.B.B.M.N.Y.J.J.H.z.B.M.N.B.M.M.B.N.B.B.N.N.B.B.B.B.B.B.B.m.j.k.k.j.k.k.k.j.m.B.B.B.B.B.N.B.B.B.N.B.N.B.B.M.B.N.B.N.N.",
"N.Y.Y.Y.K.B.B.B.N.B.Y.Y.Y.J.z.B.B.B.B.B.N.B.B.B.B.B.B.B.N.M.B.B.N.B.k.,.,.,.,.,.,.,.,.k.B.B.n.N.B.M.B.B.B.M.B.B.B.M.B.B.B.M.B.B.",
"N.K.Y.Y.Y.B.B.B.M.B.Y.Y.Y.K.z.M.M.M.M.M.M.M.N.N.M.N.N.N.B.B.M.N.B.B.j.,.2.2.2.2.2.,.,.m.B.M.N.B.B.B.B.B.B.M.B.B.M.N.N.N.B.B.B.M.",
"B.Y.Y.Y.Y.z.z.z.m.n.Y.Y.Y.J.z.M.z.M.z.m.z.z.z.m.z.M.z.N.B.N.B.B.B.B.k.,.,.,.,.,.,.,.,.k.B.B.B.B.B.z.B.B.N.B.B.B.z.M.z.M.z.z.z.N.",
"B.B.V.B.V.J.J.J.P.J.B.B.B.H.K.K.J.J.J.J.J.J.J.J.K.K.V.z.B.B.N.B.B.B.M.m.m.m.M.m.m.k.m.M.B.B.B.M.M.B.B.B.N.B.N.M.H.J.J.J.J.J.J.N.",
"M.b.z.M.N.Y.Y.Y.Y.Y.B.z.B.B.Y.Y.Y.Y.Y.Y.Y.Y.Y.Y.Y.Y.H.M.B.B.B.M.B.B.B.B.B.N.B.B.B.B.B.B.n.B.B.B.B.B.N.B.N.N.N.M.P.Y.Y.Y.Y.Y.Y.B.",
"B.B.B.B.B.Y.Y.Y.Y.J.z.B.B.B.Y.Y.Y.J.Y.Y.K.Y.K.Y.Y.Y.H.M.N.B.B.N.B.B.B.B.N.N.N.N.B.B.B.B.N.N.N.N.B.B.B.B.B.B.N.M.U.U.Y.Y.Y.Y.K.N.",
"B.B.B.B.B.Y.Y.Y.Y.K.z.B.B.H.Y.Y.Y.Y.Y.Y.Y.K.Y.K.Y.Y.H.M.B.B.B.B.B.B.B.B.N.M.N.N.B.B.B.B.M.M.N.B.B.N.B.B.B.B.M.M.J.Y.Y.Y.Y.K.K.B.",
"B.B.B.B.B.Y.Y.Y.Y.P.B.B.n.B.Y.Y.Y.Y.Y.Y.Y.Y.K.Y.Y.Y.H.z.z.z.M.N.B.N.M.M.m.M.M.m.M.M.M.M.M.M.N.B.z.B.B.B.M.z.M.M.U.Y.Y.Y.J.Y.Y.M.",
"N.B.B.B.B.V.B.B.V.B.B.B.B.B.B.B.B.B.V.B.B.V.Y.K.P.K.K.J.J.Y.V.z.M.M.V.K.J.J.J.K.J.J.J.K.K.J.Y.V.z.B.B.z.J.J.J.J.V.B.B.B.P.K.Y.B.",
"B.B.B.N.M.M.M.M.M.M.N.B.N.B.M.M.N.N.N.N.M.B.Y.Y.Y.Y.Y.Y.Y.Y.J.z.B.z.H.Y.Y.Y.U.Y.Y.Y.Y.Y.U.Y.Y.V.z.B.B.z.J.Y.Y.Y.B.N.N.N.J.P.Y.M.",
"B.B.B.B.B.B.N.N.N.N.N.B.B.B.M.N.B.B.B.B.M.V.Y.Y.Y.Y.Y.Y.Y.Y.J.z.N.z.J.Y.Y.Y.Y.Y.Y.Y.Y.Y.Y.Y.Y.B.z.B.B.z.J.Y.Y.Y.B.B.B.B.Y.Y.Y.B.",
"B.B.B.B.B.B.B.B.n.B.B.B.M.B.M.B.B.N.B.B.B.V.Y.Y.Y.Y.K.Y.Y.Y.V.M.B.z.H.Y.Y.Y.U.Y.Y.Y.Y.Y.U.Y.Y.V.z.B.M.z.J.Y.Y.Y.B.M.B.B.U.Y.K.B.",
"B.j.j.j.j.j.j.j.j.j.B.M.B.B.B.B.B.B.B.B.B.B.B.B.B.B.B.B.B.B.B.B.M.B.B.B.B.B.B.B.B.B.B.B.B.B.B.J.P.P.K.P.V.B.B.B.K.Y.J.J.B.B.B.M.",
"B.j.2.2.2.2.,.2.2.j.B.B.B.B.B.B.B.B.B.M.B.N.M.M.B.B.N.B.M.M.B.B.M.B.B.M.B.B.B.B.M.M.M.M.M.M.z.J.Y.Y.Y.Y.V.M.B.M.K.Y.Y.Y.B.B.B.B.",
"z.2.2.j.j.2.j.2.j.j.B.B.B.B.M.B.B.N.B.B.B.B.B.B.B.B.B.B.B.B.N.B.B.B.B.M.B.B.B.B.B.B.M.B.M.M.z.J.Y.Y.Y.Y.B.N.B.M.J.Y.Y.Y.B.B.B.B.",
"B.j.j.2.,.j.j.2.j.j.B.B.B.B.B.B.B.N.B.B.B.N.B.M.B.B.B.B.B.N.B.M.N.B.B.B.B.B.B.B.B.B.N.N.M.M.z.J.Y.Y.Y.Y.B.B.B.N.J.Y.Y.Y.B.B.B.B.",
"B.N.M.N.N.N.M.N.N.N.B.B.B.B.B.B.n.N.B.N.M.B.B.B.B.B.N.B.B.M.B.B.B.B.B.B.M.B.B.B.N.M.B.N.M.M.B.B.B.B.B.B.B.B.B.B.B.B.B.B.B.B.B.B.",
"B.N.M.B.B.N.B.B.M.B.B.N.M.B.B.B.n.B.B.B.B.B.B.M.B.z.N.B.B.B.B.B.M.B.B.N.B.B.B.N.B.M.B.B.B.M.B.B.B.B.B.B.M.B.B.B.M.B.B.B.B.N.B.B.",
"B.B.B.B.M.N.n.B.N.B.B.M.B.B.N.M.N.B.M.N.M.B.N.B.B.B.B.B.B.B.z.B.B.N.B.B.M.B.M.B.B.N.B.N.B.B.B.N.M.N.M.B.B.B.N.B.B.B.B.B.M.B.z.B.",
"M.B.N.B.N.B.M.N.B.B.B.B.B.N.B.B.N.B.B.B.B.B.B.B.B.B.B.M.B.B.M.B.B.B.N.M.B.B.B.n.B.B.B.N.B.B.B.M.B.M.B.N.B.N.B.B.N.B.B.B.B.B.B.B.",
"N.B.B.M.B.B.B.B.B.B.B.B.M.B.B.N.B.N.M.B.B.N.B.B.B.B.B.N.B.B.B.N.M.B.B.B.M.B.N.N.M.B.B.B.M.N.B.B.N.B.B.B.B.M.B.N.B.z.B.B.B.B.B.B.",
"B.B.B.B.B.N.B.B.M.B.B.B.N.B.B.B.M.B.M.N.B.B.B.B.B.B.B.M.B.B.B.B.B.N.M.B.N.B.B.M.B.N.B.M.B.M.B.B.B.B.M.B.B.B.B.M.M.B.N.B.B.B.M.B.",
"B.M.B.N.B.B.M.B.N.B.B.M.B.M.B.M.B.B.B.B.B.B.B.B.B.B.B.N.B.B.B.B.B.B.B.B.B.B.B.N.M.B.B.B.B.B.N.B.B.M.B.N.M.B.B.B.B.B.B.M.B.N.B.B.",
"M.B.M.B.B.M.B.M.b.B.N.B.B.B.M.B.B.B.M.M.B.B.B.B.B.B.B.B.z.B.N.B.M.B.B.N.B.N.B.B.B.B.B.B.B.N.B.B.B.B.M.B.N.B.B.B.B.N.B.B.M.B.b.B.",
"B.N.B.B.N.B.B.B.B.M.B.B.B.B.N.B.B.B.B.B.B.B.B.B.B.B.B.z.B.B.B.M.B.B.B.M.B.B.B.M.B.N.M.B.M.B.N.B.B.N.B.B.B.B.M.N.B.B.B.N.B.B.B.M.",
"B.B.M.B.N.B.M.B.B.B.M.N.B.B.B.B.B.V.Y.Y.Y.J.z.B.B.B.B.M.B.B.B.B.N.B.B.B.B.B.B.B.B.B.B.B.B.B.N.B.B.B.B.B.B.B.B.B.M.B.B.M.N.B.B.M.",
"B.M.B.B.B.B.N.B.N.N.B.B.B.M.N.M.z.V.Y.Y.Y.J.z.B.M.B.b.B.B.B.B.B.B.M.B.N.B.B.M.B.M.B.B.M.B.B.B.B.B.B.B.B.B.B.B.B.b.B.B.B.B.B.B.N.",
"N.B.M.B.N.M.B.B.N.N.B.B.B.B.M.B.z.H.Y.Y.Y.J.z.B.B.N.B.B.M.B.B.N.N.B.M.B.B.B.B.B.N.B.M.M.B.N.B.B.B.B.B.B.B.M.B.B.B.B.B.B.B.B.M.N.",
"B.B.B.N.N.m.m.z.m.m.B.B.N.B.B.B.z.B.U.J.P.H.z.B.B.M.B.N.N.B.B.M.B.M.B.B.B.B.B.B.B.V.B.B.V.B.V.B.B.B.B.B.B.B.B.V.B.B.M.N.B.B.B.B.",
"B.M.B.B.m.,.,.,.2.j.B.B.B.N.B.M.B.B.z.z.z.b.b.b.N.B.B.B.B.B.B.B.B.B.B.B.B.B.z.H.Y.Y.Y.Y.Y.Y.Y.V.B.B.B.M.J.Y.Y.Y.B.M.B.B.Y.Y.Y.B.",
"B.B.B.B.m.2.2.2.2.j.B.B.M.B.B.B.B.B.N.z.x c N.n.B.B.B.M.M.B.B.B.B.M.B.B.B.M.z.H.Y.Y.Y.Y.Y.Y.Y.V.M.B.B.z.J.U.Y.Y.B.N.B.B.Y.Y.Y.B.",
"B.B.B.B.M.,.,.,.2.j.B.B.B.B.N.B.N.B.M.z.k k N.B.B.B.M.B.N.B.B.B.N.B.B.n.B.B.z.J.Y.Y.Y.Y.Y.Y.Y.B.z.B.z.z.J.Y.Y.Y.B.N.M.z.J.Y.Y.B.",
"B.M.N.N.M.j.k.j.j.k.n.y.y.x.B.B.M.B.M.t., 7 l.N.b.z.b.b.B.B.B.z.z.n.z.z.z.B.z.H.Y.Y.Y.Y.Y.Y.Y.H.B.B.V.B.J.U.Y.Y.H.B.V.B.Y.Y.Y.B.",
"B.N.N.B.M.B.B.B.B.B.x.3 9 Q n.n.B.B.B.5.3 r : f g j X >.N.N.B.Y L L ) D c.n.z.H.Y.Y.Y...[ U x v.Y.Y.Y.Y.}  .U.Y.Y.Y.Y.Y.Y.Y.P.B.",
"B.n.B.M.B.B.B.B.B.B.x.9 3 e.B.N.M.B.N.6.3 3 : f g h X f.n.b.M.Y H L ) D c.z.z.J.Y.P.Y...S U x v.Y.Y.Y.Y.[  .U.U.Y.Y.Y.Y.Y.Y.Y.B.",
"B.B.B.N.M.B.B.B.B.B.n.) A w.z.z.N.B.M.i.A D e # # O o < p.p.s.} ) ) ; % 4.B.z.H.a.a.Z.| [ ^ K Q D.D.F.F.! ` D.D.U.U.Y.Y.Y.Y.P.z.",
"B.M.B.B.B.N.B.M.B.B.B.[ S ] x c B.B.N.i.[ { m + @ o o O ) [ [ D D S % $ 4.B.z.H.3 3 t [ [ Z M M L L L ! p p J L F.Y.Y.Y.Y.Y.Y.B.",
"N.B.N.B.B.M.N.B.N.N.n.{ S ] z v n.N.N.i.( ( e % - & & * S D ) P / P * & r.B.M.V.0 0 q C C H G G L H N J u u J L S.H.J.H.J.H.J.M.",
"B.M.N.N.N.B.N.n.w 8 ~ { [ ) M L E W W _ p p y 9 9 9 9 9 S D I o.+.O.s a -.g.f.e.L L n @ + 1 @.O.G H L 6 @ @ b L u.z.z.z.z.z.z.M.",
"B.M.M.M.B.M.B.N.8 4 V [ [ ) H H L L L i p p 0 3 9 9 3 0 ) [ I O.X.=.s a d 8.:.R M L b @ $ 1 =.O.F B L 6 @ $ w L x.B.M.B.B.M.M.B.",
"B.M.z.z.z.z.z.z.8 2 V [ [ ) H . . H H   . . . . . 3 . 9 D   . O.X.. . . . . . . . L n . . . . +.F M L 6 @ @ b K u.z.z.z.z.z.z.B.",
"B.V.V.V.V.V.V.V.P J 5 = = > L . . . L         . . ' . 9.&.    <.<.  . . .     . . L n . .     F $.%.-.l n n H M n.H.V.V.V.H.V.B.",
"B.Y.I.U.I.J.;.3.B L > + @ = L .   . L .           . . 0.=.    1.1.              . B m . .   . B #.O.O.l B M L M F.U.Y.Y.Y.Y.Y.B.",
"B.Y.Y.Y.I.I.;.3.M L 6 = = . . .   . L                 ` X.    . .                 G . .     . H &.=.-.*.P 5.P.L.P.U.U.Y.P.Y.Y.B.",
"B.Y.Y.Y.U.U.;.3.M L q 3 3 .                                       X.            . @..           . 8.8.8.C.G.Y.Y.P.U.Y.K.Y.Y.Y.B.",
"B.P.J.U.Y.J.;.3.M L q 2 2 .                                       =.              +.            . 8.8.d.C.A.H.H.K.Y.Y.J.J.Y.Y.M.",
"N.Y.Y.Y.Y.J.q.7.T . . .                                                           X.                        z.m.J.Y.Y.Y.Y.Y.Y.N.",
"M.Y.K.Y.Y.Y.h.d.8.:..                                                                                       B.B.J.Y.Y.P.Y.Y.J.B.",
"N.B.B.z.N.B.B.B.B.n.. . . . . . . . .   . . . . .   . . . . . . . . . . .   . . . . . . . . . . . . . . . . B.B.B.B.N.M.B.B.B.B."
};
