/* XPM */
static char *result[] = {
/* columns rows colors chars-per-pixel */
"64 64 136 2 ",
"   c #000101",
".  c #05060B",
"X  c #907E2E",
"o  c #8E7E4B",
"O  c #479C16",
"+  c #49961A",
"@  c #519C19",
"#  c #47A90F",
"$  c #4BAD0E",
"%  c #53A80E",
"&  c #58AE0F",
"*  c #4FB50F",
"=  c #53B40E",
"-  c #4FAC15",
";  c #4EA61A",
":  c #53AD17",
">  c #58AC1E",
",  c #4DB010",
"<  c #54BA10",
"1  c #7FBB0D",
"2  c #77BE19",
"3  c #6AA627",
"4  c #5BD60E",
"5  c #5EDA0F",
"6  c #5FD710",
"7  c #5CDD11",
"8  c #6FC717",
"9  c #72C518",
"0  c #78C21C",
"q  c #69D617",
"w  c #61D910",
"e  c #6BD915",
"r  c #7ED618",
"t  c #73DA19",
"y  c #56E20F",
"u  c #6DDB23",
"i  c #77EC2A",
"p  c #AC8B07",
"a  c #B08D09",
"s  c #A99205",
"d  c #958437",
"f  c #988638",
"g  c #A68C2B",
"h  c #90BC37",
"j  c #B2A334",
"k  c #B7A936",
"l  c #B4A238",
"z  c #B3B635",
"x  c #81CE1C",
"c  c #8DDA1C",
"v  c #92D71F",
"b  c #92DA1F",
"n  c #85EB19",
"m  c #9AF51F",
"M  c #9DFB1F",
"N  c #A0FC1F",
"B  c #81D921",
"V  c #89DB22",
"C  c #92D421",
"Z  c #92D921",
"A  c #9ADA2A",
"S  c #AACF2A",
"D  c #A1D82C",
"F  c #A3CD3A",
"G  c #A8D932",
"H  c #A7D93C",
"J  c #86E025",
"K  c #80EB2C",
"L  c #96E727",
"P  c #99E521",
"I  c #9CF421",
"U  c #90EB36",
"Y  c #A3E923",
"T  c #A3FA22",
"R  c #A8F924",
"E  c #A8F429",
"W  c #B7F637",
"Q  c #B6F538",
"!  c #BCF43D",
"~  c #91804B",
"^  c #8D9E4F",
"/  c #909141",
"(  c #8E9B52",
")  c #909C54",
"_  c #8FAB47",
"`  c #92AE49",
"'  c #92A054",
"]  c #A4B054",
"[  c #BABF5B",
"{  c #D4BD5F",
"}  c #F0BD5F",
"|  c #C5B36B",
" . c #C8B56C",
".. c #F0BF60",
"X. c #AEC64A",
"o. c #B0DA41",
"O. c #B8D845",
"+. c #B6C656",
"@. c #BDC362",
"#. c #C4DF42",
"$. c #C3D74C",
"%. c #D7C25F",
"&. c #D9D359",
"*. c #DAD85B",
"=. c #E5D65E",
"-. c #E3DD5D",
";. c #D3E54D",
":. c #C7E45D",
">. c #D6E350",
",. c #C1C767",
"<. c #D8D673",
"1. c #F0C361",
"2. c #F0CC64",
"3. c #EFD665",
"4. c #E5D861",
"5. c #EDD866",
"6. c #E3D56A",
"7. c #EFD768",
"8. c #EDDA68",
"9. c #F0D667",
"0. c #F0D867",
"q. c #F0D768",
"w. c #F0D868",
"e. c #F3DE71",
"r. c #DBE669",
"t. c #E7E772",
"y. c #EDE676",
"u. c #ECE877",
"i. c #F4E175",
"p. c #F6E57B",
"a. c #F8E77F",
"s. c #F7E87F",
"d. c #F8E87F",
"f. c #F4E780",
"g. c #F7E980",
"h. c #F8E981",
/* pixels */
"w.0.q.w.0.q.w.0.w.w.w.w.w.w.w.w.w.w.w.w.w.w.q.q.q.w.w.q.w.w.w.0.0.q.w.w.w.w.w.w.0.0.w.q.q.q.w.0.w.w.w.0.7.7.w.7.w.w.w.w.w.w.w.w.",
"w.i.e.i.i.e.i.e.i.i.i.i.i.i.i.i.i.i.i.i.i.e.3.q.w.w.w.w.0.w.0.2.2.2.0.w.0.w.0.9.2.9.2.9.w.w.w.w.w.7.w.3.i.i.i.i.w.0.w.w.w.w.w.w.",
"w.h.h.h.h.0.3.3.3.w.h.h.h.h.h.h.h.h.h.h.h.a.0.0.w.w.w.0.w.w.w.w.w.w.w.w.5.w.q.w.w.w.w.w.0.w.w.q.w.w.w.3.g.h.h.h.w.w.w.w.w.w.w.w.",
"w.h.h.h.p.w.w.q.0.w.h.h.h.h.h.h.h.h.h.h.h.a.3.0.0.q.w.w.w.w.w.w.7.w.w.w.q.w.w.q.w.w.w.w.w.w.0.w.w.w.w.3.d.h.h.h.w.w.w.w.w.w.w.w.",
"w.h.a.h.p.3.0.3.0.w.h.p.h.h.h.h.h.h.h.h.h.p.3.q.3.3.3.q.q.q.q.w.0.w.w.w.w.q.w.w.w.w.q.w.w.q.w.w.w.w.q.3.p.h.h.h.w.3.0.w.0.w.w.0.",
"w.h.h.a.h.i.i.i.i.i.h.h.h.h.h.a.h.a.e.e.e.e.i.h.i.i.e.3.w.w.w.w.w.w.q.0.w.w.w.w.w.0.w.0.w.w.w.w.w.w.w.0.e.i.e.i.w.w.w.w.w.w.w.w.",
"w.d.h.h.h.h.h.h.h.h.h.h.a.h.a.h.h.i.3.3.3.e.h.h.h.h.a.0.w.w.q.0.w.q.w.w.0.w.0.w.q.w.0.w.0.w.5.q.w.q.w.w.3.3.3.3.w.w.q.w.w.w.w.w.",
"w.h.d.g.a.h.h.h.h.h.h.p.h.a.h.a.h.i.3.q.0.e.h.h.h.h.i.0.0.w.w.w.w.w.w.q.w.w.w.q.w.w.w.w.q.w.w.w.w.w.w.0.w.w.w.w.w.w.w.0.w.q.w.0.",
"0.a.a.h.h.h.h.h.h.h.h.h.h.h.h.h.h.a.3.q.3.e.h.h.h.h.i.0.w.q.w.w.0.w.q.w.w.w.0.w.w.w.w.0.w.w.0.q.q.0.w.w.w.w.7.w.w.w.w.w.q.w.0.w.",
"q.a.h.g.h.h.h.h.h.h.h.h.h.h.h.h.h.a.0.q.3.e.h.h.h.h.i.0.w.w.0.w.w.w.w.0.w.w.w.w.0.w.w.w.w.0.w.w.w.w.w.q.w.0.w.w.w.w.w.w.w.w.q.w.",
"q.a.a.h.p.e.e.e.e.e.e.e.e.e.e.e.e.w.0.w.0.w.e.e.i.e.w.w.w.0.w.q.w.w.w.w.w.0.w.0.w.w.w.w.w.w.w.w.w.w.w.0.q.w.0.w.w.w.w.q.w.w.w.w.",
"w.d.h.h.a.3.3.0.q.0.3.3.3.3.0.q.3.3.0.w.q.0.0.3.q.q.3.q.w.w.0.w.w.0.w.q.7.w.w.w.w.7.w.0.w.w.0.w.5.w.w.w.w.0.w.w.w.w.w.w.w.q.w.5.",
"q.d.g.h.p.w.w.w.w.q.q.q.q.q.q.q.w.w.0.w.w.q.0.w.w.w.w.w.w.w.q.w.w.0.w.w.w.q.w.w.0.w.w.w.0.w.0.w.q.w.q.w.w.w.0.q.w.w.0.w.w.w.0.w.",
"w.d.h.h.p.w.w.w.w.q.0.q.3.3.q.q.w.0.w.q.w.w.w.w.w.w.q.w.w.q.w.w.w.q.w.w.w.w.w.w.w.w.w.0.w.w.w.w.w.w.w.w.q.w.w.w.0.w.w.q.q.w.w.w.",
"0.a.p.h.a.q.w.w.0.w.h.i.p.i.3.w.q.w.0.w.0.w.w.q.w.w.w.w.w.5.q.0.w.w.3.1.2.2.1.2.2.2.1.9.w.w.w.w.w.w.w.0.0.w.q.0.q.w.w.w.q.w.q.w.",
"q.h.h.h.a.w.w.w.w.w.h.h.h.p.3.w.w.w.w.q.w.w.w.0.w.q.w.w.w.w.w.w.w.w.2.} } } } } } } } 2.w.w.w.7.0.w.q.w.w.w.w.w.w.w.w.0.w.w.w.0.",
"q.a.h.h.h.w.w.w.0.w.h.h.h.a.3.0.0.0.q.q.q.q.q.w.0.q.q.q.q.w.w.w.w.w.1.} ..........} } 9.w.0.q.w.w.w.0.w.0.w.q.w.0.w.w.q.w.w.w.q.",
"q.h.h.h.h.3.3.3.0.w.h.h.h.p.3.0.3.3.9.0.3.3.0.3.3.0.3.q.w.w.0.w.w.w.2.} } } } } } } } 2.w.w.w.0.q.w.w.w.w.w.w.w.3.3.3.0.3.3.3.w.",
"q.w.e.w.e.a.p.i.p.p.w.w.e.i.a.a.i.p.p.p.i.a.i.p.a.a.e.3.w.w.w.q.w.w.0.9.9.9.0.9.9.2.0.0.w.w.w.w.q.w.q.w.q.q.q.0.i.p.p.p.i.p.p.q.",
"w.7.3.0.w.h.h.h.h.d.w.5.3.w.h.h.h.h.h.h.h.h.h.h.h.h.i.0.q.w.w.w.w.w.w.w.w.q.w.w.w.w.w.w.w.w.w.w.w.w.w.0.q.q.q.0.d.h.h.h.h.h.h.w.",
"w.w.w.w.w.h.h.h.h.d.5.w.w.w.h.h.a.h.h.h.h.h.h.h.h.h.i.0.w.w.w.w.w.w.w.w.q.q.q.q.w.w.7.w.q.q.q.q.0.w.w.q.w.w.0.0.d.h.h.h.h.h.h.q.",
"w.w.w.w.w.h.h.h.h.h.3.w.w.i.h.h.h.g.h.h.h.h.h.h.h.h.i.0.w.0.w.w.w.w.w.w.q.0.q.w.w.w.w.w.0.0.w.0.w.w.w.w.0.w.0.0.d.h.h.h.h.h.h.w.",
"w.w.w.w.w.h.h.h.h.h.w.w.w.w.h.h.h.g.h.h.h.h.a.h.h.h.i.3.0.3.7.w.w.w.0.0.0.0.q.q.0.0.0.0.0.0.7.w.w.w.w.w.0.w.q.0.d.g.h.h.a.h.h.0.",
"w.w.w.w.w.e.w.w.w.w.w.w.w.w.w.w.w.w.e.w.w.e.h.a.d.a.a.p.p.a.i.3.w.3.e.a.p.p.a.a.i.a.p.p.a.p.h.e.3.w.0.3.i.p.p.a.e.w.w.w.p.a.h.q.",
"w.w.w.q.w.0.0.0.0.0.q.q.w.q.0.0.w.q.q.q.3.e.h.h.h.h.a.h.h.h.i.q.w.3.i.h.h.h.h.h.h.h.h.h.h.h.h.e.3.w.0.0.p.h.h.h.7.w.q.0.p.h.h.3.",
"w.w.w.w.w.w.0.q.q.q.q.w.w.0.q.w.w.w.w.w.3.e.h.h.h.h.h.p.h.h.i.w.w.3.p.h.h.g.h.g.h.h.h.h.h.g.h.e.0.w.0.5.p.h.h.h.w.w.w.w.d.h.h.w.",
"w.w.w.w.w.w.q.q.w.w.w.w.w.w.w.w.w.q.q.w.w.e.h.h.h.h.h.h.h.h.i.3.w.3.i.h.h.h.h.h.h.h.h.h.h.h.h.w.3.0.0.3.p.h.h.h.w.w.w.w.g.h.h.0.",
"w.1.1.1.1.1.1.1.1.1.w.w.w.w.0.w.w.w.w.w.w.w.w.w.w.w.w.w.w.w.w.w.0.q.w.w.w.w.w.w.w.w.w.w.w.w.w.p.h.p.a.d.e.w.w.w.p.g.p.a.w.w.w.q.",
"w.1.............1.1.8.w.w.w.0.w.w.w.w.w.0.q.0.0.w.w.w.w.0.0.w.0.w.w.w.0.w.w.w.w.0.0.0.0.0.0.0.p.h.h.h.h.e.q.w.0.a.h.h.h.w.w.w.w.",
"q.....} ..1.1...1.1.w.w.w.w.w.w.q.w.w.w.w.w.w.0.w.w.w.w.w.w.w.q.w.w.0.w.w.w.w.w.w.w.0.w.0.0.3.p.h.h.h.h.w.w.w.0.p.h.h.h.w.w.w.w.",
"w.1.1.1.1...1.....1.w.w.w.w.w.w.w.w.w.0.w.q.w.w.w.w.w.w.w.w.w.w.0.w.w.w.w.w.w.w.w.q.w.w.0.q.0.i.h.h.h.h.w.w.w.0.p.h.h.h.w.w.w.w.",
"7.q.0.q.0.q.0.q.q.q.w.w.w.w.0.w.0.w.q.w.w.0.w.w.w.w.w.w.q.w.0.w.w.w.0.w.w.w.w.w.w.0.w.q.w.q.q.w.w.w.w.q.q.w.w.w.w.w.w.w.w.w.w.w.",
"q.5.w.w.w.w.w.w.0.w.w.w.7.w.w.q.7.w.w.0.q.0.w.w.w.w.q.w.w.w.7.w.w.0.w.w.w.w.w.w.w.q.w.w.w.w.w.w.q.0.w.w.w.q.w.w.w.q.0.q.w.w.0.w.",
"w.w.w.q.w.q.0.w.w.q.w.0.w.0.w.w.w.w.q.w.w.w.w.0.w.0.w.w.w.0.w.w.w.q.3.w.w.w.q.w.w.w.0.w.q.0.0.w.w.w.w.q.w.w.0.w.0.w.w.w.w.w.w.q.",
"w.w.w.0.w.0.0.w.w.w.q.w.w.w.0.w.0.w.w.w.w.w.w.w.q.w.w.0.w.0.q.w.w.0.q.w.w.q.w.0.w.0.w.0.w.w.0.w.w.w.w.0.w.0.w.0.w.w.0.w.w.w.w.w.",
"q.w.w.w.w.q.w.w.0.w.w.w.w.0.w.w.w.w.w.q.0.w.w.w.w.0.w.w.q.w.0.w.w.w.w.w.0.w.w.w.q.w.w.w.w.w.q.w.0.q.w.w.w.q.w.w.w.w.q.w.w.q.w.0.",
"w.0.w.q.q.w.0.7.q.w.7.w.w.w.0.w.w.w.q.w.w.w.w.w.w.w.0.w.w.0.q.w.w.w.0.w.w.w.w.0.w.0.w.w.w.w.w.w.w.w.w.w.0.q.q.w.w.w.0.w.0.q.w.0.",
"w.w.w.w.w.w.w.w.w.w.w.0.w.q.w.q.0.w.0.w.w.w.w.w.7.w.w.w.w.w.w.w.5.q.w.w.7.w.w.w.w.q.w.q.w.9.w.w.q.w.w.w.w.w.w.0.w.w.q.w.w.w.w.w.",
"w.w.w.0.0.w.w.w.w.q.w.w.w.0.0.w.w.w.0.0.w.w.w.w.w.w.w.0.0.w.w.w.w.q.q.w.w.w.w.w.w.w.w.q.w.9.w.w.w.w.w.0.w.q.w.w.0.q.w.w.w.w.7.w.",
"0.q.w.w.w.w.q.0.w.w.0.w.w.w.w.q.w.w.w.w.w.w.w.q.0.w.w.q.w.q.w.0.w.w.w.0.w.w.q.0.0.w.w.w.q.w.w.w.0.w.q.w.w.0.w.w.w.w.0.w.q.w.0.w.",
"w.w.w.0.q.w.w.0.q.q.w.w.0.w.w.w.w.e.h.h.h.p.5.w.q.w.w.0.w.q.w.w.w.w.w.0.w.w.w.w.w.w.w.w.w.w.w.w.w.w.w.w.w.w.w.w.w.7.w.w.q.0.w.w.",
"w.q.w.w.w.w.w.q.q.q.q.w.w.w.w.0.3.e.h.h.h.d.3.w.0.w.w.w.w.w.w.7.w.q.w.w.w.w.q.w.w.q.w.0.w.w.w.w.w.w.w.w.w.0.w.w.0.w.0.w.w.w.w.q.",
"0.w.q.w.0.w.w.w.0.q.w.w.q.w.w.w.3.e.h.h.h.p.3.w.w.w.w.7.0.q.w.w.w.w.w.q.w.w.w.w.q.q.0.0.w.w.w.w.w.w.w.w.0.0.0.0.w.w.w.w.w.w.0.0.",
"w.w.w.0.w.2.9.0.9.0.w.w.w.0.w.q.5.w.h.p.p.i.3.0.w.0.w.w.w.w.w.0.q.w.0.w.w.w.w.w.w.e.w.w.e.w.e.w.w.w.w.w.w.w.i.w.w.w.q.w.e.w.w.q.",
"w.0.w.w.0.} } } ..1.w.w.0.w.w.w.q.w.7.3.3.3.7.7.w.w.q.w.w.w.w.0.w.0.w.w.w.w.0.i.h.h.h.h.h.h.h.e.q.w.w.3.p.h.h.h.w.0.w.w.h.h.h.w.",
"w.w.7.w.9.....1.1.1.w.w.w.w.q.0.w.q.q.3.l l w.w.w.w.w.0.0.q.w.w.w.w.w.w.w.w.q.i.h.h.h.h.h.h.h.e.0.w.w.3.p.g.h.h.w.0.w.w.p.h.h.w.",
"w.w.w.w.0.} } } ..1.w.q.w.w.w.w.w.w.q.3.g g w.w.w.w.0.w.w.w.w.w.. . . . . w.0.i.h.h.h.h.h.h.h.w.. . 3.3.p.h.h.h.w.q.7.0.p.a.h.w.",
"w.0.q.q.0.1.2.1.1.2.7.*.*.4.q.w.0.w.q.&.2 0 4.5.7.3.7.q.w.q.w.5.. . . . . w.0.i.h.h.h.h.h.h.h.i.. . e.w.p.g.h.h.i.w.e.w.h.h.h.q.",
"w.0.w.w.w.w.w.w.w.w.4.w w H w.w.w.w.w.o.5 y 1 a s f ~ { w.w.w.D         . 0.5.i.h.d.h.! N S k 6.. . h.h.E Q d.h.h.h.h.h.h.h.d.w.",
"w.w.w.w.w.q.w.w.8.w.4.w 5 $.w.w.w.w.w.O.w 7 1 p s d o %.w.w.w.D         . 0.0.p.h.h.d.! M S j 6.. . h.h.E Q g.g.h.h.g.h.h.h.d.w.",
"q.0.0.w.w.w.q.w.w.w.8.I I #.3.4.w.w.w.-.m T r % & + + 3 ;.;.>.E           w.w.i.:.:.r.W N P C o.    s.t.K U y.y.d.d.d.h.h.h.h.0.",
"w.w.w.w.0.w.w.w.w.w.0.T T Y . k w..     . . . # , O + @ .   .   . . = *   .   . 5 5 e . .           V J i i V C u.h.h.h.h.h.h.w.",
"7.w.0.w.w.w.w.0.0.0.8.R I Y . z 0.      . . . * < - ; :         . . > ;         e e t .           . . B u u V C t.i.i.i.p.i.i.w.",
"w.w.w.q.0.w.w.7.t e L R . . . Z G         . . 5 w w w w           . .           Z Z x               . 9 # $ r Z =.0.0.3.3.3.5.w.",
"0.w.w.0.q.w.w.0.e 6 n T .     Z V             w 5 . . . .                       b Z                     - * r C 4.q.0.0.0.0.w.w.",
"w.3.3.3.3.3.3.3.q 6 n T .   . Z v             4 w .   .   .                     b Z                       . . . =.0.3.3.3.0.0.0.",
"q.e.e.e.e.e.e.8.A c 8 . . . . . .                       ` _      . .                                          . 8.e.e.e.e.i.e.w.",
"q.h.h.h.h.f.+.X.Z Z 8   .   . .                         ' (       .                                           . u.h.h.h.h.h.h.w.",
"q.h.h.h.h.f.[ X.c                                                                                               p.h.h.a.h.h.h.w.",
"q.h.h.h.h.f.[ X.c                                                                             .               . h.h.a.h.g.h.h.w.",
"q.h.p.h.d.p.[ X.c                                                                         h ) .                 a.h.h.h.h.h.a.w.",
"w.h.h.g.h.d.@.+.F .                                             / /                                 ]     . 3.3.p.g.h.h.a.a.g.w.",
"w.d.h.a.h.d.<.,.+.| F                                           X                                   ^ .       0.p.h.h.p.a.h.h.0.",
"w.q.q.q.w.0.0.0.0.5.                                                                                          w.w.w.w.0.w.w.q.q."
};
