/* XPM */
static char *result[] = {
/* columns rows colors chars-per-pixel */
"64 64 240 2 ",
"   c #000001",
".  c #0B0200",
"X  c #0C0A05",
"o  c #05060A",
"O  c #07080B",
"+  c #0A0B0C",
"@  c #120203",
"#  c #180000",
"$  c #190B01",
"%  c #150109",
"&  c #1A010B",
"*  c #1E1100",
"=  c #11110C",
"-  c #0B0E12",
";  c #080919",
":  c #1F0510",
">  c #0E1016",
",  c #151514",
"<  c #280100",
"1  c #22000E",
"2  c #3B0202",
"3  c #380501",
"4  c #251403",
"5  c #391802",
"6  c #391C00",
"7  c #260010",
"8  c #2B0012",
"9  c #28081A",
"0  c #330015",
"q  c #380017",
"w  c #3C0019",
"e  c #3B0C1C",
"r  c #341913",
"t  c #342502",
"y  c #3A2300",
"u  c #3C2A00",
"i  c #292719",
"p  c #382919",
"a  c #080A24",
"s  c #070A2E",
"d  c #0E112D",
"f  c #07163A",
"g  c #121332",
"h  c #2E1428",
"j  c #2B2A2D",
"k  c #303020",
"l  c #3C3220",
"z  c #313636",
"x  c #383D3C",
"c  c #480203",
"v  c #4A0908",
"b  c #550000",
"n  c #570907",
"m  c #431504",
"M  c #43001C",
"N  c #49001F",
"B  c #440C1D",
"V  c #4E1317",
"C  c #650000",
"Z  c #690702",
"A  c #740000",
"S  c #780504",
"D  c #781509",
"F  c #432200",
"G  c #432C00",
"H  c #4A2D03",
"J  c #453101",
"K  c #4B3500",
"L  c #543A00",
"P  c #482C18",
"I  c #453B1C",
"U  c #6D3111",
"Y  c #4C0621",
"T  c #580324",
"R  c #56192D",
"E  c #67002B",
"W  c #651023",
"Q  c #4D2827",
"!  c #553822",
"~  c #683B28",
"^  c #574C08",
"/  c #6C4D04",
"(  c #716019",
")  c #584B27",
"_  c #5F5226",
"`  c #4B4932",
"'  c #504830",
"]  c #585134",
"[  c #6A482A",
"{  c #6A582B",
"}  c #745B2D",
"|  c #675837",
" . c #775634",
".. c #746837",
"X. c #0B0C41",
"o. c #0C1648",
"O. c #10194E",
"+. c #002C4C",
"@. c #002951",
"#. c #373546",
"$. c #111567",
"%. c #003662",
"&. c #5D274D",
"*. c #3C4548",
"=. c #214D5B",
"-. c #0A4E6E",
";. c #494B4A",
":. c #4F5449",
">. c #545655",
",. c #6A4F4F",
"<. c #636140",
"1. c #706A49",
"2. c #4C5165",
"3. c #655C61",
"4. c #6E6969",
"5. c #737476",
"6. c #7C7C7C",
"7. c #8A0100",
"8. c #8D140C",
"9. c #A90202",
"0. c #B80100",
"q. c #A2140E",
"w. c #AC1818",
"e. c #B71919",
"r. c #843F00",
"t. c #B13407",
"y. c #B23535",
"u. c #C40000",
"i. c #D41412",
"p. c #E30500",
"a. c #D43100",
"s. c #E53700",
"d. c #894D01",
"f. c #AF4207",
"g. c #916C07",
"h. c #A77B01",
"j. c #914E2D",
"k. c #87632E",
"l. c #856C35",
"z. c #857036",
"x. c #8B7538",
"c. c #8B753A",
"v. c #91743E",
"b. c #947D3C",
"n. c #CA5700",
"m. c #EC6600",
"M. c #B03669",
"N. c #8D7645",
"B. c #93695D",
"V. c #C56C69",
"C. c #5CD70F",
"Z. c #65D813",
"A. c #74D917",
"S. c #76A771",
"D. c #B68D0B",
"F. c #90A81B",
"G. c #B9A900",
"H. c #9B823C",
"J. c #A3893E",
"K. c #AE9430",
"L. c #B5A135",
"P. c #CC8B02",
"I. c #EFB600",
"U. c #8FDA1D",
"Y. c #8AD327",
"T. c #96D923",
"R. c #A5D03B",
"E. c #A0F622",
"W. c #FCC400",
"Q. c #998544",
"!. c #929B53",
"~. c #A38B44",
"^. c #A48E49",
"/. c #AB9446",
"(. c #A6924C",
"). c #A48C55",
"_. c #A89656",
"`. c #AA9A57",
"'. c #93A34E",
"]. c #AEA650",
"[. c #BABF5B",
"{. c #988A75",
"}. c #AEA261",
"|. c #B9A262",
" X c #B4A768",
".X c #F0BE5F",
"XX c #CEB571",
"oX c #F0BF60",
"OX c #AFC64C",
"+X c #BDC362",
"@X c #CFDD64",
"#X c #D0CC72",
"$X c #F0C260",
"%X c #F0CA64",
"&X c #EFD665",
"*X c #ECD866",
"=X c #F0D667",
"-X c #F0D867",
";X c #F0D768",
":X c #F0D868",
">X c #F3DE71",
",X c #F4E075",
"<X c #F6E57C",
"1X c #F8E77F",
"2X c #F7E87F",
"3X c #F8E87F",
"4X c #0050A0",
"5X c #005CA7",
"6X c #0075C3",
"7X c #B64D96",
"8X c #0994D7",
"9X c #0097E3",
"0X c #0CAAE8",
"qX c #11B3EB",
"wX c #21CCF2",
"eX c #65DDF2",
"rX c #848484",
"tX c #8B8B8B",
"yX c #969696",
"uX c #AAA490",
"iX c #B1B1B1",
"pX c #C8B683",
"aX c #DDC889",
"sX c #EDD58B",
"dX c #F4E780",
"fX c #F8E981",
"gX c #FFE697",
"hX c #FFE79D",
"jX c #DCD0B0",
"kX c #FFEAA7",
"lX c #FFEDB5",
"zX c #A2EDF2",
"xX c #CACACA",
"cX c #FFF0C1",
"vX c #FFF2CB",
"bX c #F8EFD3",
"nX c gray89",
"mX c #FBF6E6",
"MX c #FDFAF2",
"NX c #FFFFFF",
/* pixels */
":X-X:X;X-X-X:X:X:X-X:X:X:X:X:X:X:X:X:X:X:X:X:X:X:XO 8 w E @   :X:X:X-X-X:X-X:X;X-X-X-X:X-X:X:X:X;X-X:X:X:X:X:X:X:X:X:X:X:X:X:X:X",
":X,X,X,X,X,X>X,X,X,X,X<X,X,X,X,X,X,X,X,X,X>X&X;X>   Y E E %                       > %X&X:X:X:X:X:X:X:X&X,X,X,X,X:X-X:X:X:X:X:X:X",
":XfXfXfX3X&X&X&X&X:XfXfXfXfXfXfXfXfXfXfXfX>       E Y N M  .z.(.}. X X X X Xc.z...X :X:X-X:X&X:X:X:X:X&X2XfXfXfX:X:X:X:X:X:X:X:X",
":XfXfXfX<X:X:X:X=X:XfXfXfXfXfXfXfXfXfX3XfX- I I I Y N M w } x.(.}.}.}.}.}.}.Q.Q.H.' p O :X:X:X:X:X:X:X&XfXfXfXfX:X:X:X:X:X&X:X:X",
":XfXfXfX<X&X:X=X&X:XfXfXfXfXfX1XfXfXfX>     z.l.k.M Y w q  .c.(.`.`.`.`.`.`.`.`.`.z.{   :X:X:X;X:X:X:X&X<XfXfXfX:X&X:X:X:X:X;X:X",
":XfX1XfX1X,X,X,X,X,XfX2XfXfX1XfXfX1X,X  ) z.^.~.Q.z.V e z.Q.(.`.^.~.~.~.Q.(.^.^.~.z.)   ;X:X:X:X:X;X:X-X>X,X,X>X:X:X:X:X:X:X-X:X",
":X3XfX3XfXfXfXfXfXfX3XfXfX2XfX1XfX,X&X  { b.^.Q.Q.Q. . .Q.~.~./.~.~.~.~.~.~.~.H.~.z.{   :X:X:X:X-X:X;X:X&X&X&X&X:X:X:X:X:X:X:X:X",
":X2X3XfXfX1XfXfXfXfX1XfX1XfX1XfXfX,X&X  { J.^.N.z.^._.`.Q.~.J.J.J.~.J.~.J.J.~.~.J.z.)   :X:X:X;X:X:X:X-X:X:X:X:X:X:X:X&X:X-X:X;X",
";X1X<XfXfXfXfXfXfXfXfXfXfXfXfXfXfX<X;X  { J./.<.*.z ..H.'.1.>.*.N.~.~.~.^.^.~.~.~.z._               :X:X-X:X:X:X:X:X:X;X:X:X:X;X",
":XfXfXfXfXfXfXfXfXfXfXfXfXfXfXfXfX1X=XO p ) /.:.x z ] ..Q.>.:.:.Q.Q.(.(.(.(.^.Q.H.! P . % % & & 1 8 + :X:X:X;X-X:X:X-X:X:X-X:X:X",
"-X3XfXfX<X>X>X>X>X>X>X>X>X>X>X>X>X:X=X>     /.] z z z x H.:.*.>.Q.(.(.(.(.(.~.Q.z.7 : & 7 8 q w Y T       :X:X:X:X:X:X:X:X-X-X:X",
":X3XfXfX<X=X&X&X;X=X=X&X&X&X=X;X&X&X:X:Xo   J.] z z z z z *.*.*.Q.~.(._.(.(.x.{ & & & & 1 7 7 7 8 8 0 0 w &X;X:X:X:X;X:X:X:X;X:X",
":X3X3XfX1X:X:X:X:X:X:X;X;X;X;X:X-X-X-X-Xo   H.1...z x *.z *.;...Q.Q.(.`._.Q.! Q 1 7 1 8 0 0 0 8 8 8 8 8 & :X;X:X-X:X:X:X:X:X:X:X",
":X3XfXfX<X:X:X:X:X=X&X=X&X&X:X:X-Xo         z.Q.Q.z x *.z *.:.J.^.(.(.`.(...4 1 1 0 0 w M w M 7 8 8 8 %   :X:X:X:X:X;X:X&X:X:X:X",
";X<X<XfX<X:X:X:X=X:X<X<X<X> o     8 M w 0 0 & } H.z c.Q.*.*.;.J.^.Q.z.l.} 1 0 0 0 M Y Y 8 8 8         o > :X:X:X:X;X:X:X:X:X:X;X",
":XfXfXfX1X:X:X:X:X:XfXfXfX+ 7 0 0 M N w 0 0 0 ! _ ] H.H.<.1...J.Q.H.~ ~ Q 1 8 0 q M M w % @ % + O + + + > :X&X:X-X:X:X:X&X:X-X:X",
";XfXfXfXfX:X:X:X&X:XfXfXfX  w E E Y N M q 0 N M B b.b.b.J.H.H.K.~.v.w N M 7 8 8 0 M w 8       :X:X:X;X:X:X-X:X:X-X:X:X:X:X;X:X-X",
";XfXfXfXfX;X&X&X&X:XfXfXfX> O     0 Y M 8 1 7 w N w { z.x.b.b.z.V w N 8 7 & 7 & & 8 &   > > > :X:X-X-X:X:X:X:X;X&X&X&X&X&X&X&X:X",
":X:X>X:X>XfX<X,X2X<X:X:X,X,X<X<XO & 8 1 8 0 q q q w Q ~ x.x.x.~ e w q ! ! ! | | | & @ o > :X:X-X:X:X:X:X-X:X:X=X,X<X<X<X<X<X<X&X",
":X;X&X&X:XfXfXfXfX2X:X&X-X:XfXfX> o     0 N N 0 7 q w B l.z.} M q q 1 } l.l.`.`. XX o > :X-X:X;X:X-X:X;X:X:X:X=XfXfXfXfXfXfXfX:X",
":X:X:X:X:XfXfXfXfX<X:X:X:X>XfXfXfXfXfXfXo   q [ l.7 7 1 , 7 1 & . i xXN.l.J.k.c.(.X   :X:X;X:X:X&X:X:X:X&X:X-X=X2XfXfXfXfXfX1X;X",
":X:X:X:X:XfXfXfXfX2X-X:X-X,XfXfX<XfXfXfX+ O & U  .B.h = ' p r % 3.rXxXj.j.b.^ I ' X :X:X:X:X:X:X:X:X:X:X:X:X-X=X2XfXfXfXfXfXfX;X",
":X:X:X:X:XfXfXfXfXfX:X:X-X:XfXfXfXfXfXfX> >   b S nXx X x.{ I   iXnXxXw.8.z.X     - :X;X&X;X:X:X:X:X:X:X=X-X=X=X2XfXfXfXfX1X1X;X",
":X:X:X:X:X>X:X:X:X:X:X:X:X:X:X:X:X:X:X>X:X,X>   . 7.S S z.r 7 7 S 7.S ..z.z.X o <X1X<X1X<X<XfX>X&X:X:X&X,X2X<X1X>X:X:X:X<XfX3X:X",
":X:X:X:X:X:X:X=X;X=X:X:X:X+ - > + + + o O O O o   b v v ! Q l 3.W n U v.b.z.X o fXfXfXfXfXfXfX>X-X:X-X-X2XfXfXfX:X:X;X=X3XfXfX-X",
":X;X;X:X:X:X:X> > > > > >   + >         o o       1 1 7 & Q ,.xXj r z.H.b.z.X o fXfXfXfXfX2XfX:X&X-X:X-X<XfXfXfX:X=X:X:X<XfXfX:X",
":X:X:X:X:X:X:X- - o       G.^   y.y.y.e.e.e.e.k.N.xX3.,.xX).Q.c.e r ..l.z.l.X     - fXfX2XfXfX>X-X-X:X-X<XfXfXfX:X:X:X:XfXfX3X:X",
":X$X$X$X$X$X$XO h &.R R T G./ b w.w.q.q.t.t.j.l.N. XB.l.uX| ! ! e e { } { ` > ; ; + :X:X:X:X:X<X2X<X3XfX:X:X:X:X2X2X<X<X:X:X:X=X",
":X$X.XoXoXoXoX  &.7XM.M.M.D.f.q.q.9.7.7.f.g.z.z.l.v.Q.H.~.r % % M B _ [ ' g d g g   :X:X-X-X&X<XfXfXfXfX>X=X:X=X<XfXfXfX:X:X:X:X",
"&X$X$XoX$XoX$X- +         G.r.C A D 8.F./ 8.7.3 . % % & & 8 q M M B _ g g $.s j 6.o :X:X:X:X&X,XfXfXfXfX:X:X:X=X<XfXfXfX:X:X:X:X",
":X$X$X$X$X$XoX$XoXO O O O ^ F 3 b n Z / D Z S v 3 % : 8 8 q w 9 9 h #.o.O.X.#.*.2.o   o :X:X&X<XfXfXfXfX:X:X:X-X1XfXfXfX:X:X:X:X",
":X;X;X;X=X;X;X;X;X;X;X:X>       2 c c b b b n Z Z % 0 w M M w a ; s $.$.$.a 4.2.O.      > :X:X:X:X:X:X:X:X-X:X:X:X:X:X:X:X:X:X:X",
":X-X:X:X:X&X:X-X:X:X:X;X:X:X:X&X      $ 3 c h.P.P./ 4 & Y 9 d O.5.5.s a j tX4.>.  O.*.L.  o > -X:X:X> +   > :X:X:X:X:X:X:X-X:X:X",
":X:X;X-X:X:X:X:X;X-X:X:X:X:X:X:X:X;X  $ H U h.g./ K 5 4 V g f a 5.6.j ;.2.6.x j   O.*.L._ I + -X:X-XO = * O - &X;X:X:X:X;X:X&X:X",
":X&X:X:X:X:X:X;X:X:X:X-X:X;X:X:X:X;X  $ ( g.P.L m G G u u f o.  6.rX;.6.rX5.O     O.*./.]...  -X-X>   $ 5   o > :X:X:X:X:X:X:X:X",
":X:X;X:X:X:X:X:X:X-X:X:X-X:X-X:X:X:X>   X % $ t u               6.tX;.rXtX5.X     t J _ D./   -X:X  6 t u 6 *   -X:X&X:X;X:X:X:X",
":X:X:X;X:X&X:X:X:X-X:X:X:X-X:X;X:X:X:X:Xo . . * * O O O O O O   rXtX;.tXtX5.+     * t ^ K.(   *X:X  6 y u 5 *   :X;X:X-X:X:X:X;X",
":X:X-X:X:X:X:X:X;X:X&X:X;X:X:X:X:X;X;X:XO         :X:X:X-X-X>   rXyX;.tXtX5.=       * / ]...  > +   6 6 u 6 *   -X:X:X:X:X-X-X:X",
":X-X:X:X:X-X:X-X:X:X:X:X-X:X-X:X:X:X=X=X:X:X:X:X:X:X:X:X-X-X= iXiXyX>.yXyXyX6.>.  /.K.D.g.g.K.  $ 6 G u 6 5 *   :X:X:X;X:X:X:X:X",
":X:X;X:X;X:X:X:X;X:X:X:X:X:X:X:X:X:X:X:X:X:X:X:X-X:X-X:X-X-X> yXyXrX2.tXyXyXB.4.| K.D.D.( g.K.  X 6 u u 6 6 *   &X:X:X:X:X:X&X:X",
":X&X:X-X:X:X:X-X:X:X:X:X:X-X-X:X:X>XfXfXfX<X-X-X;X:X:X;X:X:X- 6.6.5.;.5.6.6.6.{.|.D.D.g./ g.K.  $ 6 u F 5 6 *   :X:X;X:X:X:X;X:X",
":X:X:X:X;X:X;X:X-X:X-X:X:X:X:X:X-X>XfXfXfX2X&X-X:X:X:X:X:X:X>   o.o.        o.f   h.g.g.D./   6 t G F 6 6 6 *   :X:X:X-X:X-X-X:X",
":X:X:X-X;X;X:X:X-X:X-X-X:X:X:X:X-X,XfXfXfX<X&X-X:X:X;X;X&X:X- s s ; O O O   O.f   L L J L t   6 y F 6 y t 6 *   :X;X:X:X&X;X&X:X",
":X:X;X:X;X&X&X&X=X-X:X-X-X:X:X-X&X:X2X<X<X,X&X-X;X;X;X;X:X  o O.O o -X-X;X  o.f               6 y F 6 y t 6 *   :X:X:X:X:X>X:X:X",
":X-X:X:X&XoXoX.X.X$X*X-X:X:X:X:X:X-X&X-X-X*X:X:X:X:Xo       o O.O   ;X:X:X  O.f           X 6 K G 6 u u u 6 *   :X;X:X:XfXfXfX:X",
":X:X:X:X=XoXoXoX$X$X-X-X:X:X&X:X-X:X:X&XL.L.;X:X:XO ; a a a s o.O :X:X>X:X  X.X.a ; ;     # 5 m m m 6 t u 6 *   :X&X:X:XfXfXfX:X",
":X-X:X:X;X$X.X.X.X$X&X*X:X:X:X-X:X:X:X              s X.X.X.X.X.o o   o   + X.X.X.X.s     @ v v c c 5 t t 6 *   :X:X&X-X2XfXfX;X",
":X:X:X:X;X$X$X$X$X$X*X*X@X*X;X>       u F F F 3 3 s s s s s s s s h i.i.i.i.g s s s s s 2 v n v v n v m 6   + fX,X:X>X:XfX<XfX:X",
":X;X:X:X:X:X:X:X:X:X*XC.C.R.= + # 4 * u J H F c 3 e e e Y Y B R T W i.i.e.i.W W Y W W W c v v v v v m 5 6   fXfXfXfXfXfXfXfXfX:X",
"-X:X:X-X;X:X:X:X:X:X*XC.C.> o o 2 6 G J L L F m 2 Z W D D 8.8.w.w.w.e.e.w.e.e.e.w.i.e.e.b c c v v v 6 5 6   fXfXfXfX<XfXfXfXfX:X",
":X:X:X;X:X:X:X&X:X:X-XE.>   $ 2 u J J L K H 2 S 8.|.|._.c A S S S S S S S S Z A S A A A b b b c 3 5 6 F u       - fXfXfXfXfXfX=X",
":X:X-X:X:X:X:X:X:X:X-XE.+ _ P 5 G K K K G G 2 ~ B.jXaXXXj.D C C C C C C C C C C C C C C 7.7.S c 3 * 6 z -.-.%.@.+ - fXfXfXfXfX:X",
"&X:X:X-X:X:X:X:X;X:X> O   |.{ G J K L J H m 2 N.XXMXlXsX|.U b b b b b b b b b b b b b b u.0.0.b 3   5 =.9X9X6X4X  O <X,X<X,X<X-X",
":X:X;X:X-X:X:X;XA.Z.  | |.gXv.u L K J F 3 2 |.bXNXMXNXMXgXXX).% # # # # # # # # # # L I.0.u.u.0.0.p.  -.wX9X6X4X  O > &X&X&X&X-X",
":X:X;X-X:X&X:X:XA.C.  | |.gXc.u K H H F [  .#XbXNXNXNXMXbXaXXX[ v c < < < @ c c c < m d.f.t.u.0.a.m.C 3.eXqX8X6X@.d O :X:X&X-X-X",
":X&X&X&X&X&X&X&XZ.C.  | |.hXz.6 G G F m v.|.gXmXNXNXNXNXNXkXgX|.8.C 2 2 3 # C A A 2 < # n.n.0.0.a.W.u.V.zXwXqX9X4X@.  &X&X&X&X:X",
":X,X>X>X>X>X>X:XT.Y.  | |.NXcXgX6 5 F |.|.XXNXlXhXNXNXNXNXNXmX|.i # # # # # # # # Z C 2 # L I.s.m.W.p.V.zXwXqX9X4X@.  ,X>X,X>X-X",
":XfXfXfXdX<X+XOXT.T.  | |.vXvXvX~.{.{.|.|.|.vXvXvXvXMXNXNXNXmX|.r # . k i . . $ l c 2 < @ k S.a.s.m.V.iXeXqX8X6X+.f O fXfXfXfX-X",
":X2X2XfXfXdX[.OXU.T.  | |.gXbXNXhXbXNX|.|.|.hXmXNXgXmXNXNXNXmX Xr @   ] `     , <.# # %   +.9Xp.p.p.zXeXwX9X6X4X  O > fXfX3XfX:X",
":X2XfXfXfXdX[.OXU.T.> O   |.aXgXNXlXgX|.p   |.sXhXNXlXhXNXpX).@ ] `   ] `   ] `         4X5X9X9XqXwXwXqX9X9X6X4X  2X2X2X3XfX2X:X",
":X2X<XfXfX<X[.OXU.U.A.+ + _ }.#XjXaXaX] i O ] }.#XvXvXcXjX1._ l k k k k k k k i o o O o +.-.6X6X8X0X0X8X6X6X4X@.o fXfX3XfX3XfX-X",
"-X2XfXfX3X<X+XOXR.R.Y.A.A.  ,.|.|.|.|.  o >   N.XXgXmXMX}.i + | = = <.+ , | + O !.!.'.Y.  f 4X4X6X9X9X6X4X4X+.  1XfX1XfX2XfXfX:X",
":X<X2XfX3X3X#X#X[.[.R.U.T.T.X   o   o @X@X@X#X  . |.|.).  > + o ` <.<.<.`   ].'.'.'.!.!.- + o   f 4X4X%.    o > <XfXfX2X3XfX2X:X",
":X:X:X-X-X-X*X;X;X;X-X=X=X-X:X=X;X;X*X*X*X>X;X=X+ ] ] ' O -X-X+ i k k k i O :X*X:X:X:X&X:X- O + a @.@.f o + + :X-X:X-X:X:X:X-X:X"
};
