/* XPM */
static char *result[] = {
/* columns rows colors chars-per-pixel */
"64 64 251 2 ",
"   c #6B3B3E",
".  c #0F0C58",
"X  c #352547",
"o  c #3B2A4C",
"O  c #2F2758",
"+  c #12136B",
"@  c #01017A",
"#  c #241B6B",
"$  c #302B6C",
"%  c #4C3C46",
"&  c #463A57",
"*  c #6E3857",
"=  c #57454C",
"-  c #4D415D",
";  c #58495A",
":  c #575553",
">  c #6D5156",
",  c #596852",
"<  c #6C665A",
"1  c #746D51",
"2  c #534B64",
"3  c #564A67",
"4  c #5B536D",
"5  c #5A526F",
"6  c #655866",
"7  c #645B74",
"8  c #675B76",
"9  c #756E6E",
"0  c #666678",
"q  c #6C637B",
"w  c #73677B",
"e  c #9E1A00",
"r  c #A61C00",
"t  c #9A3111",
"y  c #AA2100",
"u  c #A04429",
"i  c #9A5F4C",
"p  c #8D706A",
"a  c #867A78",
"s  c #53A020",
"d  c #63CB18",
"f  c #73D21A",
"g  c #72904E",
"h  c #9EA931",
"j  c #94DE22",
"k  c #90D12F",
"l  c #ECEB0E",
"z  c #FDFD03",
"x  c #F7F70C",
"c  c #E5E41A",
"v  c #CDCA2F",
"b  c #939654",
"n  c #9CAB5D",
"m  c #8F9273",
"M  c #AC9978",
"N  c #B6AC71",
"B  c #CDB674",
"V  c #ECBC62",
"C  c #DBDA4A",
"Z  c #DAC571",
"A  c #F0C562",
"S  c #EFD665",
"D  c #ECD56B",
"F  c #F0D667",
"G  c #F0D868",
"H  c #E2CD71",
"J  c #ECDB77",
"K  c #F3DE71",
"L  c #EAE474",
"P  c #F4E075",
"I  c #F6E57C",
"U  c #F8E77F",
"Y  c #F8E87F",
"T  c #030788",
"R  c #030497",
"E  c #2E3092",
"W  c #0103A7",
"Q  c #0E17AE",
"!  c #0103B5",
"~  c #0D28B9",
"^  c #2724A3",
"/  c #324192",
"(  c #524B89",
")  c #6D6581",
"_  c #766B83",
"`  c #756C85",
"'  c #7A7286",
"]  c #7B758B",
"[  c #7C748A",
"{  c #61629E",
"}  c #777295",
"|  c #4A53AA",
" . c #546EB2",
".. c #6C6DB1",
"X. c #0105C7",
"o. c #0318C9",
"O. c #1811C9",
"+. c #0005D5",
"@. c #0217D4",
"#. c #0825D8",
"$. c #0A31D1",
"%. c #2037D2",
"&. c #0008EF",
"*. c #011AE8",
"=. c #011AF9",
"-. c #0228E7",
";. c #0A35E5",
":. c #1436E9",
">. c #0227FB",
",. c #0436F9",
"<. c #023DFA",
"1. c #4A3FC3",
"2. c #1846D4",
"3. c #2C4DD0",
"4. c #3963CE",
"5. c #1B53E6",
"6. c #0344FB",
"7. c #0949F9",
"8. c #0B4CFC",
"9. c #164BF7",
"0. c #0E53FC",
"q. c #1A57F7",
"w. c #1356FA",
"e. c #1C5DF8",
"r. c #2F53EA",
"t. c #265AF8",
"y. c #1B65FF",
"u. c #3069E6",
"i. c #2463F9",
"p. c #2768F9",
"a. c #2C6BF9",
"s. c #326CF8",
"d. c #2D74FE",
"f. c #3572F9",
"g. c #3B76F8",
"h. c #357AFC",
"j. c #3E7AFA",
"k. c #5074C9",
"l. c #447DF8",
"z. c #487EF8",
"x. c #5073FF",
"c. c #847A85",
"v. c #837A8D",
"b. c #857C91",
"n. c #867D9D",
"m. c #D97390",
"M. c #7B89A9",
"N. c #3A87FF",
"B. c #5B81D1",
"V. c #718CCA",
"C. c #4681F8",
"Z. c #4981F8",
"A. c #4A87F9",
"S. c #5486F4",
"D. c #5187F8",
"F. c #548AF8",
"G. c #598EF8",
"H. c #5D91F7",
"J. c #5D91F8",
"K. c #6993ED",
"L. c #6797F7",
"P. c #6295F8",
"I. c #6699F9",
"U. c #6B9CF8",
"Y. c #6EA1F8",
"T. c #74A3F8",
"R. c #78A7F8",
"E. c #7DAAF8",
"W. c #8C828B",
"Q. c #938688",
"!. c #8D9382",
"~. c #858191",
"^. c #8B8395",
"/. c #8D859A",
"(. c #8D899B",
"). c #958B98",
"_. c #948C9D",
"`. c #9A919A",
"'. c #9C929E",
"]. c #AC8782",
"[. c #A6988A",
"{. c #A79898",
"}. c #B1A793",
"|. c #8B8AA9",
" X c #958EA1",
".X c #988FA0",
"XX c #9991A1",
"oX c #9B97A8",
"OX c #949AB8",
"+X c #A097A2",
"@X c #A199A5",
"#X c #A29CAA",
"$X c #A09FB0",
"%X c #9BA4AD",
"&X c #A6A1AE",
"*X c #AAA4AC",
"=X c #B8B2AD",
"-X c #A9A7B4",
";X c #ADAAB4",
":X c #B2AEB6",
">X c #B7B5BA",
",X c #B5B5BD",
"<X c #BBBABB",
"1X c #C8B985",
"2X c #C9BF96",
"3X c #C5BEA2",
"4X c #D6C687",
"5X c #D7CC96",
"6X c #E8D78B",
"7X c #E5D997",
"8X c #F3E485",
"9X c #F8E981",
"0X c #F3E59B",
"qX c #CBC5A8",
"wX c #DDD7BF",
"eX c #E4DAA9",
"rX c #F1E7B1",
"tX c #B6B6C5",
"yX c #B9B9C1",
"uX c #AEBAD4",
"iX c #82AEF8",
"pX c #86B1F8",
"aX c #8BB4F8",
"sX c #93BBF8",
"dX c #99BFF8",
"fX c #C1BEC4",
"gX c #BEC1C7",
"hX c #B8C6D3",
"jX c #9CC1F8",
"kX c #A0C5F8",
"lX c #C4C5CA",
"zX c #C6C4CA",
"xX c #CDCCCC",
"cX c #CDD1C8",
"vX c #D0D1CC",
"bX c #DBD0C8",
"nX c #CECDD1",
"mX c #D0D0D1",
"MX c #D3D3D4",
"NX c #D7D7D9",
"BX c #DADADA",
"VX c #EFEACB",
"CX c #DDDEE1",
"ZX c #DFE1E0",
"AX c #E4E4E4",
"SX c #E8E9E7",
"DX c #EBECEA",
"FX c #F0EFEC",
"GX c #F5F5F4",
"HX c #F8F8F6",
"JX c #FBFBFB",
/* pixels */
"G G G G F G G G G G G G G G G G K F F K F G F F F G G G D G G G G G G G G G G G G G G F G G G G G G G G G G G G G G G G G G G G ",
"G P P P P P P P P P P I P P P P K K K K K K F M B B 5XfX<XyXyXgX_.oXmXyXyXeX6X6XZ A D F G F G G G G G F P P P P G G G G G G G G ",
"G 9X9X9XU S S S S G 9X9X9X9X9X9X9X9X9X9X2X4XB h b Z tX:XyXyXyXgXoX>XZXyXlXnXMXBXnXrX0X6XG F G G G G G F Y 9X9X9XG G G G G G G G ",
"G 9X9X9XU G G G S G 9X9X9X9X9X9X9X9X7X2Xb.@X{.l z B OX@XlXyXgXlX&XlXBXxXzXfXNXMXSXJXJXDXrX0XG G G G G F Y 9X9X9XG G G G G G G G ",
"G 9X9X9XU S F S S G 9X9X9X9XY 9XB M n.n..X@XOX9 v ..).&X>X;X%X;Xb.oXMXzXMXZXMXDXDXHXJXJXJXHXrX0XG G G G I 9X9X9XG G G G G G G G ",
"G 9XU 9X9XK P P P I 9X9X9X9XU 7X3 h h $X.X'.XXn.( } q v.' w ; ; & 7 ' q v.(.(.xXFXHXJXJXHXHXGXJXrX6XG G G P K P G G G G G G G G ",
"G Y 9XY 9X9X9X9X9X9X9X9X8XB 1XyX8 v v :XoX@Xb.7 3 2 ; % % 5  .OX[ = : : % & 4 8 [ #XxXGXJXJXJXJXHXDX7XF G G G G G G G G G G G G ",
"G Y Y 9XU 9X9X9X9XY 9X8X7X~.q -Xb.( ( b./._ 7 3 3 = 0  .{ 2.t.x.| E E | M.w = = & 2 7 oXnXGXJXJXHXJXHX4XG G G G G G G G G G G G ",
"G U U 9X9X9X9X9XY 9X8X4XuX#X` 8 @X Xb.` 7 & & > 0  .~ N.8.,.@.@ R W R ;.l.E E B.0 = 4 0 7 oXBXJXJXDX#X,XrX4XG G G G G G G G G G ",
"G U 9XU 9X9X9X9X9X9XV u i c.#X` w /.8 7 ; 8 M.E E $.Q N.>.o.o.~ ! ! ~ -.=.-.p.5.E ..9 _ 8 8 (.BXAX_.oXDXGXNX6XF G G G G G G G G ",
"G Y 9X9X9XK G K P 5Xi y r {.$X#Xq 5 3 % 6 k.4.*.W @ R 2.7.#.7.h.9.9.d.w.6.,.#.X.#.h.4.6 a ' ) oX' oXJXJXJXJXNX4XG G G G G G G G ",
"G Y U 9XU S S S B -Xu y r [.|.b.q 3 ; V.^ ~ +.=.-.;.;.-.a.J.U.P.j.A.J.F.i.7.*.>.8.<.0.3.B.c._.8 2 nXGXJXJXJXJXMX4XG G G G G G G ",
"G Y 9X9XU G G 4X).oXp   i c.` 7 2 &  .3.=.X.7.9.f.N.j.j.Z.L.P.S.A.g.p.s.i.g.p.6.8.<.e.6.#.3.0 2 q $X:XDXJXJXJXJXmX4XG G G G G G ",
"G Y 9X9XI D 4X<XoX X X} M.} 7 3 > V.e.X.<.9.g.C.R.P.C.D.D.l.l.l.D.a.w.w.w.l.A.q.q.e.7.0.-.+...6 ^.'  XMXJXJXGXJXJXwXG G G G G G ",
"S U U 9XI D qX:XXX_._.oX@Xw 2 3 4.9.&.>.a.l.T.I.G.S.A.l.i.f.z.z.z.j.f.g.t.f.S.l.j.i.w.g.e.-.h.4.`._.'.#XNXJXHXHXJXFX7XG G G G G ",
"G U 9X9XI B =X@XoX,X>X#X^.4 4 ; 8.>.:.g.T.L.G.F.l.Z.j.e.0.f.Y.L.I.I.U.Y.C.g.l.C.S.j.i.l.j.f.o.y.B./.XXXXgXDXJXHXHXGXrXG G G G G ",
"G 9X9X9X9X5XtX:XyXlX;Xb.7 3 ; 2.,.s.C.U.G.A.i.a.z.z.l.f.f.F.iXT.R.R.R.T.U.P.U.D.z.A.t.g.I.U.4.o.i.+ v.'.#XnXJXJXHXJXHX7XG F F G ",
"G 9X9X9X5XyXyXyXyX&XXXb.4 ; 4.@.s.U.U.S.l.i.w.p.Y.L.U.Y.P.z.D.D.D.D.z.J.pXsXiXD.z.Z.j.P.T.R.U.&.o.k.v.XXXXlXDXJXHXHXJXCX4XG G G ",
"G G K K 5XyXyXtXlX#Xb.8 2 k.#.2.L.T.S.C.l.i.l.Z.R.R.U.A.D.z.l.l.z.l.l.l.iXaXT.S.z.a.g.Y.T.Y.Y.s.! 7.. w XX#XMXJXHXHXHXGXrXU I G ",
"G G G 4X,XyX<XyX#X.Xb.5 ; 5.X.S.T.D.Z.I.l.l.Z.Z.D.A.Z.z.z.z.z.Z.z.z.l.l.U.G.P.T.F.i.t.z.Y.aXsXL.,.X.%.=X_.XXlXDXJXHXHXJXVX9X9XG ",
"G D D 5XyXtX<XyX#X.X) 2 ).Q r.T.S.z.U.aXl.Z.C.z.z.z.C.C.Z.Z.C.C.z.Z.z.Z.A.z.z.U.F.l.i.j.U.T.sXY.g.,.8.K.c._.&XSXJXHXJXJXSX0X9XG ",
"G D 4X<XtX<XyXyX#Xv.` 6 Q >.R.T.Z.Z.aXY.Z.Z.Z.Z.Z.C.C.z.C.z.Z.l.J.T.U.T.F.l.z.A.A.z.z.i.l.U.T.aXU.5.+.:.`._.oXmXJXHXHXGXHXVX9XG ",
"G G B -XgXyXgX&X.Xv._ a 2.f.T.D.Z.Y.aXZ.Z.l.l.Z.Z.z.Z.z.l.G.T.U.E.dXR.pXE.Y.F.l.L.F.Z.i.l.Z.U.T.U.e.=.+.# @X@XlXDXJXJXJXJXrX8XS ",
"G G M ;XtX,XyXoX).v.c.}.k.U.T.A.U.sXU.C.Z.Z.Z.Z.Z.Z.z.z.j.I.aXI.U.U.U.pXE.iXiXF.z.z.Z.p.e.l.A.I.C.e.,.W + c.`.&XDXJXJXJXJXDXv.S ",
"G G 8 ] ' ^.oXb._ ) c.Q t.aXG.z.aXaXZ.Z.Z.z.Z.z.Z.Z.Z.C.l.G.P.l.Z.z.H.Y.T.U.pXiXD.z.z.Z.i.l.Z.t.e.q.6.8.$.O @X&XDXGXGXGXFXGX#XG ",
"G G ] &XoXoXoX@Xw 2 p O.t.Y.D.z.aXU.Z.Z.C.Z.C.Z.C.z.Z.z.z.Z.z.Z.Z.C.l.j.E.P.F.T.A.z.Z.Z.a.l.z.6.<.7.i.q.! # @X&XnX,X,X;XtX&X(.G ",
"G G ;XgXyXyXgX&X+Xq m r.8.J.D.z.aXT.l.z.Z.z.Z.C.C.z.Z.z.C.Z.C.z.z.z.Z.l.F.E.F.l.C.Z.z.Z.l.C.z.i.<.<.y.9.R . q ' :XnXtX@XyXyXXXG ",
"G A -XyXyX,XgX#Xn.}.M k.p.j.Z.Z.aXsXG.Z.C.z.Z.z.Z.Z.Z.C.z.Z.Z.Z.Z.C.Z.C.l.iXP.l.z.Z.C.C.S.z.C.A.<.-.y.-.Q @ . W.FXJXJXJXJXJXzXG ",
"G A &XyXyXyXtX@X'.{.^ 3.s.l.Z.Z.P.sXjXT.Z.Z.Z.Z.C.z.Z.z.Z.C.z.Z.z.C.z.C.l.H.D.z.C.C.C.C.Y.G.C.Y.t.>.t.&.@.$.# =XNXJXHXHXJXJXnXF ",
"F A -XfXyXgX#X_.'.*XO.r.a.l.Z.Z.l.aXiXaXZ.z.C.z.Z.Z.C.z.z.Z.C.Z.Z.Z.Z.Z.z.l.l.T.G.l.z.z.U.T.S.U.D.>.t.=.X.. + =XDXJXHXHXHXJXCXG ",
"F A &XyXyXyX&X_.'.}.O.t.a.l.z.z.z.iXS.E.z.z.z.Z.z.Z.z.Z.Z.z.Z.Z.Z.z.Z.z.Z.z.j.pXP.l.C.z.U.T.T.T.J.7.l.,.X.. $ :XDXJXHXHXJXJXBXF ",
"F F #XlXyXlX&X_.'.{.1.s.p.g.z.z.z.P.iXU.F.A.z.Z.Z.C.C.Z.C.Z.C.z.Z.C.Z.Z.z.l.z.iXJ.l.z.z.U.Y.T.U.a.8.l.<.*.# `.-XDXJXHXJXJXJXnXF ",
"G F ,X,X-X:XoX_._. X}.r.8.D.A.z.z.z.pXT.E.E.z.Z.C.Z.C.Z.z.Z.z.Z.Z.z.z.Z.Z.g.T.Y.A.z.C.C.U.Y.Y.R.a.l.f.6.o.. ^.&XDXJXJXJXDXJX=XG ",
"G F ,X&X/._..XXX.X'.}.:.7.Y.D.z.Z.Z.J.P.U.iXl.Z.Z.z.Z.z.Z.C.Z.z.Z.C.Z.l.l.l.iXH.g.C.z.l.U.T.T.aXH.I.0.@.W . W.,XGXJXJXJXAXAX7XG ",
"G G }.,X)..X`.XX.X.X{.'.u.I.D.z.C.l.l.j.l.G.z.C.z.Z.Z.Z.z.l.l.z.Z.z.z.l.z.E.E.S.S.J.S.j.U.T.T.sXl.i.*.X.~ O (.SXJXDXJXJXGXBX7XF ",
"G G 1X&X_..X X X.X.XXX1X| z.I.z.Z.G.C.z.z.l.Z.z.z.C.Z.l.D.A.l.l.l.j.A.D.T.sXiXC.I.U.C.F.U.P.T.U.q.p.&.=.F.< oXDXAXZXJXJXJXSX5XG ",
"G G 1X_.XXXX.X'..XXX.X{.X.9.E.z.z.J.Z.Z.l.l.z.C.Z.C.z.g.P.E.Z.G.G.A.T.iXaXU.F.F.T.S.F.R.R.Z.G.p.f.h.&.X./ ~.<XBXMXZXDXSXJXZX2XG ",
"G G M _.XX.X.XXXXX.X`.@X..:.D.L.Z.l.C.Z.G.F.l.z.Z.z.A.G.T.jXaXiXiXaXpXE.P.z.Z.T.I.l.G.H.H.Z.l.f.F.-.=.$.3 XXBXBXNXNXMXvXAXbXH G ",
"G G Z [.XXXX XXXXX`.XX X}.+.q.I.A.z.z.A.E.pXD.l.z.l.S.pXE.aXaXT.R.dXiXT.S.g.U.I.g.S.z.l.l.f.l.D.%.! *.A.`.fXAXBXBXBXBXBXvX7XG G ",
"G S S 1XoX X`.XX X XXXXXXX{ :.p.z.Z.Z.z.P.aXpXA.l.z.C.J.G.F.P.E.P.U.pXP.Z.j.P.P.D.pXH.z.z.7.l.a.! W T { /.zXzXzXzXxXzXNXzX}.G G ",
"G G G M (.XXXXXX.X.XXXXX.X}.,.6.Z.Z.Z.z.l.F.pXiXS.S.F.g.l.g.z.G.A.z.D.F.C.S.R.sXsXsXj.l.Z.t.Z.q.! *.3.9 :X@XuXfXhX>X:XgX3XH G G ",
"G G D Z [.@XXX`.XX.X.X.X@Xv.( =.p.S.Z.C.C.J.R.sXP.D.pXZ.D.I.H.Z.f.D.S.E.T.I.pXY.pXD.e.i.z.iXj.i.,.+.{ _.fXfX@Xi p uXmXyX}.G G G ",
"G G G G M ).oX_..X.X.X#X_ & % ..>.a.A.z.D.R.E.sXI.T.jXU.f.U.dXT.D.E.sXjXaXR.P.s.f.e.w.s.p.I.w.>.o.$ w fXtXbXt e y p gXqXH G G G ",
"G G G G Z [.oXXX.X.X#Xq q oX/.c...>.f.Z.Z.D.J.E.T.iXdXsXL.Y.kXdXsXpXiXT.F.G.f.e.0.s.g.D.l.w.@.s.@ 9 _ } -X].r t y u $X2XK G G G ",
"G G G G F M ^. X_.#Xw q :X:X@X/.c.E >.a.A.z.z.A.Z.H.iXiXiXR.iXL.T.U.D.a.f.S.p.q.s.C.S.f.f.@.R T ' zX@X4 _ _.i r t W.).p 9X9X9XG ",
"G G G G F V [.XX#Xw q :X-X_.'.XX).Q.E @.f.Z.Z.P.I.H.Z.A.S.Z.P.H.l.A.Z.l.s.a.e.a.U.H.t.6.@.W { ` +X;XfX#X5 ` /.> 6 ] 9 Z U 9X9XF ",
"G G G G F V V [.8 q :X-X X XXX.X{.oXQ.( @.a.J.dXaXL.P.P.P.I.H.Z.z.f.t.a.i.w.f.D.j.d.>.0.@ ( '.@X`.tXtX&Xv.- ` oX^.a H S U 9X9XG ",
"G G G G F A A p ) ,X-X'._.XX.X.X_.'.oX)...0.w.J.I.sXsXpXY.R.P.N.S.f.e.e.e.i.p.f.$.! ! / ] `.XX,XfXa v ( oX] - [ }.H K G U U 9XG ",
"G G G G G G G H m  XXX`.XXXX XXX_.XXXXXXoX|.{ Q d.J.G.F.A.F.j.p.a.w.<.w.d.o.-.6.W $...W.oXXXXXtXw c z v } oX] 2 m 9X9X9X9X9X9XF ",
"G G G G G G G G D Q.(.oXXXXXXX_. XXXXX_.oX'.`.^...! Q 0.p.p.:.! ! ! -.6.y.Q ;. .b.|.oXoXXX`.XX Xa z z c 7 oX^.9 J 9X9X9X9X9X9XG ",
"G G G G G G G G S D a ~.XXXXXXXXXXXXXX_.`.'.XXoX_./.M.oX{ R T @ @ R ;.d.V.).|._.XX:XyX<XXX`. X] ' 1 c ; M.W.9 L 9X9X9X9X9X9X9XG ",
"G G G G G G G G G G D m ] `.XX X_.XXXXXX'. X X'.XX'.`.`. X(.b.3 q XX|. X`.`.'./.nXC x x [. X X_.` 4 c.8 2 !.j j L 9X9X9X9X9X9XG ",
"G G G G G G G G F 3XSXHX[ /._..XXXXX_.XX_.XXXXXX X_._.XXXXoX).4 ` &X'.`.'. X_. XyXc x x x [. XXX.X_.) 5 v.GXSX}.L P P I I P P G ",
"G G G G G G S D }.DXJXJXHXJX[ b._.XXXXXXXXXX XXXXXXXXXXX`.oX^.4 w oX`.XXXX.XXX|.v z z z x W. X X_.b.[ JXGXHXJXDX3XD G S F F G G ",
"G G G G G G G qXAXHXGXGXGXGXJXv.' (._.`.XXXX XXXXXXXXXXX`.oX[ & ' #X XXX.XXXXXb.{ v l l 9 } (.(.b.[ JXGXGXGXGXHXAXqXD G G G G G ",
"G F F S G D 3XSXSXNXBXNXNXNXGXFXXX9 9 ^._.oXXX X_.XXXX_.XXoX[ & (.,X_.XX.X.X'.XXq 5 5 5 , ~.] w FXJXFXNXBXBXNXMXAXAX3XG S S G G ",
"G P P P L qXnXMXmXMXvXmXNXlXnXoX] k j 6 , b./. X@XoXoXXX.X@X_ & (.,X_._.XXXXXXoXoX] 4 , d , ` NXBXNXNXmXMXmXmXmXMXMXnXqXJ P K G ",
"G 9X9X8XqXnXgX,XyX,X,XgX,X] ~.(._.] k s s = , g m m !.b.XX#Xv.& _.,X X`.XX X/.(.` 3 & s d f 1 -XNXMXnX,X<XtXyX,X,X,XlXxXqX8X9XG ",
"G Y 8XqXyX<X,XyXyX,XgXyX` ` ] ] ] ] ` q o s f k j k g % ' /.8 & 8 Q.m m _ 8 2 & o X X % d f k 4 -XyXyXyXtXyXtX<XyX<X,X,XyXqX8XG ",
"G Y qXyXtXyXyX,XyXyX;X) & 7 0 8 8 8 - - - - 2 - o o & o X X X & X : i 1 1 1 < < 6 < < k j k b * 0 -XyX,XtX<X<XtXyXtXyXtXyXyXqXG ",
"G Y <XyXyXyX,XyX,XgX_.` & X X X X X X X o X X o o o o o o o o o o o o o < N N n b n n f k n m m.7 ) &XyXtX<XtX<XyX,XyXyXyXyXtXG ",
"G Y <XtXyX,XyXyX<X,XgXMX`.] ~.~.~.~.~.~.~.b.~.~.(.~.~.~.b.v.b.v.b.b.v.v.v.v.] ~.*X;X-Xb.%X:X;X%X&X^.(.yX<X<X<XtXyX<XtXyXyXyX<XG ",
"G Y <X<X<X<X<X<X,X<X>XcXcXcXcXcXcXvXcXvXvXvXvXcXvXxXxXxXcXxXxXxXxXxXxXvXvXcXcXvXmXmXMXvXxXvXcX>X>X>X:X>X,X,X<X<X<X<X<X<X<X<X<XG ",
"G G G G G G G G G G G G G G G G G G G G G G G G G G G G F F F F F F G G G G G G G G S G G G G G G G G G G G G G G G G G G G G G "
};
