/* XPM */
static char *result[] = {
/* columns rows colors chars-per-pixel */
"64 64 251 2 ",
"   c #020102",
".  c #0B0302",
"X  c #05050B",
"o  c #0B070A",
"O  c #130402",
"+  c #1B0401",
"@  c #150A05",
"#  c #1B0B04",
"$  c #150B08",
"%  c #1A0C08",
"&  c #1F130D",
"*  c #050918",
"=  c #230501",
"-  c #2C0601",
";  c #260A02",
":  c #2A0A01",
">  c #330601",
",  c #340A01",
"<  c #3B0C01",
"1  c #25130A",
"2  c #2D160E",
"3  c #33160E",
"4  c #3A1608",
"5  c #2B1111",
"6  c #311810",
"7  c #3E1E16",
"8  c #070D28",
"9  c #091231",
"0  c #430A00",
"q  c #4C0B00",
"w  c #4B0904",
"e  c #540C00",
"r  c #5C0D00",
"t  c #491508",
"y  c #571307",
"u  c #4E1418",
"i  c #670102",
"p  c #640E00",
"a  c #6B0E00",
"s  c #730F01",
"d  c #6D1101",
"f  c #681506",
"g  c #731100",
"h  c #7B1400",
"j  c #781B05",
"k  c #6D390E",
"l  c #7B4211",
"z  c #030C48",
"x  c #0C1354",
"c  c #2A195C",
"v  c #192E4D",
"b  c #172A57",
"n  c #162C5D",
"m  c #372748",
"M  c #222A5A",
"N  c #041163",
"B  c #11166E",
"V  c #162C63",
"C  c #172E6C",
"Z  c #162C76",
"A  c #193076",
"S  c #1A317B",
"D  c #2B2967",
"F  c #493B55",
"G  c #69295B",
"H  c #564957",
"J  c #6C5B5A",
"K  c #5A6852",
"L  c #544B66",
"P  c #5B536C",
"I  c #5A526F",
"U  c #655766",
"Y  c #665B75",
"T  c #77726C",
"R  c #6B647A",
"E  c #930A00",
"W  c #821500",
"Q  c #8B1600",
"!  c #831A03",
"~  c #8C1900",
"^  c #941A00",
"/  c #961A04",
"(  c #9C1C00",
")  c #A60700",
"_  c #B60600",
"`  c #A31C00",
"'  c #A21A05",
"]  c #AB1E00",
"[  c #B71E00",
"{  c #9D2701",
"}  c #98320E",
"|  c #A82401",
" . c #AF290B",
".. c #B42300",
"X. c #BB2500",
"o. c #B82902",
"O. c #AB3201",
"+. c #D90701",
"@. c #F30100",
"#. c #C42B00",
"$. c #C92C00",
"%. c #D12E00",
"&. c #C43502",
"*. c #CD3200",
"=. c #D43400",
"-. c #D63901",
";. c #DB3A00",
":. c #E63D00",
">. c #E83E00",
",. c #9C4B1E",
"<. c #B45311",
"1. c #DB4807",
"2. c #D2570F",
"3. c #E64202",
"4. c #EA4201",
"5. c #EC4B05",
"6. c #E64D08",
"7. c #F24601",
"8. c #EB5208",
"9. c #ED5309",
"0. c #EE5C0E",
"q. c #F3580A",
"w. c #F05F10",
"e. c #D46915",
"r. c #F5630E",
"t. c #E96814",
"y. c #F36712",
"u. c #F97618",
"i. c #9E5B4D",
"p. c #8A7470",
"a. c #5ACC12",
"s. c #A8A12F",
"d. c #FA831E",
"f. c #F88722",
"g. c #91D42A",
"h. c #E3E10F",
"j. c #ADA64E",
"k. c #8E8976",
"l. c #AC9978",
"z. c #B9A775",
"x. c #CDB674",
"c. c #ECBC62",
"v. c #C5C250",
"b. c #DAC670",
"n. c #F0C562",
"m. c #EFD665",
"M. c #ECD56B",
"N. c #F0D667",
"B. c #F0D868",
"V. c #E8D675",
"C. c #F3DE71",
"Z. c #EAE474",
"A. c #F4E075",
"S. c #F6E57C",
"D. c #F8E77F",
"F. c #F8E87F",
"G. c #0F2689",
"H. c #10258B",
"J. c #1B348A",
"K. c #1B3596",
"L. c #1C1BA1",
"P. c #0C0FB1",
"I. c #0922AD",
"U. c #1D37A7",
"Y. c #0822B7",
"T. c #1832B3",
"R. c #203CAE",
"E. c #213DB8",
"W. c #554A87",
"Q. c #756A83",
"!. c #756D84",
"~. c #726D88",
"^. c #7B7487",
"/. c #7C738A",
"(. c #796FAC",
"). c #050DCB",
"_. c #0F32C8",
"`. c #233FC1",
"'. c #0012F0",
"]. c #0834EE",
"[. c #1844D3",
"{. c #2241CA",
"}. c #2143D0",
"|. c #1451F6",
" X c #295BF0",
".X c #3765E1",
"XX c #4E74C9",
"oX c #457DF8",
"OX c #83798A",
"+X c #847C91",
"@X c #5085F7",
"#X c #6797F5",
"$X c #74A5F9",
"%X c #8B8397",
"&X c #938991",
"*X c #928896",
"=X c #948C9C",
"-X c #A8978C",
";X c #B1A792",
":X c #968FA0",
">X c #9A92A2",
",X c #9C97A8",
"<X c #9493B0",
"1X c #A299A3",
"2X c #A29CAA",
"3X c #9AA5BE",
"4X c #A6A1AE",
"5X c #AAA4AB",
"6X c #B8B2AD",
"7X c #AAA8B4",
"8X c #B2AEB6",
"9X c #B6B5B9",
"0X c #B5B5BD",
"qX c #BBBABB",
"wX c #C8B985",
"eX c #C9BF96",
"rX c #C5BEA2",
"tX c #A6C08D",
"yX c #D6C687",
"uX c #D7CC96",
"iX c #E8D78B",
"pX c #E5D997",
"aX c #F3E485",
"sX c #F8E981",
"dX c #F3E59B",
"fX c #CBC5A8",
"gX c #DDD7BF",
"hX c #E4DAA9",
"jX c #F1E7B1",
"kX c #B7B6C6",
"lX c #B9B9C1",
"zX c #A5B9D0",
"xX c #8DB6F8",
"cX c #C0BFC4",
"vX c #BEC1C7",
"bX c #B8C6D3",
"nX c #C4C4C9",
"mX c #C9C8CC",
"MX c #CED1CB",
"NX c #CECDD1",
"BX c #D3D3D5",
"VX c #D7D7D9",
"CX c #DADADA",
"ZX c #EEEACB",
"AX c #DDDEE1",
"SX c #E6E6E6",
"DX c #EBECEA",
"FX c #F0EFEC",
"GX c #F5F5F4",
"HX c #F8F8F6",
"JX c #FBFBFB",
/* pixels */
"B.B.B.B.N.B.B.B.B.B.B.B.B.B.B.B.B.B.B.B.B.B.M.m.M.m.B.B.B.B.B.m.B.B.B.B.B.N.N.B.M.M.B.B.B.B.B.B.B.B.B.B.B.B.B.B.B.B.B.B.B.B.B.B.",
"B.A.A.A.A.A.A.A.A.A.A.S.A.A.A.A.A.A.A.A.A.C.m.z.x.x.uXlXkXkXqXnX    BXlXlXhXiXiXb.m.n.B.B.B.B.B.B.B.B.N.A.S.A.A.B.B.B.B.B.B.B.B.",
"B.sXsXsXD.m.m.m.m.B.sXsXsXsXsXsXsXsXsXsXyXyXx.s.j.yXkX8XkXX X   - w =   nXNXBXCXNXjXdXiXB.N.B.B.B.B.B.N.F.sXsXsXB.B.B.B.B.B.B.B.",
"B.sXsXsXD.B.B.B.m.B.sXsXsXsXsXsXsXsXpXeX+X<X;Xh.h.v.3X,XnXX + - e a >   nXcXVXBXDXHXJXDXjXdXB.B.B.B.B.N.F.sXsXsXB.B.B.B.B.B.B.B.",
"B.sXsXsXD.m.N.m.m.B.sXsXsXsXF.sXx.;X+X:X>X1X4XR v.(.*XX X   i ) E p >   . AXBXDXDXGXJXJXHXHXjXdXB.B.B.m.F.sXsXsXB.B.B.B.B.B.B.B.",
"B.sXD.sXsXC.A.A.A.S.sXsXsXsXD.pXU s.s.4X>X>X>X+XW.R R X = > ) +.E r < ; $ X =XmXFXHXJXJXHXHXHXHXjXiXB.B.C.A.C.C.B.B.B.B.B.B.B.B.",
"B.F.sXF.sXsXsXsXsXsXsXsXaXx.wXlXY s.v.8X,X1X+XY L L X   i _ ) E q = e ! ,   L R ^.2XNXGXJXJXJXHXHXDXdXB.m.m.m.m.B.B.B.B.B.B.B.B.",
"B.F.F.sXD.sXsXsXsXF.aXsXpX+XR 7X+XW.I +X%XQ.P L P . O = ) @.E a < = d X.0   H F F L Y >XNXHXJXJXHXJXGXwXB.B.B.B.B.B.B.B.B.B.B.B.",
"N.D.sXD.sXsXsXsXF.sXsXwXzX5Xp.Y ,X=X%X!.P H H K R . i @.@.@.) s ~ ( Q a ;   K.XXR H P R Y >XAXJXJXDX2X0XjXyXB.N.B.B.B.B.B.B.B.B.",
"N.D.D.sXsXsXsXsXsXsXx.,.i.+X2Xo X . @ @ $ X X .   . i @.@.@.) h ^ ] W p :   . . o o @ @ @ @ o CXAX:X,XDXGXVXiXN.B.B.B.B.B.B.B.B.",
"N.sXsXsXD.B.C.C.A.pXi.` ' -XX X ; e.e.t.l # @ 1 1 2 3 5 ! #.[ ] ^ g y 5 6 5 & 5 . 1 ,.e.e.<.1   /.,XJXJXJXJXVXyXB.B.B.B.B.B.B.B.",
"m.sXsXsXD.B.M.M.x.3X,...] -Xo = t t.y.y.<.t 4 t 4 6 3 3 f / ( ' h r t 4 6 6 t t 4 t 2.r.r.2.t + X NXGXJXHXJXJXBXyXB.B.B.B.B.B.B.",
"B.F.sXsXD.m.m.b.=X>Xp.G J OX+ / ..5.5.4.1.e.<.| j 1 4 g t 3 f s t 3 t p t & ! | <.e.6.5.5.:...W   4X8XDXJXHXJXJXMXyXB.B.B.B.B.B.",
"B.sXD.sXD.B.uXqX4X=X:X/.+X+XO h ~ =.=.=.6.0.1.` ! u f g a f f a f y f s y 3 ~ ' 6.r.1.=.=.#.~ f . ^.:XBXJXJXHXJXJXgXB.B.B.B.B.B.",
"B.D.sXsXD.m.fX9X=X*X=X1X2XR X = , ..X...$.3.&.h h ( ! f ] +.E s ! ( ! a f p a h 1.1.$...#.{ < + X *X:X2XVXJXJXHXJXFXpXB.B.B.B.B.",
"B.D.D.sXZ.x.6X,X,X9XkX4X+XI X X @ d ~ ` X.*.o.W ^ $.| r _ +.) s Q ` ~ W ^ / W W o.*.X.( W p O   X *X>X>XcXDXJXHXHXGXjXB.B.B.B.B.",
"B.D.sXsXD.eXkX0XkXnX7X%XY L H }.$ . 0 ` ......] X.>.o.p ^ [ ~ s d h ~ ..$.:...] ....X.~ < . o _. Xb +X>X2XNXJXJXHXJXHXpXB.N.B.B.",
"N.sXsXsXpXqXlX0XlX4X>X+XP H .X). X  : g ^ ] ..X.*.7.o.h ^ ( ~ W s g ( $.-.7.$.#.] ` / p - o #X'.)..XOX>X>XnXDXJXJXHXJXCXyXN.N.B.",
"N.C.B.B.uXlXlX0XlX4X+XY H XX_.}.#X* o   0 ( $.3.4.>.=.[ Q d ^ ] Q g o.7.:.3.>.3.$.^ < . X $X$X XP.|.c R >X2XNXJXGXGXJXGXjXD.D.N.",
"B.B.B.uXqXlXlXlX4X>X+XI H |.).oX$Xo # ; d ..=.:.4.>.=.$.` W Q ` ~ ~ o.4.:.3.>.:.#.` e ; O X xX#X].).[.5X:X>XnXDXJXJXGXJXZXsXsXN.",
"B.B.B.uXkX0X0XvX2X>XY L &XP. X$XX   > ( =.:.4.:.>.>.>.>.$.] W a ~ [ *.4.4.>.>.:...` [ Q : X X X X ].|.oXOX=X4XSXJXHXJXJXDXjXsXB.",
"B.B.uX0XlXkXlXlX4XOX/.U P.].o X @ q g ` #.;.5.9.5.>.5.q.;.*.' / ] *.=.4.5.q.5.:.%.$.1.o.j < @ X X |.).].-X=X1XBXJXHXHXGXHXjXsXB.",
"B.B.x.7XvXlXvX4X>XOXQ.OX].% X   O ( ' ' #.:.q.r.r.>.q.u.q.3.#.] $.:.>.4.q.u.5.:.:.3.y.t.o.! O X X  X'.'.c 1X1XnXDXJXJXJXJXjXaXN.",
"B.B.l.7X0X9XlX,X=XOXOXz.XX. . e f 1.1.*.=.3.7.q.5.>.5.w.5.4.=.=.1.r.5.>.8.w.4.3.:.3.8.8.9.o.j e X |.].P.B +X:X2XDXJXJXJXJXDX+XB.",
"B.B.Y /.^.%X>X%XQ.!.OXL. X  O ( o.y.r.3.:.4.>.4.4.>.4.4.>.>.:.:.y.u.0.:.:.>.>.3.>.3.:.5.r.0. .~ X |.].|.].c 2X4XDXGXGXGXGXGX2XB.",
"B.B./.4X,X>X>X2XQ.F p.). X  # 2.2.q.6.=.=.3.4.>.:.:.:.:.>.>.>.4.9.w.9.>.9.y.5.:.4.:.=.=.6.0.6.<.    * |.P.c 1X2XNX0X9X7X0X4X*XB.",
"B.N.7XvXlXlXvX2X1XR &Xo X @ 2 u.u.4.=.| X.;.3.3.:.3.4.>.>.3.3.>.:.>.:.3.y.f.6.>.3.;.....=.5.u.e.# @ X X P.x Q.Q.8XNXkX,XkXlX>XB.",
"B.n.7XlXlX0XnX4X*X5Xz.. & k l 0.0.7.*.( | $.=.:.5.r.9.:.9.w.9.>.:.3.4.4.9.w.5.>.-.$.( | *.5.0.2.k k o   P.N x *XFXJXJXJXJXJXmXB.",
"B.n.7XlXlXlXlX,X:X;XL.o t e.d.:.:.>.o.g W ` #.:.9.f.y.:.w.f.w.>.>.>.4.>.:.>.>.>.X.` s h &.:.:.5.f.e.&   )._.B 8XVXJXHXHXJXJXNXN.",
"B.c.7XlXlXlX2X=X=X5XL.. 6 e.u.4.;.| W < e W ..:.5.w.5.>.5.0.5.>.4.4.>.4.9.w.4.:.` W 0 q ! o.-.5.u.e.# o ).z B rXDXJXHXHXHXJXCXB.",
"B.n.5XlXlXlX4X=X>X;XX X 4 e.u.4.-.h w O - r { :.>.:.:.>.:.:.:.:.:.4.>.4.r.u.5.>.Q r = + q Q -.7.u.e.1   . x D 8XDXJXHXHXJXJXAXN.",
"B.B.2XnXlXmX4X=X=X. 2 l <.8.6.{ h : + . > p Q X.=.4.>.:.>.>.0.y.9.:.>.4.5.9.*.#.W p = . + < j | 6.6.<.l 1 o >X7XDXJXHXJXJXJXNXN.",
"B.B.9XkX7X8X2X=X1X  7 <.u.6.-.g r .     > p ~ ] $.3.>.>.:.:.y.u.w.>.3.>.:.4.X.] W p =     + r h :.3.f.,.1 . %X4XSXJXJXHXGXJX6XB.",
"B.B.0X4X%X=X=X>X>X  4 O.9.3.;.h r .   X . + 0 h | 4.>.:.9.u.y.9.4.3.4.:.*.X.^ W , + o     + p W :.3.r.} ; X &X8XGXJXHXJXSXAXiXB.",
"B.B.;X0X=X>X>X=X>X  , O.5.;.*.d e .   X X   = a / 3.:.:.w.u.q.4.4.>.4.:.$.] W a +   X o   + e h -.;.7.O.; . *XSXJXFXJXJXGXCXhXB.",
"B.B.wX5X=X=X>X=X>X  < O.:.{ h - =   @XoXX   - g ^ $.=.>.6.9.w.r.9.>.4.:.$.] W a O   @X@XX . = , ~ { 7.{ ; X >XFXAXAXJXJXJXSXuXB.",
"B.B.wX:X=X>X>X>X>X  4 O.;.h r     #XoXoX    = r g ' X.:.:.:.0.r.9.:.:.-.X.` a r O   @X$X$XX   . p ! 4.{ : X qXCXBXCXDXDXJXCXyXM.",
"B.B.;X%X>X>X=X>X:X  , O.;.h r     oXX X     . = 0 Q ( #.=.:.5.5.4.:.=.X.( W < =       . #XX   O p ! 5.{ :   CXCXVXVXBXNXSXgXV.M.",
"B.B.x.l.1X>X=X>X>X  , O.;.! r . o X X + O       + p g ` *.:.4.3.4.:.#.( s r O       O @   X o + a W 4.{ :   SXCXCXAXCXCXBXuXM.M.",
"B.B.B.x.>X=X>X:X>X  4 O.;.h p 1 %   + q > .     . + 0 h o.>.q.r.q.;...s 0 O .     . 0 w + . % 2 a h 7.{ : o nXnXmXmXnXVXnXwXB.M.",
"B.B.B.-X*X>X>X:X>X  < O.;.j r 2 2   - s e + .       - a | :.0.r.q.;.| r -       . + p a = . 1 4 r h 6.{ - o bXbXbX9X8XvXrXb.B.B.",
"B.B.B.b.-X,X:X>X>X  < O.&.:         < ( ^ s <       : s ^ ..X.o.X.] ^ p -       q a ` Q >         : 1.{ = o 1Xi.p.zXNXvX;XN.B.B.",
"B.B.B.B.l.&X>X>X>X  , { O.;         , ^ ~ s 0       : f ! ' | '  ./ ! r ;       e a ( W -         + ;.{ ;   } / | i.bXrXb.N.N.B.",
"B.B.B.B.b.-X1X=X>X    O # .           O O . .     . 8 V M M V M M M M n *       . . O O             + O .   ( O.| ,.zXwXB.C.C.B.",
"B.B.B.B.B.l.%X:X>X                              X * 9 C V V A S Z V V V 9 * X                               i.[ } %X&Xk.sXsXsXN.",
"B.B.B.B.B.c.-X>X2X                              * b n C V b K.E.J.n n V b b *                               %XH U ~.p.x.sXsXsXB.",
"B.B.B.B.m.n.c.-XY X                     O = +   9 J.A n A S U.T.K.J.C V Z J.*   + = .                     X Q.<X%Xp.n.B.D.sXsXN.",
"B.B.B.m.m.n.n.p.R X X                   = e <   9 E.K.b K.R.Y.Y.T.R.J.n K.E.8   q e +                   X X H /.;XV.C.B.D.sXsXB.",
"B.B.B.B.B.B.B.b.k.,X>XX         . < < < e a u 8 x R.J.b K._.H.B I.E.J.n K.E.9 8 f a e < < > .           X 2X^.L k.sXsXsXsXsXsXB.",
"B.B.B.B.B.B.B.B.M.k.*X          + ( ( ` ~ s u b n C C n G.Y.x * N I.G.n C C V b u g ^ ( ` W +           I 4X%XT Z.F.sXsXsXsXF.B.",
"B.B.B.B.B.B.m.B.B.B.p.X       + < ( ` ] W r 7 S S n V n G.Y.z   N I.Z V n n S S u r ^ ` ` ~ < O         +X%XT Z.aXsXsXsXF.sXsXB.",
"B.m.B.B.B.B.B.B.B.B.V.o X   . s s s a g w O x `.U.n V n G.Y.z X N I.G.n C n R.E.8 . e g a g s a     X X L k.g.g.Z.sXsXsXsXsXsXB.",
"B.B.m.B.B.B.B.B.B.rXDXHX^.  . w q q q e - . x R.R.S S n G.Y.z X N I.Z V A S E.E.8 . < e w q q 0   X Q.I /.GXDXtXZ.A.S.A.S.S.S.m.",
"B.B.B.B.B.B.m.M.;XDXJXJXGXX X               v R.{.{.K.v G.Y.z X N I.Z b U.{.{.E.8               X X /.JXGXJXJXDX6XM.m.m.m.m.m.B.",
"B.B.B.B.B.B.M.fXSXHXGXGXHXGXX o X X   X     x R.`.E.U.Z H.Y.z X N I.H.G.E.{.`.E.8       X   o o +X/.JXHXGXGXGXHXSXfXM.m.B.m.B.B.",
"B.m.m.m.m.M.rXSXDXBXVXVXVXVXGXFX>XT T %X    x {.}.{._.Y.Y.).z X N ).Y.Y._._.`.`.9   L I K %X^.R GXHXDXVXVXVXVXVXSXSXfXM.m.m.m.B.",
"B.A.A.A.V.fXNXBXMXBXBXBXBXmXNX>X/.g.g.K X   8 x D G G G c x 8 X 9 x c G G G D B *   L K a.K ^.CXCXVXVXBXBXBXNXBXMXBXNXfXV.A.A.B.",
"B.sXsXaXfXNXvX0X0XlX0X0X0X^.+X=XX X X       X X 3  .'  .w * X X X o y  .'  .5 X         X X K 7XBXBXNX0X0XlX0X0XqX9XnXNXfXaXsXB.",
"B.F.aXfXvX0X0XlXlX0XvX0X~.^.^./.X   X $ $ @ $ % < j j j < o X F X o 0 j j j 5 + % @ % o X X g.Y 7XlXkX0XlXlXlXlX0XlX0X0XlXfXaXB.",
"B.F.fXlXlXqXlXlXlXvX7X~.H I R X o   @ 2 2 2 3 5 5 5 5 6 $   X m     % 6 2 6 5 5 2 2 6 5 @   . X R 7XlXlXlX0X0XlXqXlXlXlXlXlXfXB.",
"B.D.0XlXlX0XlX0XqXvX>XR m m m   o > 0 t y w t 6 6 5 6 6 $   o m X . % 6 2 2 2 2 t t t w 0 ; . o Y R 4XlXlXlX0XlX0XlX0XlXlX0XlXB.",
"B.F.lXqXlXqXlXlXqX0XvXBX<X+X%X  O d s s d s y 6 5 6 6 6 @   X OXX   % 6 2 2 2 2 f s s s g r @   4X%X*XlXlX0XlXlXlXlXlXlXlXlXlXB.",
"B.F.qXqXqXqX0XqX0XqX9XMXMXMXMX  . , < t t , ; % $ $ $ % .     mX    . % $ % $ $ : < t t < :     9X8X9X9XqX9XqXqXqXqXqXqXqXqXqXB.",
"B.B.B.M.B.B.B.B.B.B.B.B.m.B.B.    o X % $ X X         X     X B.X             X X   % % X o     B.B.B.M.B.B.B.B.B.B.B.B.B.B.B.B."
};
