/* XPM */
static char *result[] = {
/* columns rows colors chars-per-pixel */
"64 64 253 2 ",
"   c #100709",
".  c #33120F",
"X  c #12152A",
"o  c #33233E",
"O  c #511108",
"+  c #751903",
"@  c #542A2E",
"#  c #120F55",
"$  c #352547",
"%  c #3B2A4C",
"&  c #2C2656",
"*  c #12136B",
"=  c #01017A",
"-  c #241B6B",
";  c #152A67",
":  c #2F2C6A",
">  c #4C3C46",
",  c #463A57",
"<  c #6E3857",
"1  c #31457D",
"2  c #57454C",
"3  c #4D415D",
"4  c #58495A",
"5  c #575553",
"6  c #6D5156",
"7  c #596852",
"8  c #706A56",
"9  c #534B64",
"0  c #564A67",
"q  c #5B536D",
"w  c #5A526F",
"e  c #655866",
"r  c #665B75",
"t  c #5D6070",
"y  c #756E6E",
"u  c #666678",
"i  c #6C637B",
"p  c #73677B",
"a  c #941601",
"s  c #A61C00",
"d  c #932F0E",
"f  c #AE2902",
"g  c #E33E03",
"h  c #A04429",
"j  c #DD4206",
"k  c #EB4705",
"l  c #9A5F4C",
"z  c #8D706A",
"x  c #867A78",
"c  c #53A020",
"v  c #63CB18",
"b  c #73D21A",
"n  c #72904E",
"m  c #9EA931",
"M  c #94DE22",
"N  c #90D12F",
"B  c #ECEB0E",
"V  c #FCFC04",
"C  c #E5E41A",
"Z  c #CDCA2F",
"A  c #99A359",
"S  c #8F9273",
"D  c #AC9978",
"F  c #B6AC71",
"G  c #CDB674",
"H  c #ECBC62",
"J  c #DBDA4A",
"K  c #DAC571",
"L  c #F0C562",
"P  c #EFD665",
"I  c #ECD56B",
"U  c #F0D667",
"Y  c #F0D868",
"T  c #E8D675",
"R  c #F3DE71",
"E  c #EAE474",
"W  c #F4E075",
"Q  c #F6E57C",
"!  c #F8E77F",
"~  c #F8E87F",
"^  c #030788",
"/  c #030497",
"(  c #23239E",
")  c #2E3092",
"_  c #0103A7",
"`  c #0E17AE",
"'  c #0103B5",
"]  c #0D28B9",
"[  c #33478A",
"{  c #3859A5",
"}  c #524B89",
"|  c #766B83",
" . c #756C85",
".. c #726B8B",
"X. c #7A7388",
"o. c #7C748A",
"O. c #61629E",
"+. c #4A53AA",
"@. c #546EB2",
"#. c #6C6DB1",
"$. c #0105C7",
"%. c #0318C9",
"&. c #1811C9",
"*. c #0005D5",
"=. c #0217D4",
"-. c #0825D8",
";. c #0A31D1",
":. c #2037D2",
">. c #0008EF",
",. c #011AE8",
"<. c #011AF9",
"1. c #0228E7",
"2. c #0F36E7",
"3. c #0227FB",
"4. c #033AFA",
"5. c #4A3FC3",
"6. c #1846D4",
"7. c #2C4DD0",
"8. c #3B65CB",
"9. c #3D6DD3",
"0. c #1B53E6",
"q. c #0344FB",
"w. c #0A4AFB",
"e. c #164BF7",
"r. c #0E53FC",
"t. c #1A57F7",
"y. c #1356FA",
"u. c #1C5DF8",
"i. c #2F53EA",
"p. c #265AF8",
"a. c #1B65FF",
"s. c #366EEB",
"d. c #2463F9",
"f. c #2768F9",
"g. c #2C6BF9",
"h. c #326CF8",
"j. c #2D74FE",
"k. c #3572F9",
"l. c #3B76F8",
"z. c #357AFC",
"x. c #3E7AFA",
"c. c #4E74CD",
"v. c #4674EC",
"b. c #477EF6",
"n. c #447DF8",
"m. c #847A85",
"M. c #837A8D",
"N. c #857C91",
"B. c #867D9D",
"V. c #D97390",
"C. c #7B89A9",
"Z. c #3A87FF",
"A. c #5681D8",
"S. c #708DCC",
"D. c #4681F8",
"F. c #4981F8",
"G. c #4A87F9",
"H. c #5486F4",
"J. c #5187F8",
"K. c #548AF8",
"L. c #598EF8",
"P. c #5D91F7",
"I. c #5D91F8",
"U. c #6993ED",
"Y. c #6999F7",
"T. c #6295F8",
"R. c #6699F9",
"E. c #6B9CF8",
"W. c #6EA1F8",
"Q. c #74A3F8",
"!. c #79A7F8",
"~. c #7DAAF8",
"^. c #8C828B",
"/. c #938688",
"(. c #8D9382",
"). c #858191",
"_. c #8B8395",
"`. c #8D859A",
"'. c #8D899B",
"]. c #958B98",
"[. c #948C9D",
"{. c #9A919A",
"}. c #9C929E",
"|. c #A6988A",
" X c #A79898",
".X c #B1A793",
"XX c #8B8AA9",
"oX c #958EA1",
"OX c #988FA0",
"+X c #9991A1",
"@X c #9B97A8",
"#X c #949AB8",
"$X c #A097A2",
"%X c #A199A5",
"&X c #A29CAA",
"*X c #A09FB0",
"=X c #9BA4AD",
"-X c #A6A1AE",
";X c #AAA4AC",
":X c #B8B2AD",
">X c #A9A7B4",
",X c #ADAAB4",
"<X c #B2AEB6",
"1X c #B7B5BA",
"2X c #B5B5BD",
"3X c #BBBABB",
"4X c #C8B985",
"5X c #C9BF96",
"6X c #C5BEA2",
"7X c #A6C08D",
"8X c #D6C687",
"9X c #D7CC96",
"0X c #E8D78B",
"qX c #E5D997",
"wX c #F3E485",
"eX c #F8E981",
"rX c #F3E59B",
"tX c #CBC5A8",
"yX c #DDD7BF",
"uX c #E4DAA9",
"iX c #F1E7B1",
"pX c #B6B6C5",
"aX c #B9B9C1",
"sX c #AEBAD4",
"dX c #82AEF8",
"fX c #86B1F8",
"gX c #8BB4F8",
"hX c #93BBF8",
"jX c #99BFF8",
"kX c #C1BEC4",
"lX c #BEC1C7",
"zX c #B8C6D3",
"xX c #9CC1F8",
"cX c #A0C5F8",
"vX c #C4C5CA",
"bX c #C6C4CA",
"nX c #CDCCCC",
"mX c #CED1CB",
"MX c #D0D1CC",
"NX c #DBD0C8",
"BX c #CECDD1",
"VX c #D3D3D4",
"CX c #D7D7D9",
"ZX c #DADADA",
"AX c #EFEACB",
"SX c #DDDEE1",
"DX c #DFE1E0",
"FX c #E6E6E6",
"GX c #EBECEA",
"HX c #F0EFEC",
"JX c #F5F5F4",
"KX c #F8F8F6",
"LX c #FBFBFB",
/* pixels */
"Y Y Y Y U Y Y Y Y Y Y Y Y Y Y Y R U U R U U U U U Y Y Y U U Y P I Y Y Y Y I Y Y Y Y Y Y Y Y Y Y Y Y Y Y Y Y Y Y Y Y Y Y Y Y Y Y ",
"Y W W W W W W W W W W Q W W W W R R R R R R L D G G 9XaXaXaXaXvX[.@XVXaXaXuX0X0XK L I U Y Y Y Y Y Y Y U R Q W W Y Y Y Y Y Y Y Y ",
"Y eXeXeX! P P P P Y eXeXeXeXeXeXeXeXeXeX5X8XG m A K sX<XaXaXaXaX&X3XFXaXvXnXVXZXBXiXrX0XU U U Y Y Y Y U ~ eXeXeXY Y Y Y Y Y Y Y ",
"Y eXeXeX! Y Y Y P Y eXeXeXeXeXeXeXeXqX5XN.%X.XB V G #X%XvXaXvXbX-XkXCXbXbXkXCXVXGXKXLXGXiXrXU Y Y Y Y U ~ eXeXeXY Y Y Y Y Y Y Y ",
"Y eXeXeX! P U P P Y eXeXeXeX~ eXG D B.B.OX%X#Xy Z #.].&XaX,X&X,XN.%XVXbXCXDXVXGXGXKXLXLXKXKXiXrXY Y Y P ~ eXeXeXY Y Y Y Y Y Y Y ",
"Y eX! eXeXR W W W Q eXeXeXeX! qX0 m m &XOX[.}.B.} ..i M.X.p 4 9 , w X.i M.'.'.nXHXKXLXLXKXKXKXLXiX0XY Y R W R W Y Y Y Y Y Y Y Y ",
"Y ~ eX~ eXeXeXeXeXeXeXeXwXG 4XaXr Z Z <X%X%XN.r 0 0 4 > > q @.#Xo.4 5 4 > , q r o.-XBXKXLXLXLXKXKXGXrXY P P P P Y Y Y Y Y Y Y Y ",
"Y ~ ~ eX! eXeXeXeX~ eXwXqX).i >XB.} } N.`.| r 0 0 2 u @.O.6.p.b.+.) ) +.C.y 2 2 , 0 w +XBXKXLXLXKXLXJX4XY Y Y Y Y Y Y Y Y Y Y Y ",
"U eXeXeXeXeXeXeX~ eXwX8XsX&X .r $X[.N.X.r 3 , e u @.] Z.q.4.=.^ / _ / 1.n.) ) c.u 2 q u r @XDXLXLXGX@X2XiX8XY Y Y Y Y Y Y Y Y Y ",
"U Q eXQ eXeXeXeXeXeXH h l m.&X| i B.r r 4 e #X- ) ] ] Z.,.%.;.%.' ' ] 1.<.-.f.t.) #.x p r r '.ZXDXoX&XGXKXCX0XY Y Y Y Y Y Y Y Y ",
"U eXeXeX! R R R W 9Xl s s  X*X&Xi r 4 2 t c.7.,.' = / 6.w.-.6.j.e.e.j.a.q.4.-.$.-.z.8.e z X. .@XX.@XLXLXLXLXCX8XY Y Y Y Y Y Y Y ",
"U eXeXeXQ P P I G >Xh f s |.XXN.i 4 4 S.( ] *.3.1.;.2.1.f.R.E.T.x.G.P.J.d.w.,.3.r.4.y.6.A.m.`.u 3 BXKXLXKXLXLXBX8XY Y Y Y Y Y Y ",
"Y ~ ~ eX! U Y K ].@Xz @ l m...r 9 , c.:.<.$.w.e.z.x.Z.z.F.R.P.K.G.l.f.h.f.l.f.q.w.4.u.q.-.7.u 9 | -X<XGXLXLXLXLXMX8XY Y Y Y Y Y ",
"U eXeXeX! I 9X3X%X}.+XC.C...r 0 6 S.p.$.4.e.l.D.!.T.F.J.H.b.n.n.K.g.r.t.y.n.G.t.t.u.q.r.=.=.#.e _.X.oXVXLXLXKXLXLXyXY Y Y Y Y Y ",
"P ! ! eXQ I 6X<XOX[.[.@X&Xi 0 0 8.e.>.3.g.n.Q.Y.K.K.F.n.d.k.n.n.n.x.k.l.u.k.H.n.x.d.r.l.a.1.z.8.{.`.oX&XCXLXKXKXLXHXqXY Y Y Y Y ",
"U ! eXeXwXG :X%X&X<X2X&X_.q 4 e w.3.2.z.Q.Y.L.K.n.n.n.u.w.l.W.R.T.Y.Y.W.F.l.b.D.J.n.d.n.n.j.$.a.A.].+X+XlXGXLXKXKXJXiXY Y Y Y Y ",
"Y eXeXeXeXtX2X<XaXvX,XB.r 9 4 6.4.h.D.E.K.J.d.f.F.n.n.l.k.H.~.!.~.Q.!.Q.E.T.Y.J.n.J.d.l.Y.E.9.%.d.# N.OX&XBXLXLXKXLXKXqXY U U Y ",
"U eXeXeXqX3XaX3XaX-X+XN.q 4 8.%.s.E.E.K.n.d.t.f.W.R.Y.W.T.F.J.J.J.K.b.I.fXhXdXK.n.F.l.T.Q.Q.R.>.%.c.M.$X@XbXGXLXKXKXLXSX8XU I Y ",
"Y Y Y Y 9XaXaX3XaX-XN.r 4 c.-.2.T.Q.K.n.n.u.x.J.Q.!.Y.J.J.n.n.n.n.n.n.n.dXgXQ.K.n.g.n.W.Q.E.Q.h.' e.- r +X%XVXLXKXKXKXJXiX! Q Y ",
"Y I Y 9X2XaXaXaX-X+XN.q 4 0.$.P.Q.J.F.R.b.n.F.F.J.J.F.n.n.F.F.F.b.n.n.n.E.L.T.Q.K.d.p.b.E.gXgXY.2.$.6.;X[.+XvXGXLXKXKXLXAXeXeXY ",
"Y Y I 9XaX2XaXaX&XOXi 0 ].` i.W.H.b.W.fXD.F.D.b.b.n.D.b.D.D.D.D.F.n.F.F.F.b.n.W.K.n.d.n.E.!.hXQ.z.4.w.U.m.[.-XFXLXKXKXLXGXiX~ Y ",
"Y Y 8X2XaXpXaXlX-XM.| e ` 3.!.!.F.F.gXW.D.F.F.F.F.F.D.F.F.D.D.D.I.Q.W.Q.K.n.b.F.F.F.b.d.n.E.W.gXR.t.$.2.{.[.@XBXLXKXKXKXKXiXeXY ",
"Y Y G >XlXaXaX-XOXM.| m.6.k.Q.J.F.W.gXF.F.F.n.F.b.D.F.D.n.L.Q.E.dXjX~.dX~.W.K.n.R.K.n.f.x.F.E.Q.Y.u.<.*.- %X%XvXGXLXLXLXLXiXwXU ",
"Y Y D ,X2X2XlX@XOXN.m.D c.E.Q.G.E.hXE.n.F.n.F.F.F.F.D.F.l.Y.gXU.E.E.E.fX~.dXdXK.b.b.F.f.p.n.F.Y.n.u.4._ * m.}.-XGXLXLXLXLXGXM.Y ",
"Y Y r N.X._.@XN. . .m.` p.gXL.n.fXgXF.b.n.F.F.F.F.F.F.n.D.L.P.D.n.n.P.W.Q.E.fXdXG.b.F.F.d.n.b.u.u.t.q.w.;.& %X-XGXKXJXJXJXJX&XY ",
"Y Y o.-X@X@X$X%Xp 3 x &.p.W.J.b.gXW.F.F.F.F.n.F.n.F.F.F.D.G.D.D.s.c.9.l.~.T.P.W.J.n.F.F.f.n.b.w.4.q.d.t.' - $X@XnX2X2X,X2X&X[.Y ",
"Y I >XaXaXaXlX&X}.i S :.w.T.K.n.gXQ.b.b.n.F.n.F.F.b.F.n.D.8.c.1 d +   X A.S.H.b.F.F.n.F.b.F.b.d.q.4.a.t./ # ..| <XBXpX@XaXaX+XY ",
"Y L >XlX2XpXvX&XB.:XF c.f.l.F.F.fXhXL.F.F.F.F.F.F.F.F.F.8.a @ j O X   O ; @ T.x.n.F.F.F.J.n.F.G.4.1.u.3.` = # ^.HXLXLXLXLXLXbXY ",
"Y L >XaXaXaXaX%X}. X( i.h.v.F.F.T.hXxX!.b.b.n.F.n.F.b.v.: d k k f . X & ; . I.G.F.D.b.D.E.K.D.E.d.3.t.>.*.;.& :XCXLXKXKXKXLXBXU ",
"U L >XaX2XvX&X`.$X.X&.i.f.n.F.F.b.gXdXgXF.F.F.F.F.F.n.$ a + f k k j , ^ #   D.!.L.n.F.n.E.Q.L.E.H.3.p.<.$.# * 3XHXLXKXKXKXLXSXY ",
"U L -XaX3XaX-X[.OX X&.p.g.n.n.F.F.dXJ.~.n.n.n.F.n.F.n.9.@ a j k k d # ; : . z.fXT.n.F.F.E.W.Q.Q.T.w.n.4.*.# 1 <XGXLXKXKXLXLXZXU ",
"U U &XvXaXvX>X[.OX X5.v.f.l.F.n.b.T.dXE.K.J.n.F.F.F.F.F.{ a f g . X   O X @ D.dXI.n.b.n.E.Q.Q.Y.g.w.n.4.,.- /.-XGXLXKXLXLXLXBXY ",
"Y Y 2X2X>X,X@X[.OXOX.Xi.r.J.J.b.b.D.gXQ.~.~.n.n.F.n.b.D.8.[ [ + d O     { [ W.W.b.n.F.F.E.Q.Q.Q.g.n.k.q.%.# ).-XGXLXLXLXHXLX:XI ",
"Y I 2X-X`.[.}.+XOX}. X2.q.W.K.b.F.b.P.P.Y.fXn.F.F.F.F.F.G.G.G.v.[ 1 1 9.n.n.dXL.l.n.b.n.Y.W.Q.gXL.R.r.=._ # ^.2XKXLXLXLXFXFX0XY ",
"Y Y .X2X].+X+XoXOX+X X Xs.T.J.n.F.n.n.n.n.L.n.F.D.b.D.F.G.n.b.b.G.b.b.n.n.~.~.J.J.T.F.n.E.Q.Q.hXl.f.3.$.] & `.GXLXGXLXLXJXCXuXP ",
"Y Y 4X-X[.OX+X+XOX}.OX4X+.n.Y.b.F.L.F.F.n.n.F.F.F.F.D.D.J.J.n.n.b.n.F.H.!.hXdXD.Y.W.b.K.E.T.Q.Q.u.p.>.<.G.y +XHXFXZXLXLXLXFX9XU ",
"Y Y 4X[.+X[.+X[.OXOXOX X$.e.dXb.n.T.F.n.n.n.n.F.n.F.n.l.T.~.J.K.L.J.Q.dXfXE.H.L.Q.G.K.!.!.b.L.f.k.l.>.$.[ B.3XZXVXZXGXGXLXSX5XY ",
"Y Y F [.+X+X+X+XOX+X+X$X#.2.b.E.F.n.D.F.L.K.n.n.F.n.J.L.Q.cXfXdX~.gXgX~.T.n.F.Q.Y.n.L.T.L.G.n.h.L.1.3.] 0 oXZXZXCXCXVXMXFXyXT Y ",
"Y U G |.@X}.[.+X+XoX+X+X.X*.t.T.F.b.b.G.dXfXJ.n.F.n.K.dX~.fXgXQ.Q.xXdXQ.H.l.E.Y.l.K.b.n.n.k.n.H.:.' ,.G.{.aXFXZXZXZXZXZXVX0XI I ",
"Y I P 4X+XoX+XoX}.}.oX}.+XO.2.f.F.F.F.b.T.gXdXJ.n.n.F.P.L.J.T.dXT.E.fXT.F.x.T.P.J.fXI.b.b.w.n.g.' _ / O.`.bXbXbXbXnXvXCXvX.XY U ",
"Y Y Y D [.@X{.}.OXOX}.OXOX6X4.4.F.F.b.b.n.K.fXdXK.G.H.l.n.k.b.L.F.n.J.K.b.J.~.hXhXhXx.b.F.d.n.u.' ,.7.z pX&XlXzXzX1X<XlX6XK Y Y ",
"Y Y Y K |.@X[.+XOXOXOXOX%X| } <.g.G.b.n.F.T.!.hXT.H.fXJ.K.Y.L.F.l.J.H.~.Q.R.dXW.fXJ.u.d.F.dXl.d.3.*.O.B.kXpX%Xl z sXVXaX.XY Y Y ",
"Y Y Y Y D [.+X+XOXOXOX&X| , > #.3.g.G.n.F.~.dXgXR.W.xXE.k.E.jX!.J.Q.hXxXgX!.Y.h.k.u.y.h.g.Y.y.3.%.: x pXpXNXd s f z lXtXT Y Y Y ",
"Y Y Y Y K |.@X+XOXOX&Xi i OXB./.#.3.j.J.F.K.L.dXW.dXxXhXY.Q.cXhXhXfXfXQ.H.L.k.u.y.h.l.G.n.y.=.p.= p | m.<Xm.a f s h *X5XY Y Y Y ",
"Y Y Y Y U D B.}.OX&Xp i <X<X%XB.m.[ 3.j.F.n.n.J.F.P.fXdX~.~.~.E.Q.E.K.f.k.H.f.y.h.D.K.k.z.=._ * X.bX@Xq | [.l s d ^.N.S eXeXeXU ",
"Y Y Y Y U H |.+X&Xi i <X,XOX}.}.].m.) =.z.F.F.T.P.P.D.G.J.F.T.P.n.J.F.D.h.f.u.g.Y.P.t.w.=._ O... X,XvX&Xr ..`.6 e o.z K ! ! eXY ",
"Y Y U Y U L H |.r i <X,XOXOXOXOX$X$X/.} =.g.L.jXgXE.P.T.T.E.P.F.F.k.d.g.d.t.k.K.x.j.3.w.= }  X$X}.1XpX&XM., ..@XB.x K P ! ! eXU ",
"Y Y U U U L L z | <X>X[.OXOXOXOXOXOX+X].#.r.y.T.T.xXhXfXW.!.P.D.J.k.t.u.u.d.f.j.;.' ' [ o.[.oX2XbXx Z } &Xo., o..XI R Y ! eXeXY ",
"Y Y Y Y Y Y Y I S oX@X{.}.+X+X}.+X+X+X+X@XXXO.` j.I.L.K.G.K.x.f.j.y.4.y.f.-.1.q._ ;.#./.$X+XOXpXp C V Z o.*Xo.9 S eXeXeXeXeXeXY ",
"Y Y Y Y Y Y Y Y I /.'.@XoX[.oXoX[.+X[.+X}.}.}.'.#._ ` r.d.j.2.' $.' -.q.a.` ;.@.N.XX@X@X+XOXOXoXx V V C w %X`.y 0XeX~ eXeXeX~ Y ",
"Y Y Y Y Y Y Y Y P I x ).+XoX}.oX+X+X+X+X+X+X+X}.[.`.C.@XO./ = = = ^ 2.j.S._.XX[.+X<XlX3X+XOXoXo.X.8 C 4 C.^.y E Q ~ ~ eXeXeX~ Y ",
"Y Y P Y Y Y Y Y I I Y S M.+X+X}.[.oX+X[.+X[.+X+X+X}.}.{.[.XXN.w i oXXXoX}.}.OX[.BXJ B V |.oXOXoXX.q m.r 9 (.M M E ~ eXeXeXeXeXY ",
"Y Y Y Y Y Y Y Y Y 6XGXKXo._.[.+X+X[.+X+XOXOXOX+X+X[.[.+X+X+X].q  .%X}.}.}.oXOX[.aXC V V V  XoX+X}.`.| q | KXGX.XE W W W Q Q Q P ",
"Y Y Y P Y Y I I 7XFXLXLXJXLXo.M.[.+X+X+XOXOXOXoX+X+X+X+X[.@X'.9  .@X}.+XOXOX+XXXZ V V V B m.oX+X[.M.o.LXKXLXLXFX6XI Y P P P P Y ",
"Y Y Y Y Y Y I tXFXLXJXJXKXJXLXM.X.'.[.+X+X+X+X+X+X+X+X+X+X%Xo.3 X.%XoX+XOXOX@XM.O.Z C B n #.[.'.M.o.LXJXJXJXJXKXFXtXP P Y Y Y Y ",
"Y P P P P I 6XFXFXCXCXCXCXCXJXHX+Xy y `.[.+X+X+XoX[.+X[.+X@XX., '.2X'.}.OX}.}.+Xp w w w 7 ).X.p JXKXHXCXCXZXCXCXFXFXtXI P P P Y ",
"Y W R Q E tXmXVXBXCXVXVXCXnXBX+Xo.N M 7 q ).B.oX%X@X@X+XOX%XX., '.2X[.[.+X+X+X@X@XM.0 5 v 7 p ZXCXCXCXVXVXVXVXVXBXVXBXtXE R R Y ",
"Y eXeXwXtXmXzX<X2X2X2XaX2X .N.[.[.X.N c c 2 7 n S (.S N.+X&Xo., '.aX}.{.+X[.`.[. .0 , c v b 8 ;XCXVXBX2X2X2XpX2X2X2XvXBXtXwXeXY ",
"Y ~ wXtXpX2X2XlXaXaXlX2X ...o.o.X.o. .p % c b M M N n > o.`.r , r /.S S  .r 9 , $ $ o > v b N q >X3X2XaX2XaX2X3XaXaX2X2XaXtXwXY ",
"Y ~ tXaX2XaX2X2X2XaX,X .3 r r r r u 3 3 3 3 9 3 % % , % $ $ $ , % 5 l 8 8 8 8 8 8 e 8 N M N A < u >XlX2XaXaXpXaXpX2XaXaXaXaXtXY ",
"Y ~ 3XaX2X2XlXlX2XlX+Xp , $ $ $ $ $ $ $ $ % $ % % % % % % % % % % % % $ 6 F F A A A A b N A S V.r i -XaXaXpX2XaX2X3XaXaXaXaXaXP ",
"Y ~ aXaXlX2X2X2X2X3XlXVX[.o.).).).).).).).M.).^.'.'.m.C.M.M.N.M.N.N.N.M.M.o.C.'.>X,X>XC.-X,X,X=X-X`.`.aXaX3X3XaXaXpXaXaXaXpXaXY ",
"Y ~ 3X3X3X3X3X3X3X3X1XmXmXmXmXmXmXMXMXMXMXMXMXmXmXnXnXnXmXnXnXnXnXnXmXmXmXmXyXmXVXMXVXmXMXMXMX1X1X<X1X2X2X1X3X3X3X3X3X3X3X3X3XY ",
"Y Y Y Y Y Y Y Y Y Y Y Y Y P P P Y Y Y Y Y Y Y Y P P P P Y Y P Y Y P P P P P P P Y Y Y Y Y Y Y P Y Y Y Y Y Y Y Y Y Y Y Y Y Y Y U "
};
