/* XPM */
static char *result[] = {
/* columns rows colors chars-per-pixel */
"64 64 254 2 ",
"   c #010001",
".  c #0B0404",
"X  c #160605",
"o  c #121019",
"O  c #270603",
"+  c #390B03",
"@  c #341411",
"#  c #131930",
"$  c #2F1829",
"%  c #1C2135",
"&  c #2B2738",
"*  c #460B04",
"=  c #511309",
"-  c #720A03",
";  c #6A1701",
":  c #771401",
">  c #5C2922",
",  c #704739",
"<  c #0C1053",
"1  c #1B2951",
"2  c #352547",
"3  c #3B2A4C",
"4  c #293152",
"5  c #0B0D71",
"6  c #241B6B",
"7  c #152F76",
"8  c #2A316C",
"9  c #4C3C46",
"0  c #463A57",
"q  c #6E3857",
"w  c #334771",
"e  c #57464B",
"r  c #4D415D",
"t  c #58495A",
"y  c #575553",
"u  c #6C5256",
"i  c #596852",
"p  c #706A56",
"a  c #554A66",
"s  c #5B536D",
"d  c #5A526F",
"f  c #655866",
"g  c #665B75",
"h  c #5D6070",
"j  c #756D6D",
"k  c #6B637B",
"l  c #73677B",
"z  c #8B0C00",
"x  c #881601",
"c  c #971900",
"v  c #A61D00",
"b  c #BF1302",
"n  c #932D0C",
"m  c #AB2501",
"M  c #B82801",
"N  c #AF370A",
"B  c #D40300",
"V  c #C72E00",
"C  c #CB3202",
"Z  c #D83802",
"A  c #E63C01",
"S  c #9C461D",
"D  c #D14B0A",
"F  c #EC4704",
"G  c #F24803",
"H  c #EC540A",
"J  c #F75408",
"K  c #F6630F",
"L  c #9A5F4C",
"P  c #8B706B",
"I  c #867A78",
"U  c #53A020",
"Y  c #6BCF19",
"T  c #72904E",
"R  c #9EA931",
"E  c #94DE22",
"W  c #90D12F",
"Q  c #ECEB0E",
"!  c #FCFC04",
"~  c #E5E41A",
"^  c #CDCA2F",
"/  c #99A359",
"(  c #8F9273",
")  c #AC9978",
"_  c #B6AC71",
"`  c #CDB674",
"'  c #ECBC62",
"]  c #DBDA4A",
"[  c #DAC571",
"{  c #F0C562",
"}  c #EFD665",
"|  c #ECD56B",
" . c #F0D667",
".. c #F0D868",
"X. c #E8D675",
"o. c #F3DE71",
"O. c #EAE474",
"+. c #F4E075",
"@. c #F6E57C",
"#. c #F8E77F",
"$. c #F8E87F",
"%. c #040890",
"&. c #112E8B",
"*. c #2F2F92",
"=. c #0103A7",
"-. c #0E17AE",
";. c #0103B5",
":. c #0F2FB5",
">. c #2A27A3",
",. c #493AB2",
"<. c #334B8A",
"1. c #3258AA",
"2. c #3760BC",
"3. c #524B89",
"4. c #645C9E",
"5. c #546897",
"6. c #766B83",
"7. c #756C85",
"8. c #716C8D",
"9. c #7A7388",
"0. c #7C748A",
"q. c #4956A9",
"w. c #506DAF",
"e. c #6C71AF",
"r. c #0105C7",
"t. c #0916C9",
"y. c #0005D5",
"u. c #0217D4",
"i. c #092BD4",
"p. c #2037D2",
"a. c #0112EB",
"s. c #011AF9",
"d. c #0228E7",
"f. c #0F36E7",
"g. c #0227FA",
"h. c #033AFA",
"j. c #1845D0",
"k. c #2C4DD0",
"l. c #3B67CB",
"z. c #3E6ED5",
"x. c #0748FB",
"c. c #174DF3",
"v. c #0E53FC",
"b. c #1756F8",
"n. c #1C5DF8",
"m. c #2F53EA",
"M. c #265AF8",
"N. c #1B65FF",
"B. c #366DE8",
"V. c #2463F9",
"C. c #2869F9",
"Z. c #2C6BF9",
"A. c #326CF8",
"S. c #2D75FE",
"D. c #3472F9",
"F. c #3B76F9",
"G. c #3B7AFB",
"H. c #4D75CB",
"J. c #4A76F7",
"K. c #467DF4",
"L. c #447DF8",
"P. c #847A85",
"I. c #837A8D",
"U. c #857C91",
"Y. c #867D9D",
"T. c #D97390",
"R. c #6D81AD",
"E. c #738BB3",
"W. c #3A87FF",
"Q. c #5A81CB",
"!. c #6E8DCE",
"~. c #4882F8",
"^. c #4A82F8",
"/. c #588CF7",
"(. c #5186F8",
"). c #548AF8",
"_. c #5D91F8",
"`. c #6A95E7",
"'. c #6C9BF6",
"]. c #6295F8",
"[. c #6699F9",
"{. c #6B9CF8",
"}. c #71A1F4",
"|. c #74A3F8",
" X c #7BA9F8",
".X c #908589",
"XX c #858191",
"oX c #8B8395",
"OX c #8D879A",
"+X c #958B98",
"@X c #948C9D",
"#X c #9B929D",
"$X c #A79790",
"%X c #B1A793",
"&X c #8C8FAE",
"*X c #958EA1",
"=X c #988FA0",
"-X c #9991A1",
";X c #9B97A8",
":X c #A199A5",
">X c #A29CAA",
",X c #A09FB0",
"<X c #9BA4AD",
"1X c #A6A1AE",
"2X c #AAA4AC",
"3X c #B8B2AD",
"4X c #A9A7B4",
"5X c #ADAAB4",
"6X c #B2AEB6",
"7X c #B7B5BA",
"8X c #B5B5BD",
"9X c #BBBABB",
"0X c #C9BB8B",
"qX c #C5BEA2",
"wX c #A6C08D",
"eX c #D6C687",
"rX c #D7CC96",
"tX c #E6D893",
"yX c #F3E485",
"uX c #F8E981",
"iX c #F3E59B",
"pX c #CBC5A8",
"aX c #DDD7BF",
"sX c #E4DAA9",
"dX c #F1E7B1",
"fX c #93A4CF",
"gX c #B6B6C5",
"hX c #B9B9C1",
"jX c #AEBAD4",
"kX c #85ABE8",
"lX c #82ADF7",
"zX c #87B1F7",
"xX c #8BB5F8",
"cX c #93BBF8",
"vX c #C1BEC4",
"bX c #BCC2CB",
"nX c #9DC2F8",
"mX c #C4C5CA",
"MX c #C6C4CA",
"NX c #CDCCCC",
"BX c #CED1CB",
"VX c #D1D1CC",
"CX c #CECDD1",
"ZX c #D3D3D4",
"AX c #D7D7D9",
"SX c #DADADA",
"DX c #EBE8D0",
"FX c #DDDEE1",
"GX c #E6E6E6",
"HX c #EBECEA",
"JX c #F0EFEC",
"KX c #F5F5F4",
"LX c #F8F8F6",
"PX c #FBFBFB",
/* pixels */
"........ .......................o. . .o. . . . . .} } | ...... ...........| .......... . ....... ...............................",
"..+.+.+.+.+.+.+.+.+.+.@.+.+.+.+.o.o.o.o.o.o.{ ) ` eXrXhXhXhXhXbX@X;XZXhXhXsXyXtX[ {  . ............... .+.@.+.+.................",
"..uXuXuX#.} } } } ..uXuXuXuXuXuXuXuXuXuX0XeX` R / [ gX6XhX8XhXbX>X9XGXhXMXCXCXAXZXdXiXtX.. . ......... .uXuXuXuX................",
"..uXuXuX#.......} ..uXuXuXuXuXuXuXuXtX0XY.:X%XQ ! ` ,X;XmXhXmXMX1XvXAXMXMXvXZXZXGXLXPXHXdXiX . .........uXuXuXuX................",
"..uXuXuX#.}  .} } ..uXuXuXuX$.uX` ) e.=X-X>X,Xl / e.+X2X8X5X1X4XU.:XZXMXAXFXZXHXHXLXPXPXPXLXdXiX........@.uXuXuX................",
"..uX#.uXuXo.+.+.+.@.uXuXuXuXuXtXt R R 2X*X*X=XOX3.I k I.7.l t s 0 s 9.l I.OXOXNXJXLXPXPXLXLXKXPXiXtX......+...+.................",
"..$.uX$.uXuXuXuXuXuXuXuXyX` 0XhXg ^ ^ 6X;X:XU.d t a t 9 9 d w.&X0.e y e 9 r s g 9.>XNXKXPXPXPXPXLXHXiX..........................",
"..$.$.uX#.uXuXuX$.uXuXyXtXU.k 4XY.3.3.U.oX6.s a f e k w.5.k.M.J.q.*.*.q.E.l e e 0 a g ;XCXKXPXPXPXPXKX0X........................",
" .#.uX#.uXuXuXuX$.uXuX0XjX2X6.g :X@XU.7.g r 0 u k w.:.S.x.h.u.%.=.=.%.i.J.>.*.Q.h e s k g ;XFXPXPXHX>X8XdXeX....................",
" .#.#.uXuXuXuXuXuXuX` S L P.:XP.l Y.g g a f fX6 *.i.-.W.s.u.t.:.;.;.t.d.a.d.N.V.*.e.j l g g OXSXGX@X;XHXKXAXtX..................",
"..uX#.uXuXo.o.o.+.rXL m v $X,X>Xk g a e f H.k.a.=.5 %.m.x.i.f.W.c.v.W.b.x.h.d.r.i.G.l.f I 7.7.;X9.;XPXPXPXPXAXeX................",
"..$.#.uX#. .....` 4XS M v $XOXY.k t a E.>.:.y.g.d.f.i.d.C.[.[.[.G.~._.(.V.c.a.g.x.h.N.j.Q.P.OXk a MXKXPXPXPXPXCXeX..............",
"..$.uXuXuX . .` +X=XP , L P.8.g a q H.p.a.r.x.c.S.G.W.G.~.[.].(.^.G.Z.A.V.F.C.x.x.x.M.x.i.k.k r k 1X6XHXPXLXPXPXNXeX............",
"..$.#.uXuX..rX9X:X+X*XR.e.U.g a t !.b.r.h.b.F.K.|.].~.(.(.K.L.K.(.A.v.b.b.L.(.b.b.b.x.v.d.y.e.f oX0.*XZXPXPXLXPXLXaX............",
" .#.uXuXo.| qX6X=X@X@X;X>Xk a a l.c.a.g.Z.~.|.{.).).^.L.M.D.L.L.L.F.D.F.n.D.(.K.L.V.v.F.n.d.D.l.#XoX-X>XAXPXLXLXPXJXtXo.........",
" .#.#.uXyX` 3X>X>X6X8X>XoXs a u c.g.h.D.|.[./.).L.L.L.n.v.D.|.[.[.{.[.}.~.F.K.~.~.L.V.K.G.D.u.N.!.+X-X-XbXHXPXPXLXKXdX..........",
"..uXuXuXuXqXgX8XhXmX4XU.g a t j.h.A.~.{.).(.n.Z.~.L.L.D.D./.lX|.|. X X|.{.].{.(.L.(.V.F.{.'.m.t.n.6 U.*X>XCXPXPXPXLXLXtX........",
" .uXuXuXrXpXhXhXhX4X-XU.s t l.t.A.{.'.).L.V.b.Z.}.[.{.}.].L.).).(.(.K._.xXcXlX(.L.(.G._.}. X{.a.t.l.I.-X-XmXHXPXLXLXPXFXeX .| ..",
"....o.o.rXhXgXhXhX1XI.g a H.i.f.[.}.).K.L.n.F.(. X|.[.^.^.L.L.L.L.L.L.L. XxX|.(.K.C.L.|.|.}.|.A.r.x.< l -X>XZXPXLXLXLXKXdX#.#. .",
".. ...eX8XhXhXhX>X-XU.s t c.;._.|.(.~.[.~.K.~.~.^.(.(.L.~.L.^.^.^.K.L.L.{._.].|.).V.n.L.{.xXxX[.f.r.j.3X*X-XmXGXPXLXLXPXDXuXuX .",
"....| rXhXhXhXhX>X-Xk a +X-.m.|.).K.'.zXK.~.~.L.L.L.~.~.K.~.^.^.^.L.^.L.K.L.L.|.).L.V.F.{.|.cX|.D.h.v.`.P.*X1XHXPXLXPXPXHXdX$...",
"..| eX9XgX9XhXhX>XU.0.f -.g. X|.~.K.zX|.~.L.^.^.~.K.~.K.^.~.^.~._.|.|.|./.L.^.^.K.^.L.C.K.{.|.xX{.c.r.f.+XOX;XCXPXLXLXKXLXdX$...",
"....` 4XbXhXhX4X=X0.7.P j.D.|.).~.}.xX~.^.L.L.^.W.l.w 8 8 w w w a E.}.lXlX|.).L.[.).^.V.F.(.{.|.'.n.s.y.6 :X-XmXHXPXPXPXPXdX@...",
"....) 5X8X8XhX;X*XU.P.%XH.{.|.^.|.xX{.L.^.L.L.H.<.#   X ; n n m n 9 4 w.`.lXlX).L.^.K.Z.n.L.(.[.~.n.h.=.6 I.@X2XHXPXPXPXPXHXI...",
"....g U.7.oX:XU.6.7.P.-.M.xX/.L.zX Xl.l.z.~.z.1       . = c c C H D S & & w.xX}.1.w l.K.V.K.K.M.n.b.x.x.j.6 :X1XHXKXKXKXKXKX>X..",
"....0.>X:X;X;X>X6.0 I -.M.|.(.L.zXe.4 % 1 2.1.@ * X       o % @ : D K D ; & H.w = : 4 z.V.L.~.x.x.x.V.b.=.6 :X>XCX8X8X5X8X>X@X..",
" . .4XmXhXhXbX1X=X6..Xm.x.]./.L.xXfXu @ O 1 *.@ c =   . O O 8 7 . * M J D ; # @ m J , l.~.K.L.V.h.h.C.c.=.< 6.6.6XCXhX;XgXhX-X..",
"..{ 4XhX8XhXvX>XY.qX) w.V.L.^.L.zXfXj = + o # o - - . X ; + # # . + x Z F M ; x F D e z.(.K.~.^.x.s.n.g.=.5 < oXJXPXPXPXPXPXMX..",
"..{ 1XvXhXhX8X;X=X:X-.m.A.J.^.^.[.&X9 @ O o 1 7 2 $ X . O . . + : m C A F G Z V C n 1 l.}./.^.{.V.g.M.a.y.p.1 3XAXPXLXLXPXPXCX .",
" .{ 4XhXhXhX>X@X=X%X>.m.Z.J.^.^.~.e.$ o + > *.j.7 7 < .   . - M Z F J F F J A V : = o w `.|.).{.^.d.M.s.y.< 5 3XJXPXLXLXLXPXAX..",
" .{ >XhXhXbX1X@X=X%Xy.M.Z.L.L.L.~.5.@ . + > *.&.7 &.7 1 * x V F G F H F J G V v x * - - 4 Q.|.}._.v.L.g.r.< w 6XHXPXLXLXPXPXFX..",
" . .1XmXhXMX1X@X=X$X,.J.C.F.L.^.~.w.& % % % 6 5 5 &.&.8 n A F K H F H F A M z c z : b B - 2 Q.{.Z.x.L.h.a.6 +X1XHXPXLXPXPXPXCX..",
"..| 6X8X5X6X;X@X-X=X%Xm.v.(.(.L.).1.4 4 4 % < < < &.:.8 N G J J H H A F D v - z : x c z z = 5. XZ.~.D.x.u.< U.>XHXPXPXLXKXPX3X..",
"..} gX1XOX@X@X-X=X#X$Xf.x.{.).L.~.1.o o @ @ 5 &.5 &.&.6 n V A A F A A F H Z M c : = ; ; * = 5.xX_.[.v.u.=.< oX9XLXPXPXPXFXGXtX..",
"....%X7X@X@X*X-X-X=X:X$XB.].(.L.~.5.@ X + > 3.:.7 7 7 # X * c Z A G H H J G G V ; @ @ * $ 3.`.cXL.V.s.r.:.4 OXGXPXHXPXPXJXSXsX .",
"....0X2X@X#X#X*X-X=X=X0Xq.L.].^.~.w.& O * $ *.:.7 1 #     . + : M F J H F G A V c = % w H.].}.}.n.M.a.s.(.j -XJXGXSXPXPXPXGXrX .",
"....0X#X-X=X-X-X=X=X=X:Xr.c. X(.W.!.e + + o < 1 & = X X * X o $ = : m Z G Z M v Z N & !. XK./.C.D.G.a.r.*.XX9XSXZXSXHXGXPXFX0X..",
"...._ oX-X=X=X=X-X#X#X:Xe.f.J.{.^.!.I = + % 7 o z - . X ; * w w   O x Z J N + - A J , H./.(.K.D.).d.s.p.a -XSXSXSXAXZXZXGXaXX...",
"....` $X-X#X@X-X*X-X#X@X%Xy.b._.(.H.e O O 5.1.$ : *     X X & % O ; D J D * 4 4 x D , l.L.F.~.(.p.;.a.(.#XhXGXSXSXSXSXSXZXtX| ..",
"....| ` ;X-X-X*X#X=X-X#X:X4.f.V.~.l.8 4 w kX!.$ O .     X + + ; M F K n $ 1 H.H.& $ w K.L.x.F.A.;.=.%.5.OXMXMXMXMXNXmXAXmX%X....",
"......) @X#X#X-X=X=X=X=X=X3Xh.x.~.~.K.K.K.).zX5.o     . ; N m D H S ; & 1.l.}.cX!.E.B.~.^.M.^.b.;.s.k.j 6X>XMXjXbX8X6XMXqX[  ...",
"....| [ $X;X@X-X=X=X=X=X>Xl 3.s.Z.(.^.~.K._. XkXw.1 o o = > > > > 4 <.Q.}.[.zX}.cX(.n.V.L.lXG.V.d.u.5.#XMXgX>XL P jXVXvX%X .....",
"........) +X-X-X=X=X*X>Xl 0 e e.g.Z.~.~.^. X XcX[.`.E.q.1.w.e.5.1.!.nXnXzX X'.Z.Z.n.b.D.C.{.v.g.t.8 l 8XgXVXn c m P bXqX{  .....",
"........[ $X;X-X=X=X>X6.l :XoXP.e.g.Z.^.^.)._. X|. XnXcX'.}.nXcXcXzXzX}././.D.n.b.D.G.~.L.b.u.Z.5 l 7.9.<XT.v m m S fX0X..o.o...",
"........} ) oX-X=X>Xl k 6X6X:X+X.X*.g.D.^.~.~.~.~._.lXzXlX X X{.}.[.(.C.B.).C.b.Z.~.).A.D.u.=.5 8.MX;Xs 6.OXL v n .XU.( uXuXuX..",
"........} ' $X;X>X6.g 6X4X@X*X-X+XP.*.u.D.^.^.].]._.L.^.^.~.[._.W.~.~.~.Z.C.n.Z.'._.M.x.u.=.4.6.:X5XvX>Xg 0.Y.u f 9.P [ uXuXuX..",
"........} ' ' $Xg g 6X5X=X*X-X@X#X:X.X3.u.Z._.cXxX{._.].].{._.~.~.F.C.C.V.n.D.(.~.S.g.x.5 3.#X:X#X7XgX1XI.0 6.&XoXI [ } #.uXuX..",
"....} } } { { P l 8X4X@X=X-X=X-X#X@X-X+Xe.v.b.].[.cXcXzX|. X_.~.).S.n.n.n.V.C.S.i.;.;.<.8.*X-X8XMXI ^ 3.>XI.0 0.%XX.o...#.$.uX| ",
"..............[ ( ;X-X@X-X*X@X-X#X*X-X-X;X&Xe.-.S._.).).~.).G.C.Z.b.h.b.C.i.d.x.=.i.e..X;X-X-XgXl ~ ! ^ U.;X0.t ( uXuXuXuXuX#. .",
"................| ( @X-X#X-X-X-X*X-X#X*X#X#X@XOXe.=.-.v.C.C.f.;.;.;.d.x.N.-.i.w.U.&X;X;X#X-X@X*XI ! ! ~ d 2XoXj yXuX#.uXuXuXuX..",
"................ .| I oX-X-X-X@X#X*X*X-X#X*X-X-X#XOXR.;X4.%.%.5 5 %.f.Z.!.oX&X@X#X6XgX8X-X-X*X0.l P ~ t R..Xj O.@.uXuXuXuXuXuX .",
"................ ...X.( 0.-X-X-X-X*X#X*X*X#X-X#X#X#X#X#X*XOX0.a g &X&X*X-X#X=X+XCX] ! ! $X*X-X@X7.s P.g a .XE E O.yXuXuXuXuXuX..",
"..................qXHXLX0.oX@X-X-X*X-X#X-X=X=X=X@X-X-X-X-X-X@Xs 7.>X#X@X@X-X-XOX8X~ ! ! ! #X*X-X#XOX7.s 9.KXGXwXO.+.+.@.@.+.@...",
"............} | wXGXPXPXLXPX0.U.@X#X-X*X=X-X=X=X-X-X-X@X#X;XoXs 6.:X-X-X*X-X-X&X^ ! ! ! Q P.*X-X+XXX0.PXLXLXPXHXqX| ..} } } } ..",
"............| pXGXPXKXKXKXKXPXI.9.OX@X-X-X-X=X=X@X-X@X-X@X;X0.0 9.>X=X-X*X#X#XI.4.^ ~ Q ( 8.#XOX0.0.PXKXKXKXKXPXGXpX| ..........",
"..} } } } ..pXGXHXZXSXAXAXAXKXJX#Xj j oX@X;X:X-X-X-X-X-X-X:X0.0 @X8X@X=X-X-X#X;Xl d d d y XX9.l KXLXJXAXAXAXAXAXGXGXqX| } } ....",
"..o.+.+.O.pXCXZXCXZXZXZXAXMXCX;X0.W E i y OXY.OX;X<X;X-X-X:X6.0 OX7X@X@X-X-X-X;X-X0.d i Y i 7.SXSXAXAXZXZXZXZXZXCXZXCXpXX.+.+...",
"..uXuXyXpXBXbX8X8X8X8XhX8X9.U.@X@X0.W U U e p T / .X( U.-X>XI.0 oX8X#X#X-X@XoX@X6.a 3 U Y Y i 4XZXZXCX8X8X8X8X8X8X8XmXNXpXyXuX..",
"..$.yXpXgX8X8XhXhXhXhX8X9.7.0.9.9.0.7.k 4 U Y W E W T 9 0.oXg 0 k .X( ( k 6.a 0 2 2 9 & Y Y W s 4XhX8XhXhXhX8XhXhXhX8X8XhXpXyX..",
"..$.pXgXhXhXhXhXhXhX6X7.0 g g g k g r r a 0 a r 0 4 0 3 2 2 2 0 2 y L p u p p p p f p E E W / q k 4XhXhXhXhX8XgX8XhXhXhXhXhXpX..",
"..$.9XhXhX8XhX8X7XbX-Xl 3 2 2 2 2 2 2 2 3 2 2 3 3 3 3 3 3 3 3 3 3 3 3 2 p _ _ / / / / W W / ( T.g 7.,X8XhX9XhXhXhXhXhXhXhXhXhX} ",
"..$.8XhXhX9XhXhX9X7XbXZX;X0.XXXXXXXXXXXXXXU.XXXXoXU.U.U.I.I.U.U.I.U.I.I.0.I.R.OX2X5X4XR.<X5X5X<X2XoXOXhXhX8XhXhXhX8XhXhXhXhXhX..",
"..uX9X9X9X9X9X9X9X7X7XBXBXBXBXBXBXVXBXVXBXBXVXVXVXNXNXNXNXNXNXNXNXNXBXBXBXBXaXaXZXZXBXBXBXZXBX9X9X6X6X7X7X7X9X9X9X9X9X9X9X9X9X..",
"........................} ...................... . .} | ....} ..........| } } } ..................................| ............"
};
