/* XPM */
static char *result[] = {
/* columns rows colors chars-per-pixel */
"64 64 253 2 ",
"   c #25183B",
".  c #6B3B3E",
"X  c #0F0C58",
"o  c #28264C",
"O  c #352547",
"+  c #3B2A4C",
"@  c #12136B",
"#  c #01017A",
"$  c #241B6B",
"%  c #302B6C",
"&  c #4B3B47",
"*  c #463A56",
"=  c #593A5E",
"-  c #57454C",
";  c #4D415D",
":  c #58495A",
">  c #575553",
",  c #6D5156",
"<  c #596852",
"1  c #706A56",
"2  c #534B64",
"3  c #564A67",
"4  c #5B536D",
"5  c #5A526F",
"6  c #655866",
"7  c #645B74",
"8  c #675B76",
"9  c #5D6070",
"0  c #756E6E",
"q  c #666678",
"w  c #6C637B",
"e  c #73677B",
"r  c #9E1A00",
"t  c #A61C00",
"y  c #9A3111",
"u  c #AB2B02",
"i  c #CA3603",
"p  c #A04429",
"a  c #9A5F4C",
"s  c #8D706A",
"d  c #867A78",
"f  c #53A020",
"g  c #63CB18",
"h  c #73D21A",
"j  c #72904E",
"k  c #9EA931",
"l  c #94DE22",
"z  c #90D12F",
"x  c #ECEB0E",
"c  c #FCFC04",
"v  c #E5E41A",
"b  c #CDCA2F",
"n  c #939654",
"m  c #9CAB5D",
"M  c #8F9273",
"N  c #AC9978",
"B  c #B6AC71",
"V  c #CDB674",
"C  c #ECBC62",
"Z  c #DBDA4A",
"A  c #DAC571",
"S  c #F0C562",
"D  c #EFD665",
"F  c #ECD56B",
"G  c #F0D667",
"H  c #F0D868",
"J  c #E2CD71",
"K  c #ECDB77",
"L  c #F3DE71",
"P  c #EAE474",
"I  c #F4E075",
"U  c #F6E57C",
"Y  c #F8E77F",
"T  c #F8E87F",
"R  c #030788",
"E  c #030497",
"W  c #2E3092",
"Q  c #0103A7",
"!  c #0E17AE",
"~  c #0103B5",
"^  c #0D28B9",
"/  c #2724A3",
"(  c #364896",
")  c #3B5FB5",
"_  c #524B89",
"`  c #6D6581",
"'  c #766B83",
"]  c #756C85",
"[  c #7A7286",
"{  c #7B758B",
"}  c #7C748A",
"|  c #61629E",
" . c #777295",
".. c #4A53AA",
"X. c #546EB2",
"o. c #6C6DB1",
"O. c #0105C7",
"+. c #0318C9",
"@. c #1811C9",
"#. c #0005D5",
"$. c #0217D4",
"%. c #0825D8",
"&. c #0A31D1",
"*. c #2037D2",
"=. c #0008EF",
"-. c #011AE8",
";. c #011AF9",
":. c #0228E7",
">. c #0A35E5",
",. c #1436E9",
"<. c #0227FB",
"1. c #033AFA",
"2. c #4A3FC3",
"3. c #1846D4",
"4. c #2C4DD0",
"5. c #3963CE",
"6. c #1B53E6",
"7. c #0344FB",
"8. c #0949F9",
"9. c #0B4CFC",
"0. c #164BF7",
"q. c #0E53FC",
"w. c #1A57F7",
"e. c #1356FA",
"r. c #1C5DF8",
"t. c #2F53EA",
"y. c #265AF8",
"u. c #1B65FF",
"i. c #3069E6",
"p. c #2463F9",
"a. c #2768F9",
"s. c #2C6BF9",
"d. c #326CF8",
"f. c #2D74FE",
"g. c #3572F9",
"h. c #3B76F8",
"j. c #357AFC",
"k. c #3E7AFA",
"l. c #4C74CE",
"z. c #477EF5",
"x. c #447DF8",
"c. c #5073FF",
"v. c #847A85",
"b. c #837A8D",
"n. c #857C91",
"m. c #867D9D",
"M. c #D97390",
"N. c #7B89A9",
"B. c #3A87FF",
"V. c #5B81D1",
"C. c #718CCA",
"Z. c #4681F8",
"A. c #4981F8",
"S. c #4A87F9",
"D. c #5486F4",
"F. c #5187F8",
"G. c #548AF8",
"H. c #598EF8",
"J. c #5D91F7",
"K. c #5D91F8",
"L. c #6993ED",
"P. c #6797F7",
"I. c #6295F8",
"U. c #6699F9",
"Y. c #6B9CF8",
"T. c #6EA1F8",
"R. c #74A3F8",
"E. c #78A7F8",
"W. c #7DAAF8",
"Q. c #8C828B",
"!. c #938688",
"~. c #8D9382",
"^. c #858191",
"/. c #8B8395",
"(. c #8D859A",
"). c #8D899B",
"_. c #958B98",
"`. c #948C9D",
"'. c #9A919A",
"]. c #9C929E",
"[. c #AC8782",
"{. c #A6988A",
"}. c #A79898",
"|. c #B1A793",
" X c #8B8AA9",
".X c #958EA1",
"XX c #988FA0",
"oX c #9991A1",
"OX c #9B97A8",
"+X c #949AB8",
"@X c #A097A2",
"#X c #A199A5",
"$X c #A29CAA",
"%X c #A09FB0",
"&X c #9BA4AD",
"*X c #A6A1AE",
"=X c #AAA4AC",
"-X c #B8B2AD",
";X c #A9A7B4",
":X c #ADAAB4",
">X c #B2AEB6",
",X c #B7B5BA",
"<X c #B5B5BD",
"1X c #BBBABB",
"2X c #C8B985",
"3X c #C9BF96",
"4X c #C5BEA2",
"5X c #A6C08D",
"6X c #D6C687",
"7X c #D7CC96",
"8X c #E8D78B",
"9X c #E5D997",
"0X c #F3E485",
"qX c #F8E981",
"wX c #F3E59B",
"eX c #CBC5A8",
"rX c #DDD7BF",
"tX c #E4DAA9",
"yX c #F1E7B1",
"uX c #B6B6C5",
"iX c #B9B9C1",
"pX c #AEBAD4",
"aX c #82AEF8",
"sX c #86B1F8",
"dX c #8BB4F8",
"fX c #93BBF8",
"gX c #99BFF8",
"hX c #C1BEC4",
"jX c #BEC1C7",
"kX c #B8C6D3",
"lX c #9CC1F8",
"zX c #A0C5F8",
"xX c #C4C5CA",
"cX c #C6C4CA",
"vX c #CDCCCC",
"bX c #CDD1C8",
"nX c #D0D1CC",
"mX c #DBD0C8",
"MX c #CECDD1",
"NX c #D0D0D1",
"BX c #D3D3D4",
"VX c #D7D7D9",
"CX c #DADADA",
"ZX c #EFEACB",
"AX c #DDDEE1",
"SX c #DFE1E0",
"DX c #E4E4E4",
"FX c #E8E9E7",
"GX c #EBECEA",
"HX c #F0EFEC",
"JX c #F5F5F4",
"KX c #F8F8F6",
"LX c #FBFBFB",
/* pixels */
"H H H H G H H H H H H H H H H H L H H L H H D D D D D H H H H H H H H H H H H H H H H G G H G H H H H H H H H H H H H H H H H H ",
"H I I I I I I I I I I U I I I I L L L L L L S B V V eX4XiXiX<XjX.XOXNXiXiXtX8X8XA S F G G H H H H H H G L U I I H H H H H H H H ",
"H qXqXqXY D D D D H qXqXqXqXqXqXqXqXqXqX3X6XV n n A pX>XiXiXiXjXOX1XSXiXxXMXBXCXBXyXwX8XH G G H H H H G T qXqXqXH H H H H H H H ",
"H qXqXqXY H H H D H qXqXqXqXqXqXqXqX9X3Xn.#X|.x c V %X#XjXjXjXxX;XhXCXvXxXxXBXBXFXLXLXFXyXwXH H H H H H T qXqXqXL D H H H H H H ",
"H qXqXqXY D G D D H qXqXqXqXT qXV N  .m.XX#X+X0 b o._.*XiX;X*X:Xn.$XBXvXBXSXBXGXGXLXLXLXKXKXyXwXH H H H T qXqXqXH D H H H H H H ",
"H qXY qXqXL I I I U qXqXqXqXY 9X3 k k *XXX`.]. X_ } w b.[ e : 3 * 5 ] w b.).).vXGXKXLXLXKXKXKXKXyX8XH H L I I L H H H H H H H H ",
"H T qXT qXqXqXqXqXqXqXqX0XV 2XiX8 b b >X#X#X/.5 3 3 : & & 4 N.N.{ - > : & * 5 8 { *XMXKXLXLXLXLXKXGXwXH D D D D H H H H H H H H ",
"H T T qXY qXqXqXqXT qX0X9X^.w ;Xm._ _ n.(.' 5 3 3 - q X.| 3.q.c...W W ..N.0 - - * 3 5 oXMXKXLXLXKXLXJX2XH H H H H H H H H H H H ",
"D Y Y qXqXqXqXqXT qX0X6XpX$X' 8 #X.Xn.] 7 ; * 6 q X.^ B.8.1.$.R Q Q R >.x./ W V.q - 2 q 8 OXSXLXLXGXOX<XyX6XH H H H H H H H H H ",
"G Y qXY qXqXqXqXqXqXC p a v.$X' w /.8 8 : 6 +X$ W ^ ^ B.;.$.^ +.~ ~ +.:.;.%.f.6.W o.0 [ 8 8 (.CXSX.X$XGXJXVX8XG H H H H H H H H ",
"G qXqXqXY L L L I 7Xa t t }.%X$Xw 4 2 - 9 l.5.-.~ # E 3.8.%.,.B.0.q.j.r.7.1.:.O.%.j.5.6 d ] ` OX} OXLXLXLXLXVX6XH H H H H H H H ",
"H qXY qXY D F G V ;Xp u t }. Xn.q = 6 C./ ^ #.;.:.>.>.%.f.K.U.P.k.S.J.F.y.0.-.<.9.1.u.3.V.v.`.8 2 vXKXLXKXLXLXNX6XH H H H H H H ",
"H T qXqXY D G A `.oXs . a ' } 7 2 ; X.*.;.O.8.0.g.B.k.j.z.P.I.F.A.x.a.d.p.h.p.7.9.1.r.7.%.4.q 2 w *X>XGXLXLXLXLXnX6XH H H H H H ",
"H T qXqXY G 7X,X$X_.(.N.N.} 8 3 , C.r.O.1.0.h.z.E.I.A.F.D.x.x.x.F.s.q.w.e.x.S.r.w.r.8.q.$.$.o.6 /.} .XBXLXLXKXLXLXrXH H H H H H ",
"D Y Y qXY D 4X>X`.`.`.OX#Xw 2 3 5.,.=.<.s.Z.T.Y.H.F.A.x.p.g.x.x.z.k.g.h.r.d.D.z.h.p.e.g.u.:.j.5.'.(..X$XVXLXKXKXLXHX9XH H H H H ",
"G Y qXqX0XV -X$X$X>X,X$X/.4 2 6 8.<.0.h.T.U.H.G.x.Z.x.r.q.g.R.U.I.P.Y.T.A.h.z.A.F.x.p.x.k.g.+.u.V._.oXoXjXGXLXKXKXJXyXH H H H H ",
"H qXqXqXT 7X<X>XiXxX;Xn.8 3 : 3.1.d.Z.Y.H.S.p.s.x.x.x.g.g.H.aXE.E.E.R.R.Y.I.Y.F.x.D.p.h.P.T.t.+.p.@ n.].$XMXLXLXKXLXKX9XH G H H ",
"G qXqXqX7XhXiXuXiX;XoXn.4 : 5.+.i.T.Y.G.x.p.w.a.R.U.P.R.I.x.F.F.F.F.A.K.sXfXaXF.z.A.h.I.R.E.T.=.+.l.v.XXoXxXGXLXKXKXLXAX6XG G H ",
"H L H H 7X<XiXiXhX$Xn.7 : l.%.,.U.R.F.Z.k.y.h.A.E.E.Y.S.F.z.x.x.z.x.x.x.aXdXR.F.Z.s.x.Y.R.T.R.d.~ 8.$ 8 oX#XBXLXKXKXKXJXyXY Y G ",
"H H H 7X<XiXiXiX$XXXn.5 : 6.O.J.R.F.Z.U.Z.z.S.A.F.F.A.x.x.z.x.A.z.A.z.x.Y.H.P.R.G.p.y.z.Y.dXdXY.:.O.3.-X`.OXxXFXLXKXKXLXZXqXqXH ",
"H H F 7XiXiXiXiX$XoXw 2 _.! t.R.G.z.T.sXZ.A.A.A.x.A.x.A.A.x.A.x.A.Z.z.A.A.A.x.Y.D.z.p.h.Y.E.dXR.k.1.9.L.v._.*XFXLXKXKXLXFXwXqXH ",
"H H 7X<XiXiXiXjX$Xb.} 6 ! <.E.E.z.A.dXT.A.Z.Z.z.A.A.A.A.A.Z.A.x.K.R.Y.R.G.z.x.S.A.A.Z.a.x.Y.E.dXU.6.#.,._.`.OXNXLXKXLXKXKXZXqXH ",
"H H V ;XjXiXiX*XXXb.' v.3.g.R.S.A.R.dXA.z.A.A.A.A.x.A.x.x.H.R.Y.W.gXE.sXW.T.H.h.P.G.A.p.k.A.Y.E.Y.w.;.#.$ @XoXxXFXLXLXKXLXyX0XH ",
"H H N :X<X<XiXOXXXn.v.N l.Y.R.S.Y.dXY.Z.A.Z.A.z.A.A.x.x.x.U.dXY.R.Y.U.dXW.aXaXG.z.A.A.a.r.x.S.U.Z.u.1.Q $ b.].*XGXLXLXLXLXGXb.H ",
"H H 7 { ] /.@Xn.' ] v.! t.dXH.Z.dXdXA.z.x.A.A.A.A.A.A.A.x.H.I.x.x.x.H.R.R.Y.aXaXF.x.A.A.p.x.z.y.r.w.7.9.3.$ #X*XGXKXJXJXJXKX$XH ",
"H H { *XOXOXOX$Xe ; d @.y.T.F.Z.dXR.A.z.A.A.A.z.A.x.A.x.A.Z.x.A.A.z.z.k.W.P.H.R.F.x.A.A.a.x.x.8.1.8.p.w.Q $ #X*XMX<X<X:X<XOX`.H ",
"H H ;XjXiXiXjX$X@Xe M t.9.K.F.x.dXE.x.x.x.A.x.A.A.A.A.A.x.Z.z.x.A.A.A.z.H.W.G.x.A.A.x.A.z.A.z.p.7.1.u.0.E X w [ >XMXiXOXiXiXoXH ",
"H S *XjX<XiXxX$Xm.=XN X.a.k.A.A.sXfXH.S.A.A.A.A.x.A.A.x.Z.Z.l.* * i.A.A.h.aXP.k.x.A.A.A.F.x.A.S.7.;.u.>.Q # X Q.HXLXLXLXLXLXcXH ",
"H S ;XiXiXiX<X$X].|./ 4.d.c.A.A.I.dXgXE.x.z.A.A.A.A.A.A.x.A.) i i ( A.A.x.J.G.z.A.x.A.Z.R.G.z.Y.p.<.w.=.$.&.$ -XVXLXKXKXLXLXMXG ",
"G S ;XiX<XxX$X`.oX}.@.t.s.k.A.A.z.dXaXdXA.z.x.A.x.A.A.x.A.A.& u u & z.z.x.x.x.R.H.x.Z.x.U.R.H.T.D.:.y.;.O.X @ -XGXLXKXKXKXLXAXH ",
"G S *XiXiXiX*X`.oX|.@.y.s.k.S.A.A.aXG.aXx.x.z.A.A.x.A.A.x.A.o   o o z.A.A.z.k.sXP.x.x.x.Y.R.R.T.I.9.x.1.O.X % >XGXLXKXKXLXLXCXG ",
"G G $XxXiXxX*X`.oX}.2.d.a.h.A.z.z.I.aXY.G.F.z.A.A.A.A.A.A.A.5.o o ) A.A.x.z.z.aXK.x.z.z.Y.R.R.U.s.9.x.1.-.$ '.;XGXLXKXLXLXLXMXG ",
"G D <X<X:X>XOX`.XXXX|.t.q.S.F.x.x.A.dXE.W.W.x.x.x.A.x.A.x.A.x.A.z.Z.z.A.A.h.R.R.z.x.A.A.Y.R.R.R.s.x.g.7.%.X b.*XGXLXKXLXHXLX-XH ",
"H D <X;X).).].oXXX].}.,.8.R.F.x.A.x.H.K.Y.sXx.A.A.A.A.A.A.A.A.z.z.Z.z.z.x.x.aXH.k.x.z.x.U.R.R.dXJ.P.q.$.Q X Q.<XKXLXLXLXDXDX9XH ",
"H H |.<X_.XXoX.XoXXX}.}.i.I.F.x.A.x.x.x.x.H.x.A.A.A.A.A.x.x.z.z.A.A.x.x.z.W.W.S.F.K.A.x.U.R.R.dXh.a.<.O.^ o ).FXLXGXLXLXJXVX9XG ",
"H H 2X*X`.XXXXXX`.oXoX2X..x.U.z.A.H.A.z.x.x.A.A.A.x.A.z.F.F.k.z.x.k.S.G.E.fXaXA.P.R.x.G.R.I.R.R.r.y.=.;.F.0 oXGXDXAXLXLXLXFX7XH ",
"H H 2X.XXXoXXXXXoXoX`.}.O.0.W.z.x.I.A.x.x.x.x.A.A.A.x.k.I.W.F.H.H.A.R.aXdXY.F.H.T.A.H.E.E.A.H.s.g.k.=.O.( b.1XCXBXCXHXFXLXCX6XF ",
"H H B ).oXXXoX].oXXXoX@Xo.,.F.P.A.x.A.A.H.G.x.x.A.x.A.H.R.lXdXW.aXdXdXW.I.x.z.E.Y.x.J.J.J.A.x.d.G.:.;.&.3 XXCXCXCXVXBXnXFXmXJ F ",
"H H V {.OX].XXXXXX.XoXoX|.O.w.I.A.A.x.F.aXsXF.x.A.x.H.aXW.sXdXE.E.gXaXR.H.g.Y.U.k.F.x.x.x.g.z.A.*.~ -.S.'.iXDXCXCXAXCXCXBX9XL F ",
"H H D 2XoXXXXXXXXX].oXoX].| ,.a.A.A.x.A.K.dXsXF.x.x.z.K.H.F.I.W.J.Y.sXI.z.k.I.I.F.dXK.z.z.8.x.s.~ Q R | /.vXxXcXcXcXxXBXxX|.H G ",
"H H H {._.].].].XXXXXXXXXX-X1.1.A.A.A.A.x.G.dXaXD.S.D.k.z.g.x.H.F.x.F.H.z.S.W.fXfXfXx.z.A.p.x.r.~ -.4.0 :X%XhXpXkX1X>XxX4XA H H ",
"H H H A {.OX].oXXXXXXX].$Xe ..;.s.S.A.x.A.I.R.fXI.D.dXS.G.P.I.A.g.F.G.W.T.U.sXT.sXF.w.p.Z.aXk.p.<.$.| XXcXuX$Xa s pXnXhX|.D H H ",
"H H H H N ).oXXXXXXX].$Xe * - o.<.s.S.x.F.E.W.fXU.T.zXY.d.Y.gXR.D.E.dXzXdXW.P.s.d.r.e.d.s.Y.e.<.+.% e iXuXmXy r u s hXeXJ H H H ",
"H H H H J {.OXXXXXXX$Xw e @X/.v.o.<.g.A.A.G.H.W.T.aXlXfXY.R.zXfXfXsXaXR.D.H.g.r.e.g.h.S.x.e.$.y.# 0 ' } %X[.t u t p +X3XH L H H ",
"H H H H H N /..XXX$X' w >X>X@X(.v.W <.s.A.x.x.S.S.J.aXaXaXE.aXU.R.Y.S.d.g.F.a.w.s.A.D.g.j.$.Q @ } cXOX4 ' .Xa t y !._.s T qXqXH ",
"H H H H D C {.oX$X` w >X;X.XXXoX_.!.W $.g.S.A.I.I.J.A.A.A.A.I.J.x.F.A.x.d.a.r.s.Y.J.r.1.$.Q | ] @X>XhX$X7 ] m., 6 { 0 A T T qXH ",
"H H H H G C C {.7 8 >X;XXX.XXXoX}.oX!._ $.s.H.gXdXP.I.I.P.U.J.S.x.g.p.s.p.w.g.G.k.j.<.q.# _ }.oX].,XuX*Xb.* ] OX^.d J G Y qXqXH ",
"H H H H G S S s e <X;X].`.oXoXXXXXoX@X_.o.q.e.I.P.fXfXsXT.W.I.k.F.d.r.y.r.p.a.f.%.~ ~ ( } `.XX<XhXd b _ $X{ ; } |.J L H Y T qXH ",
"H H H H H H H J M XXOX`.oX]..XoX`.oXoX].OX X| ! f.K.H.G.S.G.k.a.s.w.1.w.f.+.:.7.Q &.o./.@XoXoXuXe v c b  .OX{ : M qXqXqXqXqXT H ",
"H H H H H H H H J M _.oXoX.XoX`.oXoXoX.X].].'.).o.Q ! q.p.f.,.~ O.~ :.7.u.! >.X.n. XOXoXXXXXXX.Xd c c v 7 OX/.0 8XqXT qXqXqXqXH ",
"H H H H H H H H G F d n.oXoXoXoX`.oX.X].oXoXoXOX`.(.N.OX| E # # # R >.f.C./. X.X].>XuXiXOX`.XX} } 1 v : N.Q.0 P T T T qXqXqXT H ",
"H H H H H H H H G G L M b.oXoX`.oX.X]..XoX`.oX`.oX].].'.`. Xn.5 q .X X.X].'.XX_.MXZ c c {..XXX.X' 5 d w 2 ~.l l P T qXqXqXqXqXH ",
"H H H H H H H H G 4XGXJX} (.`.XXoXXXoX.XXXXXXXXX.X`.`.oXoXOX_.4 ] $X].].]..XoX.XiXv c c c }..XoXXX`.` 4 b.JXFX|.P I U I T I U H ",
"H H H H H H F F 5XFXLXLXJXLX} b.`.oXoX].XXXXXXXXoXoXoXoX'.OX/.4 e $XXXXXXXoX`. Xb c c c x v..XoX`.n.} LXJXLXLXFX4XF D D D D D H ",
"H H H H H H F eXDXLXJXJXJXKXLXb.[ ).`.XXoXoXXXoXoXoXoXoX].OX{ * [ $XXXXXXXXXoXb.| b x v j o.).).b.[ LXJXJXJXJXLXDXeXF D H H D H ",
"H H H H H F eXDXFXBXCXVXVXVXJXHXoX0 0 (.`.@XoXoX`.oXoX`.`.OX} * ).<X`.XX].oXoXoXe 5 5 5 > ^.[ ] JXKXHXVXVXCXVXBXDXDXeXH D D D H ",
"H I I I P eXMXBXBXBXBXBXBXcXMXOX} z l < 4 ^. X(.#XOXOXoXXX@X' * ).<X_.`.XXoXoXOXOX{ 4 < g < ] VXCXVXVXNXBXBXBXBXBXBXNXeXK I L H ",
"H qXqX0XeXMXjX<X<X<XiXiX<X[ n.`._.} z f f - < j M M ~.n.oX$Xb.* ).<X].'.oXXX).).] 2 * f g h 1 ;XBXBXMX<X<X<X<X<X<X<XxXMXeX0XqXH ",
"H T 0XeXiX<X<XiXiXiXiXiX[ ] } [ } } ] e + f h l l z j & [ (.8 * w !.M M ` 7 2 ; + O + * g h z 7 ;XiXiXiXiXiXiXiX<X<XiX<XiXeX0XH ",
"H T eXiXiXiXiXiXiXiX>X` * 7 8 8 7 q ; ; ; ; 2 ; + + * + O O O * O > a 1 1 1 1 1 6 1 1 z l z n . q ;XiX<XiXiXiX<XiXiXiX<XiXiXeXH ",
"H T <X<X<X<XiXiX<XjX.X] * O O O O O O O + O O O + + + + + + + + + + + + , B B m n n m h z m M M.7 w *XiXiXiX<XiXiXiXiXiXiXiX<XH ",
"H T iXiXjX<XiX<X<X<XjXBX.X{ ^.^.^.^.^.^.^.n.^.^.).).v.N.n.b.n.n.n.b.n.n.b.b.N.).;X:X:X^.&X>X:X&X;X/.).iXiX<XiXiXiXiXiXiXiXiXiXH ",
"H T 1XhX1X1X1X1X1X1X,XbXbXbXbXbXbXnXnXnXnXnXnXnXbXvXbXvXvXbXvXvXvXvXbXbXnXbXeXbXBXnXNXnXvXnXnX,X,X>X<X,X<X,X1X1X1X1X1X1X1X1X1XH ",
"H H H H H H H H H H H H H H H H H H H H H H H G G G G G G G G G G G H H H H H H H H H H H H H H H H H D H H H H G G H H H H H H "
};
