/* XPM */
static char *result[] = {
/* columns rows colors chars-per-pixel */
"64 64 255 2 ",
"   c #010101",
".  c #0C0303",
"X  c #08050A",
"o  c #140301",
"O  c #160706",
"+  c #080A17",
"@  c #130F18",
"#  c #270802",
"$  c #370901",
"%  c #27150C",
"&  c #331810",
"*  c #2D221C",
"=  c #0E152D",
"-  c #301529",
";  c #1B253A",
":  c #2F242A",
">  c #490B00",
",  c #560B00",
"<  c #4D1509",
"1  c #5A1505",
"2  c #640E01",
"3  c #770B00",
"4  c #661204",
"5  c #771300",
"6  c #752D06",
"7  c #602527",
"8  c #784010",
"9  c #090D50",
"0  c #172749",
"q  c #152A58",
"w  c #252F4B",
"e  c #352547",
"r  c #3B2A4C",
"t  c #090C72",
"y  c #241B6B",
"u  c #162D65",
"i  c #183170",
"p  c #28346D",
"a  c #4B3645",
"s  c #463A57",
"d  c #6E3857",
"f  c #274176",
"g  c #574549",
"h  c #524B58",
"j  c #58495A",
"k  c #685053",
"l  c #596852",
"z  c #706A56",
"x  c #554A66",
"c  c #54506D",
"v  c #5B536D",
"b  c #655866",
"n  c #665B75",
"m  c #5D6070",
"M  c #756C6D",
"N  c #6B637B",
"B  c #73677B",
"V  c #900803",
"C  c #871600",
"Z  c #951900",
"A  c #9B1B00",
"S  c #B10A00",
"D  c #A61D00",
"F  c #862700",
"G  c #982B08",
"H  c #AA2401",
"J  c #B72500",
"K  c #9B2225",
"L  c #E00501",
"P  c #C72D00",
"I  c #CB3100",
"U  c #D83600",
"Y  c #E53C00",
"T  c #E93C01",
"R  c #F03D01",
"E  c #9F4A1A",
"W  c #EA4302",
"Q  c #EB4C07",
"!  c #F34702",
"~  c #EC570B",
"^  c #F45709",
"/  c #D8600E",
"(  c #F36511",
")  c #FC6810",
"_  c #9A5F4C",
"`  c #8D706A",
"'  c #867A78",
"]  c #53A020",
"[  c #6BCF19",
"{  c #72904E",
"}  c #9EA931",
"|  c #94DE22",
" . c #90D12F",
".. c #ECEB0E",
"X. c #FCFC04",
"o. c #E5E41A",
"O. c #CDCA2F",
"+. c #99A359",
"@. c #8F9273",
"#. c #AC9978",
"$. c #B6AC71",
"%. c #CDB674",
"&. c #ECBC62",
"*. c #DBDA4A",
"=. c #DAC571",
"-. c #F0C562",
";. c #EFD665",
":. c #ECD56B",
">. c #F0D667",
",. c #F0D868",
"<. c #E8D675",
"1. c #F3DE71",
"2. c #EAE474",
"3. c #F4E075",
"4. c #F6E57C",
"5. c #F8E77F",
"6. c #F8E87F",
"7. c #040892",
"8. c #231B9D",
"9. c #122D92",
"0. c #2E3092",
"q. c #0002A7",
"w. c #1419AF",
"e. c #0100B3",
"r. c #1330B1",
"t. c #2F34AD",
"y. c #2D488E",
"u. c #2F58B4",
"i. c #335CB5",
"p. c #524B89",
"a. c #766B83",
"s. c #756C85",
"d. c #726B8B",
"f. c #7A7388",
"g. c #7C748A",
"h. c #585EA2",
"j. c #5473B6",
"k. c #6E6FB2",
"l. c #0104C7",
"z. c #050FCE",
"x. c #0217D4",
"c. c #092DD3",
"v. c #2037D2",
"b. c #0112EB",
"n. c #011AF9",
"m. c #0228E8",
"M. c #0F35E8",
"N. c #0227FB",
"B. c #023AFA",
"V. c #4A3FC3",
"C. c #1947D2",
"Z. c #2B51CD",
"A. c #3A65C9",
"S. c #3C6DD7",
"D. c #3F71DB",
"F. c #0847FB",
"G. c #1450F5",
"H. c #1A59F8",
"J. c #2B56F0",
"K. c #1C65FE",
"L. c #2464F9",
"P. c #2666F9",
"I. c #2C6BFA",
"U. c #306DF6",
"Y. c #3876FA",
"T. c #434BC2",
"R. c #4C75CC",
"E. c #4377E7",
"W. c #477EF6",
"Q. c #447DF8",
"!. c #5073FF",
"~. c #847A85",
"^. c #837A8D",
"/. c #857C91",
"(. c #867D9D",
"). c #D97390",
"_. c #7B89A9",
"`. c #3A87FF",
"'. c #5C85D5",
"]. c #6F8FCE",
"[. c #4782F9",
"{. c #4A82F8",
"}. c #598DF5",
"|. c #5489F8",
" X c #6793E9",
".X c #6497F9",
"XX c #6C9DF8",
"oX c #73A1F1",
"OX c #73A3F8",
"+X c #77AAFB",
"@X c #908589",
"#X c #8B8395",
"$X c #8A8596",
"%X c #958A98",
"&X c #948C9D",
"*X c #9B929D",
"=X c #A79790",
"-X c #B1A793",
";X c #8E8FAD",
":X c #958EA1",
">X c #988FA0",
",X c #9991A1",
"<X c #9B97A8",
"1X c #A199A5",
"2X c #A29CAA",
"3X c #A09FB0",
"4X c #9BA4AD",
"5X c #A6A1AE",
"6X c #AAA4AC",
"7X c #B8B2AD",
"8X c #A9A7B4",
"9X c #ADAAB4",
"0X c #B2AEB6",
"qX c #B7B5BA",
"wX c #B5B5BD",
"eX c #BBBABB",
"rX c #C9BB8B",
"tX c #C5BEA2",
"yX c #A6C08D",
"uX c #D6C687",
"iX c #D7CC96",
"pX c #E6D893",
"aX c #F3E485",
"sX c #F8E981",
"dX c #F3E59B",
"fX c #CBC5A8",
"gX c #DDD7BF",
"hX c #E4DAA9",
"jX c #F1E7B1",
"kX c #B6B6C5",
"lX c #B9B9C1",
"zX c #AEBAD4",
"xX c #88B2F6",
"cX c #87B1F8",
"vX c #8CB5F8",
"bX c #C1BEC4",
"nX c #BCC2CB",
"mX c #9AC0F8",
"MX c #C4C5CA",
"NX c #C6C4CA",
"BX c #CDCCCC",
"VX c #CED1CB",
"CX c #D1D1CC",
"ZX c #CECDD1",
"AX c #D3D3D4",
"SX c #D7D7D9",
"DX c #DADADA",
"FX c #EBE8D0",
"GX c #DDDEE1",
"HX c #E6E6E6",
"JX c #EBECEA",
"KX c #F0EFEC",
"LX c #F5F5F4",
"PX c #F8F8F6",
"IX c #FBFBFB",
/* pixels */
",.,.,.,.>.,.,.,.,.,.,.,.,.,.,.,.1.,.,.1.,.,.>.>.>.:.:.>.,.,.,.;.,.,.,.,.,.,.,.,.,.,.,.>.>.>.,.,.,.,.,.,.,.,.,.,.,.,.,.,.,.,.,.,.",
",.3.3.3.3.3.3.3.3.3.3.4.3.3.3.3.1.1.1.1.1.1.-.#.%.=.iXlXlXlXlXnX:X<XAXlXlXhXpXpX=.-.>.>.,.,.,.,.,.,.,.>.3.3.3.3.,.;.,.,.,.,.,.,.",
",.sXsXsX5.;.;.;.;.,.sXsXsXsXsXsXsXsXaXaXrXuX%.} +.=.zX0XlXeXwXnX<XeXHXlXMXBXCXDXZXjXdXpX,.>.>.,.,.,.,.,.6.sXsXsX,.,.,.,.,.,.,.,.",
",.sXsXsX5.,.,.,.;.,.sXsXsXsXsXsXsXaXdXrX(.1X-X..X.%.3X<XMXlXMXMX5XbXDXMXNXMXAXAXJXPXIXJXjXdX,.,.,.,.,.>.6.sXsXsX1.;.,.,.,.,.,.,.",
",.sXsXsX5.;.>.;.;.,.sXsXsXsX6.sX%.#.(.(.,X1X3XM } k.%X5XlX9X5X8X/.1XAXNXSXGXAXJXJXPXIXIXPXPXjXdX,.,.,.,.4.sX6.sX,.;.,.,.,.;.,.,.",
",.sX5.sXsX1.3.3.3.4.sXsXsXsXsXpXx } } 2X,X:X:X(.p.^.N ^.f.B j v s v f.B ^.$X&XBXKXPXIXIXPXPXPXIXdXpX,.,.1.3.3.1.,.,.,.,.,.,.,.,.",
",.6.sX6.sXsXsXsXsXsXsXsXaX%.rXlXn O.O.0X<X1X/.n x s j a a v _._.g.j k g a h c n g.2XZXLXIXIXIXPXPXJXdX,.,.;.;.,.,.,.,.,.,.,.,.,.",
",.6.6.sX5.sXsXsXsX6.sXaXpX/.N 8X(.p.p./.#Xa.n c b k N j.h.C.G.!.T.0.0.i._.B g g s x n ,XZXLXIXIXIXIXLXrX,.,.,.,.,.,.,.,.,.,.,.,.",
";.5.5.sXsXsXsXsX6.sX1.rXzX2Xa.n ,X:X/.d.n h s k d.h.r.Y.F.B.x.t 7.q.7.m.!.t.0.j.m a n d.n 1XGXIXIXJX2XwXjXuX,.,.,.,.,.,.,.,.,.,.",
">.5.sX5.sXsXsXsXsXsX&._ _ ~.1X~.a.#Xn n x b _.0.9.c.r.`.n.l.c.c.e.q.r.m.n.c.K.J.9._.M a.n n #XGXHX&X<XJXLXSXpX,.,.,.,.,.,.,.,.,.",
">.sXsXsXsX1.,.1.3.iX_ A D =X2X2Xn n j a b R.Z.b.e.t 7.C.F.c.M.Y.G.G.I.K.F.B.M.l.m.Y.A.b ' f.d.1Xs.<XIXIXIXIXSXuX,.,.,.,.,.,.,.,.",
",.sXsXsX5.;.:.:.%.8XE J D =X$X(.N x k ].8.r.z.n.m.M.M.m.P..XXX.XQ.[.}.{.P.B.b.N.F.B.H.C.R.~.%Xn x BXLXIXIXIXIXZXuX,.,.,.,.,.,.,.",
",.6.sXsX5.;.>.=.&X,X` 7 _ ~.g.n x d R.C.b.l.F.G.U.Y.`.Y.W..X.X|.{.Y.I.U.P.Y.P.F.G.B.H.F.c.Z.M j N 5X0XJXIXPXIXIXZXuX,.,.,.,.,.,.",
",.6.sXsX5.>.iXeX2X:X<X_.k.^.n x k ].H.l.B.G.Y.[.OX.X[.|.|.W.Q.Q.|.U.F.H.H.Y.{.H.H.H.F.G.b.z.R.b $Xg.:XAXIXIXIXIXIXhX,.,.,.,.,.,.",
";.5.5.sX4.>.tX0X&X&X&X<X2XN x x T.G.b.N.U.[.OXXX|.|.{.Q.L.U.A.= # $ y.Y.L.U.|.Q.Y.L.G.Y.K.m.Y.A.*X#X>X2XSXIXPXPXIXKXhX,.,.,.,.,.",
">.5.sXsXaX%.7X2X2X0XwX2X#Xv v j F.N.B.Y.OXXX}.|.Q.[.Q.H.F.u.= , V , = j.{.Y.W.{.|.Q.L.[.Y.Y.z.K.'.%X,X,XnXJXPXPXIXLXjX,.,.;.,.,.",
",.sXsXsXsXrXkXwXkXNX9X/.n c k C.B.U.[.XX|.|.H.I.[.[.`.Y.S.; , S 3 > < w oX XXX}.W.{.L.Y.XXXXS.z.L.y g.*X2XZXIXIXPXPXPXpX,.1.>.>.",
">.sXsXsXhXeXlXwXlX5X,X/.v j A.z.U.XXXX|.Q.L.H.J. X X'. Xf , L S < 5 5 0 oXxXoXE.E.{.Q.}.OXOX.Xb.z.R.^.,X,XMXJXIXPXIXIXGXuX>.;.>.",
",.1.1.,.iXlXlXlXbX2X^.n j R.c.M..XOX|.W.Y.L.y.w g g 0 q @ V L S A C < @ ; : g g w Z.Y.oXOXXXOXU.e.G.y n ,X1XAXIXPXPXPXLXFX4.4.>.",
",.,.;.uXeXwXlXlX5X>X/.v j G.e.}.OX|.W..X{.U.; 6 ( / 6 < & % 4 G C < & & & 6 / ( 6 0 J.!.XXvXvXXXM.l.C.6X&X<XMXHXIXPXPXIXjXsXsX,.",
",.,.,.iXkXlXwXnX2X>XN x @Xw.J.OX|.W.XXvX{.E.: H R W ~ H < 1 1 2 1 1 1 < H ~ Q T H - Z.Y.XXOXvXoXY.B.F. X~.:X6XJXIXIXPXIXJXjXsX;.",
",.;.iXwXlXlXwXlX2X^.g.b w.N.+XOX{.{.vXXX{.E.q $ A P U Z A C S S 5 Z 5 3 C U P Z $ 0 E.I.W.XX+XvXXXG.l.M.*X&X<XZXIXLXIXIXPXjXsX,.",
",.,.%.8XnXlXnX5X>X^.a.' C.U.OX|.W.OXvX{.[.[.R.i # Z J J U A V A 5 C J U D J A & p R.W.L.Y.W.XXOXXXH.n.z.y 1X,XMXHXIXPXPXIXjXaX;.",
",.,.#.9XqXwXeX<X&X^.~.-XR.XXOX{.XXvXXX[.W.{.{.A.+ $ A Y W J C C C Z W W Y D $ = D.W.{.P.L.Q.{..X[.H.B.q.y g.*X5XJXIXIXIXIXJX#X;.",
",.,.n g.f.#X<X/.a.s.~.w.J.vX|.Q.vXvX{.W.[.[.R.i O C U W W T J C C J W W W J 5 % 0 y.D.[.L.Q.W.L.H.H.F.F.C.y 1X5XJXLXLXLXKXLX2X,.",
",.,.g.8X,X<X,X2Xa.s ` z.L.OX|.Q.vXXX{.{.[.A.= o C J W ^ Q ^ Q J J U Q ^ Y U Q G O = E.[.P.Q.W.F.B.F.L.H.q.y 1X2XZXwXwX9XkX5X&X,.",
",.,.8XnXlXlXnX5X<Xn =Xv.F..X|.W.vX+XQ.Q.[.y.o G Q U W ~ W Q W Y Q ~ Q Q Y W ~ ~ F : D.|.W.[.W.P.B.B.L.G.7.9 d.s.0XZXlX<XlXlX,X,.",
",.-.8XlXlXeXbX2X&X-X%.R.P.Y.{.{.vXvX}.{.D.p < ( ~ U Y Y T Y T T Q ~ Q ~ W Y U Q ( < ; i.{.[.{.{.F.N.K.m.e.t 9 @XKXIXIXIXIXIXNX,.",
",.-.5XlXlXlXwX<X&X1X8.J.U.!.{.W..XvXmX+Xf % E ) U D P W ~ Q ~ ~ Y T Q ( W P D U ) E & u OX|.[.XXJ.N.H.b.b.c.y 7XSXIXPXPXIXIXZX>.",
">.-.8XbXlXMX2X&X>X-X8.J.I.Q.{.{.Q.vXxXvXi 8 ) ! H , C Y ( Q ~ ~ Y Y W ! Y Z , H ! ) 8 0 XXOX|.XX{.N.L.n.l.9 y 7XJXIXPXPXPXIXGX,.",
">.-.5XlXwXlX5X&X>X-Xz.J.I.Q.W.W.{.cXW.h.: E ^ H $ o 4 U T T T Q Q Y Q ) U 4 o $ H ~ E & y. XOXOX.XF.Q.N.l.9 p 0XJXIXPXPXIXIXDX>.",
">.>.2XMXlXMX8X&X>X1XV.U.P.Y.W.{.W..X].0 8 ) I >   . , A U W W ( ^ T Y U A , .   > I ) 8 * '.OXXXU.F.Q.B.b.y =X8XJXIXPXIXIXIXZX>.",
",.,.0XwX9X0X<X&X*X&X-XJ.G.|.{.{.[.Q.].w 6 ! J $ + = o 4 I R ( ( Q W U D 3 X ; X $ H ! F ; '.OXOXI.[.Y.F.x.0 ~.2XKXIXIXPXLXIX7X,.",
",.,.wX5X#X&X&X,X*X*X-XM.F.XX|.W.Q.[.'.q F P , = S.y.. , D U T ^ ^ W U D , @ ].y.. > U F ; j.OXvX}..XF.x.q.t /.qXLXIXPXIXGXHXpX,.",
",.,.-XwX&X>X,X*X:X>X*X=XU..X{.W.[.Q.S.0 5 P $ ; q +   o , D U R ! U H 2 o   ; w X $ P F ; '.oXvXQ.L.m.l.r.w $XHXIXKXIXIXLXDXhX>.",
",.,.rX5X&X,X:X*X>X>X&X=.T.Q..X[.{.}.R.0 6 P < O O > o   X , P ^ ^ P , o   o > O X < P F ; j.oXoXH.L.b.n.{.M <XKXGXGXIXIXIXHXiX>.",
",.,.rX&X,X&X,X:X>X&X,X1Xe.G.cX[.Q..XS.0 F G O . $ Z 2     > D P U D >   . , A $ X o G G ; i.}.U.U.Y.n.l.0.$XeXDXAXDXKXJXIXDXrX,.",
">.,.#.%X,X:X,X,X>X,X*X1Xk.N.!.XX{.Q.S.q $ $     o > $ .   = a 7 e a -     $ > o     $ $ ; A.Q.U.|.m.N.r.x ,XDXDXDXSXAXCXHXgXuX,.",
",.,.=.=X<X*X*X:X&X,X*X&XrXl.H..X{.{.S.0                 = q u 9.i u u =                 ; Z.W.|.v.e.b.|.%XlXHXDXDXDXDXDXAXiX,.,.",
",.,.:.%.,X:X,X,X,X,X,X*X1Xh.m.L.{.{.S.0 X           # . i i i r.r.9.i i . # .           ; r.Y.U.e.q.7.h.&XNXMXNXNXBXNXAXNXrX,.,.",
",.,.,.-X$X*X*X*X,X,X&X,X:X-XB.F.[.{.[.S.u     o > 1 4 @ 9.i 9.9.9.9.i 9.@ 4 1 > o     + u.J.Q.H.e.n.Z.M 9X2XMXnXnXwX0XMXtX=.,.,.",
",.,.:.=.=X*X,X*X,X&X,X>X2X~.p.n.I.{.{.{.f   . > D A 1 p i u w.9 9 7.u i p < A D , .   q Q.cXY.P.M.z.h.*XNXkX1X_ ` zXZXNX-X>.,.,.",
",.,.,.,.#.%X,X,X>X,X:X1Xa.s a k.N.I.{.{.R.w o 2 1 > = 9.0.u 9.9 9 9.u 0.r.@ > 1 2 O 9 u.I.XXH.N.x.p B qXlXCXK A H ` zXtX=.,.,.,.",
",.,.,.,.=.=X<X&X,X:X2Xa.N <X%X~.k.N.I.{.[.A.@ @ @ X + t.C.9.9.9 9 9.9.C.r.+ + X + = u.[.Q.G.x.I.t M a.~.2X=XD G H E 8XrX,.1.,.,.",
",.,.,.;.;.#.$X,X>X2Xa.N 9X0X<X$X@X0.N.I.[.[.A.i.A.f X 9.t.8.w.= = 7.t.t.r.= r.C.u.Y.|.Y.Y.x.q.t d.NX1Xv a.:X_ S G #X/.@.sXsXsX,.",
",.,.,.,.;.&.=X<X2XN n 0X9X*X*X,X%X@X0.x.U.{.[.h.p ;   + 7 K - = = - K 6 @ X 0 i '.}.H.F.x.q.h.a.1X9XbX2Xv d.(.k b d.` =.sXsXsX,.",
",.,.,.,.;.&.&.=Xn N 0X8X:X,X:X,X*X*X@Xp.x.K.R.= . % % % 1 4 # q u O 1 < # % % . 0 Z.N.G.t p.*X1X&XwXkX5X/.h f.;X$X' -.:.6.6.sX,.",
",.,.,.;.;.-.-.` B wX8X&X,X:X*X*X*X<X*X=Xk.H.r.O , 2 1 & % % . q u O % % & 1 , , O t e.y.d.:X,XqXNX' O.p.1Xg.s g.-X<.1.,.6.sX6.,.",
",.,.,.,.,.,.,.=.@.<X,X:X,X*X:X,X:X*X,X*X<X;Xc   # > # o O O . q u X o O o # > $   i k.@X*X<X<XkX' o.X.O.g.3Xg.x @.aXsXsXsXsX5.>.",
",.,.,.,.,.,.,.,.:.@.&X,X,X:X:X*X,X,X:X,X*X*Xm * M M k : * : O 9 9 O * * : k b M ; h <X<X*X&X&X:XB X.X.o.v <X$XM aXsXsXsXsXsXsX>.",
",.,.,.;.,.,.,.,.:.:.' /.,X:X,X:X,X&X,X,X:X,X,X<X&X(.(.<Xh.7.7.t t 7.M.I.;X:X;X&X*X7XeXlX<X*X,Xg.B ` o.j _.@X' <.4.sXsXsXsXsXsX>.",
",.,.,.,.,.,.,.,.>.,.1.@.g.,X,X*X,X,X&X,X&X,X*X:X*X1X,X1X&X(.^.c n &X;X;X:X:X,X#XZX*...X.=X:X&X&Xs.v ~.n h @X| | 2.sXsXsXsXsXsX,.",
",.,.,.,.,.,.;.;.>.tXJXLXg.#X&X,X<X*X&X&X>X>X>X>X:X>X>X>X,X,X&Xv s.2X*X*X*X>X>X&XlXo.X.X.X.*X&X*X&X&Xa.v f.LXHXyX2.3.4.3.4.3.4.;.",
",.,.,.;.,.,.;.:.yXJXIXIXPXIXg./.&X*X<X*X,X,X>X>X>X>X>X*X*X<X$Xc a.<X:X:X>X>X>X;XO.X.X.X...@X&X<X&X^.f.IXLXIXIXJX7X:.;.;.;.;.;.,.",
",.,.,.,.,.,.:.fXHXPXLXLXLXLXIX^.s.$X&X,X,X>X,X:X>X>X,X,X,X1Xf.s f.2X>X>X*X:X1X/.h.O.o...M g.&X#X^.f.IXLXLXLXLXPXHXfX:.;.,.,.,.,.",
",.;.;.;.;.;.fXHXHXAXDXSXSXDXLXKX<XM M #X&X<X,X,X>X>X>X>X>X1Xg.s &XwX&X>X,X,X&X1XB v c v b /.f.s.LXPXJXDXDXDXSXAXHXHXfX:.;.;.;.,.",
",.3.3.3.2.fXZXVXAXAXAXZXSXMXZX,Xg. . .l l (.%X%X<X<X<X*X,X<Xg.r &X0X%X*X*X<X,X,X<Xg.c l [ l a.SXDXSXSXAXAXAXAXAXCXAXVXfX3.1.1.1.",
",.sXsXaXfXVXnXwXwXlXwXlXwXf.$X&X&Xg. .] ] g m { @.@.@.#X<X5X/.s $XwX*X1X,X&X$X&Xs.c s ] [ [ z 6XAXAXZXwXwXwXwXwXwXqXMXZXfXaXsX:.",
",.6.aXfXkXwXlXlXlXwXlXkXf.d.f.f.g.g.a.d.r ] [ | |  .{ s g.(.n s N ~.' @.B n x h r e e a [ [  .n 8XlXwXeXlXlXlXlXlXlXwXwXkXfXaX,.",
",.6.fXlXlXlXwXlXlXlX0Xs.s n n n n n s h x s x s r r r a e e e a e l _ z z z z b z b z  .| [ +.d N 9XnXwXwXkXlXwXlXwXlXlXlXlXfX,.",
",.6.eXlXwXlXlXlXwXnX,XB s e e e ; e r e e e e e r r r r r r r r r r r e z $.$.+.+.+.+.[  .+.@.).n N 5XlXlXlXwXlXlXwXlXlXlXlXlX,.",
",.6.lXlXlXlXlXwXeXeXnXAX&X^.$Xg.#X$X/.@X$X^.$X$X&X_.g.@X/.^././././././.~.^._.$X8X9X8X$X4X0X9X4X5X$X&XlXlXeXlXlXlXlXlXlXlXwXlX,.",
",.sXeXeXeXeXeXeXeXqXqXVXVXVXVXVXVXCXCXCXVXVXVXVXVXVXBXBXBXVXBXBXBXBXBXCXVXVXfXVXAXVXAXVXVXAXVXwXqXqX0XwXwXwXeXeXeXeXeXeXeXeXeX,.",
",.,.,.,.,.,.;.,.,.,.,.,.;.,.;.;.,.,.;.,.,.,.,.,.,.,.,.,.,.>.>.>.>.>.,.,.,.,.,.,.,.,.;.,.,.;.,.,.;.,.;.;.,.,.,.,.,.,.,.,.,.,.,.,."
};
