/* XPM */
static char *result[] = {
/* columns rows colors chars-per-pixel */
"64 64 253 2 ",
"   c #010101",
".  c #0B0302",
"X  c #07070A",
"o  c #130403",
"O  c #180A07",
"+  c #050715",
"@  c #191010",
"#  c #17151A",
"$  c #2C0600",
"%  c #260802",
"&  c #380801",
"*  c #27130A",
"=  c #37160B",
"-  c #291914",
";  c #2B2C09",
":  c #161A28",
">  c #0E1630",
",  c #301B2D",
"<  c #2D252B",
"1  c #470A02",
"2  c #570C00",
"3  c #4A140A",
"4  c #561507",
"5  c #670B01",
"6  c #7A0B00",
"7  c #6A1303",
"8  c #7A1401",
"9  c #731912",
"0  c #71330A",
"q  c #533535",
"w  c #324D27",
"e  c #496B15",
"r  c #0E1152",
"t  c #162851",
"y  c #342445",
"u  c #282D52",
"i  c #0B1271",
"p  c #241B6B",
"a  c #172D67",
"s  c #172F74",
"d  c #27336F",
"f  c #4A3B47",
"g  c #483B57",
"h  c #6E3857",
"j  c #374E7A",
"k  c #544954",
"l  c #58495A",
"z  c #6D5156",
"x  c #636A58",
"c  c #554A65",
"v  c #5B546B",
"b  c #58506D",
"n  c #655966",
"m  c #665B75",
"M  c #756E6F",
"N  c #6B647A",
"B  c #73677A",
"V  c #871701",
"C  c #8B1105",
"Z  c #941A00",
"A  c #9C1B02",
"S  c #AF1702",
"D  c #A51D01",
"F  c #9C2601",
"G  c #993416",
"H  c #AA2300",
"J  c #AE280C",
"K  c #B72600",
"L  c #CD0900",
"P  c #F40100",
"I  c #C52B00",
"U  c #D02E00",
"Y  c #C93400",
"T  c #D83700",
"R  c #E63D00",
"E  c #E83E00",
"W  c #92480F",
"Q  c #A84C1B",
"!  c #D9520C",
"~  c #E74504",
"^  c #EA4302",
"/  c #EC4B05",
"(  c #EE530A",
")  c #EA560B",
"_  c #F4580A",
"`  c #F56A14",
"'  c #F86B12",
"]  c #9E5B4D",
"[  c #877573",
"{  c #50981D",
"}  c #69D117",
"|  c #9BA42D",
" . c #92DC1D",
".. c #91D12D",
"X. c #DAD811",
"o. c #F3F207",
"O. c #CBC92C",
"+. c #9EA451",
"@. c #8E8D75",
"#. c #AC9978",
"$. c #B9A775",
"%. c #CDB674",
"&. c #ECBC62",
"*. c #C5C250",
"=. c #DAC571",
"-. c #F0C562",
";. c #EFD665",
":. c #ECD56B",
">. c #F0D667",
",. c #F0D868",
"<. c #E8D675",
"1. c #F3DE71",
"2. c #EAE474",
"3. c #F4E075",
"4. c #F6E57C",
"5. c #F8E77F",
"6. c #F8E87F",
"7. c #050F94",
"8. c #231B9A",
"9. c #163091",
"0. c #2F2F93",
"q. c #090BAC",
"w. c #0100B3",
"e. c #142FB0",
"r. c #2639B2",
"t. c #463BAD",
"y. c #2E4B94",
"u. c #2E58B1",
"i. c #365DB2",
"p. c #534D89",
"a. c #546995",
"s. c #766B83",
"d. c #756C84",
"f. c #736D8A",
"g. c #7A7387",
"h. c #7C738A",
"j. c #5757A4",
"k. c #516FB2",
"l. c #6E6EB4",
"z. c #0104C7",
"x. c #0511CF",
"c. c #092CD4",
"v. c #2037D2",
"b. c #0112EB",
"n. c #011AF9",
"m. c #0228E9",
"M. c #0F35E9",
"N. c #0227FA",
"B. c #023AFA",
"V. c #1944D3",
"C. c #294CD1",
"Z. c #3965CB",
"A. c #3C6ED9",
"S. c #0847FB",
"D. c #144FF6",
"F. c #1A5AF8",
"G. c #2B56EF",
"H. c #1C65FE",
"J. c #2463F9",
"K. c #2A6AFA",
"L. c #306CF5",
"P. c #3976FA",
"I. c #434BC2",
"U. c #4B73CF",
"Y. c #4576E8",
"T. c #477EF7",
"R. c #457DF8",
"E. c #847A85",
"W. c #837A8D",
"Q. c #9C7F84",
"!. c #857C91",
"~. c #D4708D",
"^. c #7C819B",
"/. c #6E87B4",
"(. c #3A87FF",
"). c #5C86D6",
"_. c #6E8DCE",
"`. c #4782F9",
"'. c #4A81F8",
"]. c #5A8DF4",
"[. c #5A8CF6",
"{. c #5186F8",
"}. c #548AF8",
"|. c #6793EA",
" X c #6295F8",
".X c #6699F9",
"XX c #6B9CF8",
"oX c #6EA1F8",
"OX c #73A3F8",
"+X c #7AA9F8",
"@X c #908489",
"#X c #8B8395",
"$X c #898495",
"%X c #938997",
"&X c #948C9D",
"*X c #9B929B",
"=X c #A99691",
"-X c #B2A794",
";X c #958EA1",
":X c #9991A1",
">X c #9C98A8",
",X c #9095B0",
"<X c #A299A4",
"1X c #A29CAA",
"2X c #AC9DA8",
"3X c #9BA4AD",
"4X c #A6A1AE",
"5X c #AAA4AB",
"6X c #B8B2AD",
"7X c #A9A7B4",
"8X c #ADAAB4",
"9X c #B2AEB6",
"0X c #B7B5BA",
"qX c #B5B5BD",
"wX c #BBBABB",
"eX c #C9BB8B",
"rX c #C4B8A5",
"tX c #A6C08D",
"yX c #D6C687",
"uX c #D7CC96",
"iX c #E6D893",
"pX c #F3E485",
"aX c #F8E981",
"sX c #F3E59B",
"dX c #CBC5A8",
"fX c #DDD7BF",
"gX c #E4DAA9",
"hX c #F1E7B1",
"jX c #B6B6C5",
"kX c #B9B9C1",
"lX c #A5B9D0",
"zX c #87B1F8",
"xX c #88B2F8",
"cX c #8BB5F8",
"vX c #C1BEC4",
"bX c #BCC2CB",
"nX c #C4C5CA",
"mX c #C6C4CA",
"MX c #CDCCCC",
"NX c #CED1CB",
"BX c #D1D1CC",
"VX c #CECDD1",
"CX c #D3D3D4",
"ZX c #D7D7D9",
"AX c #DADADA",
"SX c #EBE8D0",
"DX c #DDDEE1",
"FX c #E6E6E6",
"GX c #EBECEA",
"HX c #F0EFEC",
"JX c #F5F5F4",
"KX c #F8F8F6",
"LX c #FBFBFB",
/* pixels */
",.,.,.,.>.,.,.,.,.,.,.,.,.,.,.,.1.>.>.>.>.>.:.,.,.,.,.,.>.>.,.:.>.>.,.,.,.,.:.,.,.,.,.>.>.>.,.,.,.,.,.,.,.,.,.,.,.,.,.,.,.,.,.,.",
",.3.3.3.3.3.3.3.3.3.3.4.3.3.3.3.1.1.1.4.4.1.-.%.$.=.uXkXkXkXkXnX&X>XVXkXkXgXpXiX=.-.>.:.,.,.,.,.,.,.,.,.3.3.3.3.,.,.,.,.,.,.,.,.",
",.aXaXaX5.;.;.;.;.,.aXaXaXaXaXaXaXaXaXaXyXyX%.| +.yXjXjXkXjXkXkX1XwXDXkXvXVXVXAXCXhXsXiX,.>.,.,.,.,.,.,.6.aXaXaX,.;.,.,.,.,.,.,.",
",.aXaXaX5.,.,.,.;.,.aXaXaXaXaXaXaXaXgXrX!.>X=XX.o.*.,X>XnXkXmXmX4XvXAXMXmXvXZXCXFXLXLXFXhXsX,.,.,.,.,.,.6.aXaXaX1.;.,.,.,.,.;.,.",
",.aXaXaX5.;.>.;.;.,.aXaXaXaX6.aXeX#.!.!.>X<X,XB *.l.%X7X0X8X4X8X!.<XBXmXZXDXCXGXGXKXLXLXKXKXhXsX,.,.,.,.6.aXaXaX,.;.,.,.,.,.,.,.",
",.aX5.aXaX1.3.3.3.4.aXaXaXaXaXiXb | | 2X;X&X>X$Xp.E.N W.g.B l c g n g.B W.%X;XmXHXKXLXLXKXKXKXLXsXiX,.,.,.3.1.3.,.,.,.,.,.,.,.,.",
",.6.aX6.aXaXaXaXaXaXaXaXpX%.eXkXm O.O.9X<X<X$Xv l l l f f v k.,Xh.l k k f g b N g.1XVXJXLXLXLXKXKXGXsX,.,.,.,.;.,.,.,.,.,.,.,.,.",
",.6.6.aX5.aXaXaX6.aXaXpXiX!.N 7X!.p.p.!.#Xs.m c c k m k.j.C.J.T.I.8.0.i.,XM k f g c m :XVXKXLXLXLXLXJXeX,.,.,.,.,.,.,.,.,.;.,.,.",
";.5.5.aXaXaXaXaXaX6.pXeXlX1Xs.m <X;X!.f.m c f z N k.r.P.S.B.x.7.7.7.7.m.R.r.0.U.N q n d.m >XDXLXLXGX1XqXhXyX,.,.,.,.,.,.,.,.,.,.",
",.5.aX5.aXaXaXaXaXaX%.Q ] Q.1Xs.B #Xm m c n ,X8.9.c.q.(.n.z.c.e.w.w.q.m.b.c.J.G.9.l.M d.m m %XAXFX&X>XGXJXZXiX>.,.,.,.,.,.,.,.,.",
",.aXaXaXaX1.,.1.3.uX] F D =X4X1Xm m l k v U.C.b.w.i 7.V.S.c.D.L.D.D.(.F.S.B.m.z.m.P.Z.n [ E.s.1Xd.>XLXLXLXLXAXyX,.,.,.,.,.,.,.,.",
";.6.aXaX5.;.:.:.%.7XQ J D =X;X!.N c l _.8.e.x.N.m.M.c.m.K..XXX X(.`.[.{.K.S.b.N.S.B.F.C.U.E.&Xm c VXJXLXLXLXLXVXyX,.,.,.,.,.,.,.",
",.6.aXaX5.;.;.=.%X:X[ h z W.f.m b g l.v.b.z.S.D.K.(.P.P.'. X X{.'.P.K.K.J.P.K.S.D.S.F.S.c.C.N c N 1XqXGXLXKXLXLXMXyX,.,.,.,.,.,.",
",.aX5.aX4.:.uXwX>X&X&Xh.;Xh.m c z _.F.z.B.D.P.`.+X.X`.}.{.R.R.R.{.L.D.F.F.R.'.F.D.F.S.D.m.x.k.n #Xh.&XCXLXLXKXLXKXfX,.,.,.,.,.,.",
":.5.aXaX4.:.dX9X:X&X&X<X1XN c b Z.M.b.N.K.`.OX.X}.}.`.R.J.L.T.T.R.R.L.P.F.P.{.R.P.J.D.P.F.m.P.Z.*X%X;X1XZXLXKXKXLXHXiX1.,.,.,.,.",
",.5.5.aX4.%.6X<X>XqXjX1X#Xn c l D.N.B.P.OXXX[.}.R.`.R.F.D.P.OX X.X.XXXoX'.P.T.T.{.R.J.`.P.P.x.H.).%X:X:XbXGXLXKXLXJXhX,.,.,.,.,.",
",.5.aXaXaXrXkXqXjXmX8X!.m b z V.B.L.`.XX}.{.J.K.T.R.R.P.P.{.zXOXOX+X+X+XXX.X.X{.T.T.J.P..XoXA.x.J.p W.*X>XVXLXLXLXLXLXiX,.,.>.,.",
",.aXaXaXuXdXkXkXkX4X:X!.b l Z.x.L.XXXX}.R.J.D.K.OX.X.XOX XT.{.'.{.'.T. XzXcXzX}.T.T.R. XOXOX.Xb.x.Z.W.:X:XnXGXLXKXKXLXAXyX:.>.,.",
",.,.1.1.uXjXkXkXkX4XW.m l U.c.M..X+X{.T.P.J.P.{.+X+XXX'.'.T.R.T.R.R.T.T.+XcXOX}.T.L.R.XXOXXXOXL.w.D.p m :X1XCXLXKXKXKXJXhX4.5.>.",
",.,.,.yXqXkXkXkX4X;X!.b l D.w.].OX'.`..X'.T.'.'.'.{.'.R.T.'.'.t : , < d XX]. XOX{.J.J.T.XXcXcX|.m.z.V.6X&X>XnXFXLXKXKXLXSXaXaX>.",
",.,.:.uXkXqXwXkX1X:Xs.c !.e.G.oX}.T.XXzX'.'.'.'.`.R.'.'.'.A.d o 6 6 & > Y.T.T.XX[.T.J.P.XXOXcXOXP.B.S.|.E.;X5XFXLXKXKXLXGXhX6.,.",
",.:.yX0XkXjXqXbX1XW.s.n 8.N.+X+X`.'.cXOX'.T.'.T.'.'.'.R.'.y.o 5 L 6 & $ > R.T.'.T.'.`.J.T.XX+XcXXXF.z.M.*X&X>XVXLXKXKXKXKXhX6.,.",
",.,.%.7XbXkXbX4X;XW.s.E.M.P.OX{.T.OXcX'.`.`.'.R.`.`.'.'.u.X 5 L C $ 2 V # XX{.P. X{.T.J.P.'.XXOXXXF.n.z.p <X>XnXFXLXLXLXLXhXpX,.",
",.,.#.8X0X0XkX>X;XW.E.$.U..XOX'.XXcXXXT.`.`.i.i.i.i.i.i.r 6 P P 6 V Z 5 # k./.k.i.i.U.K.J.T.'.XXT.F.B.q.p h.&X5XGXLXLXLXLXHXW.,.",
",.,.m !.d.#X<X!.d.d.E.q.G.cX}.T.cXcX'.T.'.d + 0 W ; o @ O 3 S L D Z 7 = * O X * W W @ i.J.`.`.F.F.F.S.S.V.p <X7XGXKXJXJXJXJX1X,.",
",.,.h.1X>X>X>X<Xs.g [ x.J.OX{.T.cXoX'.T.'.: 4 ! ' ! 0 4 = = 3 9 Z 5 3 = - 7 0 W ' _ 8 O C.T.`.S.S.S.J.D.w.p <X4XVXqX0X8XqX1X&X,.",
">.>.8XbXkXkXbX1X:XB #.C.S. X}.T.cX+XT.T.`.< Z T T / ) H 4 4 7 2 5 4 4 5 = Z ! ) T T H & A.`.`.J.B.B.J.D.7.r N f.9XVXjX>XkXkX:X,.",
",.-.7XkXwXqXnX1X&X2X$.U.J.R.T.{.zXcX[.'.`.> o Z K I ! 8 A C C L 8 Z V 7 7 7 Y U K H & X A.`.`.{.B.N.F.m.w.i r @XHXLXLXLXLXLXmX,.",
",.-.7XkXkXkXjX<X&X2X8.G.R.R.T.T..XcXcX+X'.Z.d % 8 K K A U F C S 8 8 C H U D H I A & > i.|.}.`.XXJ.N.F.b.x.c.p 8XZXLXKXKXKXLXVX>.",
">.-.7XvXkXkX1X%X;X-X8.G.J.R.T.T.T.cXzXcX'.T.'.> $ 8 K U ^ K V V Z 8 Z R E T K C 1 > Y.`.XXOX[.XX{.m.J.n.z.r p 6XHXLXKXKXKXLXAX,.",
">.-.4XkXkXkX7X&X&X-Xx.G.K.R.R.T.'.zX{.+XT.T.'.> o 7 I ^ ^ T H C Z C K ^ E ^ U 8 O > Z.Y.XXOXOXOX.XS.R.N.z.r d 9XGXLXKXKXLXLXAX,.",
">.>.1XnXkXnX4X&X:X=XI.G.K.R.R.R.'. XzX.X}.i.t O 8 U ^ ^ E ^ R H 8 A U E ^ E I K F $ X X ).oXOXXXK.S.R.B.b.p *X7XGXLXKXLXLXLXVX,.",
">.>.qX9X8X9X1X&X:X*X-XG.S.{.{.T.`.`.xX+Xk.X X V D I / ' ~ _ ` T H U R / ` ~ R / ! F % X ).XXOXOXL.`.L.S.x.r #X1XFXLXLXLXHXLX6X:.",
",.:.qX7X#X&X&X:X:X*X=XM.S.oX}.T.`.`.].].p.O 8 ! ~ R ^ / ^ ^ / E T ) _ ^ / ^ R / ) ) F $ |.OX+XcX]..XS.m.w.r #X0XKXLXLXLXFXFXiX,.",
",.,.-X0X&X:X&X:X;X:X*X=XL..X{.T.`.T.`.A.s * ! _ T T E E E R E E ^ _ ) ~ ) ^ E T T ) ) 4 > a.XXcXP.J.m.z.e.u #XGXLXGXLXLXHXZXgX>.",
",.,.eX2X&X;X:X:X;X*X*X=.I.T..XT.`.].`.t # 0 ' / K K T E ( ~ ~ ( ^ E R / ` ~ R I H ~ ` W * X ).oXF.G.b.n.'.M >XGXFXAXLXLXLXFXuX>.",
",.,.eX&X;X:X*X;X:X:X&X2Xz.D.zXT.`.].'.t 0 ' ( R Z 8 K R ` ) ( ` ^ R R ^ / ^ I V V T ~ ` Q   ).K.P.P.n.z.0.$XwXAXCXAXGXFXLXDXyX:.",
",.,.$.%X:X:X;X:X;X:X*X*Xl.M.T..X'.R.Z.+ 0 ' ^ F & & Z R / ^ ~ ~ R R R / ' / H 1 $ 8 T ' Q   y.P.}.m.n.e.c :XAXAXZXZXZXBXFXfX<.:.",
",.,.%.=X>X&X:X:X:X;X*X;X-Xz.F. X{.Y.# 0 ! ! Z & . $ 8 I R E E ~ ` ( R ~ _ U Z 1 . % 7 ! ) W @ i.v.w.b.'.*XkXFXAXAXDXAXAXCXiX:.:.",
",.,.,.%.<X&X;X:X&X:X:X:X<Xj.M.K.`.Y.O W _ U 7 o   O 2 V T ^ / ) ` / ^ R U A 5 %     2 K ` ! @ y.w.w.7.a.#XMXnXnXmXmXnXZXnX-X,.>.",
",.,.;.#.%X>X&X*X:X:X;X:X;X-XB.B.`.Y.X F / K 4 o t X . 5 Y R ( ' / R ^ T H C % : t . & H ^ Y % 9.w.b.C.B 9X1XbXbXbXwXjXkXrX=.,.,.",
",.,.:.=.=X>X;X*X;X:X:X&X1XE.p.n.H.).O F Y 2 . a. X> o 5 A U ^ / ` / R T D 8 % j zXu   1 H Y % 9.N.x.a.;XmXjX1X] [ lXCXkX-X,.,.,.",
",.,.,.,.#.%X:X;X;X:X;X1Xs.g f l.N.J.o F K 2   a.#   . O 5 D U E / ^ T S 8 $ . . > a   & F Y * 7.c.d [ jXjXBXG C H [ vXrX=.,.,.,.",
",.,.,.,.=.=X>X:X;X;X2XB N >X!.@Xl.m.o F K 4 O   $ %     O 2 H ^ _ / I 7 $     O $ X O 1 F Y * 9.i M s.s.2X=XD F H Q 7XeX1.,.1.,.",
",.,.,.,.;.#.$X;X;X1Xs.N 9X9X>X#X@.0.X F K & * . 2 7 $     & V ~ ) ~ H 1 .   O 2 7 O O & V Y % r s.mX1Xb s.&X] S G !.#X@.6.6.6.,.",
",.,.,.,.;.&.=X>X1XB m 9X8X&X:X:X%X[ o F 0       7 Z 2 .   & 9 F A H V 2 .   & V V o     = K O k <X2XvX1Xm f.$Xz n h.M =.6.6.6.,.",
",.,.;.;.;.&.&.=Xm m 9X8X;X:X:X:X:X$XX o .       . o .     > a u a u a t     . o . .     . O   x :XjXjX4X!.g d.>X!.[ -.,.6.aX6.,.",
",.,.;.;.;.-.-.[ s.qX8X&X&X;X*X&X>X$X                  X > t a a 9.9.a t r                     M mX[ O.p.1Xh.g h.-X:.1.,.6.6.aX,.",
";.,.,.,.,.,.,.=.@.>X:X;X:X:X:X&X;X$XX             o $ X s s a e.e.e.s s 9.+ $ %               N B X.o.O.^.*Xg.c @.6.aXaXaXaXaX,.",
",.,.,.,.,.,.,.,.:.@.&X:X&X:X:X:X;X;XM :       $ & 2 2 # 9.9.s e.7.e.9.s e.> 3 2 & & .       < $X[ o.o.o.m 3X$XM 2.6.aXaXaXaXaX,.",
",.,.,.,.,.,.,.,.>.:.[ $X:X:X:X&X:X:X*X<     o V S C 4 a a a s e.+ i 9.t a a 3 C H D $ .     $Xg.s.x o.n ^.@XM 2.aXaXaXaXaXaXaX,.",
",.,.,.,.,.,.,.;.,.,.1.@.h.:X:X:X:X*X:Xy # . 5 8 V 2 # r.s t 9.7.+ i 9.a a r.t & 8 8 7 % . : $X&Xh.b g.s.v @X.. .2.aXaXaXaXaXaX,.",
",.;.,.,.,.,.;.;.;.dXGXKXh.#X&X>X:X*X;X:Xv O $ % $ o + r.r.s s 7.+ i 9.a r.V.> . % % $ o ; *X:X:X:X&Xs.c f.KXFX-X2.3.4.3.4.3.4.,.",
",.,.,.,.,.;.;.:.tXFXLXKXKXLXg.W.&X>X:X;X#X< # : # . > r.V.e.9.q.+ 7.e.9.v.C.r X ; ; * | X.E.&X:X%X!.W.LXJXLXLXGXrX:.;.;.;.;.;.,.",
",.,.,.,.,.,.,.dXFXKXJXJXJXJXLXh.g.$X&X*X>X&X:X:X:X# + 9.0.t.8.i + r 7.0.t.9.> f f.O.X.o.M h.&X&X!.W.KXJXJXJXJXJXFXdX:.;.,.,.,.,.",
",.;.;.;.;.,.dXFXGXCXAXZXZXZXJXJX*XM M #X&X>Xn : : . X + 9 J 7 X : + 3 D C @ X X + + c c x $Xg.B JXJXHXZXZXZXAXZXFXFXdX:.;.;.;.,.",
",.3.3.3.2.dXVXCXCXCXCXCXZXMXMX>Xh.....x x h., X O * @ * 3 4 = . v # % 3 3 * * * O X < w } x B AXZXZXZXCXCXCXCXCXCXCXVXdX2.1.1.:.",
",.aXaXpXdXVXnXqXqXqXjXkXqXd.!.%X;Xh...{ { w X & 4 4 4 = - - O   c # o ; - = 3 4 2 1 . w } } x 7XZXCXMXjXkXqXqXqXqX9XnXVXdXpXaX,.",
",.6.pXdXkXqXqXkXkXjXbX0Xd.d.h.f.f.h.d.s.g { X & 2 1 & * O O O   y # . @ O @ & 2 2 1 o < } } ..n 7XkX0XkXkXqXkXkXkXkXqXqXkXdXpX,.",
",.6.dXkX0XkXkXqXjXwX8XB g m N m m m g k c u X - < < # @ O O o . < X . @ O X @ < < < o e  ...@.h N 7XkXkXkXkXqXkXkXqXkXkXkXkXdX,.",
",.6.kXqX0XqXkX0XwXbX;XM g y y y y , u y y , o 2XrX=XQ.q q q < . , X - q q q [ =X2XrX< e } +.@.~.n s.>XjXqXqXjXkXjXwXjXkXkXkXjX>.",
",.6.kXkXbXqXqXbXkXqXbXCX;Xh.^.$X$X$X#X$X$XW.$X!.E.!.!.!.W.W.!.!.!.!.!.!.W.W.W.%X7X8X9X!.7X9X8X3X4X$X$XkXkXwXqXqXwXjXwXkXkXkXwX,.",
",.6.wXwXwXwXwXwX0X0X0XNXNXNXfXnXNXBXBXBXCXNXBXBXBXBXBXBXMXMXMXMXMXMXMXMXBXMXMXMXCXBXCXVXCXVXNX0X0X9XqX0X0X0XwXwXwXwXwXwXwXwXwX,.",
",.,.,.,.,.,.,.,.,.,.,.,.;.,.;.;.,.,.,.,.,.,.>.>.>.>.>.>.,.,.,.,.,.,.,.,.,.,.,.>.,.>.>.>.>.1.,.,.,.,.;.;.,.,.:.,.,.,.,.,.,.,.,.,."
};
