/* XPM */
static char *result[] = {
/* columns rows colors chars-per-pixel */
"64 64 253 2 ",
"   c #13070A",
".  c #300F0D",
"X  c #121630",
"o  c #2E1A27",
"O  c #2C2632",
"+  c #5A1D16",
"@  c #6D1504",
"#  c #46272E",
"$  c #693531",
"%  c #110F54",
"&  c #162A57",
"*  c #352547",
"=  c #3B2A4C",
"-  c #322F54",
";  c #0A0B71",
":  c #241B6B",
">  c #172670",
",  c #312F6D",
"<  c #4E3B46",
"1  c #463A56",
"2  c #6F3A51",
"3  c #34466F",
"4  c #56454C",
"5  c #4D415D",
"6  c #584959",
"7  c #575553",
"8  c #6D5156",
"9  c #596852",
"0  c #706A56",
"q  c #554A66",
"w  c #5B536D",
"e  c #5A526F",
"r  c #655866",
"t  c #665B75",
"y  c #5D6070",
"u  c #756E6E",
"i  c #666477",
"p  c #6C637B",
"a  c #73677B",
"s  c #8C1403",
"d  c #A61C00",
"f  c #952C0B",
"g  c #A62603",
"h  c #B52F08",
"j  c #873F2C",
"k  c #D13903",
"l  c #E83B00",
"z  c #AF471A",
"x  c #9C442D",
"c  c #DA4407",
"v  c #F64A04",
"b  c #F04D06",
"n  c #9A5F4C",
"m  c #8D706A",
"M  c #867A78",
"N  c #53A020",
"B  c #63CB18",
"V  c #73D21A",
"C  c #72904E",
"Z  c #9EA931",
"A  c #94DE22",
"S  c #90D12F",
"D  c #ECEB0E",
"F  c #FCFC04",
"G  c #E5E41A",
"H  c #CDCA2F",
"J  c #99A359",
"K  c #8F9273",
"L  c #AC9978",
"P  c #B6AC71",
"I  c #CDB674",
"U  c #ECBC62",
"Y  c #DBDA4A",
"T  c #DAC571",
"R  c #F0C562",
"E  c #EFD665",
"W  c #ECD56B",
"Q  c #F0D667",
"!  c #F0D868",
"~  c #E8D675",
"^  c #F3DE71",
"/  c #EAE474",
"(  c #F4E075",
")  c #F6E57C",
"_  c #F8E77F",
"`  c #F8E87F",
"'  c #030590",
"]  c #1E269C",
"[  c #2C3091",
"{  c #0103A7",
"}  c #0E17AE",
"|  c #0103B5",
" . c #0B29B6",
".. c #32438A",
"X. c #3357AA",
"o. c #544E89",
"O. c #576897",
"+. c #766B83",
"@. c #756C85",
"#. c #706D8E",
"$. c #7A7388",
"%. c #7C748A",
"&. c #5758A4",
"*. c #5471B2",
"=. c #6C6DB1",
"-. c #0105C7",
";. c #0318C9",
":. c #1811C9",
">. c #0005D5",
",. c #0217D4",
"<. c #0825D8",
"1. c #0A31D1",
"2. c #2037D2",
"3. c #0112EB",
"4. c #011AF9",
"5. c #0228E7",
"6. c #0F36E7",
"7. c #0227FB",
"8. c #033AFA",
"9. c #4A3FC3",
"0. c #1846D4",
"q. c #2C4DD0",
"w. c #3B69D2",
"e. c #0344FB",
"r. c #0A4AFB",
"t. c #174DF3",
"y. c #0E53FC",
"u. c #1756F8",
"i. c #1C5DF8",
"p. c #2F53EA",
"a. c #265AF8",
"s. c #1B65FF",
"d. c #3A71E8",
"f. c #2463F9",
"g. c #2768F9",
"h. c #2C6BF9",
"j. c #326CF8",
"k. c #2D74FE",
"l. c #3572F9",
"z. c #3B76F8",
"x. c #3679FB",
"c. c #3D7AFA",
"v. c #434BC2",
"b. c #4B72CC",
"n. c #4878EB",
"m. c #477DF5",
"M. c #447DF8",
"N. c #847A85",
"B. c #837A8D",
"V. c #857C91",
"C. c #867D9D",
"Z. c #D97390",
"A. c #7C819B",
"S. c #7187B2",
"D. c #3A87FF",
"F. c #5782D4",
"G. c #6F8DCD",
"H. c #5988E6",
"J. c #4981F7",
"K. c #4681F8",
"L. c #4981F8",
"P. c #4B8CFC",
"I. c #5487F4",
"U. c #5187F8",
"Y. c #548AF8",
"T. c #598EF8",
"R. c #5E91F7",
"E. c #5D91F8",
"W. c #6E98EA",
"Q. c #6696F5",
"!. c #6295F8",
"~. c #6699F9",
"^. c #6B9CF8",
"/. c #71A1F3",
"(. c #73A3F8",
"). c #77A7F8",
"_. c #7DAAF8",
"`. c #8C828B",
"'. c #928787",
"]. c #858191",
"[. c #8B8395",
"{. c #8D879A",
"}. c #958B98",
"|. c #948C9D",
" X c #9B929D",
".X c #A79790",
"XX c #B1A793",
"oX c #8B8AA9",
"OX c #958EA1",
"+X c #988FA0",
"@X c #9991A1",
"#X c #9B97A8",
"$X c #949AB8",
"%X c #A097A2",
"&X c #A199A5",
"*X c #A29CAA",
"=X c #A09FB0",
"-X c #9BA4AD",
";X c #A6A1AE",
":X c #AAA4AC",
">X c #B8B2AD",
",X c #A9A7B4",
"<X c #ADAAB4",
"1X c #B2AEB6",
"2X c #B7B5BA",
"3X c #B5B5BD",
"4X c #BBBABB",
"5X c #C9BB8B",
"6X c #C5BEA2",
"7X c #A6C08D",
"8X c #D6C687",
"9X c #D7CC96",
"0X c #E6D893",
"qX c #F3E485",
"wX c #F8E981",
"eX c #F3E59B",
"rX c #CBC5A8",
"tX c #DDD7BF",
"yX c #E4DAA9",
"uX c #F1E7B1",
"iX c #8DADDD",
"pX c #B6B6C5",
"aX c #B9B9C1",
"sX c #AEBAD4",
"dX c #84AAED",
"fX c #81ADF8",
"gX c #87B1F8",
"hX c #8BB5F8",
"jX c #93BBF8",
"kX c #99BFF8",
"lX c #C1BEC4",
"zX c #BEC1C7",
"xX c #B8C6D3",
"cX c #9CC1F8",
"vX c #A0C5F8",
"bX c #C4C5CA",
"nX c #C6C4CA",
"mX c #CDCCCC",
"MX c #CED1CB",
"NX c #D1D1CC",
"BX c #CECDD1",
"VX c #D3D3D4",
"CX c #D7D7D9",
"ZX c #DADADA",
"AX c #EFEACB",
"SX c #DDDEE1",
"DX c #DFE1E0",
"FX c #E6E6E6",
"GX c #EBECEA",
"HX c #F0EFEC",
"JX c #F5F5F4",
"KX c #F8F8F6",
"LX c #FBFBFB",
/* pixels */
"! ! ! ! Q ! ! ! ! ! ! ! ! ! ! ! ^ Q Q ^ Q Q E E E Q Q ! W ! ! ! W ! ! ! ! W ! ! ! ! ! Q Q ! ! ! ! ! ! ! ! ! W ! ! ! ! ! ! ! ! ! ",
"! ( ( ( ( ( ( ( ( ( ( ) ( ( ( ( ^ ^ ^ ^ ^ ^ R L I T 9XaXaXaX3XbX X#XBXaXaXyXqX0XT R Q Q ! ! ! ! ! Q ! E ( ( ( ( ! ! ! ! ! ! ! ! ",
"! wXwXwX_ E E E E ! wXwXwXwXwXwXwXwXwXwX8X8XI Z J T sX1XaXaXaXzX#X2XDXaXbXBXBXZXVXuXeX0X! Q Q ! ! ! ! ! ` wXwXwX! ! ! ! ! ! ! ! ",
"! wXwXwX_ ! ! ! E ! wXwXwXwXwXwXwXwX0X5XC.#X&XD F I $X%XbXaXzXbX;XbXZXmXnXlXVXVXFXKXLXGXuXeXQ ! ! ! ! E ` wXwXwX^ ! ! ! ! ! ! ! ",
"! wXwXwX_ E Q E E ! wXwXwXwX` wXI .XC.+X@X&X#Xi H =.}.;XaX1X*X,XV.#XVXnXCXDXVXGXGXJXLXLXKXKXuXeX! ! ! ! ` wXwXwX! ! ! ! ! ! ! ! ",
"! wX_ wXwX^ ( ( ( ) wXwXwXwXwX0X8 Z Z :X+X X@XoXo.#.p B.$.p 8 q 1 r $.a B.{.{.mXHXJXLXLXLXJXJXLXeX0X! ! ! ( ^ ( ! ! ! ! ! ! ! ! ",
"! ` wX` wXwXwXwXwXwXwXwXqXI 5XaXt Z H 1X&X&XV.t q q 6 < $ e S.S.%.4 4 4 1 1 w t $.;XBXJXLXLXLXLXKXGXeXQ ! ! E E ! ! ! ! ! ! ! ! ",
"! ` ` wX_ wXwXwXwX` wXqX0XV.p ,XC.o.o.V.{.@.y q q 4 t *.*.2.y.M.9.[ [ X.$Xu 4 4 1 q t @XBXKXLXLXLXLXJX5X! ! ! ! ! ! ! ! ! ! ! ! ",
"W _ wXwXwXwXwXwX` wXwXT sX*X+.t %X|.V.#.t 5 1 8 +.*. .D.r.8.,.; ' { ' 5.M.[ [ b.i 4 r p t #XSXLXLXGX*X3XuX8XQ ! ! ! ! ! ! ! ! ! ",
"Q _ wX) wXwXwXwXwXwXI x n V.&XN.a C.t t 6 r oX[ ]  . .D.4.,.;.1.| |  .5.4.<.g.i.[ =.M a t t {.SXFXOX#XGXJXCX0X! ! ! ! ! ! ! ! ! ",
"Q ` wXwX_ ^ ^ ^ ^ 9Xn g d .X=X*Xp t q 4 y b.v.3.{ ; ' 0.r.<.6.x.t.t.k.s.e.8.6.-.<.z.w.r m $.a &X@.#XLXLXKXLXCX8X! ! ! ! ! ! ! ! ",
"! ` wXwX) E E W I ,Xz g d .X{.C.a 1 r S.]  .>.7.5.6.6.5.h.E.^.Q.c.K.E.U.g.8.3.7.r.8.y.0.F.N.}.p q mXKXLXKXLXLXVX8X! ! ! ! ! ! ! ",
"! ` wXwX) ! ! T |.#Xm $ n B.%.t q 1 b.2.4.-.r.r.h.c.D.c.m.~.!.U.L.c.g.l.f.z.g.e.r.e.i.e.<.q.p q p ;X1XGXLXKXLXLXBX8X! W E ! ! ! ",
"! ` _ wX_ W 9X4X&X+XoXA.=.%.t q 8 G.a.-.8.t.z.K.).!.L.L.U.m.M.M.U.h.y.u.u.M.L.i.u.i.e.y.,.,.*.r [.%.OXVXLXKXKXLXLXyX! W ! ! ! ! ",
"W _ wXwX) W 6X3X X|.|.#X&Xp q q w.t.3.7.h.M.(.^.T.U.L.M.f.l.M.M.M.z.l.z.i.l.U.M.c.g.y.z.s.5.x.w. X{.+X*XCXLXLXLXLXHX0X^ ! ! ! ! ",
"! _ _ wX) I >X*X#X1X2X*X[.w q r r.7.6.l.(.^.T.U.M.L.M.i.y.l./.~.~.^.^./.J.z.M.m.J.m.f.m.M.k.-.s.F.}.@X+XaXGXLXKXKXJXuX! ! ! ! ! ",
"! _ wXwXwX6XpX3XpXbX<X[.t q 6 q.8.h.K.^.T.U.f.h.M.M.M.l.l.T.fX).).).).).^.!.~.T.M.U.f.l.~./.p.;.g.: %.|.*XBXLXKXLXKXLX0X! ! ! ! ",
"! wXwXwX9XrXaXaXaX;X@XV.e 6 w.,.j.^.^.I.c.f.u.h.^.^.^.(.!.m.U.U.U.L.L.!.hXjXfXU.M.M.M.!.(.(./.3.;.b.B.@X@XbXGXLXKXLXLXZX8XW Q Q ",
"! ! ^ ^ 9X3XpXaXaX;XV.t 6 b.1.6.Q.).I.K.c.f.z.J._.).^.U.L.M.M.M.M.M.M.M._.hX).L.M.h.M./.(.^.(.j.| t.: t #X&XVXLXKXKXLXJXuX_ ) ! ",
"! ! ! 8X4XaXaXaX;X@XV.e 6 t.-.H.(.L.K.~.K.M.J.J.U.L.L.m.m.L.L.L.M.L.m.M.~.T.!.(.Y.f.a.M.^.hXhX^.6.-.0.:X|.@XbXGXLXLXJXLXAXwXwX! ",
"! W W 9XpXpX4XaX*X+X+.5 '.} a.(.U.L.^.gXJ.J.K.J.M.L.M.m.m.m.J.J.m.K.L.n.K.K.M.^.Y.M.f.M.^.).jX/.x.8.y.H.N.+X,XFXLXLXKXLXGXuX` ! ",
"! ! 9X3XaXaXaXaX*XB.+.r :.7.).).L.L.hX(.J.J.L.m.L.L.L.m.n.n.*.X.*.*.#.S.*.b.K.L.L.L.m.f.M.^.(.hX^.t.-.6. X+X@XBXLXKXLXLXKXuX` ! ",
"! ! I ,XzXaXzX;X+XB.+.N.0.l.(.U.L.(.hXL.L.m.L.M.m.M.M.b.3 a 4 O 3 o . 4 o W.U.M.Q.Y.M.f.z.L.^.).^.i.4.>.: %X@XbXFXLXKXKXLXuXqXE ",
"! ! L <X3X3XaX#XOXV.N.P b.^.(.L.^.hX^.M.L.K.L.L.m.m.M.n.& # . . X . . . 3 W.fXT.M.L.m.h.f.M.L.~.K.i.8.{ : B.|.:XGXLXLXLXLXGXB.! ",
"! ! i B.@.[.&XV.+.@.N.} p.hXY.M.hXhXL.M.L.L.M.L.M.M.L.L.X.& O , X % [ X - *._._.L.M.L.L.f.M.M.a.i.i.e.r.0.: &X,XGXKXJXJXHXJX*XW ",
"! ! B.*X#X#X#X*X+.1 M :.a.(.U.K.hX/.L.L.M.L.L.L.L.L.m.n...# > ] ; ] [ # + X b./.T.M.M.L.h.M.M.r.8.e.f.u.{ : &X*XBX3X2X<XpX;X}.! ",
"! ! :XaXaXaXaX*X%Xa K p.r.!.Y.m.hX).M.M.m.L.L.L.K.K.n.&   . . ]  .> &       & d.L.L.L.L.M.L.M.g.8.e.f.t.' % t %.1XBXpX#XaXaX@XW ",
"! R ,XaXaXaXbX*XC.:XL *.g.M.m.m.gXjXT.L.M.U.M.M.K.K.b.X       X , & X     . o w.M.L.M.L.U.M.L.L.e.4.s.5.| ; % V.HXLXLXLXLXLXmX! ",
"! R ;XzXaXaXaX&X XXX] p.j.n.U.m.!.hXkX).m.M.L.L.L.K.b.*   .   . f h .     @ # b.L.M.L.M.^.T.L.^.f.7.t.3.>.1.: >XVXLXKXLXKXLXBXQ ",
"Q R ,XaXaXaX*X|.%X&X:.p.h.M.m.m.M.hXfXhXL.m.M.M.K.L.b.< @ X   @ k v h   X f $ *.T.M.L.M.^.(.T.^.I.7.a.4.>.% & 2XGXLXLXKXKXLXSX! ",
"Q R ;XlXaXaX;X|.+XXX:.a.h.M.M.M.L.fXY.fXM.M.M.U.L.L.n.1 h   # s b b b @ + @ j S.!.M.K.M.^./.(.(.!.r.M.8.-.% 3 1XGXLXLXKXLXLXZXQ ",
"Q Q ;XzXaXnX;XOX+X.X9.j.f.M.M.M.L.!.fX^.T.U.M.M.K.M.M...z g + k b b b c f f 4 W.E.M.L.M.~.(./.^.h.r.M.8.3.: }.;XGXLXKXKXLXLXBXQ ",
"! W 1X3X,X1X&X|. X XXXp.y.L.Y.M.L.M.hX(._._.M.M.K.J.K.w.# b k v v b b v k x O.^.J.M.L.K.^.(.(.(.h.M.l.e.,.% V.:XFXLXLXLXJXLX>XE ",
"! E pX;X{.|.|.@X+X}.XX6.e.(.Y.M.L.M.T.!.^.gXM.K.J.J.K.K.X.+ k v c k k b f , G.T.c.M.L.M.^.(.(.hXT.~.y.,.{ % [.2XKXLXKXLXFXFX9XE ",
"! ! XX2X}.+XOX@X+X+X X%Xd.!.U.M.M.M.M.M.M.T.M.L.J.J.K.K.J.3 @ c k s d l f * /.U.I.E.L.M.^.(./.jXz.a.7.-. .- {.FXLXGXLXLXJXZXeXW ",
"! ! 5X;X|.@X XOX+X+X+XT v.M.~.m.M.!.L.M.M.M.L.L.J.M.P.K.b.= h f @ s s @ k $ S.J.~.^.L.U.^.!.(./.i.a.3.4.L.u @XHXFXZXLXLXLXFX9XQ ",
"! ! 5X}.@X+X@X@X+X+X+X&X-.p.).M.M.!.L.M.M.M.M.K.L.L.M.z.H.< j + . s @ O y w *.I.).L.T.).).M.T.g.l.c.4.-.[ V.aXZXVXZXGXGXLXSX5X! ",
"! ! P }.@X+X+X+X+X+X X%X&.8.U.~.L.M.J.L.E.I.M.M.L.M.L.T./.iX#.*.# s + S.F.d.J./.~.M.T.E.T.I.M.l.Y.5.7. .q #XCXCXZXCXVXNXFXtX8X! ",
"! ! I .X#X XOX@X+X+X X|.XX:.u.~.U.M.M.U.fXgXL.M.K.M.T.fX_.hXhX).*.2 o.G.I.z.^.Q.z.I.m.M.M.l.m.U.2.| 3.P..XaXFXZXZXZXZXZXNX9X! ! ",
"! E E 5X@XOX X+X@X X@X@X%X&.6.f.M.L.L.M.!.hXgXU.M.M.L.R.T.U.E._.R.W.dXR.J.D.R.E.U.hXR.M.m.r.z.j.| { ' O.{.nXmXnXnXnXbXCXnX5X! ! ",
"! ! ! L |. X X X+X+X+X+X+X>X7.e.J.L.K.M.M.Y.gXfXU.L.T.z.M.z.M.E.m.m.I.Y.M.L.fXjXjXkXc.M.L.a.K.i.| 3.q.m 1X*XsXxXxX4X<XzX6XT ! ! ",
"! ! ! T .X#XOX X+X+X+X+X%XM o.4.h.U.K.K.L.!.).jXR.T.gXL.I.^.E.L.M.m.Y.fX/.~.gX(.gXL.i.f.m.fXc.f.7.>.O.C.nXzX*Xx m sXmXbXXX! ! ! ",
"! ! ! ! L }.#X X+X+X+X*X+.1 < =.7.h.L.K.U.)._.jX~.^.vX^.l.^.kX/.U.).jXkXhX).~.h.l.i.u.j.h.~.y.7.;., M pXpXNXj d g n xX>XW ! E ! ",
"! ! W ! T .X#X|.+X+X*Xp p @XOXN.=.7.l.L.M.Y.T.fX(.fXcXjX~.(.vXkXjXgXgX(.I.T.z.i.y.l.z.L.M.y.,.j.; a +.N.*X.Xd h g x pX5X! ! ^ ! ",
"! ! ! ! E L [.OX+X*Xa p 1X1X&X}.K [ 7.x.L.M.M.U.J.E._.fX_._._.^.(.^.U.h.l.U.h.u.j.J.I.l.l.,.{ ' @.nX#Xw +.OXj d f V.V.K wXwXwXQ ",
"! ! ! ! E U .X#X*Xp p 1X,XOXOX@X}.`.[ >.x.L.L.!.~.R.L.L.L.J.!.E.m.m.K.K.j.g.i.h.^.E.i.r.,.{ #.@.%X1XlX*Xt @.oX8 r $.m T _ wXwXQ ",
"! ! ! ! E R U .Xt p 1X,X+X+X+X+X+X%X'.o.,.h.T.kXgX~.R.!.~.^.R.J.m.l.a.h.f.u.l.L.c.k.7.y.' e @X@X|.3XpX;XV.1 @.#X{.M T E _ wXwXQ ",
"! ! ! E E R R m +.1X,XOX+X+X+X+X+XOX%X}.=.y.y.!.~.cXjXgX(.).R.M.Y.l.i.a.i.f.g.x.<.| | ..$.}.+XpXnXM H o.#X$.5 %.XXW ^ ! _ wXwX! ",
"! ! ! ! ! ! ! W K OX@X|. X@X|.@X@XOX X@X#XoXO.} k.E.T.Y.U.T.c.g.k.u.8.u.h.<.5.e.{ 1.=.'.#X@XOXpXu G F H %.#X%.q K wXwXwXwXwXwXW ",
"! ! ! ! ! ! ! ! W '.|.#XOX@X@X@X@X|.OX@X X X|.{.=.| } y.g.k.6.| -.| <.e.s.} <.*.V.oX#X#X XOX@XOXM F F G t -X{.u qXwXwXwXwXwX_ E ",
"! ! ! ! ! W ! E W W M ].#X|.|.@X@X@X@XOX@X XOX#X|.{.].$X&.' ' ; ; ' 6.k.G.}.oX+X@X2X4X4X#X X X%.a m G 6 A.`.u ~ ) wXwXwXwXwXwXE ",
"! ! ! ! ! ! ! E ! E W K %.@X@X@X@X|.@X X@X@X@X X+X X X X|.oX%.q t OXoXOX X X@XOXBXY D F .XOX+X|.@.e N.t q '.A A / wXwXwXwXwXwXW ",
"! ! ! ! ! ! E E E rXGXKX%.{.|. X@X@X@XOX+X+X+X+X+X+X|.@X@X#X}.w @.*X X X X+X+XOX3XG F F F  X@X@X|.|.@.w $.JXGX7X/ ( ) ( ) ( ( ! ",
"! ! ! ! ! ! E W 7XFXLXLXKXLX%.B.|.@X@X@X+X+X+X+X+X@X@X@X X#X{.w @.#X@XOX+X+X+XC.H F F F D ].OX@X|.B.$.LXKXKXLXFX6XW E E E E ! ! ",
"! ! ! ! ! ! W rXFXKXJXJXJXJXLX%.@.{.OX+X@X+X+X@X+X@X+X@X X#X$.1 $.*X|.@X+X@X@XV.O.H D G u %.|.{.%.$.LXJXJXJXJXKXFXrXW ! ! ! ! ! ",
"! E E E E W rXFXFXVXZXCXCXCXJXJX Xu u {.|.&X@X@X@XOX@X|.|.#X%.1 {.3X|.@X@X+X+X%Xa e e e 9 ].$.a JXLXHXCXZXZXCXCXFXFX6XW ! E ! ! ",
"! ( ( ( / rXMXVXVXVXVXBXCXnXBX@X%.S A 9 w ].OX{.#X-X&X@X+X&X%.1 }.3X}. X+X+X#X@X#X%.e 9 B 9 @.CXZXCXCXVXVXVXVXVXBXCXBXrX( ^ ^ W ",
"! wXwXqXrXMXxX3X3X3X3XaX3X$.].|.|.%.S N N 4 9 C K K '.V.#X*X%.1 {.3X|. X+XOX}.{.@.q 1 N B V 0 ,XCXVXBX3X3X3X3X3X3X3XbXmXrXqXwXW ",
"! ` qXrXaX3X3XaXaX3XzX3X$.#.%.%.$.%.@.a - N V A A S C 1 %.C.p 1 t '.K K +.t q 5 = * * < B V S q ,X4X3XaXaXaXaXaX3XaX3X3XaXrXqX! ",
"! ` rX3XaXaXaXaXaXaX1X@.1 t t t t i 5 5 5 5 q 1 1 - * < * * * = = 7 n 0 0 0 0 9 0 r 0 S A S J 2 i ,XaXaX3XpX3XaX3XaXaXaXaXaXrX! ",
"! ` 4XaXaXaX3X3X3XzXOXa 1 * * * * * * * * = * = = = = = < * * = = = = = 8 P P J J J J V S J K Z.t +.#XaXaXaXaXaXpXaXaXaXaXaXaXW ",
"! ` aXaXaX3XaXaXaX3XzXVX|.B.`.A.].].].].].B.].].`.].B.].V.V.V.V.B.B.B.B.B.B.A.}.;X<X,XA.-X<X<X-X:X{.{.aXaX4X3XaX3XaX4XaXaXaXaX! ",
"! ` 4X4X4X4X4X4X4X4X2XMXMXMXMXtXMXNXMXNXMXNXMXNXMXmXmXmXmXmXmXmXmXmXMXMXMXMXMXMXNXVXVXMXNXVXMX2X2X1X3X2X2X2X4X4X4X4X4X4X4X4X4X! ",
"! ! ! W ! E W ! ! ! E E E W E W ! ! ! ! ! ! ! ! ! ! ! ! ! E E ! ! ! ! ! ! E E E ! ! ! ! ! ! ! ! ! ! ! ! ! ! ! ! ! ! ! ! ! ! ! ! "
};
