/* XPM */
static char *result[] = {
/* columns rows colors chars-per-pixel */
"64 64 199 2 ",
"   c #907D2D",
".  c #867E47",
"X  c #8D7B46",
"o  c #8E7F4A",
"O  c #93794C",
"+  c #3D960F",
"@  c #429515",
"#  c #459A15",
"$  c #4C981B",
"%  c #519C19",
"&  c #46AA0D",
"*  c #4AAC0E",
"=  c #56AB0F",
"-  c #4DB30D",
";  c #52B50F",
":  c #4EA817",
">  c #56AD1B",
",  c #4DB010",
"<  c #55B512",
"1  c #5AB512",
"2  c #54BA10",
"3  c #5BBB12",
"4  c #7FBB0D",
"5  c #66BE16",
"6  c #77BE19",
"7  c #5E9B29",
"8  c #699C33",
"9  c #779837",
"0  c #6AA627",
"q  c #75AC2B",
"w  c #71A633",
"e  c #5BD50E",
"r  c #5CDA0E",
"t  c #5FD710",
"y  c #5CDD11",
"u  c #65C015",
"i  c #72C618",
"p  c #75C819",
"a  c #69D617",
"s  c #62D910",
"d  c #6CDA14",
"f  c #74D916",
"g  c #74D719",
"h  c #7BD31B",
"j  c #7CD919",
"k  c #56E20F",
"l  c #6EE312",
"z  c #6EE11E",
"x  c #6DDB23",
"c  c #7EE626",
"v  c #77E929",
"b  c #79EA2A",
"n  c #5A8C48",
"m  c #648F4B",
"M  c #639148",
"N  c #7B9D49",
"B  c #AC8B07",
"V  c #A99205",
"C  c #978538",
"Z  c #A68C2B",
"A  c #85BA2F",
"S  c #8EBA38",
"D  c #90BE36",
"F  c #91B93A",
"G  c #A9B02D",
"H  c #B3A234",
"J  c #B6A637",
"K  c #B3B635",
"L  c #82CF1C",
"P  c #86D51C",
"I  c #8CD61C",
"U  c #85DA1A",
"Y  c #8DDA1C",
"T  c #92D71F",
"R  c #91DB1D",
"E  c #89EA1B",
"W  c #92E41A",
"Q  c #9AEB1F",
"!  c #99F51E",
"~  c #9EFB1E",
"^  c #A1FC1E",
"/  c #8DCF25",
"(  c #90CF27",
")  c #91CC2A",
"_  c #84D522",
"`  c #8DD622",
"'  c #8BDA22",
"]  c #91D422",
"[  c #92D921",
"{  c #97D12B",
"}  c #9ADB2C",
"|  c #9BD931",
" . c #AACF2A",
".. c #A1D82C",
"X. c #A0CE37",
"o. c #A4CC3C",
"O. c #A9DA37",
"+. c #B0DA3C",
"@. c #83E629",
"#. c #96E727",
"$. c #99E621",
"%. c #9CE22B",
"&. c #9AF723",
"*. c #9EF520",
"=. c #8CE230",
"-. c #95EC3B",
";. c #9DF438",
":. c #A3E923",
">. c #A0F620",
",. c #A3FA21",
"<. c #A9FC23",
"1. c #A8F429",
"2. c #B6F538",
"3. c #BAF53B",
"4. c #8D854A",
"5. c #93824A",
"6. c #8D9E4F",
"7. c #929243",
"8. c #96934C",
"9. c #9B924C",
"0. c #9D8B50",
"q. c #8E9556",
"w. c #8E9C52",
"e. c #9A9653",
"r. c #919D53",
"t. c #A29E51",
"y. c #8BA647",
"u. c #90AD45",
"i. c #90A64B",
"p. c #96AA4C",
"a. c #98BD41",
"s. c #8FA050",
"d. c #92A153",
"f. c #9AA854",
"g. c #A8A74E",
"h. c #AAAC52",
"j. c #A5AD59",
"k. c #A5B357",
"l. c #B4BB5A",
"z. c #BABD5B",
"x. c #BEBC60",
"c. c #D4BD5F",
"v. c #F0BD5F",
"b. c #C5B36A",
"n. c #CAB66D",
"m. c #D6BA72",
"M. c #F0BF60",
"N. c #AEC64A",
"B. c #B8CB49",
"V. c #A7DB42",
"C. c #B4DB44",
"Z. c #AAC25D",
"A. c #B6C656",
"S. c #BCC35A",
"D. c #9DEF41",
"F. c #ACF849",
"G. c #BDC362",
"H. c #BFD160",
"J. c #C3D848",
"K. c #CACC5C",
"L. c #D7C25F",
"P. c #DAD65A",
"I. c #E5D65E",
"U. c #E3DC5D",
"Y. c #D3E54D",
"T. c #C8E45D",
"R. c #D6E350",
"E. c #C1C767",
"W. c #C4CD6B",
"Q. c #C2D469",
"!. c #DDD062",
"~. c #D8D16B",
"^. c #F0C361",
"/. c #F0CC64",
"(. c #E4D464",
"). c #EFD665",
"_. c #E5D861",
"`. c #EDD966",
"'. c #E3D56A",
"]. c #EFD768",
"[. c #EDDA68",
"{. c #F0D667",
"}. c #F0D867",
"|. c #F0D768",
" X c #F0D868",
".X c #F3DE71",
"XX c #C4E46D",
"oX c #DBE669",
"OX c #DEE370",
"+X c #EAE26F",
"@X c #E8E777",
"#X c #EDE676",
"$X c #F4E175",
"%X c #F6E57B",
"&X c #F8E77F",
"*X c #F7E87F",
"=X c #F8E87F",
"-X c #F6E880",
";X c #F8E981",
/* pixels */
" X}.|. X}.}. X}.}.}. X X X X X X X X X X X X|.|.|. X X X X X X}.}.|. X X}.]. X}.}.}. X|.|.|.}. X X X`.|.].].].]. X X X X X X X X",
" X$X.X$X.X$X$X$X.X$X$X$X$X$X$X$X$X$X$X$X$X.X).}.|. X|. X X X}./././.}. X X X|.{./.{./.}. X X X X|. X X|.$X$X$X$X X}. X X X X X X",
" X;X;X;X&X).).).). X;X;X;X;X;X;X;X;X;X;X;X&X}.}.}. X X}. X]. X X X X X X}. X|. X X X X X}. X X X X X X}.=X;X;X;X X X X X X}. X X",
" X;X;X;X&X X|.|.}. X;X;X;X;X;X;X;X;X;X;X;X&X).}.|. X X X X X X}. X X X X X X X X X X]. X X X}.|.}.|. X).=X;X;X;X X X X X X X X X",
" X;X;X-X&X).}.}.). X;X&X;X;X;X;X;X;X;X;X;X$X).|.).).}.}.}.|.|. X X X|. X X}. X X X X}.|. X]. X}. X X X).&X;X;X;X X}. X X X X X X",
" X;X&X;X&X$X$X$X$X$X;X;X;X;X;X;X;X&X.X.X$X$X$X&X$X$X.X).|.|. X X}. X X X X X X|. X|. X X}. X X X X|. X}..X$X$X.X X|.}. X X}.}. X",
" X=X;X=X&X;X;X;X;X;X;X&X;X-X;X&X;X$X).).)..X;X;X;X;X&X}.|.|. X X|. X X X X|. X}.}. X|. X X X X|. X X X}.).).).). X X}. X X X X X",
" X;X=X;X;X&X;X;X;X;X&X;X&X&X&X;X;X$X).|.}..X;X;X;X;X$X}. X X X}. X X X|.`. X X X X X X}. X X X X}. X|. X]. X}. X X X X|. X}. X X",
" X=X;X-X;X;X;X;X;X;X;X;X;X;X;X;X;X&X}.|.)..X;X;X;X;X$X}.}. X X X X|. X X X X X X X X X X X X X}. X X|.}. X X X}. X X X}. X X X}.",
"|.&X&X&X;X;X;X;X;X;X;X;X;X;X;X;X;X&X).|.)..X;X;X;X;X$X|. X X|.}.}. X}. X X}.}. X X}. X}.}. X|. X}. X X X}.|. X X X X|. X]. X X X",
" X=X;X;X&X X.X.X.X.X.X.X.X.X.X.X.X X}. X}. X.X.X$X.X X X X X X X X}. X X X X}. X X X X X|. X X X X|. X X X X X X X X|. X X X X X",
" X=X;X;X&X X).).|.}.).).).).{.}.).).|.}.|.}.}.).|. X).}. X|. X|. X X X|. X]. X X X X`. X X X}. X X X}. X]. X|. X X X X X X X|.}.",
"}.=X;X;X&X).|. X|.|.|.|.|.|.|.|.}. X|. X X}. X X X X|. X X|. X X|. X X X X|. X X|. X X X X X X}. X|. X X}. X X}. X X|. X}. X X X",
" X=X&X;X&X X X]. X}.).}.).).|.|. X X X X X X|. X X X X X X|. X X}. X X X X X X}. X X X}. X}. X X}. X}. X X X X X X}. X X X|. X}.",
"|.&X;X;X&X|. X X}. X;X%X$X$X). X X X X X X X X}. X}. X X X`.|.}. X X{.^././.^./././.^.{. X X X X X}. X X]. X X X|. X}. X X}. X|.",
"|.&X&X-X&X X X X X X;X;X;X&X).|.|.}. X X|.}. X|. X X X|. X X X X X X/.v.v.v.v.v.v.v.v./. X X X X X X X]. X|.}. X X}. X X X X]. X",
" X&X;X;X;X|. X X}. X;X;X;X&X).}.}.}.|.|.|.|.|. X}.|.|.|.|. X X X X X^.v.M.M.M.M.v.v.v.{. X X X X X}. X X X}.|. X X X X}. X|. X}.",
" X;X;X;X;X}.).).).].;X;X;X&X).}.).).}.}.).).).).).}.).|. X X X}. X X/.v.v.v.v.v.v.v.v./. X X X|.|. X|. X X|. X].).).).).).).). X",
" X X.X X.X&X%X$X&X%X X X X$X=X&X$X&X$X&X&X&X%X$X&X&X.X). X X X X X X}.{.{.{.}.{.{./.}.}. X X X X}. X X}.|.|.}.{.$X&X%X%X$X&X%X}.",
"|.|.}.). X;X;X;X;X=X X).]. X;X;X;X;X;X;X;X;X;X;X;X;X$X}.|. X X|. X X X X X|. X X X X X X X X X|.|. X X X|.|.|.}.=X;X;X;X;X;X;X|.",
" X X X X X;X;X;X;X&X`.}. X X;X;X;X&X;X;X;X&X;X&X;X;X$X}.]. X X X X X X X|.|.|.|. X X X X X X|.`. X X X X X}.}.}.&X;X;X;X;X;X;X}.",
" X X X X X;X;X;X;X=X}.}. X$X;X;X&X;X;X;X&X;X&X;X;X;X$X}. X X X X X X X X|.}.|. X X X X X X X X X X X|.|.|. X}.}.&X;X;X;X;X;X;X|.",
" X X X X X;X;X;X;X;X`. X]..X;X;X;X;X;X;X;X;X-X;X;X;X.X).}.). X X X X}.}.}.}.|.|.}.}.}.}.).}.]. X`.|. X}.}.}.}.}.&X;X;X;X=X;X&X].",
" X X X X X.X X X X X X X}. X X X X X.X X X.X;X&X=X&X&X&X%X;X.X). X)..X&X%X%X&X&X$X%X%X&X&X=X;X X}.|. X}.$X&X&X%X X]. X X&X&X;X|.",
" X X|. X X}.}.}.}.}.|. X X}.}.}. X X X X)..X;X;X;X;X&X;X;X;X&X). X).$X;X;X;X;X;X;X;X;X;X;X;X;X.X).}.}.}.&X;X;X;X X X}.}.&X=X;X`.",
" X X X X X X|.|.|.|.}. X X X X X X X X X)..X;X;X;X;X;X&X;X;X$X]. X).%X;X;X;X=X;X;X;X;X;X=X;X;X.X). X|.}.%X;X;X;X X]. X}.&X&X;X|.",
" X X X X X X X X X X X X}. X X}. X X X X X.X;X;X;X;X&X;X;X;X.X). X).$X;X;X;X;X=X;X;X;X;X;X;X;X X). X X`.%X;X;X;X X]. X`.;X;X;X}.",
"].^.^.^.^.^.^.^.^.^. X|. X X X X). X X|. X X X X X X X X X X X}. X|. X X X X X X X X X X X X X&X&X&X=X;X X X X X;X;X=X=X X X X}.",
" X^.M.M.M.M.v.M.^.^. X X X X]. X X X X X]. X}.}. X X X}.}.}. X X X X X}. X X X X}.}.}.}.}.}.).&X;X;X;X;X.X|. X}.&X;X;X;X X X X X",
"}.^.M.M.^.M.^.v.^.^. X X X X X X X X X}. X}.}. X X X X X X X X X X X}. X X X X X X X|. X}.}.).$X;X;X;X;X X X X}.&X;X;X;X X X X X",
"|.^.^.M.^.M.M.^.M.^. X]. X X X}. X X X X X X}. X X X X X|. X X|.}. X X X X X X X}. X X X}.|.).%X;X;X;X;X X X|.}.%X&X;X;X X X X X",
"|.|.}.}.}.|.|.|.|.|. X X X X X X X X|. X X|. X X X X X X X X X}. X X]. X X X X X X|. X}. X X X X X X X|.}. X|. X X X X X X X X X",
" X X}. X}. X X}.|. X}. X}. X|. X X X X|. X X}. X X|. X}. X}. X|. X}. X X X X X X X X X X|. X X X}. X|. X}.|. X}. X|.|. X X X X|.",
"}. X X X|. X X X X X X|. X X X}. X}. X X X|. X X}. X X X X X X X X X X}.}. X X}.|.}. X}. X X|. X X X X}. X X X X X X X X}. X}. X",
" X X X]. X X X|.}. X X X X|. X X|. X}. X}. X X X X X X X|. X X}. X X X X X X X|. X X}. X}. X X X X X X X X X X X X X|.}. X X X X",
" X|.|.}. X X X X]. X X}. X X X|. X}. X X X|. X X|. X]. X}. X X X X}.]. X|.}. X X X X|. X X|. X}. X}. X|.}. X|. X}. X X X X). X X",
" X X X|.}. X X}. X X X X X X X X X X}. X X X X X X X X X X X X X}. X X|. X|. X X X|. X X X X X X X}. X|. X X X}.|. X X|. X X X|.",
"}. X}. X X]. X X X}.}. X|.}. X}. X|. X]. X X X X}. X|.}. X}.}.|. X X X}. X`. X X X}.}. X X X|. X X|.}. X}. X X|. X X X X X X X X",
" X X X X|. X X X X}.|. X X X X|. X X}.}. X X}. X X}. X X]. X}. X|. X X X}. X|. X X X}. X}. X X X X}. X X X X X X}. X X X X X X}.",
" X). X X X X}. X|. X X X X X}. X X X X X X X X X X X]. X X X X|. X X X X|. X X X X|. X X X|.|. X X X|. X X|.}. X X X X|.`.|. X X",
" X X X`.|. X X|.}. X|. X`.|.}. X X.X;X;X;X%X).`.}. X]. X}. X X X}. X X X|. X X X|.}. X X X X|. X X X X X X X X X X}.|. X X X X|.",
" X X X|. X X X X X|. X X X X X X)..X;X-X;X&X}. X X X X X|. X X}. X|. X}. X X}. X X X}. X X X X X X X X X X}. X}. X|. X}. X}. X X",
" X X X X}. X X X}. X X X X X X|.`..X;X;X;X$X).}.|. X X X X X X X X X X|. X X X|.|.|.}.}. X|. X X X X X X}.}.`.}. X|. X X X X}.}.",
"|. X}. X|./.{.}.{.}. X X|. X X X}. X;X&X;X$X).}. X}. X X X}.|. X X}. X X X|. X X X X.X X.X X.X X X X X X X X$X X X X X X.X X X|.",
"}. X X X}.v.v.v.v.^.]. X}. X X X|.|.).{.).].].|. X X X|. X X X X|. X X X X X}.$X;X;X;X;X;X;X;X.X|. X X).&X;X;X;X X}. X X;X;X;X|.",
" X X X X}.M.^.M.^.^. X X|. X X|.|.|.|.).H J |.|. X X X X X X|. X X}. X X X|.}.$X;X;X;X;X;X;X;X.X). X X).%X;X=X;X X X X].&X;X;X X",
" X X|. X}.v.v.v.M.^. X`. X X X X|. X|.{.Z Z |. X X X X X}. X X X X X X X X X}.$X;X;X;X;X;X;X;X X).).`.).%X;X;X;X X X).).&X;X;X}.",
"}. X|.|.}./.^.^.^./.].P.P.`. X X|. X{.P.6 p (.].).].).]. X|.|.`.`.).`.`.`.|.}.$X;X;X;X;X;X;X;X$X X.X.X X%X;X;X;X$X X.X X&X&X;X}.",
" X X}. X|. X X X[. X_.s r O.].]. X X XC.r k 4 B B C 5.c. X]. X..[ [ >.>._.].].$X;X;X;X3.^  .J '.;X;X;X;X1.2.;X;X;X;X;X;X;X;X*X X",
" X X X X X X X]. X X_.s s J.]. X|.|.}.C.s y 4 B V C o L. X X}...[ R *.~ [.].).$X;X;X;X3.~  .H '.;X;X;X;X,.2.;X;X;X;X;X*X;X;X=X X",
" X X|. X X}. X}. X X X&.~ J.].`.}.|.}.U.! ,.U = = % $ 0 Y.Y.R.1.>.*.3 < B. X).$XT.T.oX2.,.$.] +.%X#X#X@X@.-.#X#X*X;X;X;X=X;X;X X",
"}. X X}. X X|. X X X X,.~ :.H J }.}.}.U.^ <.j & , # @ $ *.>.,.^ ^ ~ ; - B. X].$Xt r l <.,.Q [ [ Y [ T @.v v ' [ @X;X;X;X;X;X;X X",
"|. X|. X}. X X X|.].).<.~ :.G K }.|. XU.&.&.j ; 2 : : > ~ ^ *.%.%.%.> : K.].`..Xd d f E E [ ) ) [ ` T _ x x _ [ +X$X$X$X%X$X$X X",
" X X X X X X X].g a #.,.^ *.Y [ ..O.O.=.v v z s s s s s ~ ^ | q.r.q.m n d.!.!.J.[ [ L * & w r.q.) R [ i * * P [ I.`.}.{.`.}.}. X",
"}.|. X}.|.}. X}.a t E ,.,.*.` [ ` T R c v v z e s s t s *.^ } q.i.s.m n N z.z.X.R [ L , - w r.d.( R [ p * - L [ _.}.}.}.}.}. X X",
" X).).).).).).).a t E ,.^ *.R ` [ [ [ c b v z e t r t s ^ ^ | w.w.w.M n N K.z.X.R [ L , - w r.r.( Y [ p * * L [ I.}.).).{.}.`. X",
" X.X.X.X.X.X.X.X} Y i 2 3 5 [ [ [ ` [ 5 < ; a ~ ! ;.F.D.p.i.j.n.n.b.4.. 8.S.z.X.Y R P e e p { ] u.i.i.S P P R ' [.$X$X.X.X$X.X}.",
"|.;X;X;X;X-Xz.N.` [ u & * 1 [ ` [ Y [ 1 & & p <.~ F.F.F.d.r.j.m.m.m.5.X 9.S.z.X.R T U r r f R Y u.w.q.F R Y [ R @X;X;X;X;X;X;X X",
" X;X;X;X;X*Xz.N.Y [ i ; ; 3 [ [ ` T R 5 1 < h ,.^ ;.-.-.y.N f.n.b.b.5.X 9.S.S.o./ ) _ a s P ) ( p.f.r.a.} C.=X%X=X=X;X;X;X=X;X X",
"}.;X-X-X-X-Xz.N.Y [ f s r d [ [ [ [ [ [ [ [ $.,.^ d e e # @ 7 r.6.6.4.X e.W.W.j.w.r.y.R R F r.w.l.S.A.H.XX@X;X=X=X=X=X=X=X=X;X X",
"|.=X&X&X;X#Xz.N.I R f r r d [ ` I Y Y I Y Y W ~ ^ l r r # + 7 f.d.d.X X e.W.W.j.6.r.u.Y W D r.6.l.S.S.H.XXOX$X.X&X=X&X;X;X=X;X).",
" X&X=X;X;X;XG.A.X.o.` f f j [ Y | o.o.V.V.V.O.+.+.A q q 8 8 9 7.7.C 9.9.t.z.x.f.w.w.i.) D u.r.6.f.k.k.k.Z.E.}.).&X;X;X&X=X;X;X X",
" X=X;X&X;X;X~.E.z.x.o.R [ [ [ Y o.x.z.Q.XXXXQ.z.S.0.X O d.d.7.  C C g.h.h.g.h.d.w.i.r.r.w.r.d.s.6.6.i.6.6.h. X}.&X=X=X;X;X;X;X).",
"]. X].]. X X X X X|. X|.|. X|.}. X X X X X X X X X}.}.}.].].].`.`._.|.}.}.|.}.}. X}.}. X|.`. X X X].).). X X X].].). X|.}. X X X"
};
