/* XPM */
static char *_18b4dff1f5f498a8174075914390c87hazIFmN8JNis5emc[] = {
/* columns rows colors chars-per-pixel */
"64 64 141 2 ",
"   c black",
".  c #030B1D",
"X  c #2E170F",
"o  c #701000",
"O  c #583838",
"+  c #172D64",
"@  c #B02000",
"#  c red",
"$  c #D74C09",
"%  c #E84000",
"&  c #FF7114",
"*  c #E65D25",
"=  c #46AD0A",
"-  c #4AAC0F",
";  c #4CB20C",
":  c #50B50F",
">  c #57B711",
",  c #5AB513",
"<  c #5BBB12",
"1  c #66BF17",
"2  c #71A633",
"3  c #72A832",
"4  c #5AD60F",
"5  c #5DD90F",
"6  c #6FC617",
"7  c #72C618",
"8  c #69D617",
"9  c #62D811",
"0  c #6BD915",
"q  c #74D916",
"w  c #78D61B",
"e  c #6DE014",
"r  c #6DDB23",
"t  c #7EE626",
"y  c #78EC2A",
"u  c #8EBA38",
"i  c #A9B02D",
"p  c #B3A333",
"a  c #B7A936",
"s  c #B3B635",
"d  c #F88020",
"f  c #81CF1C",
"g  c #87D41C",
"h  c #8ED71F",
"j  c #8EDA1D",
"k  c #92D71F",
"l  c #91DA1D",
"z  c #85EB19",
"x  c #8DE91C",
"c  c #9AEB1F",
"v  c #9DFB1F",
"b  c #A0FC1F",
"n  c #90CF27",
"m  c #91CC2A",
"M  c #8DD622",
"N  c #8BDA22",
"B  c #91D422",
"V  c #92D921",
"C  c #94D028",
"Z  c #9ADC2A",
"A  c #AACF2A",
"S  c #A4CD3B",
"D  c #A8D834",
"F  c #B0DA3C",
"G  c #83E629",
"H  c #98E624",
"J  c #9DF320",
"K  c #8CE230",
"L  c #90EB36",
"P  c #A3E923",
"I  c #A4FB21",
"U  c #A8F924",
"Y  c #A8F629",
"T  c #B7F637",
"R  c #8D9D4F",
"E  c #8E9A54",
"W  c #929D54",
"Q  c #959C58",
"!  c #8FA848",
"~  c #91A64C",
"^  c #93AE48",
"/  c #98BD41",
"(  c #97A354",
")  c #A6AE55",
"_  c #A5B154",
"`  c #A7B958",
"'  c #B9BF57",
"]  c #B3BC58",
"[  c #BABF5B",
"{  c #F0BE5F",
"}  c #E09060",
"|  c #F0BF60",
" . c #AEC64A",
".. c #B4DE46",
"X. c #AAC25D",
"o. c #B6C656",
"O. c #BCC258",
"+. c #BDC362",
"@. c #BFD160",
"#. c #C4DB47",
"$. c #C4C95F",
"%. c #DAD85B",
"&. c #E5D65E",
"*. c #C8E45D",
"=. c #C1C767",
"-. c #D8D673",
";. c #F0C261",
":. c #F0C963",
">. c #EFD665",
",. c #E5D861",
"<. c #EDD966",
"1. c #E2D469",
"2. c #EFD768",
"3. c #EDDA68",
"4. c #F0D667",
"5. c #F0D867",
"6. c #F0D768",
"7. c #F0D868",
"8. c #F3DE71",
"9. c #C4E56C",
"0. c #EAE26F",
"q. c #E5E777",
"w. c #EDE676",
"e. c #ECE877",
"r. c #F4E075",
"t. c #F6E57C",
"y. c #F8E77F",
"u. c #F7E87F",
"i. c #F8E87F",
"p. c #0820B0",
"a. c #223FC1",
"s. c #0028F8",
"d. c #808080",
"f. c #B898A0",
"g. c #F8B080",
"h. c #F0B090",
"j. c #E5C697",
"k. c #F6E880",
"l. c #F8E981",
"z. c #E0C8C8",
"x. c #FCFEFC",
/* pixels */
"7.5.7.6.5.7.7.5.5.5.7.7.7.7.7.7.7.7.7.7.7.7.7.7.7.7.5.7.7.7.        o o     7.7.7.7.7.7.7.7.7.7.6.7.7.7.2.7.7.7.2.7.7.7.7.7.7.7.",
"7.r.r.r.8.r.r.r.r.r.r.r.r.r.r.r.r.r.r.r.r.r.>.7.7.7.7.7.    o o     # # o o                 7.7.7.7.7.>.r.r.r.r.7.5.7.7.7.7.7.7.",
"7.l.l.l.l.4.>.4.>.7.l.l.l.l.l.l.l.l.l.l.l.t.4.5.5.7.5.7.    o o     # # o o                 7.7.2.7.7.>.k.l.l.l.7.7.7.7.7.7.7.7.",
"7.l.l.l.t.5.5.7.4.7.l.l.l.l.l.l.l.l.l.l.l.y.>.5.7.7.6.7.    @ @ o o @ @ o o     # # # # @ @     7.7.7.>.i.l.l.l.7.7.7.7.5.7.7.7.",
"7.l.k.l.t.4.5.4.>.7.l.t.l.l.l.l.i.l.l.l.l.t.>.7.>.>.7.7.    @ @ o o @ @ o o     # # # # @ @     7.7.7.>.i.l.l.l.7.4.2.7.7.5.7.7.",
"2.l.i.l.y.r.r.r.r.t.l.l.l.l.l.l.l.y.        r.r.r.r.    @ @ o o @ @ @ @ o o # # @ @ o o     7.7.7.7.7.>.8.r.r.8.7.5.7.7.7.7.7.7.",
"7.i.l.i.l.l.l.l.l.l.l.y.t.l.l.y.l.t.        l.l.l.l.    @ @ o o @ @ @ @ o o # # @ @ o o     7.7.7.5.7.7.>.>.>.>.7.7.7.6.7.7.5.7.",
"7.i.i.l.y.l.l.l.l.l.l.l.l.i.l.i.    @ @ @ @         @ @ o o X X X X X X @ @ @ @ o o X X X X     7.7.7.7.2.7.7.7.7.7.5.7.7.5.7.7.",
"7.i.l.y.l.l.l.l.l.l.l.l.l.l.l.l.    @ @ @ @         @ @ o o X X X X X X @ @ @ @ o o X X X X     4.7.7.5.7.7.7.7.7.7.7.7.7.7.7.7.",
"7.y.y.l.l.l.l.l.l.l.l.l.l.l.    o o o o o o @ @ % % o o o o o o X X X X X X o o X X X X @ @     7.7.7.7.7.7.7.7.7.7.7.5.<.6.6.7.",
"7.y.l.l.t.8.8.8.8.8.8.8.8.8.    o o o o o o @ @ % % o o o o o o X X X X X X o o X X X X @ @     7.7.2.7.7.6.7.>.7.7.7.7.7.6.7.7.",
"5.i.l.l.t.4.>.4.4.4.>.>.>.>.4.>.    o o     o o @ @ % % @ @ X X X X X X X X @ @ X X X X X X     5.7.7.5.7.7.7.7.7.7.7.7.7.7.5.7.",
"7.i.k.l.t.7.7.7.6.7.6.7.6.6.7.7.    o o     o o @ @ % % @ @ X X X X X X X X @ @ X X X X X X     7.7.5.7.7.7.6.5.7.6.5.7.5.7.6.7.",
"7.i.l.l.t.7.7.7.7.7.4.6.>.>.7.6.7.5.    o o     o o @ @ % % % % % % x.x.f.f.X X f.f.z.z.o o     7.2.7.7.5.7.7.7.5.7.7.7.7.7.7.5.",
"6.y.y.l.y.7.7.7.4.7.l.r.t.r.>.7.7.7.    o o     o o @ @ % % % % % % x.x.f.f.X X f.f.z.z.o o     7.7.7.5.7.7.7.7.7.7.7.6.7.7.7.7.",
"6.y.y.l.y.7.7.7.7.7.l.l.l.t.>.7.7.7.    o o o o @ @ % % $ $ $ $ x.x.z.z.    @ @     z.z.    7.7.7.7.        7.4.7.7.7.5.7.6.7.5.",
"7.y.l.l.l.7.7.7.5.7.l.l.l.i.>.4.4.5.    o o o o @ @ % % $ $ $ $ x.x.z.z.    @ @     z.z.    7.7.4.7.        7.7.7.7.7.7.7.5.7.7.",
"7.l.l.l.l.4.>.>.4.7.l.l.l.t.>.>.    o o % % @ @ $ $ $ $ * * * * x.x.z.z.    @ @     z.z.o o         d.d.. .     >.4.>.4.>.>.>.6.",
"7.7.8.7.8.l.t.r.t.t.7.7.8.r.y.t.    o o % % @ @ $ $ $ $ * * * * x.x.z.z.    @ @     z.z.o o         d.d.. .     r.t.t.t.t.t.t.4.",
"7.>.7.>.7.l.l.l.l.i.7.4.>.7.    d d & & @ @ % % $ $ * * * * g.g.z.z.f.f.f.f.@ @ f.f.f.f.o o o o . . . . . .     i.l.l.l.l.l.l.7.",
"7.7.7.7.7.l.l.l.l.i.<.7.7.7.    d d & & @ @ % % $ $ * * * * g.g.z.z.f.f.f.f.@ @ f.f.f.f.o o o o . . . . . .     k.l.l.l.l.l.y.6.",
"7.7.7.7.7.l.l.l.l.i.<.5.    d d & & % % % % $ $ * * * * g.g.j.j.g.g.g.g.g.g.g.g.@ @ @ @ % % % % g.g.        7.5.y.l.l.l.l.y.l.7.",
"7.7.7.7.7.l.l.l.l.l.2.7.    d d & & % % % % $ $ * * * * g.g.j.j.g.g.g.g.g.g.g.g.@ @ @ @ % % % % g.g.        6.4.i.k.l.l.i.l.y.7.",
"7.7.7.7.7.8.7.7.7.7.7.7.    d d & & % % @ @ $ $ * * d d } } h.h.j.j.j.j.j.j.j.j.j.j.g.g.g.g.g.g.O O     r.i.t.t.8.7.7.7.t.y.l.5.",
"7.7.7.7.7.4.5.4.4.4.7.2.    d d & & % % @ @ $ $ * * d d } } h.h.j.j.j.j.j.j.j.j.j.j.g.g.g.g.g.g.O O     i.l.l.l.7.7.4.5.t.l.i.7.",
"7.2.7.7.7.7.7.7.7.5.    d d & & % % % % o o * * d d & & } } } } h.h.O O j.j.j.j.g.g.g.g.O O         7.<.t.l.l.l.7.7.7.7.i.l.y.7.",
"7.7.7.7.7.7.7.7.7.7.    d d & & % % % % o o * * d d & & } } } } h.h.O O j.j.j.j.g.g.g.g.O O         7.5.t.l.l.l.7.4.7.7.k.l.l.5.",
"7.;.;.;.;.;.;.;.;.;.    & & & & % % o o % % d d & & & & @ @ } } } } g.g.g.g.g.g.O O         7.r.y.y.i.l.7.7.7.7.i.i.y.t.7.7.7.7.",
"7.;.| | | | { | ;.;.    & & & & % % o o % % d d & & & & @ @ } } } } g.g.g.g.g.g.O O         4.t.l.l.l.l.8.4.7.4.y.l.l.l.7.7.7.7.",
"4.;.;.{ ;.| ;.|     d d & & % % o o % % d d & & & & @ @ @ @ @ @ o o O O             7.7.5.5.4.r.l.l.l.l.7.7.7.5.y.l.l.l.7.7.7.7.",
"7.;.;.;.;.;.{ ;.    d d & & % % o o % % d d & & & & @ @ @ @ @ @ o o O O             6.7.7.7.4.t.l.l.l.l.7.7.7.4.t.i.l.l.7.7.7.7.",
"2.6.4.6.4.6.6.6.    % % & & % % o o % % d d & & & & @ @ @ @ o o o o     7.7.7.7.7.7.7.5.7.7.7.7.7.7.7.7.7.5.7.7.7.7.7.7.7.7.7.7.",
"7.6.7.7.7.7.7.7.    % % & & % % o o % % d d & & & & @ @ @ @ o o o o     7.7.7.7.7.7.7.5.7.7.7.7.7.7.7.7.7.7.<.7.7.6.7.7.4.7.7.7.",
"7.7.5.7.7.4.7.7.    % % % % o o $ $ % % d d & & & & @ @ o o o o     7.7.7.7.7.6.5.7.6.7.7.7.>.7.7.7.6.7.7.5.6.7.7.7.7.5.7.7.7.5.",
"7.5.7.5.7.5.7.5.    % % % % o o $ $ % % d d & & & & @ @ o o o o     7.7.7.4.5.7.7.6.7.7.4.7.7.7.7.7.7.5.7.7.7.7.7.4.7.7.7.7.7.7.",
"6.7.6.7.7.7.6.7.7.7.    % % o o     $ $ % % d d & & @ @ o o o o         7.7.7.7.7.5.7.6.7.7.5.7.5.2.7.7.7.7.4.7.7.7.7.7.5.7.7.4.",
"7.7.7.7.7.6.7.7.7.7.    % % o o     $ $ % % d d & & @ @ o o o o         7.7.7.7.5.7.7.7.5.7.7.5.7.7.7.5.7.7.5.7.7.5.7.7.7.6.7.5.",
"7.5.7.6.<.7.7.7.7.5.    % % % % o o X X % % o o & & @ @ o o @ @ o o X X     7.5.7.6.7.5.7.6.7.7.7.7.2.7.4.7.7.2.6.7.7.5.7.7.7.7.",
"6.7.5.7.7.6.7.7.5.7.    % % % % o o X X % % o o & & @ @ o o @ @ o o X X     7.6.7.7.7.7.7.7.7.7.5.7.7.7.7.7.7.7.7.7.7.7.7.2.7.7.",
"7.5.7.7.7.7.5.6.7.7.7.7.    % %     X X o o @ @ o o & & @ @ o o     X X o o     7.5.7.7.4.7.7.7.7.6.5.7.7.7.5.7.6.<.7.5.7.7.7.4.",
"2.7.7.7.2.5.7.7.5.7.7.7.    % %     X X o o @ @ o o & & @ @ o o     X X o o     7.7.7.7.7.7.7.4.7.7.7.7.7.7.5.5.7.7.7.7.7.5.7.7.",
"5.7.5.7.7.7.5.7.7.6.6.7.                X X o o a.a.a.a.a.a.+ +     o o @ @ o o     5.7.7.7.7.7.7.7.7.7.5.7.7.5.7.7.5.7.6.7.5.7.",
"7.7.5.6.4.4.7.7.6.6.7.7.                X X o o a.a.a.a.a.a.+ +     o o @ @ o o     4.4.7.6.7.7.7.7.7.7.5.5.5.5.7.7.7.6.7.7.4.7.",
"7.7.7.7.6.4.4.4.4.4.7.7.                        X X s.s.s.s.a.a.+ + X X o o o o X X     8.7.8.7.7.7.7.7.7.7.r.7.6.7.7.7.7.7.7.7.",
"7.5.2.7.4.{ { { | ;.7.7.                        X X s.s.s.s.a.a.+ + X X o o o o X X     l.l.l.8.7.7.7.4.i.l.l.l.7.4.7.7.l.l.l.7.",
"7.7.7.7.4.| | | ;.;.7.7.7.7.            o o @ @ o o a.a.p.p.s.s.a.a.+ + o o @ @ o o     l.l.l.8.<.7.7.4.t.l.l.l.7.6.7.7.l.l.l.7.",
"7.7.6.7.4.| { { ;.;.7.7.7.7.            o o @ @ o o a.a.p.p.s.s.a.a.+ + o o @ @ o o     l.l.l.7.<.7.>.>.t.l.l.l.7.7.4.>.y.l.l.7.",
"7.5.7.7.4.:.;.;.;.:.7.%.%.,.    o o @ @ % % @ @ o o s.s.a.a.p.p.s.s.+ + o o o o     l.i.t.l.l.r.7.7.8.7.t.k.l.l.r.7.8.7.y.l.l.7.",
"7.7.7.2.2.7.7.7.7.3.,.5 9 ..    o o @ @ % % @ @ o o s.s.a.a.p.p.s.s.+ + o o o o     l.T I A p 1.l.l.l.l.Y T k.l.l.l.l.l.l.l.i.7.",
"7.5.7.7.7.5.7.7.7.7.,.9 5 #.2.2.    o o o o o o s.s.s.s.a.a.p.p.s.s.a.a.+ +     l.l.l.T v A p 1.l.l.l.l.Y T k.k.l.l.l.l.l.l.i.7.",
"7.7.5.7.7.7.7.7.7.7.3.J v #.>.<.    o o o o o o s.s.s.s.a.a.p.p.s.s.a.a.+ +     *.*.0.T b H B F r.w.u.q.G L e.w.k.l.l.l.l.l.l.7.",
"7.5.7.7.6.7.7.7.7.7.7.I v P p a 7.7.        a.a.s.s.a.a.a.a.p.p.p.p.s.s.+ +     5 5 e U b c h N N l k G y y N B e.l.l.l.l.l.l.7.",
"7.5.7.7.7.4.7.7.7.7.5.U v P i s 5.5.        a.a.s.s.a.a.a.a.p.p.p.p.s.s.+ +     0 0 q x x M m m V h l g r r M V 0.r.r.r.t.r.r.7.",
"7.7.7.5.7.7.7.>.w 8 H U b c h l D D D K     a.a.a.a.a.a.a.a.p.p.p.p.p.p.+ +     V Z g = = 2 Q E n l Z 7 - ; f V &.<.5.5.5.>.5.7.",
"7.5.7.7.7.5.7.7.0 5 z b I c V l l B B t     a.a.a.a.a.a.a.a.p.p.p.p.p.p.+ +     h V f - ; 3 ( W n h V 7 - ; w V ,.7.5.5.7.7.7.7.",
"2.>.>.>.>.>.>.>.0 4 z U b v B N M V l t         $ $ @ @         @ @ $ $                 ; 2 W W n l V 7 - - f V &.5.>.>.>.>.>.7.",
"6.8.8.8.8.8.8.8.Z N 6 > > 1 V M N l V 1         $ $ @ @         @ @ $ $                 4 w C B ^ ~ ~ u g g h V 0.7.r.r.7.r.r.7.",
"6.l.l.l.k.k.[  .l V 6 - - , V l V h     z.z.z.z.f.f.f.f.O O         X X     O O X X O O     l l ! E E u j k l V e.l.l.l.l.l.l.5.",
"6.l.k.k.l.k.[  .l V 7 ; : < V V V V     z.z.z.z.f.f.f.f.O O         X X     O O X X O O     n C ^ ( ( / Z ..l.y.l.l.i.l.i.i.l.7.",
"6.l.k.l.l.k.[  .h V q 9 9 0 V V     o o o o o o O O O O X X         X X     O O         X X     ] O.' @.9.q.l.l.l.i.l.i.l.l.l.7.",
"6.i.t.k.l.t.'  .j l q 4 5 0 l l     o o o o o o O O O O X X         X X     O O         X X     ] $.' @.9.q.r.8.t.l.l.y.i.l.i.7.",
"7.y.l.l.l.t.+.o.S S M q q w V h         X X     X X X X O O                                     ( ` _ ` X.$.>.&.t.l.y.l.l.i.l.7.",
"7.i.l.l.l.l.-.=.[ [ S l V V V h         X X     X X X X O O                                     R R R R R ) 7.4.y.l.l.y.i.l.i.7.",
"7.2.7.4.7.7.6.6.6.2.7.7.7.7.7.<.    z.z.z.z.f.f.f.f.O O O O     O O O O O O O O O O O O O O     5.5.5.>.7.7.7.7.7.7.7.5.7.7.7.5."
};
