/* XPM */
static char *_1995ad4a9a4449c93c95344c83a08aeNFqccSGsJtySZeM8[] = {
/* columns rows colors chars-per-pixel */
"64 64 145 2 ",
"   c black",
".  c #030B1D",
"X  c #2E170F",
"o  c #701000",
"O  c #583838",
"+  c #172D64",
"@  c #B02000",
"#  c red",
"$  c #D74C09",
"%  c #E84000",
"&  c #FF7114",
"*  c #E65D25",
"=  c #47AB0D",
"-  c #4AAC0F",
";  c #53A80E",
":  c #4DB30D",
">  c #50B50F",
",  c #59B612",
"<  c #7FB90D",
"1  c #66BF17",
"2  c #71A633",
"3  c #72A832",
"4  c #5BD60F",
"5  c #5DDA0E",
"6  c #65C015",
"7  c #72C618",
"8  c #78C21C",
"9  c #69D617",
"0  c #61D810",
"q  c #6AD915",
"w  c #74D916",
"e  c #7BD41A",
"r  c #73D81C",
"t  c #7CD919",
"y  c #56E20F",
"u  c #6EE11E",
"i  c #6DDB23",
"p  c #7EE626",
"a  c #77E929",
"s  c #79EB2A",
"d  c #AC8B07",
"f  c #8EBA38",
"g  c #A9B02D",
"h  c #B5A534",
"j  c #B3B635",
"k  c #F88020",
"l  c #81CF1C",
"z  c #87D41C",
"x  c #8EDA1D",
"c  c #92D71F",
"v  c #91DA1D",
"b  c #85EB19",
"n  c #9AF51F",
"m  c #9CFA1F",
"M  c #A0FC1F",
"N  c #90CF27",
"B  c #91CC2A",
"V  c #8DD622",
"C  c #89DB22",
"Z  c #91D522",
"A  c #92D920",
"S  c #94D028",
"D  c #9ADC2A",
"F  c #A4CD3B",
"G  c #A8D834",
"H  c #83E629",
"J  c #96E727",
"K  c #9DF320",
"L  c #9AF723",
"P  c #8CE230",
"I  c #90EB36",
"U  c #A3E923",
"Y  c #A3FA21",
"T  c #A9FB23",
"R  c #A8F629",
"E  c #B6F538",
"W  c #8D9D4F",
"Q  c #8E9A54",
"!  c #929D54",
"~  c #959C58",
"^  c #8FA848",
"/  c #91A64C",
"(  c #93AE48",
")  c #98BD41",
"_  c #97A354",
"`  c #A6AE55",
"'  c #A5B154",
"]  c #A7B958",
"[  c #B9BF57",
"{  c #B3BC58",
"}  c #BABF5B",
"|  c #BEBC60",
" . c #F0BE5F",
".. c #E09060",
"X. c #F0BF60",
"o. c #AEC64A",
"O. c #B2DC44",
"+. c #B8D845",
"@. c #AAC25D",
"#. c #B6C656",
"$. c #BCC258",
"%. c #BDC362",
"&. c #BFD160",
"*. c #C4DB47",
"=. c #C4C95F",
"-. c #D9D359",
";. c #DAD85B",
":. c #E5D65E",
">. c #E3DC5D",
",. c #C1C767",
"<. c #D8D673",
"1. c #F0C261",
"2. c #F0CB64",
"3. c #EFD665",
"4. c #E5D861",
"5. c #EDD966",
"6. c #EFD768",
"7. c #EDDA68",
"8. c #F0D667",
"9. c #F0D867",
"0. c #F0D768",
"q. c #F0D868",
"w. c #F3DE71",
"e. c #C4E56C",
"r. c #EAE26F",
"t. c #E5E777",
"y. c #EDE676",
"u. c #ECE877",
"i. c #F4E075",
"p. c #F6E57C",
"a. c #F8E77F",
"s. c #F7E87F",
"d. c #F8E87F",
"f. c #0820B0",
"g. c #223FC1",
"h. c #0028F8",
"j. c #808080",
"k. c #B898A0",
"l. c #F8B080",
"z. c #F0B090",
"x. c #E5C697",
"c. c #F6E880",
"v. c #F8E981",
"b. c #E0C8C8",
"n. c #FCFEFC",
/* pixels */
"q.9.q.q.9.9.9.9.9.9.q.q.q.q.q.q.q.q.q.q.q.q.q.q.q.q.    o o         q.q.q.q.q.q.9.q.q.0.q.0.q.q.q.q.q.q.3.3.q.7.q.q.q.q.q.q.q.q.",
"q.i.i.w.i.i.i.i.w.i.i.p.i.i.i.i.i.i.                o o # #     o o     q.q.0.8.2.8.2.8.9.q.q.q.9.q.q.8.i.p.i.i.q.9.q.q.q.q.q.q.",
"q.v.v.v.v.3.3.8.8.q.v.v.v.v.v.v.v.v.                o o # #     o o     q.q.0.q.q.q.q.q.q.q.q.8.q.q.q.3.s.v.v.v.q.q.q.q.q.q.q.q.",
"q.v.v.v.p.9.q.q.8.q.v.v.v.v.v.v.    @ @ # # # #     o o @ @ o o @ @     0.q.q.0.q.q.q.q.7.0.q.q.q.q.q.3.v.v.v.v.q.q.q.q.q.q.0.q.",
"q.v.v.v.p.3.q.8.3.q.v.v.v.v.v.v.    @ @ # # # #     o o @ @ o o @ @     q.q.q.q.q.9.q.q.q.q.q.q.q.9.9.3.p.v.v.v.q.8.9.q.q.q.q.q.",
"q.v.a.v.a.i.i.i.i.i.v.v.v.v.v.v.v.a.    o o @ @ # # o o @ @ @ @ o o @ @     q.q.q.q.        9.q.q.q.q.9.w.i.i.w.q.0.q.q.0.q.q.q.",
"q.v.v.d.v.v.v.v.v.v.v.v.v.a.v.a.v.i.    o o @ @ # # o o @ @ @ @ o o @ @     0.q.q.q.        q.q.q.q.0.q.6.3.3.3.q.q.q.q.q.q.0.q.",
"q.v.v.v.v.a.v.v.v.v.p.v.d.v.a.v.    X X X X o o @ @ @ @ X X X X X X o o @ @         @ @ @ @     q.9.q.q.q.q.q.q.q.q.9.q.0.q.q.9.",
"8.a.a.v.v.v.v.v.v.v.v.v.v.v.v.v.    X X X X o o @ @ @ @ X X X X X X o o @ @         @ @ @ @     q.q.9.q.9.q.q.q.q.q.q.q.q.q.0.q.",
"q.a.v.v.v.v.v.v.v.v.v.v.v.v.v.v.    @ @ X X X X o o X X X X X X o o o o o o % % @ @ o o o o o o     q.q.q.q.q.8.q.q.q.q.9.q.q.q.",
"q.d.v.v.a.w.w.w.w.w.w.w.w.w.w.w.    @ @ X X X X o o X X X X X X o o o o o o % % @ @ o o o o o o     q.q.q.q.q.q.q.q.q.q.9.q.9.q.",
"9.d.v.v.p.3.3.8.q.0.8.3.8.8.0.0.    X X X X X X @ @ X X X X X X X X @ @ % % @ @ o o     o o     q.q.9.q.0.q.0.0.q.q.q.q.q.0.q.q.",
"q.d.v.v.p.q.q.q.q.q.q.q.8.0.q.q.    X X X X X X @ @ X X X X X X X X @ @ % % @ @ o o     o o     q.8.q.q.q.9.q.7.0.q.q.q.q.0.q.9.",
"q.a.p.v.p.q.q.q.q.9.3.8.3.3.0.q.    o o b.b.k.k.X X k.k.n.n.% % % % % % @ @ o o     o o     9.q.q.q.q.q.0.q.q.q.q.q.9.q.q.q.q.q.",
"0.p.v.v.a.q.q.q.8.q.p.i.p.i.3.q.    o o b.b.k.k.X X k.k.n.n.% % % % % % @ @ o o     o o     q.q.q.q.q.9.q.q.0.q.q.q.q.0.q.q.q.q.",
"q.v.v.v.d.q.q.q.q.q.        3.q.q.q.    b.b.    @ @     b.b.n.n.$ $ $ $ % % @ @ o o o o     q.q.8.q.q.q.q.9.q.q.q.9.9.q.q.0.q.9.",
"q.v.v.v.v.q.q.q.q.q.        q.q.q.q.    b.b.    @ @     b.b.n.n.$ $ $ $ % % @ @ o o o o     q.q.q.q.q.9.q.0.q.q.q.q.q.q.q.9.q.q.",
"0.v.v.v.v.9.3.8.    . . j.j.        o o b.b.    @ @     b.b.n.n.* * * * $ $ $ $ @ @ % % o o     q.q.q.q.q.q.q.9.3.3.8.8.3.3.3.q.",
"0.q.w.q.w.a.p.i.    . . j.j.        o o b.b.    @ @     b.b.n.n.* * * * $ $ $ $ @ @ % % o o     q.q.q.q.q.9.q.9.i.p.p.p.p.a.i.q.",
"q.6.8.3.q.v.v.v.    . . . . . . o o o o k.k.k.k.@ @ k.k.k.k.b.b.l.l.* * * * $ $ % % @ @ & & k k     q.0.q.q.q.8.d.v.v.v.v.v.v.q.",
"q.q.q.q.q.v.v.v.    . . . . . . o o o o k.k.k.k.@ @ k.k.k.k.b.b.l.l.* * * * $ $ % % @ @ & & k k     q.q.q.q.9.8.v.v.v.v.v.v.a.0.",
"q.q.q.q.q.v.v.v.v.p.        l.l.% % % % @ @ @ @ l.l.l.l.l.l.l.l.x.x.l.l.* * * * $ $ % % % % & & k k     9.q.9.8.p.v.v.v.v.v.v.0.",
"q.q.q.q.q.v.v.v.v.v.        l.l.% % % % @ @ @ @ l.l.l.l.l.l.l.l.x.x.l.l.* * * * $ $ % % % % & & k k     8.q.q.8.s.v.v.v.d.v.v.8.",
"q.q.q.q.q.q.w.q.q.q.q.q.    O O l.l.l.l.l.l.x.x.x.x.x.x.x.x.x.x.z.z.....k k * * $ $ @ @ % % & & k k     i.p.a.p.w.q.q.q.p.a.v.q.",
"q.q.q.q.q.9.8.9.8.8.q.q.    O O l.l.l.l.l.l.x.x.x.x.x.x.x.x.x.x.z.z.....k k * * $ $ @ @ % % & & k k     s.v.v.v.q.q.8.8.p.v.d.q.",
"q.q.q.q.q.q.q.q.q.q.9.q.q.9.        O O l.l.l.l.x.x.x.x.O O z.z.........& & k k * * o o % % % % & & k k     v.v.q.q.q.q.d.v.v.q.",
"q.q.q.q.q.q.q.q.7.q.q.q.q.q.        O O l.l.l.l.x.x.x.x.O O z.z.........& & k k * * o o % % % % & & k k     v.v.q.q.q.q.v.v.d.q.",
"q.1.1.1.1.1.1.1.1.1.q.q.q.q.q.9.q.q.        O O l.l.l.l.l.l.........@ @ & & & & k k % % o o % % & & & &     q.q.s.v.p.a.q.q.q.0.",
"q.1.X.X.X.X.X.X.1.1.q.q.q.q.q.q.q.q.        O O l.l.l.l.l.l.........@ @ & & & & k k % % o o % % & & & &     q.9.a.v.v.v.q.q.q.q.",
"q.1.X.X.X.1.X.X.1.1.q.q.q.q.q.q.q.q.q.q.q.q.            O O o o @ @ @ @ @ @ & & & & k k % % o o % % & & k k     p.v.v.v.q.q.q.q.",
"q.1.1.1.1.X.1.1.1.1.q.q.q.q.q.q.q.q.q.q.q.9.            O O o o @ @ @ @ @ @ & & & & k k % % o o % % & & k k     p.v.v.v.q.q.q.q.",
"q.0.0.0.0.0.8.0.0.0.q.q.q.q.q.q.q.q.q.q.q.q.q.q.q.q.q.q.    o o o o @ @ @ @ & & & & k k % % o o % % & & % %     q.q.q.q.q.q.q.q.",
"q.q.q.0.8.q.q.9.0.q.9.q.q.9.q.q.q.9.q.q.q.q.9.q.9.q.q.q.    o o o o @ @ @ @ & & & & k k % % o o % % & & % %     q.q.q.q.9.0.0.q.",
"q.q.9.q.q.q.q.q.q.q.q.q.0.q.q.0.0.q.q.0.0.q.q.q.q.q.q.9.q.q.    o o o o @ @ & & & & k k % % $ $ o o % % % %     q.q.q.q.q.7.q.q.",
"q.8.q.q.q.q.0.q.q.9.0.q.q.q.9.q.q.q.9.q.q.9.q.q.q.q.q.q.q.q.    o o o o @ @ & & & & k k % % $ $ o o % % % %     q.q.q.q.q.q.q.8.",
"q.q.9.q.q.q.q.q.q.q.q.9.q.q.q.q.9.q.q.q.q.q.q.q.8.q.q.q.        o o o o @ @ & & k k % % $ $     o o % %     q.q.9.q.q.9.9.q.q.q.",
"q.9.q.q.q.8.q.0.q.9.q.q.q.0.q.q.q.0.q.q.q.q.q.q.q.0.q.q.        o o o o @ @ & & k k % % $ $     o o % %     q.q.q.q.q.q.q.q.0.q.",
"q.q.q.q.q.q.q.7.0.q.q.q.q.q.9.q.q.q.q.9.q.q.q.q.q.7.    X X o o @ @ o o @ @ & & o o % % X X o o % % % %     q.q.q.q.8.q.q.q.q.9.",
"q.q.0.q.9.q.q.q.q.q.q.8.0.0.q.q.q.q.8.8.q.q.q.q.q.q.    X X o o @ @ o o @ @ & & o o % % X X o o % % % %     q.q.q.q.9.q.q.q.q.q.",
"0.q.q.9.q.0.q.q.9.q.q.q.7.q.9.q.q.q.q.q.q.q.q.q.    o o X X     o o @ @ & & o o @ @ o o X X     % %     q.q.q.q.q.9.q.q.q.q.8.q.",
"q.9.q.0.q.9.q.q.9.q.q.q.q.9.q.q.q.w.v.v.v.s.3.q.    o o X X     o o @ @ & & o o @ @ o o X X     % %     q.q.9.q.q.q.q.9.q.q.q.q.",
"q.q.9.q.q.q.0.7.q.0.q.0.q.q.8.q.3.w.v.v.v.s.    o o @ @ o o     + + g.g.g.g.g.g.o o X X                 q.q.q.9.q.0.q.q.0.q.q.9.",
"q.q.0.q.q.q.q.q.0.q.q.q.q.9.q.q.3.q.v.v.v.p.    o o @ @ o o     + + g.g.g.g.g.g.o o X X                 9.9.9.9.9.q.q.q.0.0.3.q.",
"q.9.q.q.q.2.8.8.8.8.q.q.0.q.q.q.3.w.v.s.    X X o o o o X X + + g.g.h.h.h.h.X X                         q.q.i.q.q.q.q.0.q.w.q.q.",
"q.q.q.9.8. . . . .1.q.q.0.7.q.0.q.q.3.3.    X X o o o o X X + + g.g.h.h.h.h.X X                         s.v.v.v.q.8.q.q.v.v.v.q.",
"9.q.q.q.8.X. .1.1.1.q.q.0.q.q.q.q.q.7.3.    o o @ @ o o + + g.g.h.h.f.f.g.g.o o @ @ o o             q.q.p.v.v.v.q.8.q.q.v.v.v.q.",
"q.q.q.q.8.1. . .X.1.q.3.q.9.q.9.q.q.q.3.    o o @ @ o o + + g.g.h.h.f.f.g.g.o o @ @ o o             q.3.p.v.v.v.q.q.3.q.p.v.v.8.",
"q.q.0.q.8.1.2.1.1.2.7.;.;.5.q.q.q.0.3.-.8 8     o o o o + + h.h.f.f.g.g.h.h.o o @ @ % % @ @ o o     w.q.p.v.v.v.i.q.w.q.v.d.v.q.",
"9.q.q.q.q.q.q.q.q.q.:.5 0 G q.q.q.q.q.O.5 y     o o o o + + h.h.f.f.g.g.h.h.o o @ @ % % @ @ o o     v.v.R E c.v.v.v.v.v.v.v.v.q.",
"q.q.q.9.q.9.q.q.q.q.5.5 5 *.q.q.q.9.9.+.5 5 < d     + + g.g.h.h.f.f.g.g.h.h.h.h.o o o o o o     v.v.v.v.T E c.c.v.v.v.v.v.v.v.q.",
"q.q.0.q.q.q.9.q.q.q.7.L n *.6.6.q.q.9.>.L M z ;     + + g.g.h.h.f.f.g.g.h.h.h.h.o o o o o o     y.y.u.u.H I u.y.v.v.v.v.v.v.v.q.",
"0.9.q.q.q.0.q.q.q.q.q.Y m U h h q.9.9.>.M T t =     + + h.h.f.f.f.f.g.g.g.g.h.h.g.g.        x x c c c H s s C Z u.v.v.v.v.v.v.q.",
"q.q.9.q.0.q.0.q.q.q.3.T L U g j 9.9.9.>.L L t >     + + h.h.f.f.f.f.g.g.g.g.h.h.g.g.        B B Z A v z i i C Z r.i.i.i.p.i.i.q.",
"9.q.q.q.q.q.0.7.r 9 J T M M c A G G G P a a u 5     + + f.f.f.f.f.f.g.g.g.g.g.g.g.g.    = 2 ~ Q N x D 7 - - l A :.9.9.3.5.9.9.q.",
"q.0.q.9.9.q.0.9.q 4 b Y Y K V c c x Z p a s u 5     + + f.f.f.f.f.f.g.g.g.g.g.g.g.g.    : 2 _ ! N x A 7 : - z A 4.q.9.9.9.9.9.9.",
"q.3.3.3.3.3.3.3.q 4 b Y Y K x A V c c p                 $ $ @ @         @ @ $ $         : 3 ~ ! N c A 7 - - e A :.9.8.8.8.5.9.q.",
"7.w.w.w.w.w.w.w.D V 7 , , 6 A A A V A 1                 $ $ @ @         @ @ $ $         4 e S Z ( / / f z z x V 7.i.i.w.i.i.q.q.",
"6.v.v.v.c.p.} o.v A 6 - - , A V A V     O O X X O O     X X         O O k.k.k.k.b.b.b.b.    v v ^ Q Q f x c c A u.v.v.v.v.v.v.q.",
"0.v.v.v.v.c.} o.v A 7 > > 6 A A A A     O O X X O O     X X         O O k.k.k.k.b.b.b.b.    N N ( _ _ ) D O.s.s.s.v.d.v.v.v.v.q.",
"0.v.v.c.v.c.} o.x A w 0 5 q A A     X X         O O     X X         X X O O O O o o o o o o     { $.$.&.e.t.v.v.s.s.v.d.v.v.v.q.",
"q.a.p.v.v.p.} o.x x w 5 5 0 A c     X X         O O     X X         X X O O O O o o o o o o     { $.#.&.e.t.w.w.a.d.a.v.v.v.d.q.",
"7.v.v.v.v.p.%.#.F F V w w t A x                                     O O X X X X     X X         ' ' ' ] @.=.3.3.p.v.v.v.v.d.d.q.",
"0.v.a.v.v.d.<.,.[ | F c A A V x                                     O O X X X X     X X         / Q Q W W ` q.0.p.v.v.s.v.v.v.3.",
"q.q.0.3.0.q.q.0.0.7.q.q.q.q.9.9.    O O O O O O O O O O O O O O     O O O O k.k.k.k.b.b.b.b.    6.q.7.3.q.q.q.q.q.q.q.9.q.q.q.q."
};
