/* XPM */
static char *result[] = {
/* columns rows colors chars-per-pixel */
"64 64 249 2 ",
"   c #020102",
".  c #0B0302",
"X  c #05060B",
"o  c #0A0609",
"O  c #0A080A",
"+  c #0C090B",
"@  c #130401",
"#  c #1C0401",
"$  c #1D0902",
"%  c #140C0C",
"&  c #190C09",
"*  c #040613",
"=  c #03071B",
"-  c #190E10",
";  c #1B1516",
":  c #240500",
">  c #2B0601",
",  c #240C07",
"<  c #330600",
"1  c #360701",
"2  c #3D0900",
"3  c #25130D",
"4  c #2B160E",
"5  c #2E190C",
"6  c #32160E",
"7  c #39160B",
"8  c #2E0B12",
"9  c #281815",
"0  c #341B14",
"q  c #3E2317",
"w  c #020727",
"e  c #11172F",
"r  c #291D27",
"t  c #2F2A2E",
"y  c #3A3338",
"u  c #440B01",
"i  c #4C0B01",
"p  c #4B0B08",
"a  c #530C00",
"s  c #5B0D00",
"d  c #481407",
"f  c #571505",
"g  c #5F1A00",
"h  c #640D00",
"j  c #6C0F00",
"k  c #6D0806",
"l  c #750C00",
"z  c #651702",
"x  c #6C1101",
"c  c #731200",
"v  c #7B1300",
"b  c #7A1A00",
"n  c #621F17",
"m  c #4B270F",
"M  c #592909",
"N  c #71360D",
"B  c #662718",
"V  c #432825",
"C  c #4F3230",
"Z  c #573837",
"A  c #66352B",
"S  c #56403D",
"D  c #72432D",
"F  c #09164E",
"G  c #132453",
"H  c #2B2F52",
"J  c #0B1675",
"K  c #142769",
"L  c #102B70",
"P  c #142A72",
"I  c #312467",
"U  c #443E42",
"Y  c #552F6A",
"T  c #4F4A4E",
"R  c #685357",
"E  c #705251",
"W  c #715169",
"Q  c #776969",
"!  c #787175",
"~  c #8F0903",
"^  c #831500",
"/  c #8B1500",
"(  c #891A01",
")  c #931600",
"_  c #941B01",
"`  c #9B1C00",
"'  c #AE1104",
"]  c #A41D00",
"[  c #AC1E01",
"{  c #852707",
"}  c #992200",
"|  c #8E2C12",
" . c #A92601",
".. c #B32301",
"X. c #B92A01",
"o. c #BB3208",
"O. c #9A3B2D",
"+. c #C90301",
"@. c #D30500",
"#. c #EA0400",
"$. c #C52B01",
"%. c #C33101",
"&. c #CB3401",
"*. c #CE3803",
"=. c #CC330E",
"-. c #D63901",
";. c #E33E00",
":. c #E93D00",
">. c #934B11",
",. c #A94F13",
"<. c #946A2F",
"1. c #DB4404",
"2. c #D14C12",
"3. c #DC5819",
"4. c #E84404",
"5. c #F64802",
"6. c #EC550A",
"7. c #F4590A",
"8. c #EA5014",
"9. c #D3681A",
"0. c #FB690D",
"q. c #E86618",
"w. c #F26913",
"e. c #FB6B12",
"r. c #EE7318",
"t. c #FE7215",
"y. c #F67A1B",
"u. c #DE6427",
"i. c #EC6D2D",
"p. c #E56B33",
"a. c #EB7A38",
"s. c #F07F36",
"d. c #824941",
"f. c #926A59",
"g. c #AD6A52",
"h. c #876A6C",
"j. c #8D716F",
"k. c #AF7368",
"l. c #EA7346",
"z. c #C57660",
"x. c #49AC0E",
"c. c #56B711",
"v. c #6EB225",
"b. c #5CD80F",
"n. c #6FC517",
"m. c #66D813",
"M. c #75D918",
"N. c #6DDB23",
"B. c #77EB29",
"V. c #B2AC33",
"C. c #FB821F",
"Z. c #FA8622",
"A. c #EC9326",
"S. c #EA8631",
"D. c #81CF1C",
"F. c #8DD91D",
"G. c #92D71F",
"H. c #91DA1D",
"J. c #91EE1C",
"K. c #A0FC1F",
"L. c #90CC2A",
"P. c #8BD822",
"I. c #92D921",
"U. c #94D825",
"Y. c #A6D236",
"T. c #8BE62C",
"R. c #9CF321",
"E. c #ADEF2D",
"W. c #A4FA21",
"Q. c #A8F826",
"!. c #8D9E4F",
"~. c #909950",
"^. c #93A84D",
"/. c #A6B155",
"(. c #B8BE5A",
"). c #DF8D5A",
"_. c #E28955",
"`. c #EE8E52",
"'. c #F0BE5F",
"]. c #D8926B",
"[. c #E49769",
"{. c #ED9471",
"}. c #CEB571",
"|. c #FCA666",
" X c #F0BF60",
".X c #E9A57A",
"XX c #F6AB7C",
"oX c #B3C751",
"OX c #BECC61",
"+X c #CBD554",
"@X c #E4D95E",
"#X c #CDCF6D",
"$X c #F0C261",
"%X c #F0CB64",
"&X c #EFD665",
"*X c #EBD965",
"=X c #F0D667",
"-X c #F0D867",
";X c #F0D768",
":X c #F0D868",
">X c #F3DE71",
",X c #CDE46D",
"<X c #EAE26F",
"1X c #EBE776",
"2X c #F4E075",
"3X c #F6E57C",
"4X c #F7E77F",
"5X c #F8E87F",
"6X c #071A86",
"7X c #183191",
"8X c #203694",
"9X c #051EAE",
"0X c #0924BA",
"qX c #1832B0",
"wX c #233EBE",
"eX c #0725C4",
"rX c #1B38C4",
"tX c #0B2CDB",
"yX c #1236D4",
"uX c #213FC4",
"iX c #0529E9",
"pX c #1033E2",
"aX c #0127F8",
"sX c #2342CC",
"dX c #9B8689",
"fX c #AA8E93",
"gX c #AA8D96",
"hX c #B5949B",
"jX c #BA9BA6",
"kX c #BCA3A6",
"lX c #CB9A8E",
"zX c #D4AA95",
"xX c #ECAB88",
"cX c #EBB98B",
"vX c #F7B486",
"bX c #F3B18D",
"nX c #EBBA94",
"mX c #CCAFB4",
"MX c #CCB6B8",
"NX c #EDC08E",
"BX c #E5C395",
"VX c #F6E880",
"CX c #F8E981",
"ZX c #E9CDB0",
"AX c #E4CBCA",
"SX c #E5D6D1",
"DX c #E9D7D6",
"FX c #F0D7D4",
"GX c #F6F0ED",
/* pixels */
":X-X:X;X:X:X:X-X-X-X:X:X:X:X:X:X:X:X:X:X:X:X:X:X:X:X-X:X  s x < @ . o ;X;X;X;X;X-X-X-X=X:X:X:X:X:X:X:X:X:X:X:X:X:X:X:X:X;X-X:X:X",
":X2X2X2X>X2X2X2X2X2X2X2X2X2X2X2X2X3X2X2X2X>X&X:X:X:X:X    s v ~ ~ 2 X o ;X;X;X;X%X=X%X=X:X-X:X=X:X-X:X=X2X2X2X2X:X-X-X:X:X:X:X;X",
":XCXCXCX4X&X&X&X&X:XCXCXCXCXCXCXCXCXCXCXCX3X&X-X-XX o @ : i h +.+.k > @ X :X;X;X>X*X:X:X:X-X:X:X:X:X-X&X5XCXCXCX:X:X:X:X:X;X:X-X",
":XCXCXCX4X;X:X:X=X:XCXCXCXCXCXCXCXCXCXCXCX4X&X:X:XX % i / > > v ~ ' l < X X X ;X:X:X:X:X:X:X:X:X:X:X:X&XCXCXCXCX>X&X:X:X-X:X:X:X",
":XCXCXCX4X&X;X=X=X:XCX4XCXCXCXCX5XCXCXCXCX3X&X&X=XX @ x $.< : a l @.+.k > o o ;X-X-X-X:X:X:X-X-X:X:X:X&X4XCXCXCX:X&X:X:X:X:X&X:X",
":XCX4XCXCX>X2X2X2X2XCXCXCXCXCXCX5XX       >X>X2X2X  @ i / ^ / c ~ @.#.@.~ >   ;X-X-XX         -X:X:X:X-X>X2X2X>X:X:X-X;X:X:X:X:X",
":X5XCX5XCXCXCXCXCXCXCX4X4XCXCXCX  % : $ : + X X     @ u j ] ..v ~ @.#.#.' < X     O . $ $ $ @ X :X:X:X:X&X&X&X&X:X:X:X:X:X;X:X:X",
":X5X5XCXCX4XCXCXCXCXCX4XCX5X4XX . d 4.*.1.f . % 4 3 4 6 6 h v ` [ #.+.k 8 4 4 4 3   d o.1.-.{ .   :X:X:X:X:X:X;X:X:X-X:X:X:X:X:X",
";X4XCX4XCXCXCXCXCXCXCXCXCXCX+ X . g 5.-.4.z # , 7 0 9 4 9 s j ` [ #.+.f 3 9 6 7 6 X a &.;.;.} @   X -X:X-X:X:X:X:X:X;X:X:X;X:X:X",
";X4X4XCXCXCXCXCXCXCXCXCXCXCXX : l l l v ^ ` ] [  .z 3 4 4 6 0 z x d 7 9 9 6 d  . .[ _ ( v v c x u   :X;X:X:X;X:X:X:X:X:X:X:X:X-X",
";X5XCXCX4X>X>X>X>X>X>X:X>X>XX # s s j h a ^ ` ` ( f 4 0 0 9 0 x c d 9 0 9 6 0 _ ` ] / s s j h a 2   :X:X:X:X:X:X:X:X:X:X:X:X:X:X",
":X5X4X4X4X=X&X&X;X=X=X=X&X&Xo . # < / 2 # a v f 7 9 3 , , , 3 } } d , , , 3 4 0 d ^ s : u j a # @ X :X-X:X;X:X:X:X:X:X:X:X-X:X;X",
":X5XCXCX4X=X=X:X:X;X;X;X;X;XX X   # s < > 2 p f f f B S R T Z b { A T T D B z f d a 2 < 1 i 1 X X X :X:X:X:X:X:X-X:X:X:X:X:X:X:X",
":X5X4XCX4X:X-X:X:X:X=X;X&X&X:X;Xo o @ 2 h < # f  .o.=.].MXgXdXn V h.hXkXlX2.$.] ( , > s u # @ X :X:X:X:X:X;X&X:X:X;X:X-X&X:X:X:X",
";X4XCXCX4X;X:X:X;X:X4X2X4X>X;X:X:XX X > a u 7 ^ =.u.{.xXDXdXh.V V E dXMXAX{.l.&. .a u a < . X X :X:X:X:X:X:X;X:X:X:X:X:X-X:X:X:X",
";X4X4XCX4X:X:X:X:X:XCXCXCX4X=X:X;X;XX .   s ` +.8.{.GXAXAXy + f h , C gXDXFXAX5.&.[ x :   + ;X:X:X:X:X:X:X:X:X;X*X:X;X:X:X:X;X:X",
";X4XCXCXCX:X:X:X-X:XCXCXCXCX&X&X&X;XO $ : ( $.2.S.nXGXDXDXt X B A ; y fXFXGXGXi.8.$._ u $ O :X<X:X;X:X:X:X:X:X:X:X:X-X-X-X-X-X:X",
";XCXCXCXCX=X&X=X-X:XCXCXCX4X&X&XX o   z [ &.:._.ZXFXGXDXSXH = ! ! t y fXFXGXGXZXxX8.-.$.x $ O + :X:X:X:X-X:X:X-X-X-X=X=X=X&X&X-X",
":X:X>X:X>X4X3X2X3X2X>X:X:X2X4X4XO 3 q { &.8.i.[.BXAXDXAXZXH - T T t H fXDXSXDXBXxXi.3.-.} M 5 + O * ;X:X-X:X-X-X2X3X3X3X2X4X3X:X",
":X;X=X-X:XCXCXCXCX3X*X-X:X:XX O . M A.C.t.`.vXvXxXlXgXhXjXe * * = * t ! kXgXhXXXvXbX|.Z.C.A.>.    X X :X-X-X-X-X5XCXCXCXCXCXCX-X",
":X:X:X:X:XCXCXCXCX5X-X-X*X>X. 3 N ,.y.w.7.`.[.XXXXzXzXzXzXf.E r e Z f.fXzXzXzXvXXX.X`.7.w.t.9.N m   X *X:X:X-X-X5XCXCXCXCXCXCX;X",
":X:X:X:X:XCXCXCXCX5X-X-X&X<X. m S.r.t.7.4.p.).XXvXNXBXcXXX.X.Xt r ~..XXXvXBXBXvXXX[.l.8.7.e.r.9.,.  . *X:X:X-X-X4XCXCXCXCXCXCX;X",
":X:X:X:X:XCXCXCXCXCX-X-X&X:X. m C.r.7.:.$.3.p._.[.xXcXcXNXNXNXf.f.}.cXcXcXnXcX{.[.p.3.=.-.6.w.y.,.  X *X:X*X-X&X4XCXCXCX4XCX4X:X",
":X:X:X:X:X>X:X:X:X:X-X*XO O . m C.q.:.&...&.4.p.[..XnXBXBXBXBX.XxXcXBXBXnXnXxX[._.8.-...$.;.w.r.,.X X X 3X5X3X3X:X:X:X:X4X5XCX;X",
":X:X:X:X:X-X=X=X-X=X:X:XO 5 N ,.w.6.:.X.) $.4.w.`.`.xXxXnXnXnXk.k.zXBXnXcX.X{.S.i.5.&._ ..;.5.q.9.N m . 5XCXCXCX:X:X=X=X4XCX5X:X",
":X:X:X:X:X:X:X:X:X-X:X:XO M y.r.;.;.4. .j  .-.7.e.a.]..XbXxXxXE E ].xXxXxX[._.t.w.4.X.c } -.;.;.6.C.>.. 3XCXCXCX:X:X:X-X4X5XCX&X",
":X:X:X;X:X:X:X;X:X:X:X-X  M r.e.:.*.X.c 2 b  .-.6.a.].[.xX.X.Xg.g.]..X.X.X]._.7.4.o.( u z  .$.4.6.y.>.. 3X5XCXCX>X=X:X&XCXCXCX:X",
":X$X$X$X$X$X$X$X$X$XX + @ N w.7.;...h >   2 x  .4.p.[._.).)._.).).).).)._.)._.:.&.l i @ : s _ -.6.r.>., + X :X:X4X4X4X4X:X:X:X:X",
":X$X'. X X X X X$X$X  7 N ,.6.1. .b < #   u c  .=.u.S.S.S.S.s.s.s.s.s.S.s.s.i.*...v i @ # > h } o.7.2.N m O *X&X4XCXCXCX:X:X:X:X",
";X$X$X X X$X$X'.$X$X  N A.C.;.X.h 1       u l ) X.2.C.t.e.e.e.e.0.e.0.e.e.e.0...] ^ a @     : h _ :.0.A.N @ -X-X4XCXCXCX:X:X:X:X",
":X$X$X$X$X$X X$X$X$X  M 1.5.-.%.j u   X X @ : s (  .2.q.y.y.t.t.t.t.t.t.e.7.1./ c : $ O     > x ] 4.4.0.N @ :X=X3X4XCXCX:X:X:X:X",
"=X;X=X;X=X;X;X;X;X;X  z %.4.4.%.j i   =X=X    2 c / ..3.Z.t.t.t.t.t.e.e.0.4.*.v s .   X     > x ` 4.;.5.z @ :X:X:X:X:X:X:X:X:X:X",
":X:X:X:X:X-X:X:X:X:X  g *.*.} h # @ :X-X=XX   2 v ) X.9.Z.t.t.t.t.e.t.t.0.4.-.v s .   =X=XX . : u _  .5.z & *X-X-X-X:X-X:X:X-X:X",
"-X;X:X:X:X:X;X:X:X-X  z *.%.x i   X ;X=X=X    < x / ..2.Z.t.t.t.t.t.e.t.w.4.&.x a . X =X-X=XX . : l } 5.z @ -X-X-X-X:X:X:X:X:X:X",
":X:X:X:X:X:X:X-X:X-X  g *.&.x i     :XX       @ < a ) o.=.r.y.t.e.t.e.7.4. .^ > #         :X:X  # l } 5.z & :X:X:X:X:X:X-X:X:X-X",
":X;X:X:X:X&X;X:X:X:X  g *.&.v u o   ;X. # .     . < h ^ ] q.Z.t.t.e.7.4.X.c i       . @ @ X o o > v } 5.z @ -X-X-X:X:X-X:X:X:X:X",
":X:X:X;X:X:X:X:X;X-X  g *.%.c a & %   > i #       @ < h / 9.y.t.e.7.1.X.b 2 #       @ i > . + & 7 l } 5.z @ -X-X:X:X:X:X:X:X:X:X",
"-X:X-X:X:X-X-X:X:X:X  g 1.o.h d 0 , @ i ^ 2 # .     . u l 9.Z.t.e.6.&.( i .       @ < v s : , 6 d s } 5.z . -X-X:X-X:X:X:X*X:X:X",
":X:X:X:X:X:X:X:X-X-X  g *. .: $ 4 7 a v ` v a :     . i k 9.Z.Z.w.5.*._ a #     . i j ` ^ s u 6 , # z 5.g & *X-X:X-X:X-X-X:X:X:X",
":X&X:X:X:X:X-X:X-X-X  f o.{     4 d c _ ../ j <     . u n 9.9.r.3.8.o.( p @     @ h ^ [ ` v f 6 - . d 1.g & *X-X:X:X:X:X:X:X:X:X",
":X:X:X-X:X;X:X-X:X:X    @ @       & 6 f v < .       X e H H H H H H H H G O         > j z 7 -       . @     :X:X:X-X:X-X:X:X-X:X",
":X:X:X;X:X:X:X:X;X;X              @ 3 d j >         * F 7XL L L P L L 7XK =         : s a 6 &               :X:X:X:X:X:X:X:X;X:X",
":X:X:X:X;X;X:X:X;X;X:X:X              . . & 3 % X e K 0XiXaXiXuXrXtXiXiXeXL F     4 & @ .                   :X:X:X:X:X:X:X:X=X:X",
":X;X-X:X;X&X&X&X&X;X:X:X          . : : < 1 7 $ * e 7XeXaXiXiXrXrXtXiXaXtX7XK X . 7 7 > : : @           :X:X:X>X:X:X:X-X:X:X:X:X",
":X:X:X:X;X'.'.'. X$X:X:X          # a v _ v h < * G uXyXaXyXuXeX0XrXyXiXiXwX8XX @ s c _ ^ s <           3XCXCXCX:X-X:X:XCXCXCX:X",
"-X:X:X:X=X X X X$X$X:X:X  . : > 2 s `  ..._ x 6 e 7XpXiXaXrXwX6XJ qXrXiXaXtXqXe ; h ^ [  .` b u < : @   3XCXCXCX:X=X:X:XCXCXCX:X",
":X:X:X:X=X X'.'. X$X:X*X  : s v _  .-.$.[ ~ c V G 9XaXaXaXeX9Xw e 6XeXiXaXiXtXG H k ^ ] $.*.$._ ^ h 1   3XCXCXCX:X:X;X=X4XCXCX:X",
":X:X;X;X=X%X$X$X$X%X*X@X  # a x [ ..*...] k p H 7XeXaXaXaXeX9Xw w J eXiXaXaXiX7XK p j )  .$.X.] ^ a 1   3XCXCXCX2X:X>X:X4XCXCX:X",
"-X;X:X:X:X:X:X:X:X:X*Xb.b.O . > l c v v v < . K wXtXaXaXaXeX9Xw w J 9XiXaXaXaXuX8X* > x v c c c a   o CXQ.E.CXCXCXCXCXCXCXCXCX2X",
":X:X:X-X-X:X:X:X:X:X*Xb.b.X   @ a i i i a #   J uXyXiXaXaXeX9Xw = 6XeXiXaXpXpXsX8X= $ u a i a i 1     5XQ.E.CXCXCXCXCXCXCXCX5X>X",
":X:X:X:X:X:X:X:X:X:X:XR.J.+X&XX               K uXwXuXpXaX0X9Xw = 6XeXiXiXuXuXuXqX*               1X1X1XT.T.1X1XCXCXCXCXCXCXCX-X",
":X-X:X;X;X:X:X:X:X:X*XW.K.E.V.V.-X-X-X@XW.  X K wXwXwXyXiX0X9Xw = J 0XtXtXuXuXuX8X*   Q.W.J.P.U.G.G.F.T.B.B.H.I.VXCXCXCXCXCXCX:X",
":X&X:X-X:X:X:X:X=X=X*XW.K.R.V.V.=X=X;X@XR.  X P uXyXtXeX0XeXeXw w 6XeX9XeXtXyXuXqX= X J.P.P.L.L.I.I.H.P.N.N.P.I.<X2X3X2X3X2X2X:X",
":X:X:X;X;X:X:X&XM.M.J.K.K.R.F.H.E.Y.Y.T.B.  . F P Y W Y Y J F = * F J I Y W W J G * X x.x.v.~.~.L.F.U.n.x.x.D.I.@X&X&X&X*X&X-X:X",
":X:X:X:X:X-X:X:Xm.b.F.K.W.R.H.H.H.P.X *       X 9 B 8.o.' 8 = * X * 8 ~ $.=.,.= *         X O !.L.H.H.n.x.x.D.I.*X-X:X:X-X-X:X:X",
":X&X&X&X&X&X&X&Xm.b.J.W.W.R.F.H.P.F.X C Q ! Q W W f.z.O.| :   ~.~.X , n O.g.z.R R Q Q ! T ; X !.L.H.H.n.x.c.D.I.@X*X&X&X&X&X-X-X",
":X2X>X>X>X>X>X:XY.P.n.c.c.n.G.F.+ +   Q MXAXMXkXgXhXgXf.C % . }.}.  - q E dXhXgXhXMXMXAXj.; X L.^.!.^.^.F.D.P.I.*X>X>X>X>X2X2X:X",
":XCXCXCXCX3X(.oXF.I.n.x.x.c.I.F.  $ 2 D k.k.k.j.h.h.h.U V %   }.}.  % 9 Z Q j.h.j.k.k.k.d.m : . ^.!.!.L.H.F.G.I.1XCXCXCXCXCXCX:X",
":X5XCX5XVX3X(.oXF.U.n.c.c.c.I.I.  > c z h j x B Z Z Z q 4 .   }.}.  O 3 7 C Z Z Z x x x k x u   ^.^.^./.U.Y.CXCXCX5XCX4XCX5XCX:X",
":X5X5XCXCXVX(.oXF.I.M.b.m.m.I.I.  # u d p u 2 0 V V q V V @ . ^.!.  + 0 V V V V q 2 u d p 2 , X oXoXoXOX,XVXCXCXCXCX5XCX4XCXCX:X",
":X4X3XVXCX1XOXoXF.P.M.b.b.m.G.G.  O ; ; 9 3 - 4 8 6 6 C S %   ~.!.  - V Z 0 8 6 9 - - 9 9 ; +   (.OXoXOX,X,X>X>X4X4XCX4XCXCX4X;X",
":X5XCXCXCXCX(.oXY.Y.P.M.M.M.I.F.X t ! Q j.W R W E S V C Z %   ~.~.X - V Z V C E E R W j.h.Q T X ^./././.(.OX;X=X4XCXCXCX4XCX5X:X",
"-X5XCXCXCXCX#X}.(.(.Y.G.I.I.I.F.+ R DXSXDXMXjXjXhXh.C Z Z %   ~.<.  - V Z U E jXkXjXmXSXDXFXdX+ !.!.!.!.!./.:X&X4X4XCX4XCXCXCX&X",
":X:X:X-X:X:X:X;X;X;X:X;X;X:X;X;XO e T C T y y y y r ; ; 9 o   *X*XX X 8 r ; ; t y y y y y T t + :X:X:X:X:X:X:X:X;X&X-X:X;X:X:X:X"
};
