/* XPM */
static char *_c2f67914b89402792dda13a2f0c108d1HhsH2gI9zRAj90V[] = {
/* columns rows colors chars-per-pixel */
"64 64 239 2 ",
"   c #020102",
".  c #0B0302",
"X  c #05050A",
"o  c #0A060A",
"O  c #0B0809",
"+  c #130402",
"@  c #1B0401",
"#  c #150A05",
"$  c #1C0C02",
"%  c #14050F",
"&  c #150B08",
"*  c #1A0C08",
"=  c #1F1009",
"-  c #050918",
";  c #1D1615",
":  c #230501",
">  c #2C0601",
",  c #260A02",
"<  c #2A0A01",
"1  c #330500",
"2  c #340A01",
"3  c #3B0C01",
"4  c #350F08",
"5  c #25130A",
"6  c #2D160E",
"7  c #33160E",
"8  c #3A1608",
"9  c #310C11",
"0  c #261714",
"q  c #311810",
"w  c #311F1F",
"e  c #3F2008",
"r  c #070D28",
"t  c #091231",
"y  c #3C1931",
"u  c #282424",
"i  c #3D2626",
"p  c #430A00",
"a  c #4C0B00",
"s  c #4B0904",
"d  c #5C0001",
"f  c #540C00",
"g  c #5C0D00",
"h  c #491508",
"j  c #571307",
"k  c #4E1418",
"l  c #670102",
"z  c #640E00",
"x  c #6B0E00",
"c  c #730F01",
"v  c #7A0F00",
"b  c #6D1101",
"n  c #681506",
"m  c #731100",
"M  c #7B1400",
"N  c #781B05",
"B  c #572506",
"V  c #6D390E",
"C  c #422A2A",
"Z  c #583736",
"A  c #5A3939",
"S  c #613E3E",
"D  c #7B4211",
"F  c #030C48",
"G  c #0D194A",
"H  c #081459",
"J  c #0A145B",
"K  c #321857",
"L  c #192E4D",
"P  c #172A57",
"I  c #162C5D",
"U  c #222A5A",
"Y  c #041163",
"T  c #162C63",
"R  c #172E6C",
"E  c #162C76",
"W  c #193076",
"Q  c #1A317B",
"!  c #282962",
"~  c #65255A",
"^  c #6F315F",
"/  c #6E565A",
"(  c #870C00",
")  c #9D0900",
"_  c #821500",
"`  c #8B1600",
"'  c #831A02",
"]  c #8C1900",
"[  c #831909",
"{  c #941A00",
"}  c #961A04",
"|  c #9C1C00",
" . c #A60700",
".. c #B60600",
"X. c #A31C00",
"o. c #AB1E00",
"O. c #A01F09",
"+. c #B71E00",
"@. c #9D2202",
"#. c #9C2B00",
"$. c #973003",
"%. c #A42201",
"&. c #AB2601",
"*. c #B42300",
"=. c #BB2500",
"-. c #B52904",
";. c #BD2A00",
":. c #AB3000",
">. c #AC3E06",
",. c #B93404",
"<. c #A72111",
"1. c #D90701",
"2. c #EE0100",
"3. c #F70100",
"4. c #C42B00",
"5. c #C92C00",
"6. c #D12E00",
"7. c #C43502",
"8. c #CD3200",
"9. c #D43400",
"0. c #D83600",
"q. c #D53B01",
"w. c #DB3A00",
"e. c #E53501",
"r. c #E63D00",
"t. c #E83F00",
"y. c #955C19",
"u. c #B45311",
"i. c #DB4807",
"p. c #D2570F",
"a. c #E64202",
"s. c #EA4201",
"d. c #EC4B05",
"f. c #E64D08",
"g. c #F24601",
"h. c #EB5208",
"j. c #ED5309",
"k. c #EE5C0E",
"l. c #F45407",
"z. c #F15509",
"x. c #F35C0C",
"c. c #F05F10",
"v. c #C96213",
"b. c #DA6C17",
"n. c #DB7018",
"m. c #F5630E",
"M. c #F9680F",
"N. c #E86011",
"B. c #F36712",
"V. c #EB7318",
"C. c #F97618",
"Z. c #866C70",
"A. c #8E7476",
"S. c #46AD0A",
"D. c #4AAC0F",
"F. c #4EB40E",
"G. c #5AB912",
"H. c #6FAE29",
"J. c #5CD80F",
"K. c #6FC517",
"L. c #69D815",
"P. c #75D918",
"I. c #6DDB23",
"U. c #79EA28",
"Y. c #8EBA38",
"T. c #FA831E",
"R. c #F88722",
"E. c #81CF1C",
"W. c #8CD81D",
"Q. c #91DA1D",
"!. c #90F21C",
"~. c #A0FC1F",
"^. c #90CE28",
"/. c #8AD822",
"(. c #94D625",
"). c #92D921",
"_. c #A6D236",
"`. c #8BE62C",
"'. c #9DF320",
"]. c #A5F923",
"[. c #AFF131",
"{. c #8D9D4F",
"}. c #90974E",
"|. c #939D55",
" X c #92AA4A",
".X c #95A84F",
"XX c #A6B155",
"oX c #B8BE5A",
"OX c #BEBC60",
"+X c #F0BE5F",
"@X c #D0B870",
"#X c #F0BF60",
"$X c #B3C751",
"%X c #BECC61",
"&X c #C4C95F",
"*X c #E5D65E",
"=X c #CDCF6D",
"-X c #F0C261",
";X c #F0CB64",
":X c #EFD665",
">X c #EBD965",
",X c #F0D667",
"<X c #F0D867",
"1X c #F0D768",
"2X c #F0D868",
"3X c #F3DE71",
"4X c #CDE46D",
"5X c #EAE26F",
"6X c #EAE776",
"7X c #F4E075",
"8X c #F6E57C",
"9X c #F8E77F",
"0X c #F7E87F",
"qX c #F8E87F",
"wX c #0F2689",
"eX c #122784",
"rX c #1B348A",
"tX c #0D2295",
"yX c #1B3596",
"uX c #051DB6",
"iX c #0922AD",
"pX c #1D37A7",
"aX c #0822B7",
"sX c #1832B3",
"dX c #203CAE",
"fX c #203CB4",
"gX c #223DBC",
"hX c #1031C3",
"jX c #233FC1",
"kX c #1A42CC",
"lX c #2241CA",
"zX c #2143D0",
"xX c #998485",
"cX c #AF989B",
"vX c #BC9BA3",
"bX c #CBAFB4",
"nX c #F6E880",
"mX c #F8E981",
"MX c #DBC6C6",
/* pixels */
"2X<X2X1X2X<X2X<X<X<X2X2X2X2X2X2X2X2X2X2X2X2X<X<X2X2X2X2X1XX X X > s >   2X2X2X2X,X<X<X,X,X2X<X2X1X2X<X2X1X2X2X2X2X1X2X2X2X2X2X2X",
"2X7X7X7X3X7X7X7X7X7X7X7X7X7X7X7X7X7X7X7X7X3X<X<X2X<X<X2X1XX : 1 f z 1   2X2X1X,X;X,X;X,X2X2X2X2X2X2X2X,X7X7X7X7X2X<X2X2X2X1X2X2X",
"2XmXmXmXqX:X:X:X:X2XmXmXmXmXmXmXmXmXmXmXmX8X,X<X2X2X2XX X   l  .( z 1   X 2X1X2X5X<X2X1X<X2X2X2X2X2X2X,XmXmXmXmX2X2X2X2X1X2X1X2X",
"2XmXmXmX9X2X2X2X,X2XmXmXmXmXmXmXmXmXmXqXmX9X,X<X2X2X2XX : 1  .1. .f p : + X 2X2X2X2X2X1X2X2X<X2X2X<X<X,XqXmXmXmX2X2X2X2X2X2X2X2X",
"2XmXmXnX9X:X2X,X:X2XmX9XmXmXmXmXqXmXmXmXmX7X:X<X:X:XX   l .. .( a : f _ 2   1X1X2X<X1X1X2X2X<X2X2X<X2X:X9XmXmXmX2X<X2X2X2X2X2X2X",
"2XmX9XmX9X7X7X7X7X7XmXmXmXmXmXmXqX9X7X7X7X7X7X8X7XX + :  .2. .z 3 : b =.3   1X1X2X<X1X1X<X2X2X<X2X2X<X<X3X7X3X7X2X2X2X2X>X1X1X2X",
"2XqXmXqX9XmXmXmXmXmXmX9XmX9XmXmXqX7X:X<X:X2XmXmXmX. d 2.2.3. .v ` X.` b >   1X1X<X<X<X<X2X2X<X<X2X2X2X2X:X:X:X<X2X2X2X2X2X1X2X2X",
"2XqXqXmXmX9XmXmXmXmX9XmXqXmXmXX O # # # & O X   . . l 3.2.3. .M { o._ g >   O   o O # # # # o <X2X<X1X2X1X1X1X1X2X2X2X>X2X2X2X2X",
",X9X9X9XmXmXmXmXmXmXmXmXmXmXX   5 v.b.b.D $ # 5 0 6 9 0 [ =.+.o.` m h 6 6 6 0 0   , y.b.b.y.<   2X2X2X2X2X2X2X2X2X2X2X2X2X2X2X2X",
"2X9XmXmXmXmXmXmXmXmXmXmXmXmXo : h N.m.M.u.B 8 h h q 8 q n } X.| _ g h 8 7 0 h h 8 B p.m.m.p.h : o 2X<X2X2X<X2X2X2X2X<X2X2X<X<X2X",
"2XqX9XmX9X3X3X3X7X3X3X3X3X3X# | &.s.d.s.i.v.u.%.N ; 8 c h q j M h 6 j n 8 0 ' %.u.p.i.s.d.a.*._   2X<X2X2X<X2X2X2X2X2X2X2X2X2X2X",
"2XqXmXnX9X:X:X:X,X:X:X:X:X<X+ m ] 9.0.9.i.m.i.o.' h n v c n b x n j n c j 8 ] o.h.k.i.9.9.7.] b . 2X2X2X2X2X2X2X2X2X2X2X2X<X2X2X",
"2XqXqXmX9X:X<X<X2X2X2X2X1X1XX @ 2 -.=.*.5.s.7.M _ | ] g  .1.` m [ | _ z x g x M i.i.5.-.=.X.3 @ X 2X2X2X2X2X>X2X2X<X1X2X2X2X2X2X",
"2XqXmXnX9X2X2X2X2X<X,X,X:X:XX   + b ] X.=.9.-._ } 6.%.g ..2.) m ` X.{ M { | _ _ 4.6.=.| ] g #   X 2X2X2X1X1X2X2X2X2X2X2X<X2X2X<X",
"1X9XmXmX9X2X2X2X,X2X9X7X8X7X2X2X& . p | *.*.*.o.;.s.-.z { +.` c x M { *.7.r.*.o.*.*.*.{ 3 O o <X2X2X2X2X1X1X1X2X2X1X2X<X2X<X1X2X",
"1X9X9XmXqX2X2X2X2X2XmXmXmX9X<X2X2X  , b { o.*.;.9.s.4.m { | ` _ m m | 5.0.g.5.;.*.X.{ z ,   ,X<X2X2X2X2X1X1X1X2X<X2X2X2X1X2X2X2X",
"1X9XmXmXmX2X2X2X1X2XmXmXmXmX:X<X<XX o   a | 5.r.t.s.9.+.` x { o.` m -.g.r.r.s.r.4.| 1 X X 2X2X2X2X2X2X,X2X,X2X2X2X<X2X2X,X2X2X2X",
"2XmXmXmXmX:X:X:X<X2XmXmXmXqX:X:X:XX * , b &.9.r.s.t.0.4.O._ { | ` ] ;.s.r.s.s.r.4.| g > & X 2X2X2X2X1X2X2X2X2X2X:X,X:X:X:X:X:X2X",
"2X2X3X2X3X9X9X7XqX7X2X2X2X7XqX8XX   2 | 6.r.s.r.t.t.t.t.5.+.M x ` *.8.s.r.r.s.r.*.o.+.` >   X X X 1X1X1X<X2X<X<X7X9X8X8X8X8X8X,X",
"2X1X:X<X2XmXmXmXmXqX1X<X1X2XX X # a b X.4.r.s.j.d.t.g.x.w.8.%.{ *.8.w.s.d.j.a.s.8.5.q.>.N p + X O 1X1X1X2X2X<X,XqXmXmXmXmXmXmX2X",
"2X2X2X2X2XmXmXmXmXqX<X1X2Xo X   + } X.X.4.w.l.M.m.e.z.C.k.t.4.o.4.r.r.r.x.C.d.s.r.a.B.N.,.[ @   X 2X2X<X2X2X<X<XqXmXmXmXmXmX9X1X",
"2X2X2X2X2XmXmXmXmXqX>X1X1X  . f b i.i.8.9.r.d.x.h.t.d.x.d.t.0.8.f.c.h.r.h.x.s.s.r.s.j.j.f.,.N a X 2X2X2X2X2X<X<X9XmXmXmXmX9XqX2X",
"2X2X2X2X2XmXmXmXmXmX<X1X1X  + } -.B.x.a.r.s.s.s.t.t.t.t.t.t.r.r.N.C.k.r.s.a.s.r.r.r.s.f.B.N.-.(   2X2X2X<X<X<X,X9XmXmXmX9XmXmX,X",
"1X1X2X2X2X3X2X2X2X2X1X1X1X  + p.p.x.f.9.9.t.t.r.t.t.t.t.t.t.t.s.j.c.d.t.j.B.a.s.s.r.9.9.f.c.i.u.    X <X8X8X8X8X2X1X2X2X9XqXmX2X",
"1X1X1X2X2X<X<X,X<X:X2XX X # 6 V.C.s.9.o.;.w.s.s.r.s.r.r.t.s.s.t.t.t.r.s.B.R.d.t.r.w.=.-.9.d.V.b.# O X X 0XmXmXmX2X2X<X<XqXmXqX1X",
"1X1X2X2X2X2X2X2X2X1X2XX * V y.N.x.g.9.} o.5.0.r.d.B.j.r.h.c.f.s.r.s.r.s.k.N.d.t.9.4.| X.9.d.k.N.D V & O 0XmXmXmX2X1X1X1X8XmXmX1X",
"1X1X2X2X2X2X2X2X<X,X2X  e n.T.r.r.s.;.m M X.4.r.z.R.B.e.c.R.k.s.t.t.a.t.t.t.e.r.=.o.c M 7.s.r.d.R.n.$ O 8XqXqXmX3X<X<X<XmXmXqX1X",
"1X-X-X;X-X-X-X-X-X;X2XO 8 v.C.a.w.&.' 3 f _ &.w.d.k.h.r.h.c.d.t.s.t.r.s.d.c.d.r.%._ p a ] -.q.s.C.v.$   3X2X2X<XqXqX9X8X2X2X2X1X",
"1X-X+X#X#X#X#X#X#X-XX X h v.M.g.q.M s + > g @.r.t.e.r.t.r.r.e.t.r.s.r.s.M.C.l.t.] g : @ s ' q.g.C.v.,   O >X>X<XqXmXmXmX2X2X2X2X",
"1X-X-X#X+X-X#X+X-X  5 D u.f.f.@.M > @ . 1 z { =.9.s.t.r.t.r.k.V.j.r.t.s.d.d.8.;._ z : . @ 3 ' &.h.f.u.D = O <X<X0XmXmXmX2X2X2X2X",
"1X;X+X-X-X-X-X-X-X  h u.R.f.8.m f +     > z ` o.4.t.r.t.t.r.B.C.c.r.s.r.r.t.=.o.` z :     @ g _ w.a.R.y.6   2X1X7XmXmXmX2X1X2X2X",
"1X1X:X1X1X1X,X1X1X  8 u.z.f.w.M g .     + @ p M %.g.s.r.z.C.k.f.d.t.s.r.8.=.} _ 1 @ O     @ g ' r.a.l.u.< X 2X2X2X2X2X2X2X2X2X2X",
"2X2X2X2X1X2X2X2X2X  8 :.g.i.8.b f .   X     : x } t.r.r.B.C.c.s.r.r.t.r.4.o.M x +   X X   @ f M q.w.g.#.< X <X<X<X<X2X2X2X2X<X2X",
"2X2X>X2X1X<X2X2X2X  3 :.r.@.M > : X 2X1XX   > c { 4.8.s.f.j.x.x.j.t.t.r.4.+._ m @   ,X,XX O : 1 ] @.g.#.< X <X<X<X<X2X2X2X2X2X2X",
"2X2X1X2X1X1X2X<X2X  3 :.9.M g     1X1X1X    : g m o.=.r.r.e.z.M.l.r.r.0.=.X.b g +   1X1X,XX   + z _ g.#.<   2X2X1X2X>X2X1X1X2X<X",
"2X2X<X2X2X2X2X2X2X  3 :.w._ g     1XX X     . > p _ | 4.9.r.d.d.d.r.9.=.| _ 3 : .       ,XX   . x _ t.#.< O <X2X2X2X2X2X1X1X2X2X",
"2X<X2X2X2X2X2X2X2X  8 :.w.M g O   X o @ +       @ z M | 5.s.s.d.s.r.4.} m g .       + + o X . @ z _ g.#.,   <X2X2X<X2X2X2X1X2X2X",
"2X2X2X2X2X2X2X2X2X  3 :.w.M z 5 =   @ f 1 .     . @ p v -.r.z.m.z.w.*.c p @ .     . p p @ o * 6 x _ s.#.<   2X2X2X2X2X<X2X<X2X2X",
"2X<X<X2X2X>X1X1X<X  3 :.q.M g 7 5   : m f @ .       > z &.w.c.B.j.w.%.g :       . @ z z : . 5 8 g M s.#.<   <X2X2X2X2X2X2X2X>X2X",
"2X2X2X2X2X1X1X<X<X  8 :.7.<         3 X.{ c 3     . > v | =.=.=.=.+.{ x >       a b X.] 2         < a.#.< X <X2X2X<X2X2X2X2X2X2X",
"2X2X2X2X2X<X2X2X1X  4 %.,.$         2 { ` x p       , n [ <.%.@.@.@.[ j <       a b | _ >         $ 9.$.< X 2X2X2X2X2X2X2X2X2X2X",
"<X2X<X2X1X2X2X2X1X    # @             + + + .       r U P U U U U U ! I r       . . # +             @ +     2X2X<X2X<X2X2X,X2X2X",
"2X2X<X2X,X,X<X2X1X                              X - t R T T W Q E T T T t - X                               2X>X2X2X2X2X2X2X,X2X",
"2X2X2X2X1X,X,X,X:X                              - P I T T I rXdXrXP T T P G -                               2X3X2X2X2X2X3X2X2X<X",
"2X<X2X2X,X+X+X+X+X                      . : @   t rXW I W Q pXsXyXQ R T W rX-   @ : +                     X mXmX2X<X1X1XmXmXmX2X",
"2X2X2X2X,X#X#X#X+XX X                   : f p   t jXyXP rXfXaXuXsXdXrXT yXgXr   a f @                   X X mXmX2X<X1X1X9XmXmX2X",
"2X2X2X2X,X#X+X+X+X-X1X          . 3 3 3 f c k r G fXrXP yXjXtXwXiXfXrXI yXfXt r g x f 3 3 2 .           X mXmXmX2X1X<X:X9XmXmX,X",
"2X<X1X2X,X;X-X-X;X;X1X          @ { | | ] v k P T R R I wXuXF - Y iXeXT R R T P k M { | X._ @           8XmXmXmX7X2X3X2X9X9XmX2X",
"2X<X2X2X2X2X5X<X2X2X*XX       @ 2 | X.o._ g y Q E I T I wXuXF   Y iXeXI T I Q Q k g ` X.o.` 1 @         [.[.mXmXmXmXmXmXmXmXmX5X",
"2X2X1X1X2X2X<X<X2X2X>XO X   . m v c x v p + G fXpXI T I wXaXF X Y iXeXI T I dXgXr + f v x b v z     X X ].[.mXmXmXmXmXmXmXmXmX2X",
"2X1X1X1X<X1X1X1X<X2X<X'.'.  . a f a a f 1 . G fXfXQ Q I tXaXF X J iXeXT Q Q dXgXr . 3 f a a f p     6X6X`.`.6X6XmXmXmXmXmXmXmX2X",
"2X1X1X1X2X2X1X1X2X2X<X].'.X X               G fXlXlXyXL wXuXF X Y iXE I pXzXlXfXr               X X W.`.U.U./.).6XmXmXmXmXmXmX2X",
"2X>X<X2X2X<X1X1X1X1X<X].'.'.X       X o     G gXjXgXdXE tXuXF X Y iXtXeXsXlXgXfXr     X X X X X (.).)./.I.U./.Q.5X7X8X7X8X7X8X<X",
"2X2X<X<X2X2X1X1XP.L.'.].].~./.(._._._.`.    G jXzXlXhXuXuXaXF X Y aXuXaXhXkXzXlXt   E.D.D.H.|.|.^.).).K.D.D.E.).*X:X:X<X<X<X<X<X",
"2X<X2X<X2X2X<X2XL.J.P.~.].'.).Q.).).).U.    r J ! ^ ~ ~ K Y r X t J K ~ ~ ^ ! J -   P.D.F.H.|.|.^.W.).K.D.D.E.).*X2X<X<X<X<X<X<X",
"2X<X<X,X:X:X:X:XL.J.!.].~.'.).).X X X       X X 4 <.<.-.k % X X X % n <.O.<.9 X       o X X |.|.^.W.).K.D.D.E.).*X<X:X:X:X:X<X<X",
"2X3X3X3X3X3X2X>X_./.K.G.G.G.(.).X X o & & & & * 7 N N [ 2 . X @XX . 3 N N N 6 * % & * & X X ^.(. X.X.XY.W.E./.).>X7X7X7X3X7X3X<X",
"2XmXmXmXmXnX$X$XW.).K.S.S.G.).X X . + 6 6 6 6 6 6 6 0 q #     @XX   * 6 0 6 6 6 6 7 7 5 #   X X  X|.|.Y.Q.W.).).6XmXmXmXmXmXmX<X",
"2XmXmXnXmXnXoX$XQ.).K.F.S.K.).X . 1 p h j j h 6 6 6 6 q &   X @X    * q 6 6 6 q h h j h p > O    X.X|.Y.(._.nXnX0XqXmXqXmXqXmX2X",
"1XmXmXmXnXnXoX$XW.).P.L.J.L.).  + x c c x c j 6 6 6 6 q #     .XX   * 7 6 6 6 6 z x c x v g +   oX%X$X%X4XnXmXmXmXmX0XmXqXmXqX2X",
"1XmXnXmXmX8XoX$XW.W.L.J.J.L.Q.  O < 7 h h 2 < * & & & * o   X .X    o * # * & * < 3 h h 8 <     oX%XoX%X4X4X8X3XqXmXmXqXmXqXmX<X",
"2XmXmXmXmXmXOX$X_._.^.P.P.P.).    O o 5 & O   O               }.                O o * * O     X .XXXXXXX$X&X,X:XqXmXqXmXqXmXmX1X",
"1X9XmX9XmXmX=X&XoXOX_.).).).W.  ; xXxXA.Z.Z./ C i i i C 5   - y.o   0 C i i i C / A.Z.A.xXZ.;   {.{.{.{.{.XX1X<X8XmXmXqXqXmXqX1X",
"2X1X1X1X1X1X3X1X1X1X2X2X2X1X1X  u MXbXvXvXvXA.A Z A A S u O - <X  o u A A A A A xXvXcXvXMXbXu   2X1X<X<X1X1X1X1X<X<X2X1X1X1X1X1X"
};
