/* XPM */
static char *f190f502d0e74b75b0787f75be5de91dlQtc1T6lqK4PViCf[] = {
/* columns rows colors chars-per-pixel */
"64 64 136 2 ",
"   c black",
".  c #440000",
"X  c #4C0000",
"o  c #530100",
"O  c #5A0400",
"+  c #5D0900",
"@  c #630B00",
"#  c #6A0E00",
"$  c #671200",
"%  c #6C1400",
"&  c #6E1900",
"*  c #741600",
"=  c #741B00",
"-  c #7B1D00",
";  c #651917",
":  c #752100",
">  c #7C2500",
",  c #7F2800",
"<  c #762008",
"1  c #7B2408",
"2  c #831E00",
"3  c #832501",
"4  c #8B2500",
"5  c #812900",
"6  c #8B2D00",
"7  c #902C00",
"8  c #8D3101",
"9  c #8F3509",
"0  c #943301",
"q  c #9B3501",
"w  c #9D3903",
"e  c #973B0A",
"r  c #993C0A",
"t  c #A92F00",
"y  c #A33500",
"u  c #A93500",
"i  c #A53B01",
"p  c #AD3E00",
"a  c #B13F00",
"s  c #BA3D00",
"d  c #A64107",
"f  c #AE4103",
"g  c #A5460D",
"h  c #A8470C",
"j  c #A8480E",
"k  c #B34100",
"l  c #B94602",
"z  c #B54905",
"x  c #BC4A03",
"c  c #AE4C10",
"v  c #B14F11",
"b  c #B65414",
"n  c #B95614",
"m  c #BE5915",
"M  c #CA4501",
"N  c #C24D04",
"B  c #CB4B01",
"V  c #C55005",
"C  c #CD5406",
"Z  c #C5530A",
"A  c #CD5608",
"S  c #C7580E",
"D  c #CC590C",
"F  c #D15706",
"G  c #D25807",
"H  c #D05708",
"J  c #D35B0A",
"K  c #D95E09",
"L  c #C45D15",
"P  c #CD5F12",
"I  c #D7600D",
"U  c #DC620C",
"Y  c #C76118",
"T  c #CC651A",
"R  c #CE681B",
"E  c #D36314",
"W  c #DA6612",
"Q  c #DD6914",
"!  c #D1691B",
"~  c #DE6E19",
"^  c #DD721E",
"/  c #E1630A",
"(  c #E8680A",
")  c #F77506",
"_  c #F7790D",
"`  c #F8790D",
"'  c #E36D16",
"]  c #E77117",
"[  c #E3711A",
"{  c #E9761C",
"}  c #EB781E",
"|  c #F97E14",
" . c #E67B22",
".. c #ED7D22",
"X. c #F78118",
"o. c #F9821D",
"O. c #FF891F",
"+. c #ED8125",
"@. c #F58526",
"#. c #F98522",
"$. c #F38827",
"%. c #FE8B25",
"&. c #F78728",
"*. c #F68A29",
"=. c #FA8A29",
"-. c #FC8B28",
";. c #FB8C2B",
":. c #FD8D2A",
">. c #FC8D2B",
",. c #FF8F2B",
"<. c #FE912C",
"1. c #FF922D",
"2. c #FF952D",
"3. c #FF992F",
"4. c #F88E34",
"5. c #F89036",
"6. c #ABAE56",
"7. c #F0C260",
"8. c #EFD665",
"9. c #EFD768",
"0. c #F0D767",
"q. c #F0D768",
"w. c #F0D868",
"e. c #F0D969",
"r. c #F1DB6C",
"t. c #F3DE71",
"y. c #F4E073",
"u. c #F4E074",
"i. c #F5E378",
"p. c #F7E67D",
"a. c #F8E77F",
"s. c #F8E87F",
"d. c #F8E881",
"f. c #F9EA83",
"g. c #F9EA85",
"h. c #FAEB86",
/* pixels */
"w.w.w.w.w.w.w.w.w.w.w.w.w.w.w.w.w.w.w.w.w.w.w.e.w.w.w.w.w.w.w.w.w.w.w.8.w.w.w.w.w.w.w.w.w.w.w.w.w.w.w.w.w.w.w.w.w.w.w.w.w.w.w.w.",
"w.u.u.u.y.y.y.y.y.y.u.u.u.u.u.u.                                                                                              w.",
"w.d.g.g.s.8.8.8.0.w.g.d.h.h.h.    #.o.#.#.#.#.#.#.#.#.#.%.#.#.#.#.%.#.%.#.#.#.#.#.#.o.@.#.#.#.#.#.o.#.#.#.#.@.#.#.@.#.%.{ M   w.",
"w.s.d.d.s.w.w.8.8.r.d.d.s.d.    #.o.o.#.=.#.#.#.#.&.%.:.%.%.%.-.%.%.%.%.%.%.=.:.-.=.#.$.#.&.#.-.%.-.-.-.-.#.#.#.#.#.&.%.} B   w.",
"w.d.d.d.s.8.0.8.8.w.d.s.d.    #.o.=.-.{ ' @.:.=.=...n b n n n n n n n n n m E E E P  .,.=.:.$.m m E E E P  .=.=.=.&.] ] U s   w.",
"w.s.s.d.s.u.i.u.u.i.d.d.    #.o.| 1.1.] B } :.:.:. .: = = : = = & = : : = > u u y y Q 1.=.1.+.> > u p u y W :.=.;.$.J C V u   w.",
"w.s.d.s.d.d.d.g.h.d.d.    o.#.:.^ j j r w g g c +.$.! ! m q f l z z k y q f ^ ] ^ ] m g h c g w y f p Z ] ..*.&.[ W N x k 2   w.",
"w.s.s.d.s.d.d.d.s.d.    #.) o.2.! & = : : : & >  .:.,.5.[ u N K J I K k i Z :.2.2.3.v $ = = > p k f y P 5.,.,.=.U B k k y *   w.",
"w.s.d.s.s.d.s.d.d.    #.o.X.@.$.T 5 5 5 5 5 1 9 ..,.&.>.~ p Z J J J C z p Z &.=.@.*.v : 5 5 6 p l k p E ,.#.&.&.E B f p y *   w.",
"w.s.s.d.d.g.d.g.    o.@.#.1.+.9 8 p i l V N N B ..;.;.4.=.@.#.&.#.&.+.$...&.=.! 5 5 w p f u f N J ....@.1.] K U x k 6 6 6 *   w.",
"w.s.s.d.p.t.t.    o.o._  . .R > 6 l l C / W K W &.&. . . . ...+...&.=.%.:.=.:.! 9 5 i k k k l J ' =.1.&.@.E N V k y 5 > 5 *   w.",
"w.s.d.d.p.8.    1.4.1.$.r 1 8 p l J N ] 1.@.&.&.=. .9 5 5 5 w k k { :.=.&.&.=.&.@.$.P p p u z ..;.&.=.{ J x f k 8 , , , 5 *   w.",
"w.s.d.d.p.    o._ o.1.;.9 & > i l A Z ] 1.1.1.1.2. .1 = = = 8 p p  .5.1.-.,.;.=.=.4.E u u i k &.,.=.5.{ G N a k 6 > 5 , 5 *   w.",
"w.s.s.d.    #.#.o.*.^ Y d 0 i S K Q ' ' { ! T T R L w w w q k x x E ~ [ ~ [ { ..=.=.E k S S P $.$...{ W N f q y 6 > > , > *   w.",
"w.a.d.    o.X.o.=.:.e % N F U ;.:.=.,.' B 6 & & & 5 A J H F A F A a y y y p B W =.>.' B } :.:.1.@.F J B k 0 > > , , 5 6 6 *   w.",
"w.s.    #.o.@.#.=.=.T n ~ ] { =.=.=.=...] Y n n b L [ ] ] ] ] ] [ W E E E W '  .=.=.} ' &.:.&.] W N N f 0 6 , , 5 > % $ = *   w.",
"w.a.  5.` o.=.=.&.=.:.:.=.:.=.&.=.&.&.;.;.:.<.:.,.,.>.=.>.;.=.=.=.,.,.:.,.;.;.;.&.&.&.=.&.;.$.J N p k q > > > > 5 > O o @ *   q.",
"w.d.  4.o.=.&.#.&.&.&.=.*.=.&.&.=.&.&.$.&.&.=.=.&.&.&.=.&.&.&.&.&.&.&.&.&.&.&.$.=.=.&.&.&.&.@.K B k k q > 5 5 5 5 5 + o @ *   w.",
"w.r.  5.#.&.;.=.=.=.&.;.=.&.=.=.=.=.=.;.=.=.=.=.&.=.>.*.=.=.=.=.=.=.&.=.=.=.;.=.=.=.=.=.;.:.@.x p 6 6 6 5 5 5 5 $ @ O o @ *   w.",
"w.w.  5.o.&.$.$.&.$.$.$.&.&.&.&.&.&.#.#.=.@.@.$.&.$.$.#.&.$.&.$.&.&.&.&.&.&.$.#.&.&.&.&.$.=...x q > > > > 5 5 > @ o o o @ -   w.",
"w.w.  5.#...J K K K I K K K I K E K K K K K K I K K I K J K K K K K I I K K P K K K I I K K J J x 5 > 5 5 % + + O O O o @ *   q.",
"w.w.  5.#.} C C A A A C A A A A A C A A C C A C A A A A A A A A A C A C A C A A C C A C A C A I Z , , 5 6 $ X o o O o X @ *   w.",
"w.w.  5.#.} A H J A A A A A F A A A A H A A A J A A J A A J J A H A A H A J H A H H H H A J A F z 5 > > : % + @ O O # # * -   w.",
"w.w.  5.#.{ A F J J J J J J J J J J J J J J J J J J J A J J J J J J J J J J J J J J J H J J J l i 5 5 % X % 8 5 + O y l y *   w.",
"w.w.  5.#.} F C N V N V V V N V N V V V N V V V N V V V B V V V N V B V V V V V N V A J V V N k y , , - * = : * O + u x i *   w.",
"w.w.  5.#.} F N p a a a p p k p k p p p a a k a k p p a a a f p p k a a f p k p p p N J l p k k i , > q x 2 X o o O y l i *   w.",
"w.w.  5.#.} H N p p k k k k k k k k k k k a k k k k k k a k a a k k k a k k k k p p N J l p k k i 5 > q x - X o X + u x i *   w.",
"w.7.  5.#.{ F N p k q 0 0 0 0 0 0 0 q 0 0 0 0 0 0 0 0 0 0 0 0 0 0 0 0 0 0 0 6 i N N A J l p p k i 5 > 4 0 7 4 4 4 4 0 q 7 -   w.",
"w.7.  5.#...F N a k 8 > > > , > > > 1 , > > > > > > > > > > > > > > > > > > : w K K J A l p k k i 5 , , > w x l l k 5 > , *   w.",
"w.7.  5.#.} F N p k 6 > q y i x w @ + = 5 5 , 5 5 5 5 5 > 5 5 5 , 5 5 5 > 8 z z z z V K l p a k i 5 > , > 6 6 8 0 6 # + % *   w.",
"w.7.  5.#.} G N p f 6 > f k l / p X X % 6 5 , , 5 > 5 > 5 5 5 5 5 > 5 > : 0 U F p u N J l p k k i 5 , 5 5 5 > > , : O o @ *   w.",
"w.q.  5.#.} G N k k 6 5 i k l J p + + & , > , 5 5 5 5 5 5 > 5 > 5 5 5 5 5 q H N a p N J l a a k i 5 > 5 > > , , 5 > + o @ -   w.",
"w.w.  5.#.} H N a k 8 , p l k f l Z A 3 X & 5 , , > > > > , , , 5 : 1 x J V k k k k N J l p k k i 5 5 % o = 6 5 5 > O o @ *   w.",
"w.w.  5.#.} F x p k 5 = q i p p l J K q $ > 5 , 6 6 6 6 6 6 5 , , 6 0 Z J V f f i i N K l p k k i 5 5 = + % : : 5 > + o @ *   w.",
"w.w.  5.#.} F N k k * o > > 6 f k a p N J q : 6 i k f p f k 0 > > x K l p k k w > > h J x p p k i 5 > 5 5 $ o O > > + o @ *   w.",
"w.w.  5.#.} F N k k * X > 5 8 k k p p Z I q & , p l k k k l 0 : > x K k p f l y , , k K l p a k i 5 , 5 5 # o O - , O o @ -   w.",
"w.w.  5.#.} K N f k * o $ * = q i f a l V f i w q w k k p q w w i z N k k p w 4 % % p K l p k k i 5 > 5 5 $ o O - 5 O o @ *   w.",
"w.w.  5.#.} F x a k * o o X O > 0 l k a p V U J 5 > a l w = f U K l p k l i 6 & X . q U l p a k i 5 , , > $ o o > 5 o X @ *   w.",
"w.w.  5.#.} F N p k % o 3 4 2 $ = 0 0 i a z N x k d 0 0 0 0 f N x l p q 0 6 $ = 4 2 k K l p a k i 5 > 0 z - o O = 5 4 4 4 *   w.",
"w.w.  5.#.{ J x k k * o u N y X + , > q l p p f K C > = 0 k a p p k f 5 , = X * x l Z J l p k k u 5 : d ( 7 X o = 6 k N p *   w.",
"w.w.  5.#.} K N p k * o y x y O @ 5 > q k f f k A V 5 > 8 k k k f k p 5 , = o * l p N J l a a k i 5 : i U 4 X O : 6 p k y *   w.",
"w.w.  5.#.} F N k k % o y l p y 4 + + = 0 i k k l z x Z x p k k k q 6 $ O * q i k a N J l p k k i 5 , > * 4 y 0 5 > 6 6 0 q   w.",
"w.w.  5.#.} F x a k % o q k f l 7 O o % > q k p p k J I V a p f p 6 = + o % k l p p V J l p k k i 5 5 % . 4 x l 8 > , > 6 t   w.",
"w.w.  5.#.} F N a k * o 3 5 5 6 5 > > % + = 6 6 p k k k x J i 5 5 $ O : > > 5 5 5 5 k K l p a k i 5 5 % o 4 l f 6 > , , 5 -   w.",
"w.w.  5.#.} J N f k * o : , > > 5 5 5 $ . % > , p l p u x U d = : O o > 6 > > , > : h K l p k k i 5 5 & X 4 x k 6 > 5 5 5 *   q.",
"w.w.  5.#.} F N k k * X > 5 , , , , , - * 5 8 8 y i f p l A f 0 0 % @ > 5 , , 5 , > f K l p k k u 5 5 = % 4 p y 6 > > 5 5 *   q.",
"w.w.  5.#.} F N a k * o = , > > > > : f K x a p 5 6 l x k p N K K 0 : 5 5 , > > > > f K l a a k i 5 > 0 k 0 > 5 , 5 5 5 5 *   w.",
"w.w.  4.#.} A N a k % o 6 0 0 0 q r w l A l k f 3 5 4 4 0 k x V V f r 5 > 5 0 0 8 8 z K l p a k i , > 0 l 0 > > 5 , = = = *   w.",
"w.w.  5.#.} J x a a % o y x l p x K K N p p k k 8 = o . * x l p p J J 6 = 6 l l l k B J l p k k i 5 > 0 l 0 > 5 5 5 O X @ -   q.",
"w.w.  5.#.} K N a k % o 4 q q N N N N l k q 0 0 = $ % % * - 0 k k z x f f i 0 0 0 0 z J l p k k i 5 , 6 q 6 , 5 = $ % % % +   w.",
"w.w.  5.#.} F N a k * o = : 6 K A p p k k 6 , > o O 5 8 % X 2 l k p f J U Z > : > > h K l p a k i 5 > , > > 5 5 O o 5 8 = .   w.",
"w.w.  5.#.{ F x k k * o > , 6 J V p p k k 8 , > O + > 6 = X 3 l k p k A K x 5 > > > k K l p k k i 5 > , 5 5 5 > + o > 6 = X   w.",
"w.w.  5.#.} F N k k % o p Z x z l k k q 8 % + @ = : , 5 > : * # # y l l z z V d > : f K l p k k i 5 > 5 5 , , 5 > * @ X       r.",
"w.w.  5.#.} F N a k % O x U A k p f f 0 > @ o O , 5 5 , , 6 % X o 7 k p u l K x > 5 k J l p a k i 5 > 5 > 5 5 , 5 > ;       8.w.",
"w.q.  5.#.} K x a k 6 > p l k k i 5 6 = O & > > 5 , , 5 , > > > > # # y k k k l Z V A J l p k k u 5 , , 5 5 5 > +         w.w.w.",
"w.0.  5.#.} K N p k 6 5 i a p a q : : @ . & 5 > > > > : > > > , > o X q k p p x K K J J l p a k i 5 , 5 5 5 6 5 X       8.8.8.r.",
"w.t.  5.#. .V x p k 6 > i k k z p 0 0 3 * 6 0 0 0 0 0 0 0 0 0 0 0 - * k z k a l V V J A l p k k i 5 > , > > * >       t.t.y.t.8.",
"w.g.  5.#.' k p k k 6 > i k k K J J J J J J J J J J J J J J J J J J J J K C k a k p V K z p k k i 5 , 5 6 @ . X     g.d.d.h.d.w.",
"w.d.  4.#.] p p f a q 0 p k k N V V B V Z V N V Z N V V V V N V V V C V V N p p a p x Z l a k k i 5 , > &         d.d.d.s.d.d.w.",
"w.s.  5.%.[ p p a k k k p a k k k p f a p p k a a a p a p a a a p p f p p p k k a a p k a a a k i 5 5 % .       d.d.d.d.d.d.d.w.",
"w.s.  4.#.] p k k k k k k k k k k k k k k k k k k k k k k k k k k k k k k k k k k k k k k k k x u 5 6 $ .   i.y.s.d.d.s.s.d.s.w.",
"w.s.  4.O.Q 4 6 7 7 7 7 7 7 7 7 7 7 7 7 7 7 7 7 7 7 7 7 7 7 7 7 7 7 7 7 7 7 7 7 7 7 7 7 7 7 6 7 4 > *       w.8.s.d.s.d.d.s.d.w.",
"w.s.  4.O.T < 1 1 1 1 1 1 1 1 1 1 1 1 1 1 1 1 1 1 1 1 1 1 1 1 1 1 1 1 1 1 1 1 1 1 1 1 1 1 1 1 1 1 5 *     6.w.w.i.f.d.s.s.d.s.w.",
"w.w.                                                                                                    w.w.w.w.w.w.w.w.w.w.w.w."
};
